<svg xmlns="http://www.w3.org/2000/svg" version="1.1" xmlns:xlink="http://www.w3.org/1999/xlink" xmlns:svgjs="http://svgjs.dev/svgjs" width="500" height="500" preserveAspectRatio="none" viewBox="0 0 500 500"><g mask="url(&quot;#SvgjsMask1156&quot;)" fill="none"><rect width="500" height="500" x="0" y="0" fill="rgba(242, 125, 61, 1)"></rect><use xlink:href="#SvgjsG1160" transform="translate(0, 0)" fill="rgba(171, 89, 44, 0.24)"></use></g><defs><mask id="SvgjsMask1156"><rect width="500" height="500" fill="#ffffff"></rect></mask><g id="SvgjsG1157"><path d="M16.59 8.14l-5.24 9L7.27 15.41 10.1 5.39l4.98 2.11L17.53 4.48 18.02 4.88l-2.34 2.87 0.91 0.39zM7.18 10.68s0.74-1.32-1.38-2.22L2.43 7.03c-2.11-0.9-2.55 0.55-2.54 0.55l7.29 3.1zM-1.21 10.17s-0.74 1.32 1.37 2.22l3.37 1.43c2.11 0.9 2.55-0.55 2.55-0.56L-1.21 10.17z m7.26 2.29a0.68 0.68 0 0 0 0.89-0.36c0.15-0.34-0.02-0.74-0.36-0.89L-0.11 8.37C-0.45 8.23-0.86 8.39-1 8.73a0.68 0.68 0 0 0 0.36 0.89l6.69 2.84z"></path></g><g id="SvgjsG1158"><path d="M8.83 5.38c-0.21 0.48-0.87 0.81-1.44 0.57l-3.46 8.15c-0.49 1.16-2.07 0.49-1.58-0.67L5.81 5.28c-0.55-0.24-0.86-0.87-0.58-1.5L7.13-0.72c0.16-0.39 0.74-0.17 0.57 0.26l-1.41 3.32 0.47 0.2L8.18-0.29c0.15-0.36 0.7-0.15 0.54 0.24l-1.42 3.34 0.48 0.21L9.2 0.15C9.37-0.22 9.9-0.01 9.73 0.39l-1.42 3.33 0.49 0.21L10.22 0.58c0.16-0.37 0.71-0.16 0.54 0.25l-1.93 4.55zM14.53 3.65l-5.38 12.67c-0.48 1.13-2.05 0.44-1.58-0.67L9.7 10.62l-0.84-0.36L12.11 2.63c0.75-1.78 3.18-0.75 2.42 1.02z"></path></g><g id="SvgjsG1159"><path d="M12.88 14.58L-0.97 8.7c-0.52 1.23 0.17 2.19 0.93 2.51l10.48 4.45c0.9 0.38 1.98 0.01 2.44-1.08zM14.75 4.53L4.64 0.23l-2.82 6.64c-0.38 0.9 0.09 1.94 0.93 2.3l6.56 2.78c0.95 0.4 1.93-0.12 2.27-0.94L11.82 10.46c1.87 0.79 3.82-0.04 4.52-1.67 0.71-1.67-0.04-3.61-1.59-4.26z m0.39 3.75c-0.4 0.95-1.49 1.57-2.79 0.92L13.87 5.62l0.35 0.15 0 0c1.28 0.54 1.18 1.93 0.92 2.52l0-0.01z"></path></g><g id="SvgjsG1160"><use xlink:href="#SvgjsG1157" transform="translate(0, 0) scale(1.7)" fill="rgba(171, 89, 44, 0.24)"></use><use xlink:href="#SvgjsG1158" transform="translate(0, 95.2) scale(1.7)" fill="rgba(171, 89, 44, 0.24)"></use><use xlink:href="#SvgjsG1159" transform="translate(0, 190.4) scale(1.7)" fill="rgba(171, 89, 44, 0.24)"></use><use xlink:href="#SvgjsG1157" transform="translate(0, 285.6) scale(1.7)" fill="rgba(171, 89, 44, 0.24)"></use><use xlink:href="#SvgjsG1158" transform="translate(0, 380.8) scale(1.7)" fill="rgba(171, 89, 44, 0.24)"></use><use xlink:href="#SvgjsG1159" transform="translate(0, 476) scale(1.7)" fill="rgba(171, 89, 44, 0.24)"></use><use xlink:href="#SvgjsG1158" transform="translate(95.2, 0) scale(1.7)" fill="rgba(171, 89, 44, 0.24)"></use><use xlink:href="#SvgjsG1159" transform="translate(95.2, 95.2) scale(1.7)" fill="rgba(171, 89, 44, 0.24)"></use><use xlink:href="#SvgjsG1157" transform="translate(95.2, 190.4) scale(1.7)" fill="rgba(171, 89, 44, 0.24)"></use><use xlink:href="#SvgjsG1158" transform="translate(95.2, 285.6) scale(1.7)" fill="rgba(171, 89, 44, 0.24)"></use><use xlink:href="#SvgjsG1159" transform="translate(95.2, 380.8) scale(1.7)" fill="rgba(171, 89, 44, 0.24)"></use><use xlink:href="#SvgjsG1157" transform="translate(95.2, 476) scale(1.7)" fill="rgba(171, 89, 44, 0.24)"></use><use xlink:href="#SvgjsG1159" transform="translate(190.4, 0) scale(1.7)" fill="rgba(171, 89, 44, 0.24)"></use><use xlink:href="#SvgjsG1157" transform="translate(190.4, 95.2) scale(1.7)" fill="rgba(171, 89, 44, 0.24)"></use><use xlink:href="#SvgjsG1158" transform="translate(190.4, 190.4) scale(1.7)" fill="rgba(171, 89, 44, 0.24)"></use><use xlink:href="#SvgjsG1159" transform="translate(190.4, 285.6) scale(1.7)" fill="rgba(171, 89, 44, 0.24)"></use><use xlink:href="#SvgjsG1157" transform="translate(190.4, 380.8) scale(1.7)" fill="rgba(171, 89, 44, 0.24)"></use><use xlink:href="#SvgjsG1158" transform="translate(190.4, 476) scale(1.7)" fill="rgba(171, 89, 44, 0.24)"></use><use xlink:href="#SvgjsG1157" transform="translate(285.6, 0) scale(1.7)" fill="rgba(171, 89, 44, 0.24)"></use><use xlink:href="#SvgjsG1158" transform="translate(285.6, 95.2) scale(1.7)" fill="rgba(171, 89, 44, 0.24)"></use><use xlink:href="#SvgjsG1159" transform="translate(285.6, 190.4) scale(1.7)" fill="rgba(171, 89, 44, 0.24)"></use><use xlink:href="#SvgjsG1157" transform="translate(285.6, 285.6) scale(1.7)" fill="rgba(171, 89, 44, 0.24)"></use><use xlink:href="#SvgjsG1158" transform="translate(285.6, 380.8) scale(1.7)" fill="rgba(171, 89, 44, 0.24)"></use><use xlink:href="#SvgjsG1159" transform="translate(285.6, 476) scale(1.7)" fill="rgba(171, 89, 44, 0.24)"></use><use xlink:href="#SvgjsG1158" transform="translate(380.8, 0) scale(1.7)" fill="rgba(171, 89, 44, 0.24)"></use><use xlink:href="#SvgjsG1159" transform="translate(380.8, 95.2) scale(1.7)" fill="rgba(171, 89, 44, 0.24)"></use><use xlink:href="#SvgjsG1157" transform="translate(380.8, 190.4) scale(1.7)" fill="rgba(171, 89, 44, 0.24)"></use><use xlink:href="#SvgjsG1158" transform="translate(380.8, 285.6) scale(1.7)" fill="rgba(171, 89, 44, 0.24)"></use><use xlink:href="#SvgjsG1159" transform="translate(380.8, 380.8) scale(1.7)" fill="rgba(171, 89, 44, 0.24)"></use><use xlink:href="#SvgjsG1157" transform="translate(380.8, 476) scale(1.7)" fill="rgba(171, 89, 44, 0.24)"></use><use xlink:href="#SvgjsG1159" transform="translate(476, 0) scale(1.7)" fill="rgba(171, 89, 44, 0.24)"></use><use xlink:href="#SvgjsG1157" transform="translate(476, 95.2) scale(1.7)" fill="rgba(171, 89, 44, 0.24)"></use><use xlink:href="#SvgjsG1158" transform="translate(476, 190.4) scale(1.7)" fill="rgba(171, 89, 44, 0.24)"></use><use xlink:href="#SvgjsG1159" transform="translate(476, 285.6) scale(1.7)" fill="rgba(171, 89, 44, 0.24)"></use><use xlink:href="#SvgjsG1157" transform="translate(476, 380.8) scale(1.7)" fill="rgba(171, 89, 44, 0.24)"></use><use xlink:href="#SvgjsG1158" transform="translate(476, 476) scale(1.7)" fill="rgba(171, 89, 44, 0.24)"></use></g></defs></svg>