<?xml version="1.0" encoding="UTF-8"?>
<svg xmlns="http://www.w3.org/2000/svg" width="580.28" height="178.973" viewBox="0 0 435.21 134.23"><defs><clipPath id="clip1"><path d="M405 56h30.21v35H405Zm0 0"/></clipPath><clipPath id="clip2"><path d="M0 0h76v134.23H0Zm0 0"/></clipPath></defs><g id="surface1"><path d="M134.477 77.605c0 7.079 3.14 9.594 11.367 9.594 2.926 0 7.008-.332 10.07-.879l.48 3.473c-3.41.672-7.624 1.02-10.886 1.02-10.961 0-15.043-4.704-15.043-13.133V57.262c0-8.438 4.082-13.137 15.043-13.137 3.262 0 7.476.344 10.887 1.02l-.48 3.476c-3.063-.547-7.145-.887-10.071-.887-8.227 0-11.367 2.52-11.367 9.598m45.871 2.856c-3.473 1.492-7.286 4.015-10.489 6.124v23.82h-3.941V56.985h3.535l.207 5.036c3.54-2.305 7.078-4.56 10.207-5.711m10.887 14.897h16.613v-2.992c0-5.578-1.98-8.5-8.172-8.5-6.187 0-8.441 2.922-8.441 8.5Zm8.648 16.129c3.403 0 7.215-.672 10.477-1.559l.68 3.196c-3.055 1.086-7.41 1.84-11.434 1.84-9.324 0-12.312-4.829-12.312-12.047v-10.41c0-6.805 3.058-12.047 12.382-12.047 9.328 0 12.047 5.242 12.047 12.046v6.395h-20.488v4.145c0 5.925 2.043 8.44 8.648 8.44m39.738-26.331c-3.605-.754-7.14-1.156-10.347-1.156-4.352 0-6.117 2.172-6.117 6.664v15.117c0 3.808 1.226 5.637 5.71 5.637 4.09 0 7.622-1.7 10.755-4.215Zm-20.41 5.508c0-6.051 2.723-10.203 10.196-10.203 3.488 0 6.402.343 10.215 1.086V43.44l3.949-.543v47.235h-3.61l-.19-3.137c-3.34 2.527-7.505 3.817-11.177 3.817-6.457 0-9.383-3.204-9.383-9.184m35.93-24.644h3.953v33.149h-3.953Zm0-13.543h3.953v7.29h-3.953Zm19.457 43.082a43 43 0 0 0 7.625.676c7.145 0 8.856-2.988 8.856-7.957V65.906c0-3.945-1.774-5.785-6.133-5.785-4.008 0-7.215 1.09-10.348 2.86Zm20.422-7.421c0 7.421-3.273 11.71-13.27 11.71-2.863 0-8.023-.476-11.093-1.226V43.44l3.941-.543V58.82c2.73-1.425 6.406-2.511 10.89-2.511 6.669 0 9.532 3.812 9.532 9.664m28.387 9.937h-9.676c-4.55 0-5.906 1.36-5.906 5.719 0 3.875.8 5.637 5.441 5.637 3.262 0 7.14-1.282 10.14-3.395Zm3.945 14.223h-3.41l-.277-2.594c-3.188 1.984-6.868 3.273-11.223 3.273-5.856 0-8.57-3.328-8.57-9.261 0-7.004 3.199-9.18 9.73-9.18h9.805v-6.465c0-4.562-2.39-6.058-7.832-6.058-3.27 0-6.739.472-9.797 1.082l-.617-3.328c2.664-.747 6.8-1.293 10.215-1.293 8.566 0 11.976 3.406 11.976 9.597m31.164 24.227v-26.82c0-2.454-1.293-3.329-3.605-3.329-2.727 0-8.582 1.625-12.735 3.813v26.336h-3.941V56.984h3.469l.277 3c3.543-1.71 9.46-3.675 13.473-3.675 5.172 0 7.007 2.921 7.007 7.488v26.336m20.418-14.84c0 3.95 1.29 6.258 6.336 6.258 3.258 0 7.746-.399 11.696-1.086l1.43 8.91c-4.489.965-8.57 1.438-13.126 1.438-11.437 0-16.543-5.653-16.543-13.883V58.016c0-8.239 5.106-13.891 16.543-13.891 4.555 0 8.637.477 13.125 1.434l-1.43 8.918c-3.949-.684-8.437-1.098-11.695-1.098-5.046 0-6.336 2.32-6.336 6.262" style="stroke:none;fill-rule:nonzero;fill:#fff;fill-opacity:1"/><g clip-path="url(#clip1)" clip-rule="nonzero"><path d="M425.406 77.68v-8.24c0-3.129-1.636-4.898-5.164-4.898-3.543 0-5.172 1.77-5.172 4.898v8.239c0 3.125 1.63 4.898 5.172 4.898 3.528 0 5.164-1.773 5.164-4.898m-20.136-.278v-7.687c0-6.809 3.199-13.406 14.972-13.406s14.965 6.597 14.965 13.406v7.687c0 6.809-3.191 13.41-14.965 13.41-11.773 0-14.972-6.601-14.972-13.41" style="stroke:none;fill-rule:nonzero;fill:#fff;fill-opacity:1"/></g><g clip-path="url(#clip2)" clip-rule="nonzero"><path d="M75.703 133.684a68 68 0 0 1-8.586.546C30.102 134.23 0 104.121 0 67.117 0 30.105 30.102-.003 67.117-.003c2.871 0 5.723.183 8.563.538l-.012 18.106a49.3 49.3 0 0 0-8.55-.75c-27.145 0-49.223 22.09-49.223 49.226 0 27.13 22.078 49.211 49.222 49.211 2.89 0 5.758-.25 8.586-.738" style="stroke:none;fill-rule:nonzero;fill:#fff;fill-opacity:1"/></g><path d="M70.883 49.984c-9.84 0-17.836 8.008-17.836 17.836 0 9.836 7.996 17.836 17.836 17.836 9.828 0 17.84-8 17.84-17.836 0-9.828-8.012-17.836-17.84-17.836m0 53.57c-19.707 0-35.738-16.027-35.738-35.734 0-19.703 16.03-35.726 35.738-35.726 19.695 0 35.726 16.023 35.726 35.726 0 19.707-16.03 35.735-35.726 35.735" style="stroke:none;fill-rule:nonzero;fill:#fff;fill-opacity:1"/></g></svg>
