<svg xmlns="http://www.w3.org/2000/svg" xmlns:xlink="http://www.w3.org/1999/xlink" version="1.1" style="shape-rendering:geometricPrecision; text-rendering:geometricPrecision; image-rendering:optimizeQuality; fill-rule:evenodd; clip-rule:evenodd" viewBox="8.01 24.63 488.57 262.66">
<g><path fill="#ddd1c0" fill-opacity="0.012" d="M 79.9,272.11 c 0.03,2.46 0.06,4.92 0.08,7.38 c -0.3,0.53 -0.75,0.74 -1.36,0.65 c -23.06,-0.15 -46.12,-0.18 -69.18,-0.11 c -0.58,0.07 -1.03,-0.13 -1.35,-0.6 c -0.09,-2.32 -0.11,-4.63 -0.05,-6.94 c 0.35,-0.51 0.83,-0.72 1.44,-0.63 c 23.48,0.09 46.95,0.18 70.42,0.25 Z M 15.32,276.3 c -0.17,2.13 1.69,1.59 3.18,1.7 c 19.67,-0.02 39.35,-0.01 59.02,0.01 c 1.47,-0.16 1.77,-0.81 0.9,-1.95 c -0.62,-0.21 -1.25,-0.29 -1.9,-0.23 c -19.34,0.03 -38.68,0.03 -58.02,0.01 c -1.09,-0.02 -2.15,0.13 -3.18,0.46 Z"/></g>
<g><path fill="#e3d0b6" fill-opacity="0.02" d="M 216.01,271.1 c -2.66,3.14 -7.71,11.78 -1.35,13.75 c 0.44,0.09 0.79,-0.04 1.06,-0.38 c -2.91,-6.04 3.09,-9.18 3.04,-13.66 c 0.33,-0.53 0.72,-0.61 1.17,-0.22 c 0.23,1.06 0.47,2.11 0.71,3.14 c 1.27,0.17 0.97,-1.43 1.95,-1.86 c 0.89,-0.04 1.36,0.39 1.42,1.3 c -3.23,2.74 -5.93,5.78 -4.41,10.1 c -0.22,0.73 -0.55,1.39 -0.99,2 c -1.99,1.48 -1.86,2.7 -4.95,1.59 c -0.66,-0.71 -1.43,-1.27 -2.31,-1.69 c -0.58,-1.55 -1.11,-3.11 -1.61,-4.69 c -0.12,-2.51 2.14,-2.93 0.47,-5.42 c 2.07,-0.64 3,-2.05 2.77,-4.24 c 0.21,-1.65 3.1,-1.58 3.03,0.28 Z M 398,271.13 c -1.8,2.21 -3.18,4.65 -4.14,7.33 c -0.94,2.99 0,5.12 2.79,6.39 c 0.44,0.09 0.79,-0.04 1.06,-0.38 c -1.86,-4.09 0.44,-8.06 2.72,-11.45 c 0.27,-0.73 0.4,-1.49 0.37,-2.27 c 0.94,-0.51 1.65,-0.23 2.13,0.82 c 0.96,0.69 3,0.03 3.07,1.59 c -3.1,2.53 -6.01,6.08 -4.39,10.15 c -1.07,0.92 -2.08,1.93 -3.02,3.01 c -7.5,0.05 -7.15,-3.75 -5.83,-9.63 c -4.8,-3.21 -3.44,5.37 -7.99,3.92 c 1.3,-2.4 2.94,-4.5 4.95,-6.32 c 2,-1.31 1.46,-0.77 2.97,0.42 c 1.92,-0.19 2.44,-2.08 2.13,-3.75 c 0.72,-1.68 3.31,-1.79 3.18,0.17 Z"/></g>
<g><path fill="#ebcfa9" fill-opacity="0.082" d="M 138.15,280.06 c -1.88,-0.46 -3.42,0.03 -4.63,1.45 c -0.29,-0.39 -0.47,-0.82 -0.53,-1.3 c 1.67,-1.9 4.37,-6.51 7.48,-6.22 c 1,1.06 -1.7,5.06 -2.32,6.07 Z M 488.97,277.6 c 0.37,-1.47 -1.39,-1.74 -2.45,-1.71 c -19.68,0.02 -39.36,0.01 -59.04,0 c -1.51,-0.23 -2.37,0.4 -2.58,1.88 c -0.59,-0.18 -0.9,-0.59 -0.94,-1.22 c -0.16,-0.89 0.07,-1.64 0.69,-2.24 c 5.95,-0.26 11.91,-0.47 17.88,-0.62 c 10.33,0.08 20.65,0.19 30.98,0.33 c 3.97,-0.13 7.93,-0.23 11.9,-0.29 c 1.53,0.41 3.08,0.66 4.65,0.73 c 1.2,1.19 0.86,3.35 -1.09,3.14 Z"/></g>
<g><path fill="#ebcfa6" fill-opacity="0.992" d="M 15.32,276.3 c 1.03,-0.33 2.09,-0.48 3.18,-0.46 c 19.34,0.02 38.68,0.02 58.02,-0.01 c 0.65,-0.06 1.28,0.02 1.9,0.23 c 0.87,1.14 0.57,1.79 -0.9,1.95 c -19.67,-0.02 -39.35,-0.03 -59.02,-0.01 c -1.49,-0.11 -3.35,0.43 -3.18,-1.7 Z M 488.97,277.6 c -1.13,0.33 -2.29,0.46 -3.47,0.4 c -20.21,0.07 -40.41,-0.01 -60.6,-0.23 c 0.21,-1.48 1.07,-2.11 2.58,-1.88 c 19.68,0.01 39.36,0.02 59.04,0 c 1.06,-0.03 2.82,0.24 2.45,1.71 Z"/></g>
<g><path fill="#dad2c3" fill-opacity="0.008" stroke="#dad2c3" stroke-width="0.5" stroke-opacity="0.008" d="M 293.32,260.01 c -1.46,-0.37 -1.88,-1.29 -1.26,-2.74 c 3.91,-1.43 9.41,-2.31 13.38,-0.87 c 5.03,3.96 -2.27,10.65 -5.9,12.64 c -0.84,0.63 -10.97,5.39 -9.39,1.63 c 1.85,-3.11 3.83,-6.15 5.92,-9.12 c 2.13,-3.2 -0.84,-4.82 -2.75,-1.54 Z"/></g>
<g><path fill="#e1d1b7" fill-opacity="0.016" d="M 340.85,265.15 c 1.78,0.12 1.65,1.98 2.08,3.24 c 1.43,0.85 2.94,1.5 4.54,1.93 c 1.2,0.09 3,-1.44 3.6,0.34 c -4.5,1.86 -9.52,6.22 -7.87,11.62 c -1.26,0.6 -1.99,0.23 -2.17,-1.12 c 0.25,-0.72 0.06,-1.3 -0.56,-1.73 c -1.21,1 -2.54,1.82 -4,2.45 c -3.96,0.14 0.59,-7.12 1.54,-8.33 c 1.59,-1 3.32,-1.33 5.21,-1.01 c 2.91,-1.51 -1.27,-1.86 -2,-2.33 c -0.14,-1.67 -0.27,-3.36 -0.37,-5.06 Z M 126.19,271.08 c 0.19,0.64 0.6,1 1.24,1.06 c 1.12,-0.56 2.27,-0.98 3.46,-1.25 c 0.54,4.04 -3.03,8.99 -1.74,12.39 c 0.18,0.39 0.33,0.78 0.47,1.18 c -3.01,2.6 -3.86,1.65 -7.22,0.56 c -0.6,-1 -0.35,-1.68 0.76,-2.02 c 0.93,0.85 2.02,1.36 3.28,1.55 c -0.34,-1.63 -0.64,-3.31 -0.89,-5.05 c 0.14,-1.69 0.34,-3.36 0.61,-5.03 c -0.54,-2.02 -1.78,-1.59 0.03,-3.39 Z"/></g>
<g><path fill="#e1d1b5" fill-opacity="0.016" d="M 309.23,265.03 c 0.78,0.83 -0.04,4.75 -0.2,5.9 c -3.68,1.74 -6.39,4.43 -8.13,8.08 c -1.61,0.52 -0.66,-2.21 -1.4,-3.02 c -3.38,-3.4 -7.36,1.25 -11.68,-0.57 c 0.39,-0.71 0.95,-1.2 1.69,-1.49 c 8.05,0.28 14.63,-2.68 19.72,-8.9 Z M 332.14,283.58 c -1.35,0.74 -3.62,-0.17 -4.02,-1.65 c 2.34,-2.62 -0.64,-6.07 -2.8,-7.63 c -0.58,-1.91 0.15,-2.78 2.21,-2.6 c 1.18,0.61 2.33,1.26 3.44,1.98 c 0.87,0.2 1.69,0.06 2.45,-0.43 c 0.3,0.29 0.37,0.64 0.22,1.05 c -1.78,3.14 -2.89,5.73 -1.5,9.28 Z"/></g>
<g><path fill="#e8d1a2" fill-opacity="0.027" d="M 368.99,261.06 c -4.49,5.54 -11.42,14.29 -9.92,21.82 c -1.13,0.15 -2.42,-1.48 -3.11,-2.23 c 0.93,-0.82 0.83,-1.26 -0.3,-1.32 c -1.92,1.07 -8.38,4.44 -8.78,0.32 c 3.17,-3.23 9.87,-0.17 11.39,-7.37 c -0.01,-0.63 -0.31,-1.07 -0.88,-1.31 c 0.29,-0.43 0.68,-0.75 1.16,-0.96 c 3.66,-0.27 3.15,-1.1 3.9,-4.25 c 1.3,-1.92 2.84,-3.65 4.63,-5.2 c 0.83,-0.59 1.47,-0.43 1.91,0.5 Z M 188.22,276.77 c 1.24,-2.21 3.04,-3.76 5.42,-4.65 c 1.6,0 1.99,0.71 1.15,2.11 c -1.5,1.51 -4.38,3.29 -6.57,2.54 Z"/></g>
<g><path fill="#ead1a0" fill-opacity="0.973" d="M 375.69,257.8 c -0.06,0.95 -0.52,1.67 -1.37,2.16 c -3.71,3.53 -6.81,7.55 -9.28,12.05 c -2.29,3.52 -3.19,7.34 -2.7,11.47 c 0.18,0.76 0.63,1.25 1.35,1.48 c 0.12,0.37 -0.01,0.64 -0.37,0.81 c -2.03,-0.02 -3.45,-0.98 -4.25,-2.89 c -1.5,-7.53 5.43,-16.28 9.92,-21.82 c 2.16,-2.25 3.39,-3.39 6.7,-3.26 Z M 399.62,267 c 2.34,-1.18 5.6,-4.96 6.84,-6.12 c 4.73,0.34 0.48,6.05 -3.04,6.18 c -0.8,-0.21 -3.37,0.99 -3.8,-0.06 Z"/></g>
<g><path fill="#c0784a" fill-opacity="0.016" stroke="#c0784a" stroke-width="0.5" stroke-opacity="0.016" d="M 245.18,45.82 c 1.32,1.89 2.27,3.95 2.84,6.18 c -1.43,0.24 -4.06,-1.35 -3.5,1.43 c 0.05,2.51 1.29,3.44 3.72,2.81 c -1.01,3.39 -3.01,6.06 -6.01,7.99 c -1.79,0.08 -2.63,-0.73 -2.54,-2.44 c 0.53,-0.62 1.05,-1.23 1.59,-1.84 c 2.2,-4.23 3.35,-7.55 0.11,-11.76 c 3.05,-0.22 1.81,-1.72 3.79,-2.37 Z M 160.86,80.86 c 1.87,-0.14 0.68,2.56 0.65,3.5 c -0.4,0.29 -0.77,0.62 -1.1,0.98 c 0.24,3.05 0.33,6.12 0.25,9.19 c 0.06,1.03 0.5,1.86 1.31,2.5 c -0.42,0.72 -0.88,1.42 -1.37,2.1 c -2.85,-6.13 -2.77,-12.22 0.26,-18.27 Z"/></g>
<g><path fill="#e8cfac" fill-opacity="0.02" d="M 149.98,273.45 c -2.41,1.57 -6.41,7.62 -3.84,10.03 c -1.31,0.6 -2.36,3.19 -3.99,2.16 c -3.17,-4.75 3.44,-8.52 2.76,-13.08 c -1,-3.42 -5.64,-0.9 -7.4,0.46 c -1.42,-0.16 -1.72,-0.78 -0.89,-1.86 c 2.23,-0.65 4.47,-1.28 6.72,-1.86 c 1.14,0.82 2.25,1.69 3.34,2.6 c 1.21,0.31 3.34,-0.39 3.3,1.55 Z M 304.24,280.76 c 0.42,-3.14 7.53,-9.88 10.67,-8.31 c -1.95,1.99 -7.51,9.61 -10.67,8.31 Z"/></g>
<g><path fill="#ecd0a0" fill-opacity="0.957" d="M 137.51,273.02 c 1.76,-1.36 6.4,-3.88 7.4,-0.46 c 0.68,4.56 -5.93,8.33 -2.76,13.08 c -3.37,0.9 -4.5,-2.99 -4,-5.58 c 0.62,-1.01 3.32,-5.01 2.32,-6.07 c -3.11,-0.29 -5.81,4.32 -7.48,6.22 c -0.69,1.79 -1.96,2.81 -3.84,3.07 c -1.29,-3.4 2.28,-8.35 1.74,-12.39 c 0.51,-0.93 1.21,-1.05 2.1,-0.36 c 2.09,2.97 -0.82,7.18 4.52,2.49 Z"/></g>
<g><path fill="#c67745" fill-opacity="0.031" stroke="#c67745" stroke-width="0.5" stroke-opacity="0.031" d="M 153.74,72.38 c 0.35,0.73 0.84,1.34 1.47,1.83 c -5.04,6.13 -7.43,13.51 -2.51,20.57 c -0.22,0.39 -0.45,0.78 -0.67,1.17 c -0.29,-0.03 -0.58,-0.06 -0.87,-0.09 c -0.51,-0.86 -1.07,-1.68 -1.68,-2.45 c -0.16,-4.65 -0.18,-9.29 -0.06,-13.93 c 0.03,-0.22 0.06,-0.45 0.09,-0.67 c 1.58,-1.17 2.88,-2.59 3.92,-4.25 c 0.63,-0.49 -0.41,-2.45 0.31,-2.18 Z M 173.38,110.2 c 0.87,-0.16 1.74,-0.18 2.61,-0.07 c -0.7,1.01 -0.46,1.66 0.72,1.96 c 0.52,1 1.15,1.94 1.89,2.81 c 0.85,0.7 3.41,0.01 3.51,1.33 c -0.25,0.79 -0.36,1.6 -0.33,2.43 c -3.85,-1.79 -6.65,-4.61 -8.4,-8.46 Z M 232.14,143.93 c 0.34,-0.12 0.68,-0.24 1.02,-0.35 c 3.87,1.97 7.98,2.57 12.12,3.61 c 0.08,-0.01 0.16,-0.02 0.24,-0.02 c 0.08,0.69 -0.25,1.05 -0.99,1.08 c -2.28,0.55 -4.28,0.07 -6,-1.44 c -2.63,-0.7 -3.62,1.06 -5.21,-1.62 c -0.37,-0.16 -0.76,-0.25 -1.16,-0.29 c -0.01,-0.32 -0.01,-0.65 -0.02,-0.97 Z"/></g>
<g><path fill="#cd763b" fill-opacity="0.035" stroke="#cd763b" stroke-width="0.5" stroke-opacity="0.035" d="M 216.58,89.57 c 0.09,0.7 -0.1,1.32 -0.58,1.84 c -2.17,1.51 -4.18,3.19 -6.04,5.05 c -2.36,2.22 -4.55,4.57 -6.58,7.05 c -0.31,-0.18 -0.53,-0.44 -0.66,-0.78 c 4.03,-5 8.65,-9.39 13.86,-13.16 Z M 293.23,90.75 c 0.38,0.29 0.77,0.58 1.15,0.88 c 0.23,4.17 -3.03,1.78 -3.4,3.45 c -10.39,-1.8 -20.71,-1.41 -30.95,1.15 c 0.39,-0.97 0.62,-1.96 0.71,-2.98 c 9.94,-0.05 19.89,0.03 29.84,0.27 c 1.98,-0.25 1.31,-1.77 2.65,-2.77 Z"/></g>
<g><path fill="#e8d1a6" fill-opacity="0.031" d="M 200.95,269.04 c 0.59,4.33 -0.78,7.45 -1.79,11.49 c -0.14,0.98 0.03,1.89 0.52,2.73 c 0.02,-0.04 0.03,-0.08 0.04,-0.12 c -1.58,1.58 -5.55,0.15 -7.68,0.3 c 1.19,-0.54 5.78,-2.48 4.47,-4.23 c -1.09,0.41 -2.14,0.93 -3.16,1.55 c -1.27,0.36 -2.56,0.67 -3.85,0.93 c -1.33,-0.13 -3.15,-1.21 -1.9,-2.68 c 3.19,-0.44 6.19,-1.41 9.02,-2.91 c 1.15,-0.71 3.76,-4.61 1.31,-5.06 c 0.78,-0.97 1.79,-1.63 3.02,-2 Z"/></g>
<g><path fill="#ffffff" fill-opacity="0.031" d="M 289.28,176.91 c -0.33,0.52 -0.79,0.85 -1.38,1 c -0.13,-0.72 -0.58,-1.07 -1.35,-1.03 c -5.67,-0.05 -11.34,0 -17.01,0.16 c -0.42,0.35 -0.49,0.76 -0.19,1.24 c 1.26,1.74 2.1,3.65 2.55,5.75 c -2.61,-0.05 -5.21,-0.06 -7.82,-0.01 c -0.05,-2.18 -0.09,-4.36 -0.14,-6.55 c -0.07,-0.61 0.16,-1.08 0.67,-1.4 c 7.97,-0.05 15.93,-0.06 23.89,-0.03 c 0.44,0.14 0.7,0.43 0.78,0.87 Z"/></g>
<g><path fill="#e4d1ae" fill-opacity="0.024" d="M 321.18,272.62 c -0.49,3.25 1.32,4.33 3.48,6.2 c 2.26,3.36 -2.43,4.91 -4.64,1.71 c -1.63,-1.24 -2.01,1.06 -1.72,2.19 c 0.04,1.23 0.18,3.54 -1.74,3.25 c -1.42,-0.53 -2.76,-1.2 -4.03,-2.03 c -0.54,-1.66 -2.55,-1.61 -2.54,-3.27 c 0.81,-0.91 1.73,-1.61 2.75,-2.08 c -0.05,2.02 0.65,3.71 2.11,5.07 c 0.93,0.43 1.73,1.26 2.33,0 c -0.91,-2.84 -1.05,-5.73 -0.41,-8.68 c 0.85,0.3 1.7,0.57 2.55,0.83 c 0.34,-1.23 0.73,-2.43 1.17,-3.61 c 0.28,0.05 0.51,0.19 0.69,0.42 Z"/></g>
<g><path fill="#d47235" fill-opacity="0.031" stroke="#d47235" stroke-width="0.5" stroke-opacity="0.031" d="M 218.02,67.05 c -0.28,1.03 -0.98,1.62 -2.11,1.76 c -0.36,0.59 -0.56,1.23 -0.59,1.91 c -3.37,-0.49 -3.75,0.07 -6.07,1.97 c -0.93,0.01 -1.86,0.02 -2.78,0.01 c -1.6,0.03 -4.32,2.52 -5.46,0.6 c 5.45,-2.68 11.12,-4.77 17.01,-6.25 Z M 223,75.02 c -5.01,2.84 -9.91,5.88 -14.68,9.12 c -0.33,-0.75 -0.26,-1.45 0.21,-2.1 c 1.19,-0.9 2.52,-1.53 3.98,-1.89 c 0.9,-0.79 1.63,-1.71 2.19,-2.74 c 3.69,0.26 2.54,-1.63 4.91,-2.95 c 1.14,0.08 2.26,0.05 3.37,-0.09 c 0.01,0.22 0.02,0.43 0.02,0.65 Z"/></g>
<g><path fill="#e5701a" fill-opacity="0.031" stroke="#e5701a" stroke-width="0.5" stroke-opacity="0.031" d="M 294.74,84.77 c 0.77,-0.43 1.57,-0.51 2.41,-0.24 c 1.54,1.71 3.14,3.38 4.8,4.99 c 0.72,0.32 1.45,0.57 2.21,0.77 c -0.63,0.87 -0.87,1.84 -0.72,2.9 c -2.44,-3.27 -5.34,-6.08 -8.7,-8.42 Z M 181.69,86.78 c 0.19,0.81 0.1,1.6 -0.27,2.36 c -2.2,1.44 -2.52,3.7 -5.2,4.61 c 1.48,-2.59 3.31,-4.91 5.47,-6.97 Z M 314.98,144.99 c 1.41,-0.04 0.31,1.28 0.36,2.15 c -0.91,1.73 -2.07,3.26 -3.49,4.61 c -2.48,0.4 -1.46,3.79 -5.05,1.66 c 3.38,-2.18 6.1,-4.99 8.18,-8.42 Z"/></g>
<g><path fill="#efcea2" fill-opacity="0.976" stroke="#efcea2" stroke-width="0.5" stroke-opacity="0.976" d="M 256.99,279.46 c -1.07,0.08 -2.14,0.03 -3.2,-0.17 c -1.03,-2.54 -0.59,-4.8 1.31,-6.8 c 0.28,-0.2 0.55,-0.4 0.83,-0.61 c 1.66,-0.82 3.37,-0.93 5.13,-0.33 c 2.32,3.18 -0.55,7.33 -4.07,7.91 Z"/></g>
<g><path fill="#c47843" fill-opacity="0.027" stroke="#c47843" stroke-width="0.5" stroke-opacity="0.027" d="M 232.06,47.84 c 0.38,-0.17 0.77,-0.33 1.15,-0.5 c 3.53,2.55 7.73,5.77 7.2,10.67 c -0.71,0.14 -1.4,0.11 -2.09,-0.09 c 0.85,-1 1.06,-2.12 0.65,-3.36 c -0.92,-1.09 -2.01,-1.98 -3.26,-2.68 c -0.89,-1.28 -1.5,-3.23 -3.44,-3.01 c -0.07,-0.34 -0.14,-0.69 -0.21,-1.03 Z M 291.16,117.54 c 6.56,1.29 11.93,4.51 16.12,9.67 c -0.69,0.41 -1.4,0.47 -2.14,0.19 c -0.97,-1.36 -2,-2.67 -3.09,-3.93 c -1.04,-0.61 -2.18,-0.9 -3.4,-0.87 c -0.74,-0.68 -1.52,-1.26 -2.36,-1.76 c -0.07,-1.75 -3.3,-1.79 -4.43,-1 c -0.25,-0.76 -0.48,-1.53 -0.7,-2.3 Z"/></g>
<g><path fill="#e9d0aa" fill-opacity="0.02" d="M 365.04,272.01 c 0.19,0.04 0.37,0.07 0.55,0.11 c 0.37,1.17 0.83,2.3 1.36,3.39 c -1.69,2.19 -2,4.56 -0.93,7.09 c -0.35,2.26 -2.7,0.1 -2.33,2.36 c -0.72,-0.23 -1.17,-0.72 -1.35,-1.48 c -0.49,-4.13 0.41,-7.95 2.7,-11.47 Z M 417.11,276.97 c 1.72,-0.28 0.56,3.47 1.06,4.41 c 0.37,0.53 0.76,1.04 1.17,1.53 c -0.24,1.56 0.25,4.15 -2.31,3.6 c -0.75,-0.54 -0.83,-1.15 -0.25,-1.84 c 0.74,0.07 1.09,-0.27 1.03,-1.02 c -0.78,-2.16 -1.01,-4.39 -0.7,-6.68 Z"/></g>
<g><path fill="#cd743c" fill-opacity="0.043" stroke="#cd743c" stroke-width="0.5" stroke-opacity="0.043" d="M 172.83,117.68 c 3.87,1.92 9.92,4.03 14.21,3.05 c 0.76,0.38 1.55,0.41 2.36,0.11 c 2.65,3.29 6.65,6.79 10.65,8.22 c 0.26,1.7 -3.07,1.17 -4.03,1.31 c 0.41,-0.55 0.48,-1.12 0.19,-1.73 c -1.61,-0.81 -3.11,-1.8 -4.49,-2.96 c -0.58,-1.04 -1.35,-1.89 -2.31,-2.56 c -1.61,-0.34 -3.24,-0.57 -4.88,-0.7 c -1.9,0.28 -3.8,0.3 -5.69,0.08 c -0.42,-1.24 -1.27,-1.78 -2.57,-1.62 c 0.13,-1.53 -3.3,-0.36 -4.28,-0.93 c -0.04,-0.87 0.23,-1.62 0.84,-2.27 Z"/></g>
<g><path fill="#c67748" fill-opacity="0.039" stroke="#c67748" stroke-width="0.5" stroke-opacity="0.039" d="M 301.15,102.64 c -0.57,0.22 -0.94,0.63 -1.09,1.22 c -0.66,-1.9 -4.86,-0.89 -6.4,-1.17 c -0.8,-1.72 -2.18,-2.48 -4.15,-2.28 c -5.03,0.23 -10.05,0.31 -15.08,0.25 c -0.8,0.01 -1.46,0.33 -1.97,0.95 c -0.38,-0.5 -0.54,-1.08 -0.47,-1.73 c 9.24,-1.55 20.7,-1.94 29.16,2.76 Z"/></g>
<g><path fill="#e66f1f" fill-opacity="0.059" d="M 184.88,56.19 c 5.52,-0.29 11.07,-0.41 16.64,-0.35 c 0.81,-0.02 1.6,0.1 2.37,0.36 c 0.19,0.56 0.23,1.14 0.11,1.73 c -6.34,-1.29 -12.67,-1.26 -19,0.08 c -0.2,-0.6 -0.24,-1.2 -0.12,-1.82 Z M 152.7,94.78 c 1.45,2.08 3.25,3.78 5.4,5.11 c -1.27,-0.36 -2.5,-0.3 -3.7,0.18 c 1.06,-2.07 -0.88,-2.16 -2.32,-2.19 c 0.49,-0.66 0.47,-1.31 -0.05,-1.93 c 0.22,-0.39 0.45,-0.78 0.67,-1.17 Z M 280.09,112.14 c 2.45,-0.23 4.92,-0.34 7.42,-0.31 c 2.19,0 4.35,0.11 6.48,0.33 c -0.01,0.62 -0.01,1.24 0,1.86 c -4.66,-0.73 -9.33,-0.74 -13.99,-0.02 c -0.04,-0.63 -0.01,-1.25 0.09,-1.86 Z"/></g>
<g><path fill="#ec6d18" fill-opacity="0.075" stroke="#ec6d18" stroke-width="0.5" stroke-opacity="0.075" d="M 208.73,60.05 c 0.88,0.8 1.93,1.11 3.16,0.93 c 0.36,0.61 0.89,0.93 1.61,0.95 c 3.42,0.06 6.84,0.15 10.26,0.27 c 0.16,0.59 0.16,1.19 0.01,1.79 c -4.83,-0.62 -9.66,-0.56 -14.47,0.18 c 0.08,-1.3 -0.52,-2.02 -1.79,-2.18 c -4.35,0.13 -8.69,0.17 -13.03,0.13 c -0.99,0 -1.9,-0.27 -2.73,-0.8 c 5.61,-1.03 11.27,-1.45 16.98,-1.27 Z"/></g>
<g><path fill="#d37335" fill-opacity="0.027" stroke="#d37335" stroke-width="0.5" stroke-opacity="0.027" d="M 301.15,102.64 c 5.51,3.06 8.81,7.67 9.9,13.85 c 0.13,1.43 0.54,5.6 -2.13,4.03 c -1.93,-1.46 -3.99,-2.71 -6.17,-3.77 c 3.8,-3.78 4.48,3.44 6.47,0.78 c 0.21,-1.35 0.21,-2.71 0,-4.07 c -0.86,-1.01 -1.43,-2.17 -1.7,-3.48 c -2.23,-1.54 -3.15,-1.66 -4.79,-4.13 c -0.88,-0.69 -1.77,-1.35 -2.67,-1.99 c 0.15,-0.59 0.52,-1 1.09,-1.22 Z"/></g>
<g><path fill="#e26e24" fill-opacity="0.035" stroke="#e26e24" stroke-width="0.5" stroke-opacity="0.035" d="M 210.93,132.08 c 2.42,-0.43 2.63,0.3 4.46,1.43 c 2.04,-0.11 2.54,0.66 4.18,1.67 c 2.46,0.49 1.48,-2 0.81,-3.06 c 0.64,-0.17 1.29,-0.25 1.95,-0.25 c 0.78,2 1.84,3.85 3.16,5.55 c -0.25,0.89 -1.22,0.21 -1.81,0.28 c -2.97,-0.84 -5.91,-1.75 -8.83,-2.71 c -0.14,-1.22 -3.19,-1.77 -3.92,-2.91 Z M 231.62,136.38 c 0.78,-0.19 1.57,-0.24 2.36,-0.13 c 1.82,2.34 3.22,4.23 5.83,5.77 c 0.14,0.64 0.21,1.28 0.22,1.94 c -3.6,-1.66 -6.4,-4.18 -8.41,-7.58 Z"/></g>
<g><path fill="#da712a" fill-opacity="0.031" stroke="#da712a" stroke-width="0.5" stroke-opacity="0.031" d="M 233.84,25.94 c 0.16,0.73 0.06,1.42 -0.3,2.06 c -2.42,2.72 -3.73,2.37 -3.25,6.54 c -0.41,1.36 2.64,2.34 3.42,3.26 c 0.26,0.88 0.53,1.76 0.81,2.64 c 1.35,0.04 1.26,-1.46 1.4,-2.39 c 0.63,0.49 1.33,0.84 2.1,1.04 c 1.22,0.71 2.35,1.54 3.39,2.5 c -2.15,-0.24 -3.41,0.69 -3.78,2.77 c -2.34,-1.81 -4.58,-3.74 -6.73,-5.78 c -4.93,-4.49 -2.33,-10.07 2.94,-12.64 Z"/></g>
<g><path fill="#c97540" fill-opacity="0.039" stroke="#c97540" stroke-width="0.5" stroke-opacity="0.039" d="M 237.82,75.47 c -0.04,3.56 2.73,1.73 3.18,3.52 c -1.09,0.29 -2.03,0.81 -2.83,1.56 c 0.36,0.36 0.81,0.54 1.33,0.55 c 2.14,-0.52 4.31,-0.85 6.51,-1.01 c -0.63,3.36 -4.1,2.29 -6.51,1.99 c -2.1,-0.06 -4.57,1.03 -6.21,-0.84 c -1.78,0.09 -3.41,0.62 -4.9,1.61 c -0.58,0.03 -1.11,-0.12 -1.59,-0.46 c 3.67,-2.32 7.34,-4.62 11.02,-6.92 Z"/></g>
<g><path fill="#aa8161" fill-opacity="0.024" stroke="#aa8161" stroke-width="0.5" stroke-opacity="0.024" d="M 271.92,152.17 c 5.41,-0.15 12.36,-0.49 17.61,0.15 c 1.35,0.16 4.46,-1.69 4.48,0.67 c -7.35,2.11 -14.76,2.43 -22.25,0.96 c 0.27,-0.58 0.32,-1.17 0.16,-1.78 Z"/></g>
<g><path fill="#ead29d" fill-opacity="0.976" d="M 400.8,270.75 c 0.03,0.78 -0.1,1.54 -0.37,2.27 c -2.28,3.39 -4.58,7.36 -2.72,11.45 c -0.27,0.34 -0.62,0.47 -1.06,0.38 c -2.79,-1.27 -3.73,-3.4 -2.79,-6.39 c 0.96,-2.68 2.34,-5.12 4.14,-7.33 c 1.39,-1.16 0.85,-1.88 2.8,-0.38 Z"/></g>
<g><path fill="#ffffff" fill-opacity="0.753" d="M 488.96,166.15 c 0.34,-0.11 0.69,-0.22 1.03,-0.33 c 3.34,0.6 3.81,-0.29 1.41,-2.67 c -0.46,0.53 -0.74,1.15 -0.85,1.86 c -1.07,-1.39 -0.56,-4.52 -0.37,-6.19 c 0.85,0.32 1.72,0.4 2.62,0.24 c 0.27,0.57 0.71,0.95 1.31,1.15 c -0.47,1.4 -1.83,3.21 0.52,3.76 c 1.26,-0.67 0.68,-4.06 -0.52,-3.76 c -0.13,-0.73 -0.57,-1.11 -1.31,-1.15 c 0.07,-1.48 -1.91,-1.46 -2.8,-0.8 c -0.41,-0.16 -0.81,-0.32 -1.21,-0.49 c 6.26,-3.06 10.83,4.41 5.32,8.83 c -1.29,0.75 -4.56,1.52 -5.15,-0.45 Z M 490.97,159.86 c -0.07,0.71 0.11,1.34 0.54,1.88 c 0.76,-0.88 0.58,-1.51 -0.54,-1.88 Z"/></g>
<g><path fill="#e56e24" fill-opacity="0.035" stroke="#e56e24" stroke-width="0.5" stroke-opacity="0.035" d="M 274,75.98 c -8.32,-1.52 -16.61,-1.37 -24.86,0.46 c 0.04,-0.73 0.34,-1.32 0.91,-1.76 c 1.54,-0.13 3.05,-0.45 4.52,-0.96 c 5.98,0.17 11.96,0.27 17.95,0.29 c 1.19,0.14 1.69,0.8 1.48,1.97 Z M 297.89,157.65 c 0.14,0.77 0.15,1.53 0.04,2.3 c -1.64,0.13 -5.67,0.79 -6.62,-0.92 c 2.17,-0.22 4.36,-0.68 6.58,-1.38 Z"/></g>
<g><path fill="#d77332" fill-opacity="0.02" stroke="#d77332" stroke-width="0.5" stroke-opacity="0.02" d="M 199.02,74.32 c 1.65,2.82 0.41,1.95 -1.63,2.24 c -2,1.61 -0.73,2.31 -4.08,2.17 c -0.52,0.12 -0.74,0.44 -0.63,0.96 c -0.46,0.29 -0.95,0.46 -1.48,0.51 c -0.1,1.75 -3.49,2.43 -4.36,4.17 c -1.16,1.1 -2.51,1.53 -4.04,1.29 c 4.73,-4.73 10.14,-8.52 16.22,-11.34 Z"/></g>
<g><path fill="#d3733c" fill-opacity="0.024" d="M 304.16,90.29 c 0.91,0.02 -0.14,1.83 0.32,2.36 c 0.81,0.96 1.74,1.81 2.81,2.53 c 0.18,0.7 0.38,1.39 0.63,2.08 c 0.73,0.67 1.29,1.46 1.67,2.37 c -0.47,2 0.32,2.76 2.36,2.29 c 0.21,0.72 -0.44,2.34 0.74,2.26 c 0.61,1.03 2.93,3.79 0.25,3.84 c -1.01,-2.93 -3.93,-5.12 -5.55,-7.74 c -1.18,-2.44 -2.49,-4.8 -3.95,-7.09 c -0.15,-1.06 0.09,-2.03 0.72,-2.9 Z"/></g>
<g><path fill="#e7ceb6" fill-opacity="0.031" d="M 415.09,272.29 c 0.01,0.16 0.01,0.33 0.02,0.49 c -1.17,2.33 -6.96,7.84 -9.55,8.18 c -2.28,-2.52 6.48,-9.66 9.53,-8.67 Z"/></g>
<g><path fill="#ce7435" fill-opacity="0.02" stroke="#ce7435" stroke-width="0.5" stroke-opacity="0.02" d="M 234.04,107.37 c -5.01,3.23 -8.8,7.52 -11.37,12.86 c -0.74,-0.78 -0.92,-1.66 -0.54,-2.66 c 0.4,-0.88 0.97,-1.63 1.69,-2.26 c 0.24,-1.97 1.31,-3.22 3.23,-3.75 c 0.54,-0.79 1.06,-1.59 1.56,-2.42 c 1.22,-0.75 2.29,-1.67 3.22,-2.75 c 1.13,-0.45 1.86,-0.12 2.21,0.98 Z"/></g>
<g><path fill="#e6cfb1" fill-opacity="0.031" d="M 231.15,272.68 c 0.58,-0.03 1.16,-0.06 1.74,-0.1 c -0.19,1.72 -10.73,12.51 -9.91,7.06 c 1.82,-3.38 4.54,-5.7 8.17,-6.96 Z"/></g>
<g><path fill="#eecf9d" fill-opacity="0.965" d="M 200.95,269.04 c 0.93,0.5 1.78,1.13 2.52,1.87 c 0.37,1.28 0.74,2.5 1.1,3.67 c 1.99,-1.85 5.4,-6.43 8.41,-3.76 c 0.23,2.19 -0.7,3.6 -2.77,4.24 c -0.27,-2.51 -1.79,-1.37 -3.1,-0.37 c -2.25,2.54 -4.12,5.34 -5.59,8.41 c -0.58,0.36 -1.18,0.37 -1.8,0.04 c -0.01,0.04 -0.02,0.08 -0.04,0.12 c -0.49,-0.84 -0.66,-1.75 -0.52,-2.73 c 1.01,-4.04 2.38,-7.16 1.79,-11.49 Z M 231.15,272.68 c -3.63,1.26 -6.35,3.58 -8.17,6.96 c -0.82,5.45 9.72,-5.34 9.91,-7.06 c 1.1,-0.02 1.97,0.4 2.6,1.29 c -0.22,1.86 -0.43,3.74 -0.62,5.64 c 0.15,1.64 0.46,3.23 0.93,4.78 c -0.49,0.69 -2.29,-0.59 -2.81,-0.83 c -0.92,-1.22 -1.53,-2.57 -1.86,-4.06 c -0.21,-0.07 -0.41,-0.15 -0.62,-0.22 c -1.8,1.52 -3.75,2.82 -5.87,3.88 c -1.65,0.55 -3.34,0.62 -5.04,0.21 c -1.52,-4.32 1.18,-7.36 4.41,-10.1 c 2.46,-2.08 5.29,-3.21 8.5,-3.39 c 0.84,-0.08 2.81,0.14 2.25,1.5 c -0.93,1.76 -3.54,0.3 -3.61,1.4 Z"/></g>
<g><path fill="#e4d1ae" fill-opacity="0.043" d="M 119.65,251.99 c 0.63,1.12 0.79,3.57 -1.23,3.02 c -4.69,-3.6 -14.3,-2.01 -19.58,-0.23 c 0.02,-1 0.51,-1.66 1.46,-2 c 4.48,-1.63 9.56,-0.7 14.25,-0.93 c 1.68,0.61 3.38,0.66 5.1,0.14 Z"/></g>
<g><path fill="#eccfa5" fill-opacity="0.02" d="M 158.09,272.09 c 0.17,0.6 0.22,1.2 0.17,1.81 c -1.19,1.61 -7.08,8.89 -9.08,6.49 c 0.71,-3.44 5.81,-7.04 8.91,-8.3 Z"/></g>
<g><path fill="#e76b27" fill-opacity="0.035" stroke="#e76b27" stroke-width="0.5" stroke-opacity="0.035" d="M 220.88,37.09 c 2.54,4.3 8.38,7.31 12.33,10.25 c -0.38,0.17 -0.77,0.33 -1.15,0.5 c -0.69,0.19 -1.37,0.17 -2.05,-0.07 c 0.11,-0.15 0.21,-0.29 0.32,-0.43 c -1.21,-0.86 -2.22,-1.91 -3.03,-3.14 c -0.95,-0.5 -1.95,-0.88 -2.99,-1.13 c -0.94,-1.86 -2.44,-2.96 -4.49,-3.29 c 0.17,-1.01 0.52,-1.91 1.06,-2.69 Z"/></g>
<g><path fill="#c67547" fill-opacity="0.051" d="M 315.76,143.47 c 1.5,-3.37 1.93,-6.88 1.32,-10.52 c 2.12,-0.45 0.68,-3.2 1.39,-4.6 c 0.21,4.97 0.27,9.95 0.17,14.93 c -0.93,0.11 -1.89,0.18 -2.88,0.19 Z"/></g>
<g><path fill="#d37233" fill-opacity="0.039" stroke="#d37233" stroke-width="0.5" stroke-opacity="0.039" d="M 247.67,39.31 c 0.28,0.44 0.66,0.75 1.15,0.93 c 0.05,0.44 0.29,0.74 0.72,0.9 c 2.86,0.29 1.08,0.64 2.37,2.3 c 2.17,0.46 2.73,1.7 1.7,3.7 c -3.05,-3.86 -6.92,-6.58 -11.61,-8.15 c 0.12,-0.92 0.65,-1.25 1.59,-0.99 c 1.51,0.88 2.14,1.56 4.08,1.31 Z"/></g>
<g><path fill="#d57034" fill-opacity="0.039" stroke="#d57034" stroke-width="0.5" stroke-opacity="0.039" d="M 248.71,99.71 c -4.62,1.8 -9.04,4.04 -13.28,6.72 c -0.09,-0.44 0,-0.83 0.28,-1.18 c 0.96,-0.67 1.85,-1.41 2.68,-2.22 c 1.36,-0.35 2.6,-0.94 3.73,-1.77 c 0.28,-0.64 0.45,-1.29 0.52,-1.95 c 1.77,0.28 3.46,0.05 5.07,-0.69 c 0.43,0.27 0.77,0.63 1,1.09 Z"/></g>
<g><path fill="#ffffff" fill-opacity="0.251" d="M 318.1,176.85 c -7.19,-0.23 -14.39,-0.31 -21.61,-0.24 c -2.17,0.03 -4.34,0.15 -6.5,0.35 c 0.16,-0.73 0.64,-1.06 1.43,-0.97 c 8.67,-0.02 17.34,0.02 26,0.12 c 0.37,0.13 0.59,0.37 0.68,0.74 Z"/></g>
<g><path fill="#d1742f" fill-opacity="0.031" stroke="#d1742f" stroke-width="0.5" stroke-opacity="0.031" d="M 251.02,106.48 c 0.92,0.66 1.02,1.4 0.29,2.22 c -2.64,-0.17 -3.14,1.58 -4.9,2.99 c -0.81,0.27 -1.59,0.57 -2.37,0.9 c -0.82,1.26 -1.84,1.44 -3.07,0.56 c 3.09,-2.62 6.44,-4.84 10.05,-6.67 Z"/></g>
<g><path fill="#d9702a" fill-opacity="0.027" stroke="#d9702a" stroke-width="0.5" stroke-opacity="0.027" d="M 170.31,84.3 c -2.87,3.49 -4.89,7.41 -6.07,11.77 c -1.41,-0.06 -0.66,-4.44 -0.85,-5.4 c 1.04,-0.55 1.97,-1.27 2.78,-2.14 c 0.29,-0.73 0.55,-1.46 0.79,-2.2 c 1.48,-0.65 1.23,-2.89 3.35,-2.03 Z"/></g>
<g><path fill="#e56e1b" fill-opacity="0.035" stroke="#e56e1b" stroke-width="0.5" stroke-opacity="0.035" d="M 160.2,69.2 c -1.81,1.53 -3.47,3.2 -4.99,5.01 c -0.63,-0.49 -1.12,-1.1 -1.47,-1.83 c 2.88,1.36 4.71,-6.17 6.46,-3.18 Z M 200.99,104.98 c 1.02,0.27 0.38,4.55 -2.04,3 c 0.64,-1.03 1.32,-2.03 2.04,-3 Z"/></g>
<g><path fill="#ce743c" fill-opacity="0.027" stroke="#ce743c" stroke-width="0.5" stroke-opacity="0.027" d="M 235.18,68.5 c -3.6,1.85 -7.18,3.75 -10.73,5.7 c -0.39,-0.86 -0.47,-1.74 -0.25,-2.66 c 0.78,0 1.57,-0.07 2.35,-0.21 c 1.84,-1.85 1.19,-1.86 3.92,-2.11 c 1.4,-1.41 2.97,-1.65 4.71,-0.72 Z"/></g>
<g><path fill="#ffffff" fill-opacity="0.616" d="M 488.79,157.77 c 0.4,0.17 0.8,0.33 1.21,0.49 c 0.06,0.19 0.12,0.37 0.18,0.56 c -0.19,1.67 -0.7,4.8 0.37,6.19 c -0.19,0.27 -0.38,0.54 -0.56,0.81 c -0.34,0.11 -0.69,0.22 -1.03,0.33 c -3.97,-2.04 -3.85,-6.1 -0.17,-8.38 Z M 487.91,160.98 c 0.17,0.96 -0.34,2.16 0.59,2.82 c 1.34,-0.79 1.19,-2.8 -0.03,-3.59 c -0.38,0.11 -0.57,0.37 -0.56,0.77 Z"/></g>
<g><path fill="#f66b08" fill-opacity="0.071" stroke="#f66b08" stroke-width="0.5" stroke-opacity="0.071" d="M 294.38,91.63 c 1.09,1 5.5,4.2 5.49,5.67 c -2.91,-0.81 -5.88,-1.55 -8.89,-2.22 c 0.37,-1.67 3.63,0.72 3.4,-3.45 Z"/></g>
<g><path fill="#c97447" fill-opacity="0.027" d="M 215.16,136.52 c 3.15,1.78 6.44,3.24 9.88,4.39 c -0.07,0.91 -0.56,1.32 -1.47,1.22 c -1.97,-1.3 -5.19,-0.76 -6.28,-2.94 c -1.03,-0.27 -2.03,-0.57 -3,-0.89 c -0.02,-0.74 0.27,-1.33 0.87,-1.78 Z"/></g>
<g><path fill="#ea6b1d" fill-opacity="0.051" d="M 238.32,57.92 c 0.69,0.2 1.38,0.23 2.09,0.09 c -0.16,0.58 -0.33,1.16 -0.5,1.74 c -0.89,0.63 -0.96,1.31 -0.22,2.04 c -0.09,1.71 0.75,2.52 2.54,2.44 c -1.98,1.42 -4.04,2.69 -6.2,3.82 c 0,-0.43 0.1,-0.82 0.31,-1.2 c 1.19,-0.87 2.37,-0.26 2.38,-2.17 c -0.46,-2.55 -1.23,-4.14 -0.4,-6.76 Z"/></g>
<g><path fill="#d9d7ad" fill-opacity="0.027" d="M 290.1,254.62 c -3.16,1.04 -6.09,2.53 -8.77,4.49 c -0.81,-2.87 1.64,-2.94 3.41,-3.9 c 2.47,-4.91 1.56,-2.05 5.36,-0.59 Z"/></g>
<g><path fill="#e07029" fill-opacity="0.055" stroke="#e07029" stroke-width="0.5" stroke-opacity="0.055" d="M 280.1,83.7 c 4.29,1.51 8.28,3.58 11.99,6.22 c -1.43,0.2 -2.8,0.05 -4.13,-0.44 c -1.27,-2.12 -1.31,-1.95 -3.68,-2.33 c -1.24,-1.48 -2.17,-1.63 -3.91,-2.14 c -0.31,-0.39 -0.4,-0.83 -0.27,-1.31 Z"/></g>
<g><path fill="#e46e1f" fill-opacity="0.035" stroke="#e46e1f" stroke-width="0.5" stroke-opacity="0.035" d="M 225.95,82.95 c 0.53,0.61 0.71,1.29 0.52,2.04 c -0.99,0.31 -1.99,0.57 -3.02,0.8 c -1.44,1.22 -2.86,2.43 -4.27,3.64 c -0.85,0.31 -1.72,0.36 -2.6,0.14 c 3.03,-2.34 6.15,-4.55 9.37,-6.62 Z"/></g>
<g><path fill="#c7773b" fill-opacity="0.02" stroke="#c7773b" stroke-width="0.5" stroke-opacity="0.02" d="M 307.03,145.42 c -1.88,2.14 -4.12,3.82 -6.72,5.02 c -1.26,-3.95 0.58,-2.68 3.05,-3.59 c 0.55,-0.79 3.13,-3.77 3.67,-1.43 Z"/></g>
<g><path fill="#ea6c18" fill-opacity="0.027" stroke="#ea6c18" stroke-width="0.5" stroke-opacity="0.027" d="M 253.34,62.8 c 0.26,0.77 0.28,1.55 0.06,2.34 c -0.76,0.96 -4.57,3.61 -3.67,5.01 c -1.23,-0.56 -2.5,-0.63 -3.8,-0.22 c 2.83,-2 5.3,-4.38 7.41,-7.13 Z"/></g>
<g><path fill="#c07b44" fill-opacity="0.063" stroke="#c07b44" stroke-width="0.5" stroke-opacity="0.063" d="M 191.14,69.36 c -2.75,1.19 -5.42,2.54 -8.01,4.04 c -0.46,-0.44 -1.39,-1.62 -0.49,-2.11 c 2.87,0.02 2.45,-0.05 3.97,-1.95 c 2.51,0.24 2.41,-1.76 4.53,0.02 Z"/></g>
<g><path fill="#ecd09e" fill-opacity="0.031" d="M 370.23,276.76 c 1.23,-2.18 3.02,-3.73 5.38,-4.62 c 1.56,-0.01 1.95,0.68 1.18,2.08 c -1.53,1.37 -4.42,3.55 -6.56,2.54 Z"/></g>
<g><path fill="#b47a57" fill-opacity="0.039" d="M 221.99,28.61 c -2.23,2.58 -2.6,5.41 -1.11,8.48 c -0.54,0.78 -0.89,1.68 -1.06,2.69 c -0.27,-0.03 -0.43,-0.18 -0.48,-0.46 c -0.04,-3.56 -0.02,-7.12 0.04,-10.68 c 0.83,-0.75 2.48,-2.06 2.61,-0.03 Z"/></g>
<g><path fill="#d6722c" fill-opacity="0.086" d="M 204.03,87.29 c -0.81,0.64 -1.66,1.23 -2.54,1.77 c -2.06,1.93 -4.13,3.86 -6.22,5.78 c 0.03,-0.88 0.28,-1.68 0.77,-2.41 c 1.82,-1.44 3.12,-2.04 4.1,-4.31 c 0.8,-0.63 1.64,-1.19 2.51,-1.68 c 0.79,-0.16 1.25,0.12 1.38,0.85 Z"/></g>
<g><path fill="#c67844" fill-opacity="0.043" stroke="#c67844" stroke-width="0.5" stroke-opacity="0.043" d="M 182.8,85.66 c -0.14,0.61 -0.51,0.98 -1.11,1.12 c 0.37,-0.37 0.74,-0.75 1.11,-1.12 Z M 165.28,110.02 c 1.2,2.24 2.78,4.16 4.74,5.77 c -0.4,1.49 -2.1,-0.22 -2.69,-0.6 c -0.65,-1.23 -1.54,-2.24 -2.66,-3.04 c 0.04,-1.04 -0.95,-2.14 0.61,-2.13 Z"/></g>
<g><path fill="#c77645" fill-opacity="0.031" d="M 245.93,69.93 c 1.3,-0.41 2.57,-0.34 3.8,0.22 c 0.01,0.93 -2.55,0.21 -3.16,0.88 c -0.69,1.21 -1.6,2.21 -2.74,3.01 c -1.06,-0.09 -2.11,-0.22 -3.17,-0.38 c 1.8,-1.19 3.56,-2.43 5.27,-3.73 Z"/></g>
<g><path fill="#de7121" fill-opacity="0.063" d="M 222.32,121.1 c -1.34,3.59 -1.34,7.18 0.01,10.77 c -0.66,0 -1.31,0.08 -1.95,0.25 c 0.73,-1.3 -0.87,-2.11 -0.62,-3.54 c 0.41,-3.21 -1.05,-5.57 2.56,-7.48 Z"/></g>
<g><path fill="#f9650e" fill-opacity="0.059" stroke="#f9650e" stroke-width="0.5" stroke-opacity="0.059" d="M 186.99,116 c 0.54,1.75 1.34,3.36 2.41,4.84 c -0.81,0.3 -1.6,0.27 -2.36,-0.11 c -1.35,-0.58 -2.73,-1.11 -4.17,-1.58 c 0.29,-1.08 1.77,-0.58 2.55,-1.09 c 0.55,-0.68 1.07,-1.37 1.57,-2.06 Z"/></g>
<g><path fill="#c9773e" fill-opacity="0.051" d="M 190.63,100.2 c -3.32,4.79 -5.49,9.95 -3.64,15.8 c -0.5,0.69 -1.02,1.38 -1.57,2.06 c -0.78,0.51 -2.26,0.01 -2.55,1.09 c -0.36,-0.16 -0.73,-0.32 -1.09,-0.49 c -0.03,-0.83 0.08,-1.64 0.33,-2.43 c 0.86,1.53 1.87,1.62 3.04,0.27 c 0.04,-3.92 0.14,-7.83 0.3,-11.74 c 0.68,-0.26 1.26,-0.65 1.75,-1.17 c 0.52,-1.41 1.13,-2.76 1.83,-4.06 c 0.65,-0.12 1.19,0.1 1.6,0.67 Z"/></g>
<g><path fill="#ec6e0c" fill-opacity="0.059" d="M 161.97,97.03 c 0.69,0.12 1.38,0.11 2.07,-0.01 c -0.55,2.58 -0.71,5.19 -0.48,7.83 c -2.65,-0.13 -0.97,-2.51 -2.61,-2.83 c 0.01,-0.35 0.01,-0.7 0.02,-1.05 c 0.01,-0.64 -0.11,-1.25 -0.37,-1.84 c 0.49,-0.68 0.95,-1.38 1.37,-2.1 Z"/></g>
<g><path fill="#eb6c18" fill-opacity="0.094" d="M 230.94,126.99 c 0.56,0.09 0.97,0.38 1.24,0.87 c -0.3,2.28 0.57,5.67 -1.14,7.46 c -1.15,-2.76 -1.18,-5.54 -0.1,-8.33 Z"/></g>
<g><path fill="#f36912" fill-opacity="0.047" stroke="#f36912" stroke-width="0.5" stroke-opacity="0.047" d="M 312.93,117.97 c 0.5,-0.12 0.8,0.08 0.9,0.58 c -0.61,1.34 -0.59,2.67 0.06,3.99 c 0.07,0.88 -0.34,1.37 -1.22,1.47 c -0.92,-2.03 -0.83,-4.04 0.26,-6.04 Z"/></g>
<g><path fill="#db7221" fill-opacity="0.047" stroke="#db7221" stroke-width="0.5" stroke-opacity="0.047" d="M 235.42,118.81 c 1.29,1.9 0.87,3.19 -1.25,3.87 c -0.84,0.85 -0.9,2.12 -2.41,2.11 c 0.95,-2.16 2.17,-4.15 3.66,-5.98 Z"/></g>
<g><path fill="#e16f2c" fill-opacity="0.035" d="M 288.5,80.7 c 1.1,-0.73 2.26,-0.88 3.48,-0.47 c -0.09,2.35 2.68,1.82 1.88,3.92 c -1.75,-1.21 -3.53,-2.36 -5.36,-3.45 Z"/></g>
<g><path fill="#e3711e" fill-opacity="0.067" d="M 276.05,157.82 c 1.92,0.57 3.8,0.96 5.64,1.17 c -1.94,2.84 -3.72,-0.18 -5.7,0.9 c 0.58,-0.67 0.6,-1.36 0.06,-2.07 Z"/></g>
<g><path fill="#de731f" fill-opacity="0.051" d="M 181.18,74.63 c -1.1,0.74 -2.17,1.52 -3.23,2.32 c -1.99,-2.42 1.56,-2.89 3.23,-2.32 Z"/></g>
<g><path fill="#df702b" fill-opacity="0.063" d="M 266,153.68 c 0.3,0.15 0.59,0.3 0.89,0.45 c 1.13,0.38 2.22,0.87 3.25,1.48 c -0.34,1.7 -2.18,-0.25 -3.14,-0.26 c -0.63,-0.38 -0.96,-0.94 -1,-1.67 Z"/></g>
<g><path fill="#e96a23" fill-opacity="0.624" d="M 223.77,63.99 c 1.11,-0.03 2.22,0.06 3.32,0.26 c 2.08,2.49 -1.6,1.51 -3.09,1.95 c 0.36,-0.78 0.28,-1.52 -0.23,-2.21 Z"/></g>
<g><path fill="#de701c" fill-opacity="0.051" stroke="#de701c" stroke-width="0.5" stroke-opacity="0.051" d="M 296.07,150.05 c 1.45,-0.25 2.87,-0.12 4.24,0.39 c -1.28,0.65 -2.58,1.23 -3.91,1.75 c -0.2,-0.7 -0.31,-1.42 -0.33,-2.14 Z"/></g>
<g><path fill="#cf7436" fill-opacity="0.094" d="M 266.81,152.19 c -1.23,-0.57 -2.51,-0.93 -3.84,-1.08 c -0.97,-0.7 -0.82,-1.16 0.45,-1.36 c 1.93,-0.25 3.07,0.56 3.39,2.44 Z"/></g>
<g><path fill="#ec6d14" fill-opacity="0.49" d="M 262.97,151.11 c 1.33,0.15 2.61,0.51 3.84,1.08 c 0.15,0.25 0.31,0.5 0.46,0.75 c -0.13,0.4 -0.25,0.79 -0.38,1.19 c -0.3,-0.15 -0.59,-0.3 -0.89,-0.45 c -0.46,-0.29 -0.9,-0.59 -1.34,-0.91 c -0.54,-0.33 -1.13,-0.57 -1.76,-0.72 c 0.02,-0.31 0.04,-0.62 0.07,-0.94 Z"/></g>
<g><path fill="#ffffff" fill-opacity="0.035" d="M 494.11,160.21 c 1.2,-0.3 1.78,3.09 0.52,3.76 c -2.35,-0.55 -0.99,-2.36 -0.52,-3.76 Z"/></g>
<g><path fill="#e56c25" fill-opacity="0.047" stroke="#e56c25" stroke-width="0.5" stroke-opacity="0.047" d="M 171.77,69.31 c 0.17,2.33 -0.88,3.11 -3.13,2.33 c 1.01,-0.82 2.06,-1.59 3.13,-2.33 Z"/></g>
<g><path fill="#e26f26" fill-opacity="0.075" d="M 197.04,67.12 c -1,0.33 -2,0.68 -2.99,1.06 c -0.03,-2.36 3.15,-2.76 2.99,-1.06 Z"/></g>
<g><path fill="#f8690c" fill-opacity="0.435" d="M 209.01,58.9 c 1.37,0.14 2.33,0.83 2.88,2.08 c -1.23,0.18 -2.28,-0.13 -3.16,-0.93 c 0.09,-0.38 0.19,-0.77 0.28,-1.15 Z"/></g>
<g><path fill="#e76e1c" fill-opacity="0.2" d="M 273.99,114.78 c 0.06,0.36 0.13,0.71 0.19,1.06 c -1.06,1.29 -2.17,1.39 -3.32,0.28 c 0.99,-0.59 2.04,-1.03 3.13,-1.34 Z"/></g>
<g><path fill="#e46d22" fill-opacity="0.075" d="M 209.84,133.97 c 1.37,0.11 2.4,0.74 3.08,1.88 c -1.05,-0.2 -2.1,-0.27 -3.16,-0.21 c 0.21,-0.55 0.24,-1.11 0.08,-1.67 Z"/></g>
<g><path fill="#ed6a17" fill-opacity="0.498" d="M 204.89,130.18 c 0.49,-0.17 0.99,-0.23 1.5,-0.16 c 1.9,0.83 2.14,2.24 4.54,2.06 c 0.73,1.14 3.78,1.69 3.92,2.91 c -0.49,0.17 -0.77,0.52 -0.83,1.04 c -0.37,-0.06 -0.73,-0.12 -1.1,-0.18 c -0.68,-1.14 -1.71,-1.77 -3.08,-1.88 c -1.73,-1.13 -3.38,-2.39 -4.95,-3.79 Z"/></g>
<g><path fill="#d6732e" fill-opacity="0.078" d="M 254.02,96.19 c 0.74,-0.22 1.48,-0.34 2.24,-0.38 c 0.38,0.31 0.63,0.71 0.75,1.19 c -1.03,0.28 -2.06,0.57 -3.08,0.89 c -0.03,-0.57 0,-1.14 0.09,-1.7 Z"/></g>
<g><path fill="#f46b06" fill-opacity="0.592" d="M 235.04,36.92 c 1.24,-0.08 2.35,0.23 3.35,0.94 c -0.12,0.41 -0.24,0.82 -0.37,1.23 c -0.77,-0.2 -1.47,-0.55 -2.1,-1.04 c -0.41,-0.28 -0.71,-0.66 -0.88,-1.13 Z"/></g>
<g><path fill="#f96905" fill-opacity="0.498" d="M 239.91,59.75 c 0.46,0.06 0.91,0.13 1.37,0.2 c -0.54,0.61 -1.06,1.22 -1.59,1.84 c -0.74,-0.73 -0.67,-1.41 0.22,-2.04 Z"/></g>
<g><path fill="#ffffff" fill-opacity="0.188" d="M 492.8,159.06 c 0.74,0.04 1.18,0.42 1.31,1.15 c -0.6,-0.2 -1.04,-0.58 -1.31,-1.15 Z M 490.97,159.86 c 1.12,0.37 1.3,1 0.54,1.88 c -0.43,-0.54 -0.61,-1.17 -0.54,-1.88 Z"/></g>
<g><path fill="#ffffff" fill-opacity="0.063" d="M 490,158.26 c 0.89,-0.66 2.87,-0.68 2.8,0.8 c -0.9,0.16 -1.77,0.08 -2.62,-0.24 c -0.06,-0.19 -0.12,-0.37 -0.18,-0.56 Z"/></g>
<g><path fill="#fa6b00" fill-opacity="0.125" d="M 243.94,144.72 c 0.53,0.31 0.96,0.73 1.28,1.26 c -0.66,-0.18 -1.09,-0.6 -1.28,-1.26 Z"/></g>
<g><path fill="#ffffff" fill-opacity="0.996" stroke="#ffffff" stroke-width="0.5" stroke-opacity="0.996" d="M 440.49,199.51 c -8.29,-10.87 -5.88,-26.44 7.89,-31.1 c 8.91,-2.76 17.95,-3.18 27.11,-1.27 c 3.79,0.71 5.33,1.07 5.16,5.33 c -0.03,3.13 -0.18,6.23 -0.45,9.31 c -0.51,0.21 -1.01,0.19 -1.49,-0.09 c -6.25,-3.61 -14.89,-6.7 -21.78,-3.16 c -4.52,3.33 0.33,7.7 3.44,9.63 c 5.16,2.54 10.39,4.94 15.68,7.21 c 5.48,3.13 9.99,6.39 10.83,13.13 c 0.84,7.77 -1.47,14.42 -6.93,19.96 c -11.65,9.45 -28.54,7.85 -42.34,5.29 c -0.66,-0.25 -1.08,-0.71 -1.27,-1.39 c -1.32,-5.7 -2.67,-11.39 -4.06,-17.06 c -0.18,-0.41 -0.08,-0.71 0.29,-0.91 c 1.54,1.31 3.14,2.57 4.79,3.78 c 7.53,4.93 16.14,7.54 25.14,5.78 c 5.09,-1.19 7.76,-6.46 2.61,-9.76 c -5.4,-2.5 -10.77,-5.07 -16.11,-7.7 c -3.24,-1.83 -6.08,-4.16 -8.51,-6.98 Z M 48.18,167.39 c -0.18,0.16 -0.37,0.32 -0.56,0.48 c -6.27,6.83 -4.43,15.12 -4.55,23.59 c 0.5,1.67 3.17,0.89 4.45,1.03 c 4.81,-0.31 12.14,0.62 16.58,-0.5 c 0.8,-1.02 1.16,-2.18 1.1,-3.48 c -0.06,-7.63 1.08,-14.28 -4.45,-20.44 c -0.25,-0.27 -0.25,-0.53 0,-0.77 c 9.58,-0.12 19.16,-0.17 28.75,-0.15 c 0.51,-0.05 0.91,0.13 1.2,0.54 c -1.3,2.23 -2.44,4.55 -3.44,6.96 c -0.33,1.6 -0.56,3.22 -0.71,4.85 c 1.04,11.22 -2.64,42.4 2.71,50.84 c 0.76,1.55 4.47,4.04 0.27,3.84 c -9.66,0.05 -19.31,-0.02 -28.96,-0.22 c -0.38,-0.31 -0.42,-0.67 -0.12,-1.07 c 2.34,-2.59 3.79,-5.6 4.35,-9.03 c 0.04,-0.29 0.07,-0.58 0.11,-0.87 c 0.09,-5.17 0.13,-10.33 0.12,-15.5 c -0.06,-1.59 -0.89,-2.26 -2.49,-2.02 c -6.04,0 -12.07,0.04 -18.11,0.13 c -0.92,0.3 -1.35,0.94 -1.29,1.92 c 0.52,8.61 -2,18.51 4.65,25.42 c 0.25,0.46 0.15,0.81 -0.31,1.06 c -10.27,0.24 -20.54,0.22 -30.81,-0.05 c -0.94,-0.91 2.01,-2.59 2.23,-3.52 c 5.76,-8.96 1.73,-39.24 2.9,-50.92 c -0.26,-1.97 -0.64,-3.91 -1.13,-5.84 c -0.95,-2.13 -2.06,-4.16 -3.34,-6.1 c 0.32,-0.32 0.7,-0.45 1.15,-0.42 c 9.92,-0.05 19.82,0.02 29.7,0.24 Z M 158.86,191.03 c 0.28,0.59 0.56,1.19 0.82,1.79 c 2.96,7.61 3.01,15.25 0.16,22.91 c -0.29,0.76 -0.6,1.51 -0.94,2.25 c -11.48,24.56 -50.68,24.38 -61.85,-0.98 c -0.15,-0.37 -0.3,-0.74 -0.45,-1.1 c -6.36,-17.53 2.39,-34.56 20.4,-39.32 c 0.97,-0.25 1.95,-0.49 2.93,-0.71 c 15.12,-3.04 31.24,0.75 38.93,15.16 Z M 408.07,175.87 c 1.34,0.36 2.65,0.79 3.94,1.3 c 19.17,7.89 23.5,30.04 11.77,46.29 c -0.4,0.51 -0.81,1.02 -1.23,1.52 c -24.35,26.69 -74.26,0.75 -56.02,-34.98 c 3.94,-6.28 9.43,-10.61 16.47,-12.99 c 0.27,-0.09 0.54,-0.18 0.81,-0.27 c 8.01,-2.28 16.1,-2.57 24.26,-0.87 Z M 246.84,177.25 c 0.32,0.17 0.65,0.35 0.97,0.52 c 0.98,0.7 1.81,1.55 2.5,2.53 c 7.05,9.13 14.08,18.25 21.11,27.38 c 1.49,-1.85 0.43,-12.62 0.75,-15.53 c 0.15,-2.72 0.05,-5.42 -0.27,-8.12 c -0.45,-2.1 -1.29,-4.01 -2.55,-5.75 c -0.3,-0.48 -0.23,-0.89 0.19,-1.24 c 5.67,-0.16 11.34,-0.21 17.01,-0.16 c 0.77,-0.04 1.22,0.31 1.35,1.03 c -5.8,7.55 -3.08,47.15 -3.07,58.59 c 0.06,0.51 -0.13,0.88 -0.57,1.1 c -12.38,0.43 -15.68,-3.54 -22.7,-12.68 c -6.68,-8.55 -13.36,-17.09 -20.06,-25.62 c -0.41,0.66 -0.58,1.39 -0.51,2.18 c 1.05,8.76 -2.81,24.77 3.78,31.46 c 0.25,0.45 0.15,0.8 -0.3,1.05 c -11.96,0.26 -23.91,0.23 -35.87,-0.09 c -7.13,-4.19 -16.93,-22.26 -19.54,-30.41 c -0.07,-0.56 0.14,-0.97 0.62,-1.24 c 15.58,-0.58 14.59,-19.17 -1.14,-15.31 c -0.5,0.38 -0.75,0.88 -0.73,1.51 c 0.52,7.66 -0.96,34.88 0.89,40.25 c 1,1.68 2.06,3.29 3.19,4.83 c -0.32,0.44 -0.76,0.66 -1.32,0.65 c -8.65,0.05 -17.3,-0.02 -25.93,-0.22 c -0.28,-0.33 -0.27,-0.66 0.02,-0.98 c 2.82,-2.54 4.27,-5.7 4.34,-9.48 c 0.02,-12.67 0,-25.34 -0.04,-38.01 c -0.3,-3.01 -1.44,-5.66 -3.42,-7.95 c 0.05,-1.04 1.35,-0.44 1.94,-0.71 c 11.32,0.69 31.7,-1.57 41.82,1.59 c 12.43,4.57 11.29,20.99 -1.31,25.2 c -0.44,0.37 -0.58,0.84 -0.43,1.41 c 4.21,7.83 9.22,15.12 15.03,21.87 c 1.15,1.34 2.4,2.56 3.77,3.64 c 1.89,-1.11 2.15,-5.04 2.48,-7.04 c -0.61,-10.04 1.27,-33.18 -1.14,-41.59 c -0.69,-1.54 -1.51,-3.01 -2.44,-4.4 c 0.6,-0.6 1.34,-0.83 2.22,-0.7 c 5.09,0.39 14.93,-0.67 19.36,0.44 Z M 289.99,176.96 c 2.16,-0.2 4.33,-0.32 6.5,-0.35 c 7.22,-0.07 14.42,0.01 21.61,0.24 c 0,0.33 0,0.65 0.01,0.98 c -2.87,0.92 -4.71,6.99 -4.93,9.68 c -0.03,12.32 -0.02,24.65 0.02,36.98 c 0.24,3.31 1.35,6.3 3.33,8.97 c -0.06,0.15 -0.12,0.29 -0.19,0.44 c -7.95,0.27 -15.92,0.35 -23.9,0.26 c -0.86,-0.02 -1.22,-0.42 -1.09,-1.22 c 1.92,-2.49 2.96,-5.3 3.11,-8.44 c -0.06,-12 0.05,-24 0.33,-35.98 c -0.18,-4.68 -1.72,-8.16 -4.8,-11.56 Z M 369.14,176.81 c -0.86,3.61 -1.88,7.18 -3.05,10.7 c -0.07,0.56 -0.32,1 -0.76,1.34 c -2.27,-0.21 -4.55,-0.49 -6.83,-0.84 c -1.99,-0.22 -3.97,-0.23 -5.95,-0.02 c -1.22,0.72 -0.56,2.68 -0.71,3.85 c 0,10.75 0.01,21.51 0.04,32.26 c 0.2,3.43 1.5,6.38 3.89,8.84 c 0.24,0.45 0.14,0.8 -0.31,1.04 c -8.67,0.17 -17.36,0.25 -26.05,0.23 c -0.55,0 -0.93,-0.24 -1.13,-0.72 c 1.21,-0.99 2.25,-2.15 3.12,-3.47 c 3.52,-5.55 0.97,-32.59 1.79,-40.57 c -0.07,-1.03 -0.61,-1.57 -1.64,-1.64 c -4.7,0.11 -9.37,0.49 -14.01,1.15 c -0.51,-0.34 -0.69,-0.81 -0.55,-1.41 c 1.04,-3.31 2.08,-6.61 3.13,-9.92 c 0.63,-0.66 1.42,-0.93 2.36,-0.81 c 15.55,0.02 31.11,0.02 46.66,-0.01 Z M 408.3,192.88 c -0.32,-0.57 -0.65,-1.14 -0.98,-1.7 c -2.31,-3.94 -5.64,-6.54 -10,-7.81 c -23.3,-2.58 -20.2,34.9 -2.02,41.01 c 18.32,3.47 19.28,-19.96 13,-31.5 Z M 112.5,200 c -0.24,31.32 36.22,34.03 30.52,2.49 c -2.88,-22.74 -29.03,-27.14 -30.52,-2.49 Z"/></g>
<g><path fill="#fd6705" fill-opacity="0.988" stroke="#fd6705" stroke-width="0.5" stroke-opacity="0.988" d="M 233.84,25.94 c -5.27,2.57 -7.87,8.15 -2.94,12.64 c 2.15,2.04 4.39,3.97 6.73,5.78 c 1.41,1.13 2.66,2.41 3.76,3.83 c 3.24,4.21 2.09,7.53 -0.11,11.76 c -0.46,-0.07 -0.91,-0.14 -1.37,-0.2 c 0.17,-0.58 0.34,-1.16 0.5,-1.74 c 0.53,-4.9 -3.67,-8.12 -7.2,-10.67 c -3.95,-2.94 -9.79,-5.95 -12.33,-10.25 c -1.49,-3.07 -1.12,-5.9 1.11,-8.48 c 3.32,-2.79 7.17,-4.01 11.53,-3.67 c 0.53,-0.07 0.96,0.08 1.29,0.48 c -0.18,0.41 -0.5,0.59 -0.97,0.52 Z M 238.39,37.86 c 0.74,0.13 1.47,0.33 2.18,0.58 c 0.47,0.2 0.95,0.38 1.43,0.55 c 4.69,1.57 8.56,4.29 11.61,8.15 c 0.15,0.28 0.29,0.55 0.43,0.83 c 0.42,0.65 0.74,1.35 0.97,2.09 c 0.26,0.29 0.53,0.59 0.79,0.89 c -0.69,0.31 -0.72,0.73 -0.09,1.26 c 0.53,2.59 0.33,5.13 -0.6,7.61 c -0.5,1.05 -1.1,2.04 -1.77,2.98 c -2.11,2.75 -4.58,5.13 -7.41,7.13 c -1.71,1.3 -3.47,2.54 -5.27,3.73 c -0.94,0.61 -1.89,1.21 -2.84,1.81 c -3.68,2.3 -7.35,4.6 -11.02,6.92 c -0.28,0.19 -0.57,0.37 -0.85,0.56 c -3.22,2.07 -6.34,4.28 -9.37,6.62 c -5.21,3.77 -9.83,8.16 -13.86,13.16 c -0.59,0.74 -1.17,1.49 -1.73,2.25 c -0.72,0.97 -1.4,1.97 -2.04,3 c -3.54,5.99 -3.55,12.02 -0.02,18.08 c 0.32,0.8 0.78,1.51 1.39,2.13 c -0.09,0.29 -0.18,0.58 -0.27,0.87 c -4,-1.43 -8,-4.93 -10.65,-8.22 c -1.07,-1.48 -1.87,-3.09 -2.41,-4.84 c -1.85,-5.85 0.32,-11.01 3.64,-15.8 c 1.39,-1.93 2.93,-3.72 4.64,-5.36 c 2.09,-1.92 4.16,-3.85 6.22,-5.78 c 0.88,-0.54 1.73,-1.13 2.54,-1.77 c 1.41,-1.08 2.84,-2.13 4.29,-3.15 c 4.77,-3.24 9.67,-6.28 14.68,-9.12 c 0.49,-0.28 0.97,-0.55 1.45,-0.82 c 3.55,-1.95 7.13,-3.85 10.73,-5.7 c 0.29,-0.15 0.57,-0.3 0.85,-0.45 c 2.16,-1.13 4.22,-2.4 6.2,-3.82 c 3,-1.93 5,-4.6 6.01,-7.99 c 0.17,-1.43 0.09,-2.84 -0.22,-4.24 c -0.57,-2.23 -1.52,-4.29 -2.84,-6.18 c -1.1,-1.55 -2.36,-2.96 -3.77,-4.23 c -1.04,-0.96 -2.17,-1.79 -3.39,-2.5 c 0.13,-0.41 0.25,-0.82 0.37,-1.23 Z M 204,57.93 c 1.65,0.43 3.32,0.76 5.01,0.97 c -0.09,0.38 -0.19,0.77 -0.28,1.15 c -5.71,-0.18 -11.37,0.24 -16.98,1.27 c -7.19,1.34 -13.85,4 -19.98,7.99 c -1.07,0.74 -2.12,1.51 -3.13,2.33 c -3.18,2.58 -5.77,5.66 -7.78,9.22 c -3.03,6.05 -3.11,12.14 -0.26,18.27 c 0.26,0.59 0.38,1.2 0.37,1.84 c -1.06,-0.07 -2.01,-0.43 -2.87,-1.08 c -2.15,-1.33 -3.95,-3.03 -5.4,-5.11 c -4.92,-7.06 -2.53,-14.44 2.51,-20.57 c 1.52,-1.81 3.18,-3.48 4.99,-5.01 c 2.76,-2.28 5.75,-4.21 8.95,-5.81 c 5.03,-2.54 10.31,-4.33 15.85,-5.38 c 6.33,-1.34 12.66,-1.37 19,-0.08 Z M 223.77,63.99 c 0.51,0.69 0.59,1.43 0.23,2.21 c -2.03,-0.04 -4.02,0.24 -5.98,0.85 c -5.89,1.48 -11.56,3.57 -17.01,6.25 c -0.67,0.34 -1.33,0.68 -1.99,1.02 c -6.08,2.82 -11.49,6.61 -16.22,11.34 c -0.37,0.37 -0.74,0.75 -1.11,1.12 c -2.16,2.06 -3.99,4.38 -5.47,6.97 c -0.42,0.75 -0.82,1.5 -1.2,2.27 c -2.48,4.52 -3.02,9.25 -1.64,14.18 c 1.75,3.85 4.55,6.67 8.4,8.46 c 0.36,0.17 0.73,0.33 1.09,0.49 c 1.44,0.47 2.82,1 4.17,1.58 c -4.29,0.98 -10.34,-1.13 -14.21,-3.05 c -0.99,-0.56 -1.92,-1.19 -2.81,-1.89 c -1.96,-1.61 -3.54,-3.53 -4.74,-5.77 c -0.89,-1.62 -1.46,-3.35 -1.72,-5.17 c -0.23,-2.64 -0.07,-5.25 0.48,-7.83 c 0.07,-0.32 0.13,-0.64 0.2,-0.95 c 1.18,-4.36 3.2,-8.28 6.07,-11.77 c 2.28,-2.73 4.83,-5.18 7.64,-7.35 c 1.06,-0.8 2.13,-1.58 3.23,-2.32 c 0.64,-0.42 1.29,-0.83 1.95,-1.23 c 2.59,-1.5 5.26,-2.85 8.01,-4.04 c 0.96,-0.41 1.94,-0.81 2.91,-1.18 c 0.99,-0.38 1.99,-0.73 2.99,-1.06 c 4,-1.36 8.08,-2.34 12.26,-2.95 c 4.81,-0.74 9.64,-0.8 14.47,-0.18 Z M 274,75.98 c 4.7,0.95 9.22,2.41 13.59,4.38 c 0.3,0.11 0.61,0.23 0.91,0.34 c 1.83,1.09 3.61,2.24 5.36,3.45 c 0.29,0.21 0.59,0.41 0.88,0.62 c 3.36,2.34 6.26,5.15 8.7,8.42 c 1.46,2.29 2.77,4.65 3.95,7.09 c 1.62,2.62 4.54,4.81 5.55,7.74 c 1.17,3.31 1.17,6.63 -0.01,9.95 c -1.09,2 -1.18,4.01 -0.26,6.04 c 1.91,2.97 3.9,5.28 4.41,8.94 c 0.61,3.64 0.18,7.15 -1.32,10.52 c -0.25,0.51 -0.51,1.02 -0.78,1.52 c -2.08,3.43 -4.8,6.24 -8.18,8.42 c -2.75,1.86 -5.73,3.27 -8.91,4.24 c -2.22,0.7 -4.41,1.16 -6.58,1.38 c -3.21,0.27 -6.42,0.26 -9.62,-0.04 c -1.84,-0.21 -3.72,-0.6 -5.64,-1.17 c -2.02,-0.6 -3.99,-1.34 -5.91,-2.21 c -1.03,-0.61 -2.12,-1.1 -3.25,-1.48 c 0.13,-0.4 0.25,-0.79 0.38,-1.19 c 1.5,0.32 3,0.65 4.49,1.01 c 7.49,1.47 14.9,1.15 22.25,-0.96 c 0.81,-0.24 1.61,-0.51 2.39,-0.8 c 1.33,-0.52 2.63,-1.1 3.91,-1.75 c 2.6,-1.2 4.84,-2.88 6.72,-5.02 c 0.85,-1.04 1.54,-2.17 2.09,-3.39 c 1.02,-2.6 1.31,-5.28 0.86,-8.04 c -0.39,-2.46 -1.29,-4.72 -2.7,-6.78 c -4.19,-5.16 -9.56,-8.38 -16.12,-9.67 c -2.92,-0.73 -5.88,-1.21 -8.89,-1.44 c -2.69,-0.22 -5.39,-0.31 -8.09,-0.26 c -0.06,-0.35 -0.13,-0.7 -0.19,-1.06 c 2.02,-0.13 4.02,-0.39 6.01,-0.78 c 4.66,-0.72 9.33,-0.71 13.99,0.02 c 3.05,0.52 5.97,1.43 8.76,2.73 c 2.18,1.06 4.24,2.31 6.17,3.77 c 2.67,1.57 2.26,-2.6 2.13,-4.03 c -1.09,-6.18 -4.39,-10.79 -9.9,-13.85 c -8.46,-4.7 -19.92,-4.31 -29.16,-2.76 c -4.42,0.71 -8.75,1.74 -13,3.11 c -0.99,0.34 -1.96,0.71 -2.93,1.1 c -1.71,0.73 -3.39,1.53 -5.04,2.39 c -3.61,1.83 -6.96,4.05 -10.05,6.67 c -2.02,1.71 -3.88,3.6 -5.55,5.66 c -1.49,1.83 -2.71,3.82 -3.66,5.98 c -0.39,0.69 -0.66,1.42 -0.82,2.2 c -1.08,2.79 -1.05,5.57 0.1,8.33 c 0.2,0.36 0.39,0.71 0.58,1.06 c 2.01,3.4 4.81,5.92 8.41,7.58 c 0.67,0.27 1.35,0.54 2.02,0.82 c 0.63,-0.1 1.26,-0.12 1.89,-0.06 c 0.19,0.66 0.62,1.08 1.28,1.26 c 0.02,0.4 0.04,0.8 0.06,1.21 c -4.14,-1.04 -8.25,-1.64 -12.12,-3.61 c -2.61,-1.18 -5.32,-2.07 -8.12,-2.67 c -3.44,-1.15 -6.73,-2.61 -9.88,-4.39 c -0.35,-0.24 -0.73,-0.41 -1.14,-0.49 c 0.06,-0.52 0.34,-0.87 0.83,-1.04 c 2.92,0.96 5.86,1.87 8.83,2.71 c 0.59,-0.07 1.56,0.61 1.81,-0.28 c -1.32,-1.7 -2.38,-3.55 -3.16,-5.55 c -1.35,-3.59 -1.35,-7.18 -0.01,-10.77 c 0.12,-0.29 0.23,-0.58 0.35,-0.87 c 2.57,-5.34 6.36,-9.63 11.37,-12.86 c 0.46,-0.32 0.92,-0.63 1.39,-0.94 c 4.24,-2.68 8.66,-4.92 13.28,-6.72 c 1.71,-0.68 3.46,-1.29 5.22,-1.82 c 1.02,-0.32 2.05,-0.61 3.08,-0.89 c 1,-0.26 2.01,-0.52 3.02,-0.77 c 10.24,-2.56 20.56,-2.95 30.95,-1.15 c 3.01,0.67 5.98,1.41 8.89,2.22 c 0.01,-1.47 -4.4,-4.67 -5.49,-5.67 c -0.38,-0.3 -0.77,-0.59 -1.15,-0.88 c -0.38,-0.28 -0.76,-0.56 -1.14,-0.83 c -3.71,-2.64 -7.7,-4.71 -11.99,-6.22 c -5.23,-1.81 -10.6,-3.01 -16.11,-3.61 c -0.65,0.09 -1.27,-0.01 -1.86,-0.28 c -0.36,-0.56 -0.88,-0.82 -1.59,-0.77 c -3.02,-0.04 -6.04,-0.06 -9.06,-0.08 c -1.07,-0.17 -1.9,0.17 -2.5,1.02 c -0.4,0.05 -0.8,0.09 -1.2,0.14 c -0.59,0.05 -1.18,0.04 -1.77,-0.03 c -2.2,0.16 -4.37,0.49 -6.51,1.01 c -0.52,-0.01 -0.97,-0.19 -1.33,-0.55 c 0.8,-0.75 1.74,-1.27 2.83,-1.56 c 1.97,-0.78 3.97,-1.45 6,-2.01 c 0.71,-0.19 1.42,-0.37 2.14,-0.54 c 8.25,-1.83 16.54,-1.98 24.86,-0.46 Z"/></g>
<g><path fill="#dd731e" fill-opacity="0.757" d="M 262.13,79.81 c -4.38,0.19 -8.76,0.25 -13.15,0.17 c 0.6,-0.85 1.43,-1.19 2.5,-1.02 c 3.02,0.02 6.04,0.04 9.06,0.08 c 0.71,-0.05 1.23,0.21 1.59,0.77 Z"/></g>
<g><path fill="#de7023" fill-opacity="0.502" d="M 255.8,50.95 c -0.03,0.42 -0.06,0.84 -0.09,1.26 c -0.63,-0.53 -0.6,-0.95 0.09,-1.26 Z"/></g>
<g><path fill="#da7128" fill-opacity="0.125" d="M 254.04,47.97 c 0.38,0.17 0.76,0.18 1.15,0.04 c 0.51,0.72 0.45,1.4 -0.18,2.05 c -0.23,-0.74 -0.55,-1.44 -0.97,-2.09 Z"/></g>
<g><path fill="#edd09f" fill-opacity="0.965" d="M 118.42,255.01 c 0.5,0.54 0.94,1.11 1.33,1.72 c 4.15,12.19 -13.89,16.78 -22.07,17.4 c -2.43,3.08 -2.68,7.05 -3.41,10.77 c -3.73,2.37 -3.22,-6.54 -1.9,-8.21 c 0.85,-3.44 9.71,-17.7 12.18,-18.61 c 1.27,0.23 1.69,0.99 1.26,2.27 c -2.16,3.44 -4.33,6.88 -6.51,10.32 c -0.25,1 0.15,1.46 1.19,1.38 c 5.67,-0.72 15.53,-6.09 15.65,-12.55 c 0.26,-5.49 -9.05,-3.59 -12.19,-3.08 c -5.28,1.12 -9.8,3.62 -13.55,7.48 c -0.9,1.35 -1.85,2.63 -2.83,3.83 c -1.9,-0.72 -0.58,-4.56 0.17,-5.69 c 1.95,-2.55 4.41,-4.45 7.39,-5.69 c 0.28,-0.13 0.56,-0.26 0.84,-0.4 c 0.94,-0.42 1.9,-0.81 2.87,-1.17 c 5.28,-1.78 14.89,-3.37 19.58,0.23 Z M 309.23,265.03 c -5.09,6.22 -11.67,9.18 -19.72,8.9 c -0.74,0.29 -1.3,0.78 -1.69,1.49 c -1.42,2.86 -2.29,5.89 -2.63,9.08 c -0.59,1.26 -1.31,1.27 -2.15,0.03 c -3.56,-6.76 6.48,-19.06 10.28,-24.52 c 1.91,-3.28 4.88,-1.66 2.75,1.54 c -2.09,2.97 -4.07,6.01 -5.92,9.12 c -1.58,3.76 8.55,-1 9.39,-1.63 c 3.63,-1.99 10.93,-8.68 5.9,-12.64 c -3.97,-1.44 -9.47,-0.56 -13.38,0.87 c -4.16,1.23 -7.74,3.42 -10.73,6.55 c -0.98,1.36 -1.94,2.7 -2.86,4.03 c -0.44,-0.12 -0.71,-0.39 -0.81,-0.83 c -0.34,-3.33 0.88,-5.97 3.67,-7.91 c 2.68,-1.96 5.61,-3.45 8.77,-4.49 c 8.08,-3.01 27.5,-3.65 19.13,10.41 Z M 179.16,271.84 c -4.08,-0.48 -10.79,4.85 -11.14,8.61 c 2.18,2.38 10.67,-6.14 11.14,-8.61 c 1.7,-2.47 3.45,-4.95 5.24,-7.44 c 1.6,-2.09 6.31,-8.23 9.26,-5.79 c -2.75,3.05 -5.43,6.19 -8.06,9.42 c -2.83,3.99 -5.62,8.44 -5.81,13.47 c 0.01,1.68 0.33,3.3 0.96,4.84 c -0.11,0.11 -0.21,0.21 -0.32,0.32 c -4.76,-1.13 -3.67,-4.86 -3.88,-8.36 c -1.47,1.46 -3.08,2.74 -4.84,3.85 c -9.12,5.31 -9.54,-2.73 -3.96,-8.03 c 2.14,-2.3 9.44,-6.68 11.41,-2.28 Z M 217.68,267.31 c 1.81,-0.68 8.53,-10.52 8.76,-4.26 c -1.39,4.03 -5.02,4.25 -8.76,4.26 Z M 338.92,264.18 c 0.36,0.09 0.71,0.19 1.07,0.28 c 0.28,0.23 0.57,0.46 0.86,0.69 c 0.1,1.7 0.23,3.39 0.37,5.06 c 0.73,0.47 4.91,0.82 2,2.33 c -1.89,-0.32 -3.62,0.01 -5.21,1.01 c -0.95,1.21 -5.5,8.47 -1.54,8.33 c 1.46,-0.63 2.79,-1.45 4,-2.45 c 0.62,0.43 0.81,1.01 0.56,1.73 c -3.02,1.95 -4.81,4.58 -8.89,2.42 c -1.39,-3.55 -0.28,-6.14 1.5,-9.28 c 0.15,-0.41 0.08,-0.76 -0.22,-1.05 c -0.76,0.49 -1.58,0.63 -2.45,0.43 c -1.11,-0.72 -2.26,-1.37 -3.44,-1.98 c -2.06,-0.18 -2.79,0.69 -2.21,2.6 c 2.16,1.56 5.14,5.01 2.8,7.63 c -3.07,2.67 -6.34,2.93 -9.82,0.79 c -0.29,-1.13 0.09,-3.43 1.72,-2.19 c 2.21,3.2 6.9,1.65 4.64,-1.71 c -2.16,-1.87 -3.97,-2.95 -3.48,-6.2 c 2.67,-2.09 4.61,-3.33 8.3,-2.68 c 1.1,0.51 2.12,1.13 3.04,1.85 c 4.76,-1.05 5.5,-2.93 6.4,-7.61 Z M 382.91,269.22 c 1,0.34 1.86,0.91 2.57,1.69 c 0.37,1.28 0.74,2.51 1.09,3.71 c 1.71,-1.48 5.74,-6.94 8.25,-3.66 c 0.31,1.67 -0.21,3.56 -2.13,3.75 c -1.51,-1.19 -0.97,-1.73 -2.97,-0.42 c -2.01,1.82 -3.65,3.92 -4.95,6.32 c -1.58,0.93 -0.71,3.83 -3.06,2.57 c -0.87,-0.63 0.29,-3.04 -0.07,-4.15 c 0.34,-2.66 2.26,-7.34 1.27,-9.81 Z M 126.19,271.08 c -1.81,1.8 -0.57,1.37 -0.03,3.39 c -0.27,1.67 -0.47,3.34 -0.61,5.03 c 0.25,1.74 0.55,3.42 0.89,5.05 c -1.26,-0.19 -2.35,-0.7 -3.28,-1.55 c -0.77,-1.52 -1.29,-3.09 -1.55,-4.73 c -10.5,12.08 -17.86,1.72 -5.69,-6.06 c 1.99,-1.53 8.9,-3.98 10.27,-1.13 Z M 158.09,272.09 c -3.1,1.26 -8.2,4.86 -8.91,8.3 c 2,2.4 7.89,-4.88 9.08,-6.49 c 0.82,-1.07 2.77,-1.71 3.56,-0.25 c -0.15,1.93 -0.36,3.86 -0.64,5.8 c 0.03,1.43 0.32,2.81 0.87,4.13 c -1.3,2.01 -3.63,-0.72 -4,-2.18 c -0.1,-1.04 -0.31,-2.02 -0.65,-2.95 c -3.5,3.03 -6.08,5.99 -11.26,5.03 c -2.57,-2.41 1.43,-8.46 3.84,-10.03 c 1.83,-1.92 9.07,-5.33 11.01,-2.86 c 0.37,1.51 -2.02,1.32 -2.9,1.5 Z M 197.93,271.04 c 2.45,0.45 -0.16,4.35 -1.31,5.06 c -2.83,1.5 -5.83,2.47 -9.02,2.91 c -1.25,1.47 0.57,2.55 1.9,2.68 c 1.29,-0.26 2.58,-0.57 3.85,-0.93 c 1.02,-0.62 2.07,-1.14 3.16,-1.55 c 1.31,1.75 -3.28,3.69 -4.47,4.23 c -2.61,1.09 -5.13,0.96 -7.58,-0.37 c -4.67,-6.58 7.28,-15.71 13.47,-12.03 Z M 218.76,270.81 c 0.05,4.48 -5.95,7.62 -3.04,13.66 c -0.27,0.34 -0.62,0.47 -1.06,0.38 c -6.36,-1.97 -1.31,-10.61 1.35,-13.75 c 1.26,-1.39 1.21,-1.59 2.75,-0.29 Z M 316.77,274.98 c -0.64,2.95 -0.5,5.84 0.41,8.68 c -0.6,1.26 -1.4,0.43 -2.33,0 c -1.46,-1.36 -2.16,-3.05 -2.11,-5.07 c -1.02,0.47 -1.94,1.17 -2.75,2.08 c -1.41,1.81 -8.9,5.14 -9.37,1.42 c -0.03,-1.04 0.06,-2.07 0.28,-3.08 c 1.74,-3.65 4.45,-6.34 8.13,-8.08 c 2.03,-0.94 4.15,-1.24 6.35,-0.91 c 1.72,0.5 1.24,3.61 1.39,4.96 Z M 357.39,270.97 c 0.57,0.24 0.87,0.68 0.88,1.31 c -1.52,7.2 -8.22,4.14 -11.39,7.37 c 0.4,4.12 6.86,0.75 8.78,-0.32 c 1.13,0.06 1.23,0.5 0.3,1.32 c -3.22,3.15 -9.15,5.27 -12.76,1.63 c -1.65,-5.4 3.37,-9.76 7.87,-11.62 c 2.15,-0.84 4.26,-0.74 6.32,0.31 Z M 415.09,272.29 c -3.05,-0.99 -11.81,6.15 -9.53,8.67 c 2.59,-0.34 8.38,-5.85 9.55,-8.18 c 1.05,-0.19 1.85,0.17 2.37,1.09 c 0.01,1.04 -0.11,2.07 -0.37,3.1 c -0.31,2.29 -0.08,4.52 0.7,6.68 c 0.06,0.75 -0.29,1.09 -1.03,1.02 c -0.75,-0.52 -1.49,-1.07 -2.21,-1.66 c -0.61,-1.15 -1.09,-2.36 -1.44,-3.61 c -0.21,-0.07 -0.41,-0.15 -0.61,-0.22 c -1.79,1.52 -3.74,2.82 -5.85,3.88 c -1.66,0.56 -3.35,0.64 -5.06,0.25 c -1.62,-4.07 1.29,-7.62 4.39,-10.15 c 2.75,-2.36 5.92,-3.47 9.53,-3.33 c 0.9,0.08 1.29,0.54 1.17,1.38 c -0.56,0.32 -1.1,0.68 -1.61,1.08 Z M 113.29,280.7 c 3.15,1.26 11.07,-7.33 10.12,-8.6 c -4.25,0.57 -8.74,4.58 -10.12,8.6 Z M 188.22,276.77 c 2.19,0.75 5.07,-1.03 6.57,-2.54 c 0.84,-1.4 0.45,-2.11 -1.15,-2.11 c -2.38,0.89 -4.18,2.44 -5.42,4.65 Z M 304.24,280.76 c 3.16,1.3 8.72,-6.32 10.67,-8.31 c -3.14,-1.57 -10.25,5.17 -10.67,8.31 Z M 347.86,277.14 c 2.57,0.05 4.82,-1.33 6.58,-3.08 c 1.47,-2.95 -2.29,-2.04 -3.56,-0.86 c -1.47,0.99 -2.48,2.3 -3.02,3.94 Z"/></g>
<g><path fill="#ebceab" fill-opacity="0.043" d="M 347.86,277.14 c 0.54,-1.64 1.55,-2.95 3.02,-3.94 c 1.27,-1.18 5.03,-2.09 3.56,0.86 c -1.76,1.75 -4.01,3.13 -6.58,3.08 Z"/></g>
<g><path fill="#eacead" fill-opacity="0.02" d="M 179.16,271.84 c -0.47,2.47 -8.96,10.99 -11.14,8.61 c 0.35,-3.76 7.06,-9.09 11.14,-8.61 Z"/></g>
<g><path fill="#ecd19b" fill-opacity="0.024" d="M 113.29,280.7 c 1.38,-4.02 5.87,-8.03 10.12,-8.6 c 0.95,1.27 -6.97,9.86 -10.12,8.6 Z"/></g>
<g><path fill="#ebcfa3" fill-opacity="0.027" d="M 382.91,269.22 c 0.99,2.47 -0.93,7.15 -1.27,9.81 c 0.36,1.11 -0.8,3.52 0.07,4.15 c -1.61,1.51 -5.54,0.11 -7.67,0.28 c 1.23,-0.51 5.82,-2.47 4.48,-4.27 c -1.09,0.41 -2.14,0.93 -3.14,1.55 c -1.28,0.37 -2.58,0.68 -3.89,0.93 c -1.22,-0.1 -3.16,-1.18 -1.86,-2.54 c 4.26,-1.54 10.07,-1.18 11.27,-6.67 c -0.01,-0.84 -0.41,-1.37 -1.21,-1.6 c 0.46,-1.68 1.53,-2.22 3.22,-1.64 Z"/></g>
<g><path fill="#edcfa1" fill-opacity="0.953" d="M 379.69,270.86 c 0.8,0.23 1.2,0.76 1.21,1.6 c -1.2,5.49 -7.01,5.13 -11.27,6.67 c -1.3,1.36 0.64,2.44 1.86,2.54 c 1.31,-0.25 2.61,-0.56 3.89,-0.93 c 1,-0.62 2.05,-1.14 3.14,-1.55 c 1.34,1.8 -3.25,3.76 -4.48,4.27 c -2.59,0.83 -5.96,1.37 -8.02,-0.86 c -1.07,-2.53 -0.76,-4.9 0.93,-7.09 c 2.77,-3.54 8.25,-6.92 12.74,-4.65 Z M 370.23,276.76 c 2.14,1.01 5.03,-1.17 6.56,-2.54 c 0.77,-1.4 0.38,-2.09 -1.18,-2.08 c -2.36,0.89 -4.15,2.44 -5.38,4.62 Z"/></g>
</svg>