<svg xmlns="http://www.w3.org/2000/svg" xmlns:xlink="http://www.w3.org/1999/xlink" zoomAndPan="magnify" preserveAspectRatio="xMidYMid meet" version="1.0" viewBox="14.71 188.56 794.34 428.46"><defs><g/><clipPath id="3baf0bf9f1"><path d="M 297 438 L 467 438 L 467 546.140625 L 297 546.140625 Z M 297 438 " clip-rule="nonzero"/></clipPath><clipPath id="69d3c2e9ab"><path d="M 360 188.390625 L 392 188.390625 L 392 226 L 360 226 Z M 360 188.390625 " clip-rule="nonzero"/></clipPath><clipPath id="904ccca37f"><path d="M 235 188.390625 L 513 188.390625 L 513 411 L 235 411 Z M 235 188.390625 " clip-rule="nonzero"/></clipPath><clipPath id="9f7d2186bf"><path d="M 231 188.390625 L 518 188.390625 L 518 416 L 231 416 Z M 231 188.390625 " clip-rule="nonzero"/></clipPath><clipPath id="b9b5dccf52"><path d="M 0.480469 32 L 104 32 L 104 100 L 0.480469 100 Z M 0.480469 32 " clip-rule="nonzero"/></clipPath><clipPath id="58c1bb0f56"><rect x="0" width="108" y="0" height="128"/></clipPath></defs><path stroke-linecap="butt" transform="matrix(1.654036, 0, 0, 1.653278, -12.305127, 147.669987)" fill-opacity="0.016" fill="#000" fill-rule="evenodd" stroke-linejoin="miter" d="M 245.179372 45.819209 C 246.504256 47.70703 247.451276 49.767331 248.020433 52.000111 C 246.589275 52.24111 243.960762 50.650992 244.520473 53.429563 C 244.570067 55.941146 245.809932 56.869699 248.240067 56.23885 C 247.229282 59.629368 245.228967 62.299253 242.229675 64.229604 C 240.439547 64.309937 239.601162 63.49952 239.690904 61.788903 C 240.219913 61.169868 240.739476 60.560284 241.280293 59.950699 C 243.478986 55.719049 244.629108 52.399413 241.388929 48.189027 C 244.440177 47.969293 243.200312 46.46896 245.179372 45.819209 Z M 160.859128 80.860863 C 162.729552 80.719099 161.539282 83.4197 161.510942 84.360066 C 161.109462 84.650682 160.741045 84.979102 160.410415 85.340599 C 160.648941 88.390884 160.741045 91.460071 160.660749 94.529258 C 160.71979 95.559408 161.159057 96.391089 161.969102 97.029026 C 161.55109 97.749659 161.090569 98.449027 160.599346 99.129494 C 157.748838 93.000571 157.829134 86.909452 160.859128 80.860863 Z M 160.859128 80.860863 " stroke="#ffffff" stroke-width="0.5" stroke-opacity="0.016" stroke-miterlimit="4"/><path stroke-linecap="butt" transform="matrix(1.654036, 0, 0, 1.653278, -12.305127, 147.669987)" fill-opacity="0.031" fill="#000" fill-rule="evenodd" stroke-linejoin="miter" d="M 153.741124 72.381023 C 154.090647 73.111107 154.579508 73.720692 155.210068 74.209777 C 150.170313 80.341062 147.780327 87.719869 152.699637 94.779707 C 152.480004 95.169558 152.250924 95.559408 152.028929 95.949259 L 151.159843 95.859475 C 150.654451 95.006529 150.094741 94.189025 149.480712 93.409324 C 149.32012 88.766558 149.298866 84.123793 149.41931 79.481028 L 149.509052 78.810013 C 151.088994 77.640461 152.390261 76.22046 153.429386 74.559461 C 154.059946 74.070376 153.020821 72.109309 153.741124 72.381023 Z M 173.38058 110.198885 C 174.247304 110.040582 175.116391 110.016955 175.9902 110.130366 C 175.291152 111.139252 175.529679 111.789003 176.710502 112.08907 C 177.230065 113.090867 177.860624 114.028871 178.59982 114.900719 C 179.450013 115.600087 182.010038 114.91017 182.109227 116.230936 C 181.858893 117.020088 181.750257 117.830504 181.780958 118.659823 C 177.929112 116.868873 175.13056 114.050136 173.38058 110.198885 Z M 232.140719 143.929224 C 232.480796 143.811087 232.820873 143.690588 233.16095 143.57954 C 237.029328 145.550057 241.140956 146.15019 245.280923 147.189792 C 245.358857 147.180341 245.439153 147.17089 245.519449 147.17089 C 245.599745 147.860807 245.269115 148.219942 244.529919 148.250658 C 242.25093 148.798811 240.250615 148.319177 238.528974 146.809392 C 235.900461 146.110024 234.910931 147.870258 233.319181 145.190922 C 232.950764 145.030256 232.561092 144.940472 232.159612 144.900306 C 232.150166 144.578975 232.150166 144.250555 232.140719 143.929224 Z M 232.140719 143.929224 " stroke="#ffffff" stroke-width="0.5" stroke-opacity="0.031" stroke-miterlimit="4"/><path stroke-linecap="butt" transform="matrix(1.654036, 0, 0, 1.653278, -12.305127, 147.669987)" fill-opacity="0.035" fill="#000" fill-rule="evenodd" stroke-linejoin="miter" d="M 216.579827 89.569887 C 216.669569 90.269255 216.480638 90.890653 215.998862 91.410454 C 213.835593 92.91315 211.82347 94.597777 209.96013 96.459608 C 207.612653 98.666399 205.421045 101.017315 203.380582 103.509996 C 203.066483 103.330428 202.84685 103.070528 202.719321 102.730295 C 206.750652 97.730757 211.370034 93.340804 216.579827 89.569887 Z M 293.229442 90.748889 C 293.609667 91.039505 293.999339 91.330121 294.379564 91.630188 C 294.611005 95.800407 291.349571 93.409324 290.981154 95.079774 C 280.589907 93.279373 270.26951 93.669224 260.029408 96.230424 C 260.41908 95.259341 260.650522 94.269357 260.740264 93.251021 C 270.680436 93.199041 280.630055 93.279373 290.579674 93.520372 C 292.561096 93.269922 291.890388 91.750687 293.229442 90.748889 Z M 293.229442 90.748889 " stroke="#ffffff" stroke-width="0.5" stroke-opacity="0.035" stroke-miterlimit="4"/><g clip-path="url(#3baf0bf9f1)"><path fill="#000" d="M 320.074219 592.46875 C 321.050781 599.625 318.785156 604.785156 317.113281 611.464844 C 316.882812 613.085938 317.164062 614.589844 317.972656 615.976562 C 318.007812 615.910156 318.023438 615.84375 318.039062 615.777344 C 315.425781 618.390625 308.859375 616.027344 305.335938 616.273438 C 307.304688 615.382812 314.894531 612.175781 312.730469 609.28125 C 310.925781 609.960938 309.191406 610.820312 307.503906 611.84375 C 305.402344 612.4375 303.269531 612.953125 301.132812 613.382812 C 298.933594 613.167969 295.925781 611.382812 297.992188 608.949219 C 303.25 608.234375 308.222656 606.628906 312.910156 604.140625 C 314.8125 602.964844 319.128906 596.519531 315.078125 595.773438 C 316.367188 594.171875 318.039062 593.078125 320.074219 592.46875 M 466.175781 440.152344 C 465.628906 441.011719 464.867188 441.558594 463.890625 441.804688 C 463.675781 440.613281 462.933594 440.035156 461.660156 440.101562 C 452.28125 440.019531 442.902344 440.101562 433.523438 440.367188 C 432.828125 440.945312 432.714844 441.621094 433.210938 442.417969 C 435.292969 445.292969 436.683594 448.449219 437.425781 451.921875 C 433.109375 451.839844 428.808594 451.824219 424.492188 451.90625 C 424.410156 448.300781 424.34375 444.699219 424.261719 441.078125 C 424.144531 440.070312 424.527344 439.292969 425.371094 438.761719 C 438.550781 438.679688 451.71875 438.664062 464.882812 438.714844 C 465.613281 438.945312 466.042969 439.425781 466.175781 440.152344 " fill-opacity="0.031" fill-rule="evenodd"/></g><path stroke-linecap="butt" transform="matrix(1.654036, 0, 0, 1.653278, -12.305127, 147.669987)" fill-opacity="0.031" fill="#000" fill-rule="evenodd" stroke-linejoin="miter" d="M 218.020432 67.050704 C 217.739396 68.080854 217.040348 68.669174 215.909119 68.810938 C 215.547787 69.394532 215.35177 70.032469 215.321069 70.720024 C 211.950999 70.230939 211.570774 70.790906 209.249275 72.690541 C 208.321147 72.699992 207.390658 72.709443 206.469616 72.699992 C 204.870781 72.730708 202.150164 75.221025 201.009488 73.300126 C 206.46017 70.616064 212.128122 68.532136 218.020432 67.050704 Z M 223.001145 75.020193 C 217.982645 77.862558 213.089313 80.903392 208.321147 84.140332 C 207.990517 83.388984 208.059005 82.689616 208.528972 82.039865 C 209.719242 81.139665 211.04885 80.511179 212.510709 80.149681 C 213.403412 79.367617 214.133161 78.45324 214.699956 77.408914 C 218.388849 77.671177 217.241088 75.780992 219.60982 74.460226 C 220.750496 74.540559 221.869916 74.509843 222.97989 74.370442 C 222.989337 74.590176 223.001145 74.800459 223.001145 75.020193 Z M 294.740896 84.771181 C 295.510793 84.341164 296.30903 84.260832 297.149776 84.530183 C 298.68957 86.2408 300.290766 87.908887 301.951004 89.520269 C 302.668945 89.839238 303.401056 90.089687 304.159144 90.290519 C 303.530946 91.160004 303.290058 92.131086 303.438842 93.18959 C 300.996899 89.91012 298.096796 87.103196 294.740896 84.771181 Z M 181.688854 86.779502 C 181.880148 87.589919 181.790405 88.379071 181.419626 89.13987 C 179.220933 90.581135 178.899749 92.839906 176.21928 93.749557 C 177.700032 91.160004 179.530309 88.839803 181.688854 86.779502 Z M 314.980211 144.99009 C 316.390114 144.949923 315.289587 146.27069 315.339181 147.140174 C 314.429947 148.869693 313.270378 150.400742 311.851029 151.749861 C 309.368938 152.149163 310.389169 155.539681 306.799466 153.410861 C 308.46915 152.340544 309.994774 151.093022 311.376337 149.670659 C 312.755539 148.248295 313.957618 146.688893 314.980211 144.99009 Z M 314.980211 144.99009 " stroke="#ffffff" stroke-width="0.5" stroke-opacity="0.031" stroke-miterlimit="4"/><path stroke-linecap="butt" transform="matrix(1.654036, 0, 0, 1.653278, -12.305127, 147.669987)" fill-opacity="0.027" fill="#000" fill-rule="evenodd" stroke-linejoin="miter" d="M 232.060423 47.839343 C 232.440648 47.669227 232.83032 47.510924 233.210545 47.340807 C 236.738846 49.890193 240.940216 53.110595 240.408845 58.010897 C 239.700351 58.150299 239.01075 58.119583 238.321149 57.921114 C 239.16898 56.919316 239.379167 55.799382 238.970602 54.558948 C 238.04956 53.46973 236.960841 52.57898 235.709168 51.879612 C 234.818827 50.599012 234.209522 48.64976 232.27061 48.869494 Z M 291.160639 117.539889 C 297.718933 118.829939 303.089318 122.050341 307.27888 127.210544 C 306.589279 127.619296 305.880785 127.680727 305.139228 127.399562 C 304.170952 126.040992 303.138913 124.729677 302.050193 123.470342 C 301.011069 122.860757 299.870393 122.570141 298.649422 122.600857 C 297.910226 121.920391 297.130883 121.339159 296.290136 120.840623 C 296.219287 119.08984 292.990916 119.049673 291.859687 119.838825 C 291.609352 119.080389 291.380272 118.310139 291.160639 117.539889 Z M 291.160639 117.539889 " stroke="#ffffff" stroke-width="0.5" stroke-opacity="0.027" stroke-miterlimit="4"/><path stroke-linecap="butt" transform="matrix(1.654036, 0, 0, 1.653278, -12.305127, 147.669987)" fill-opacity="0.043" fill="#000" fill-rule="evenodd" stroke-linejoin="miter" d="M 172.830316 117.67929 C 176.701056 119.600189 182.749234 121.710108 187.040346 120.729575 C 187.800797 121.109974 188.589587 121.14069 189.399632 120.840623 C 192.0494 124.129543 196.05003 127.63111 200.05066 129.060562 C 200.310441 130.759365 196.980518 130.230113 196.019328 130.369514 C 196.430255 129.818998 196.501104 129.24958 196.210622 128.639996 C 194.599978 127.829579 193.100332 126.839595 191.721131 125.679495 C 191.149612 124.646981 190.379715 123.794036 189.409078 123.120658 C 187.798435 122.780424 186.17126 122.546514 184.529915 122.418927 C 182.631151 122.700092 180.730025 122.718993 178.840708 122.49926 C 178.420335 121.261189 177.570142 120.720124 176.268874 120.880789 C 176.401126 119.34974 172.969653 120.519292 171.98957 119.949873 C 171.949422 119.080389 172.221011 118.32904 172.830316 117.67929 Z M 172.830316 117.67929 " stroke="#ffffff" stroke-width="0.5" stroke-opacity="0.043" stroke-miterlimit="4"/><path stroke-linecap="butt" transform="matrix(1.654036, 0, 0, 1.653278, -12.305127, 147.669987)" fill-opacity="0.039" fill="#000" fill-rule="evenodd" stroke-linejoin="miter" d="M 301.150406 102.640511 C 300.578887 102.860245 300.21047 103.268997 300.059325 103.85968 C 299.400426 101.960045 295.199056 102.96893 293.659262 102.690128 C 292.861025 100.970061 291.479462 100.209261 289.509848 100.410094 C 284.47954 100.639278 279.46104 100.719611 274.430732 100.660543 C 273.630133 100.669994 272.968872 100.988962 272.461118 101.610361 C 272.064362 101.097648 271.908493 100.521142 271.99115 99.880842 C 281.229914 98.330891 292.690986 97.94104 301.150406 102.640511 Z M 301.150406 102.640511 " stroke="#ffffff" stroke-width="0.5" stroke-opacity="0.039" stroke-miterlimit="4"/><path fill="#000" d="M 293.492188 240.566406 C 302.625 240.089844 311.804688 239.890625 321.015625 239.988281 C 322.355469 239.957031 323.664062 240.15625 324.9375 240.585938 C 325.25 241.511719 325.316406 242.46875 325.117188 243.445312 C 314.632812 241.3125 304.160156 241.359375 293.691406 243.578125 C 293.359375 242.585938 293.292969 241.59375 293.492188 240.566406 M 240.265625 304.367188 C 242.664062 307.804688 245.640625 310.617188 249.199219 312.816406 C 247.097656 312.222656 245.0625 312.320312 243.078125 313.113281 C 244.832031 309.691406 241.621094 309.542969 239.242188 309.492188 C 240.050781 308.402344 240.019531 307.328125 239.15625 306.300781 C 239.523438 305.65625 239.902344 305.011719 240.265625 304.367188 M 450.972656 333.070312 C 455.027344 332.6875 459.113281 332.507812 463.246094 332.554688 C 466.871094 332.554688 470.441406 332.738281 473.964844 333.101562 C 473.949219 334.125 473.949219 335.152344 473.964844 336.175781 C 466.257812 334.96875 458.53125 334.953125 450.824219 336.144531 C 450.757812 335.101562 450.808594 334.078125 450.972656 333.070312 " fill-opacity="0.059" fill-rule="evenodd"/><path stroke-linecap="butt" transform="matrix(1.654036, 0, 0, 1.653278, -12.305127, 147.669987)" fill-opacity="0.075" fill="#000" fill-rule="evenodd" stroke-linejoin="miter" d="M 208.729712 60.049934 C 209.610607 60.850899 210.659178 61.160417 211.889596 60.98085 C 212.250928 61.590434 212.779937 61.909403 213.500239 61.930667 C 216.919904 61.989735 220.339569 62.079519 223.759234 62.200018 C 223.919826 62.790701 223.919826 63.390834 223.771042 63.990968 C 218.939112 63.36957 214.109544 63.431001 209.298869 64.170535 C 209.379165 62.871034 208.779307 62.150401 207.511102 61.989735 C 203.160949 62.119686 198.820241 62.159852 194.479534 62.119686 C 193.490004 62.119686 192.58077 61.850334 191.74947 61.321083 C 197.365467 60.290932 203.023973 59.868004 208.729712 60.049934 Z M 208.729712 60.049934 " stroke="#ffffff" stroke-width="0.5" stroke-opacity="0.075" stroke-miterlimit="4"/><path stroke-linecap="butt" transform="matrix(1.654036, 0, 0, 1.653278, -12.305127, 147.669987)" fill-opacity="0.027" fill="#000" fill-rule="evenodd" stroke-linejoin="miter" d="M 301.150406 102.640511 C 306.660128 105.700247 309.959349 110.309934 311.05043 116.490836 C 311.180321 117.920288 311.588886 122.090507 308.920225 120.519292 C 306.986036 119.061487 304.929041 117.804514 302.749241 116.750737 C 306.549131 112.970368 307.229285 120.190872 309.220154 117.530438 C 309.43034 116.178956 309.43034 114.820386 309.220154 113.459453 C 308.351068 112.448205 307.784272 111.288104 307.519768 109.979151 C 305.290373 108.441014 304.369331 108.320515 302.730348 105.849099 C 301.849453 105.159182 300.959113 104.49998 300.059325 103.85968 C 300.21047 103.268997 300.578887 102.860245 301.150406 102.640511 Z M 301.150406 102.640511 " stroke="#ffffff" stroke-width="0.5" stroke-opacity="0.027" stroke-miterlimit="4"/><path stroke-linecap="butt" transform="matrix(1.654036, 0, 0, 1.653278, -12.305127, 147.669987)" fill-opacity="0.035" fill="#000" fill-rule="evenodd" stroke-linejoin="miter" d="M 210.930767 132.080131 C 213.349094 131.650114 213.55928 132.380198 215.389557 133.509583 C 217.43002 133.400897 217.930689 134.171147 219.569672 135.180033 C 222.030508 135.669118 221.050425 133.181163 220.379717 132.120298 C 221.019723 131.950181 221.669176 131.869848 222.330437 131.869848 C 223.109781 133.871081 224.17016 135.721099 225.490321 137.419902 C 225.239986 138.310651 224.26935 137.630185 223.678938 137.701067 C 220.710348 136.859935 217.770097 135.950283 214.851101 134.991015 C 214.709402 133.769483 211.660516 133.218967 210.930767 132.080131 Z M 231.621157 136.3803 C 232.4005 136.188919 233.18929 136.139302 233.980442 136.25035 C 235.79891 138.589453 237.199367 140.479637 239.808987 142.020138 C 239.950686 142.660438 240.019173 143.300738 240.030982 143.959939 C 236.42947 142.29894 233.630918 139.780269 231.621157 136.3803 Z M 231.621157 136.3803 " stroke="#ffffff" stroke-width="0.5" stroke-opacity="0.035" stroke-miterlimit="4"/><path fill="#000" d="M 374.476562 190.554688 C 374.738281 191.761719 374.574219 192.902344 373.976562 193.960938 C 369.976562 198.457031 367.808594 197.878906 368.601562 204.773438 C 367.925781 207.023438 372.96875 208.644531 374.257812 210.164062 C 374.691406 211.617188 375.136719 213.074219 375.597656 214.527344 C 377.832031 214.59375 377.683594 212.113281 377.914062 210.578125 C 378.957031 211.386719 380.113281 211.964844 381.386719 212.296875 C 383.40625 213.46875 385.277344 214.84375 386.996094 216.429688 C 383.441406 216.03125 381.355469 217.570312 380.742188 221.007812 C 376.871094 218.011719 373.160156 214.824219 369.613281 211.453125 C 361.457031 204.03125 365.757812 194.804688 374.476562 190.554688 Z M 374.476562 190.554688 " fill-opacity="0.031" fill-rule="evenodd"/><g clip-path="url(#69d3c2e9ab)"><path stroke-linecap="butt" transform="matrix(1.654036, 0, 0, 1.653278, -12.305127, 147.669987)" fill="none" stroke-linejoin="miter" d="M 233.841105 25.939196 C 233.999335 26.669279 233.900146 27.359197 233.538814 27.999497 C 231.120487 30.718999 229.809773 30.369315 230.289188 34.539534 C 229.880623 35.900467 232.929509 36.881 233.708853 37.800102 C 233.970995 38.679038 234.240223 39.560336 234.518898 40.439272 C 235.86976 40.479438 235.780017 38.979105 235.919354 38.050551 C 236.549914 38.539637 237.248961 38.889321 238.018858 39.090153 C 239.23983 39.798972 240.371059 40.630653 241.410183 41.589922 C 239.261085 41.348923 237.999965 42.279839 237.629187 44.359042 C 235.288794 42.546827 233.04523 40.618839 230.900854 38.579803 C 225.969735 34.090615 228.569909 28.509846 233.841105 25.939196 Z M 233.841105 25.939196 " stroke="#ffffff" stroke-width="0.5" stroke-opacity="0.031" stroke-miterlimit="4"/></g><path stroke-linecap="butt" transform="matrix(1.654036, 0, 0, 1.653278, -12.305127, 147.669987)" fill-opacity="0.039" fill="#000" fill-rule="evenodd" stroke-linejoin="miter" d="M 237.82048 75.469112 C 237.780332 79.029747 240.550544 77.200993 240.999257 78.98958 C 239.910538 79.280196 238.970602 79.799997 238.170004 80.548982 C 238.528974 80.91048 238.980049 81.090047 239.499611 81.099498 C 241.639263 80.579698 243.809617 80.248915 246.010672 80.090613 C 245.380112 83.450415 241.910853 82.380098 239.499611 82.080032 C 237.400107 82.020963 234.929824 83.110182 233.290841 81.238899 C 231.510159 81.331046 229.880623 81.860298 228.390424 82.850282 C 227.809458 82.880997 227.280449 82.729782 226.801035 82.389549 C 230.471035 80.069348 234.141034 77.770411 237.82048 75.469112 Z M 237.82048 75.469112 " stroke="#ffffff" stroke-width="0.5" stroke-opacity="0.039" stroke-miterlimit="4"/><path stroke-linecap="butt" transform="matrix(1.654036, 0, 0, 1.653278, -12.305127, 147.669987)" fill-opacity="0.024" fill="#000" fill-rule="evenodd" stroke-linejoin="miter" d="M 271.920301 152.170427 C 277.330834 152.019212 284.281161 151.678979 289.531103 152.319279 C 290.879603 152.479945 293.989892 150.629927 294.011147 152.990295 C 286.65934 155.100213 279.250853 155.419181 271.759709 153.949563 C 272.028937 153.370694 272.080893 152.780012 271.920301 152.170427 Z M 271.920301 152.170427 " stroke="#ffffff" stroke-width="0.5" stroke-opacity="0.024" stroke-miterlimit="4"/><path fill="#000" d="M 796.453125 422.363281 C 797.015625 422.179688 797.59375 422 798.15625 421.816406 C 803.679688 422.808594 804.457031 421.335938 800.488281 417.402344 C 799.714844 418.289062 799.246094 419.3125 799.082031 420.476562 C 797.3125 418.179688 798.15625 413.003906 798.46875 410.242188 C 799.875 410.773438 801.316406 410.90625 802.804688 410.640625 C 803.25 411.582031 803.976562 412.210938 804.972656 412.542969 C 804.191406 414.855469 801.945312 417.847656 805.832031 418.757812 C 807.914062 417.648438 806.957031 412.046875 804.972656 412.542969 C 804.753906 411.335938 804.027344 410.707031 802.804688 410.640625 C 802.917969 408.195312 799.644531 408.226562 798.171875 409.316406 C 797.496094 409.054688 796.832031 408.789062 796.171875 408.507812 C 806.527344 403.449219 814.085938 415.796875 804.972656 423.105469 C 802.835938 424.347656 797.429688 425.617188 796.453125 422.363281 M 799.777344 411.964844 C 799.660156 413.136719 799.960938 414.179688 800.671875 415.070312 C 801.925781 413.617188 801.628906 412.574219 799.777344 411.964844 " fill-opacity="0.753" fill-rule="evenodd"/><path stroke-linecap="butt" transform="matrix(1.654036, 0, 0, 1.653278, -12.305127, 147.669987)" fill-opacity="0.035" fill="#000" fill-rule="evenodd" stroke-linejoin="miter" d="M 274.000912 75.979462 C 265.68083 74.460226 257.389087 74.609078 249.139854 76.440194 C 249.180002 75.71011 249.479931 75.119428 250.049088 74.67996 C 251.588882 74.55001 253.100336 74.231041 254.569281 73.720692 C 260.548971 73.890808 266.531023 73.990043 272.520159 74.008945 C 273.710429 74.150708 274.211099 74.80991 274.000912 75.979462 Z M 297.888971 157.649599 C 298.03067 158.419849 298.040117 159.180648 297.929119 159.950898 C 296.290136 160.080848 292.261167 160.74005 291.309423 159.029433 C 293.479777 158.8097 295.669023 158.348967 297.888971 157.649599 Z M 297.888971 157.649599 " stroke="#ffffff" stroke-width="0.5" stroke-opacity="0.035" stroke-miterlimit="4"/><path stroke-linecap="butt" transform="matrix(1.654036, 0, 0, 1.653278, -12.305127, 147.669987)" fill-opacity="0.02" fill="#000" fill-rule="evenodd" stroke-linejoin="miter" d="M 199.020981 74.320825 C 200.669411 77.139562 199.429546 76.270078 197.389083 76.560693 C 195.39113 78.169713 196.659334 78.869081 193.310519 78.72968 C 192.790957 78.850179 192.568962 79.169148 192.679959 79.688948 C 192.219438 79.979564 191.730577 80.149681 191.199207 80.199298 C 191.100017 81.950081 187.711054 82.630548 186.839606 84.369517 C 185.680038 85.47055 184.329175 85.900566 182.798828 85.659568 C 187.531569 80.915205 192.937379 77.134837 199.020981 74.320825 Z M 199.020981 74.320825 " stroke="#ffffff" stroke-width="0.5" stroke-opacity="0.02" stroke-miterlimit="4"/><path fill="#000" d="M 490.785156 296.945312 C 492.292969 296.976562 490.554688 299.96875 491.316406 300.847656 C 492.65625 302.433594 494.195312 303.839844 495.964844 305.027344 C 496.261719 306.1875 496.59375 307.328125 497.003906 308.46875 C 498.214844 309.574219 499.140625 310.882812 499.769531 312.386719 C 498.992188 315.691406 500.296875 316.949219 503.671875 316.171875 C 504.019531 317.363281 502.945312 320.039062 504.894531 319.910156 C 505.90625 321.613281 509.742188 326.175781 505.308594 326.257812 C 503.636719 321.414062 498.808594 317.792969 496.128906 313.460938 C 494.175781 309.425781 492.011719 305.523438 489.59375 301.738281 C 489.347656 299.988281 489.746094 298.382812 490.785156 296.945312 " fill-opacity="0.024" fill-rule="evenodd"/><path stroke-linecap="butt" transform="matrix(1.654036, 0, 0, 1.653278, -12.305127, 147.669987)" fill-opacity="0.02" fill="#000" fill-rule="evenodd" stroke-linejoin="miter" d="M 234.039483 107.370697 C 229.03043 110.60055 225.239986 114.888905 222.670515 120.231038 C 221.928957 119.448975 221.749472 118.570039 222.129697 117.570604 C 222.531177 116.689306 223.100334 115.94032 223.820637 115.309471 C 224.059163 113.338954 225.128989 112.08907 227.049008 111.559818 C 227.589825 110.770666 228.109388 109.969701 228.610057 109.140382 C 229.831028 108.389034 230.900854 107.469932 231.828982 106.390164 C 232.96021 105.938883 233.689959 106.269665 234.039483 107.370697 Z M 234.039483 107.370697 " stroke="#ffffff" stroke-width="0.5" stroke-opacity="0.02" stroke-miterlimit="4"/><path stroke-linecap="butt" transform="matrix(1.654036, 0, 0, 1.653278, -12.305127, 147.669987)" fill-opacity="0.035" fill="#000" fill-rule="evenodd" stroke-linejoin="miter" d="M 220.880386 37.08892 C 223.419157 41.389089 229.25951 44.399208 233.210545 47.340807 C 232.83032 47.510924 232.440648 47.669227 232.060423 47.839343 C 231.370822 48.030724 230.690668 48.00946 230.010513 47.770824 C 230.119149 47.619609 230.2207 47.480208 230.329336 47.340807 C 229.120172 46.480773 228.109388 45.429358 227.299343 44.200739 C 226.349961 43.69984 225.350984 43.31944 224.309498 43.068991 C 223.369562 41.209522 221.869916 40.110852 219.820007 39.78007 C 219.990045 38.768822 220.339569 37.870984 220.880386 37.08892 Z M 220.880386 37.08892 " stroke="#ffffff" stroke-width="0.5" stroke-opacity="0.035" stroke-miterlimit="4"/><path fill="#000" d="M 509.972656 384.867188 C 512.453125 379.292969 513.164062 373.492188 512.15625 367.472656 C 515.664062 366.730469 513.28125 362.183594 514.457031 359.867188 C 514.804688 368.085938 514.902344 376.316406 514.738281 384.550781 C 513.199219 384.734375 511.609375 384.847656 509.972656 384.867188 " fill-opacity="0.051" fill-rule="evenodd"/><path stroke-linecap="butt" transform="matrix(1.654036, 0, 0, 1.653278, -12.305127, 147.669987)" fill-opacity="0.039" fill="#000" fill-rule="evenodd" stroke-linejoin="miter" d="M 247.67091 39.309887 C 247.949584 39.749355 248.329809 40.058872 248.821032 40.240803 C 248.870626 40.68027 249.109153 40.980337 249.538972 41.141003 C 252.398927 41.429256 250.620607 41.77894 251.910066 43.439939 C 254.08042 43.900672 254.64013 45.141105 253.610452 47.139975 C 250.559204 43.279274 246.690826 40.559771 242.000595 38.990918 C 242.121039 38.069453 242.650048 37.741034 243.589984 38.000934 C 245.099076 38.87987 245.729636 39.560336 247.67091 39.309887 Z M 248.710034 99.710725 C 244.090653 101.511126 239.66965 103.750994 235.430493 106.43033 C 235.340751 105.990863 235.430493 105.601012 235.709168 105.248965 C 236.665635 104.585038 237.558337 103.843141 238.389637 103.030361 C 239.749946 102.680677 240.98981 102.089995 242.121039 101.260676 C 242.399714 100.620377 242.569752 99.970626 242.640602 99.309061 C 244.409475 99.590226 246.100414 99.361041 247.711058 98.619144 C 248.140877 98.890858 248.480955 99.249993 248.710034 99.710725 Z M 248.710034 99.710725 " stroke="#ffffff" stroke-width="0.5" stroke-opacity="0.039" stroke-miterlimit="4"/><path fill="#000" d="M 513.84375 440.050781 C 501.953125 439.671875 490.042969 439.539062 478.101562 439.65625 C 474.511719 439.703125 470.921875 439.902344 467.347656 440.234375 C 467.613281 439.027344 468.40625 438.480469 469.714844 438.628906 C 484.054688 438.597656 498.394531 438.664062 512.71875 438.828125 C 513.332031 439.042969 513.695312 439.441406 513.84375 440.050781 " fill-opacity="0.251" fill-rule="evenodd"/><path stroke-linecap="butt" transform="matrix(1.654036, 0, 0, 1.653278, -12.305127, 147.669987)" fill-opacity="0.031" fill="#000" fill-rule="evenodd" stroke-linejoin="miter" d="M 251.019725 106.479948 C 251.940767 107.13915 252.039957 107.881047 251.310208 108.700914 C 248.669886 108.530798 248.169217 110.279218 246.40979 111.689768 C 245.599745 111.959119 244.820402 112.259186 244.041058 112.589968 C 243.219205 113.849304 242.198974 114.028871 240.970917 113.149936 C 244.059951 110.529668 247.411128 108.311064 251.019725 106.479948 Z M 251.019725 106.479948 " stroke="#ffffff" stroke-width="0.5" stroke-opacity="0.031" stroke-miterlimit="4"/><path stroke-linecap="butt" transform="matrix(1.654036, 0, 0, 1.653278, -12.305127, 147.669987)" fill-opacity="0.027" fill="#000" fill-rule="evenodd" stroke-linejoin="miter" d="M 170.310439 84.300998 C 167.431591 87.7813 165.40766 91.705795 164.241006 96.069758 C 162.831103 96.01069 163.579745 91.630188 163.390813 90.670919 C 164.437023 90.113315 165.36515 89.39977 166.170472 88.530285 C 166.460954 87.800202 166.720735 87.070118 166.959262 86.330583 C 168.440014 85.680833 168.18968 83.440964 170.310439 84.300998 Z M 170.310439 84.300998 " stroke="#ffffff" stroke-width="0.5" stroke-opacity="0.027" stroke-miterlimit="4"/><path stroke-linecap="butt" transform="matrix(1.654036, 0, 0, 1.653278, -12.305127, 147.669987)" fill-opacity="0.035" fill="#000" fill-rule="evenodd" stroke-linejoin="miter" d="M 160.200228 69.200788 C 158.388845 70.729475 156.730969 72.399925 155.210068 74.209777 C 154.579508 73.720692 154.090647 73.111107 153.741124 72.381023 C 156.619971 73.739593 158.450248 66.209572 160.200228 69.200788 Z M 200.990595 104.979614 C 202.010827 105.248965 201.37082 109.530233 198.950132 107.980282 C 199.590138 106.950131 200.270293 105.950696 200.990595 104.979614 Z M 200.990595 104.979614 " stroke="#ffffff" stroke-width="0.5" stroke-opacity="0.035" stroke-miterlimit="4"/><path stroke-linecap="butt" transform="matrix(1.654036, 0, 0, 1.653278, -12.305127, 147.669987)" fill-opacity="0.027" fill="#000" fill-rule="evenodd" stroke-linejoin="miter" d="M 235.180159 68.499057 C 231.581009 70.349075 228.000752 72.251073 224.448835 74.200326 C 224.059163 73.340292 223.978867 72.458994 224.200862 71.539891 C 224.980205 71.539891 225.768995 71.46901 226.550701 71.329608 C 228.390424 69.479591 227.740971 69.47014 230.471035 69.21969 C 231.86913 67.80914 233.439625 67.570504 235.180159 68.499057 Z M 235.180159 68.499057 " stroke="#ffffff" stroke-width="0.5" stroke-opacity="0.027" stroke-miterlimit="4"/><path fill="#000" d="M 796.171875 408.507812 C 796.832031 408.789062 797.496094 409.054688 798.171875 409.316406 C 798.273438 409.632812 798.371094 409.929688 798.46875 410.242188 C 798.15625 413.003906 797.3125 418.179688 799.082031 420.476562 C 798.769531 420.921875 798.453125 421.371094 798.15625 421.816406 C 797.59375 422 797.015625 422.179688 796.453125 422.363281 C 789.886719 418.988281 790.085938 412.277344 796.171875 408.507812 M 794.714844 413.816406 C 794.996094 415.402344 794.152344 417.386719 795.691406 418.476562 C 797.90625 417.171875 797.660156 413.847656 795.640625 412.542969 C 795.011719 412.722656 794.699219 413.152344 794.714844 413.816406 " fill-opacity="0.616" fill-rule="evenodd"/><path stroke-linecap="butt" transform="matrix(1.654036, 0, 0, 1.653278, -12.305127, 147.669987)" fill-opacity="0.071" fill="#000" fill-rule="evenodd" stroke-linejoin="miter" d="M 294.379564 91.630188 C 295.470645 92.629623 299.87984 95.831122 299.870393 97.30074 C 296.960844 96.490324 293.989892 95.750789 290.981154 95.079774 C 291.349571 93.409324 294.611005 95.800407 294.379564 91.630188 Z M 294.379564 91.630188 " stroke="#ffffff" stroke-width="0.5" stroke-opacity="0.071" stroke-miterlimit="4"/><path fill="#000" d="M 343.578125 373.375 C 348.789062 376.316406 354.230469 378.730469 359.917969 380.632812 C 359.804688 382.136719 358.992188 382.816406 357.488281 382.652344 C 354.230469 380.5 348.902344 381.394531 347.101562 377.789062 C 345.398438 377.34375 343.742188 376.847656 342.136719 376.316406 C 342.105469 375.09375 342.585938 374.121094 343.578125 373.375 " fill-opacity="0.027" fill-rule="evenodd"/><path fill="#000" d="M 381.886719 243.429688 C 383.027344 243.757812 384.167969 243.808594 385.339844 243.578125 C 385.078125 244.535156 384.796875 245.496094 384.515625 246.453125 C 383.042969 247.496094 382.925781 248.621094 384.152344 249.824219 C 384.003906 252.652344 385.390625 253.992188 388.351562 253.859375 C 385.082031 256.203125 381.664062 258.308594 378.097656 260.175781 C 378.097656 259.464844 378.261719 258.820312 378.609375 258.191406 C 380.578125 256.753906 382.53125 257.761719 382.546875 254.605469 C 381.785156 250.386719 380.511719 247.757812 381.886719 243.429688 " fill-opacity="0.051" fill-rule="evenodd"/><path stroke-linecap="butt" transform="matrix(1.654036, 0, 0, 1.653278, -12.305127, 147.669987)" fill-opacity="0.055" fill="#000" fill-rule="evenodd" stroke-linejoin="miter" d="M 280.101046 83.700865 C 284.389797 85.205924 288.388066 87.280401 292.091128 89.919571 C 290.65997 90.120403 289.290215 89.969188 287.960607 89.480103 C 286.690041 87.360734 286.649893 87.53085 284.281161 87.150451 C 283.038935 85.669019 282.110808 85.520167 280.370274 85.009817 C 280.060898 84.619967 279.971156 84.180499 280.101046 83.700865 Z M 280.101046 83.700865 " stroke="#ffffff" stroke-width="0.5" stroke-opacity="0.055" stroke-miterlimit="4"/><path stroke-linecap="butt" transform="matrix(1.654036, 0, 0, 1.653278, -12.305127, 147.669987)" fill-opacity="0.035" fill="#000" fill-rule="evenodd" stroke-linejoin="miter" d="M 225.950842 82.949516 C 226.479851 83.559101 226.659336 84.239567 226.470405 84.990915 C 225.480874 85.300433 224.479536 85.560333 223.449858 85.789518 C 222.009253 87.01105 220.589904 88.220768 219.18 89.430486 C 218.329807 89.740003 217.460721 89.789621 216.579827 89.569887 C 219.60982 87.230784 222.729556 85.019268 225.950842 82.949516 Z M 225.950842 82.949516 " stroke="#ffffff" stroke-width="0.5" stroke-opacity="0.035" stroke-miterlimit="4"/><path stroke-linecap="butt" transform="matrix(1.654036, 0, 0, 1.653278, -12.305127, 147.669987)" fill-opacity="0.02" fill="#000" fill-rule="evenodd" stroke-linejoin="miter" d="M 307.030907 145.420107 C 305.148674 147.574917 302.909833 149.24773 300.30966 150.440909 C 299.050902 146.490423 300.890625 147.75921 303.360908 146.849558 C 303.90881 146.060407 306.49009 143.081004 307.030907 145.420107 Z M 307.030907 145.420107 " stroke="#ffffff" stroke-width="0.5" stroke-opacity="0.02" stroke-miterlimit="4"/><path stroke-linecap="butt" transform="matrix(1.654036, 0, 0, 1.653278, -12.305127, 147.669987)" fill-opacity="0.027" fill="#000" fill-rule="evenodd" stroke-linejoin="miter" d="M 253.338862 62.800152 C 253.601005 63.570402 253.619898 64.350103 253.400265 65.139255 C 252.639815 66.100886 248.830478 68.749507 249.730266 70.150606 C 248.499848 69.590639 247.229282 69.519757 245.930376 69.930872 C 248.759629 67.929639 251.229912 65.55037 253.338862 62.800152 Z M 253.338862 62.800152 " stroke="#ffffff" stroke-width="0.5" stroke-opacity="0.027" stroke-miterlimit="4"/><path stroke-linecap="butt" transform="matrix(1.654036, 0, 0, 1.653278, -12.305127, 147.669987)" fill-opacity="0.063" fill="#000" fill-rule="evenodd" stroke-linejoin="miter" d="M 191.140165 69.359091 C 188.391208 70.549907 185.722547 71.896664 183.129459 73.39936 C 182.668938 72.959892 181.74081 71.78089 182.640598 71.289442 C 185.509999 71.310707 185.089626 71.239825 186.610526 69.340189 C 189.120957 69.578825 189.019406 67.579955 191.140165 69.359091 Z M 191.140165 69.359091 " stroke="#ffffff" stroke-width="0.5" stroke-opacity="0.063" stroke-miterlimit="4"/><path fill="#000" d="M 354.875 194.96875 C 351.1875 199.234375 350.574219 203.914062 353.039062 208.988281 C 352.144531 210.28125 351.566406 211.765625 351.285156 213.4375 C 350.839844 213.386719 350.574219 213.140625 350.492188 212.675781 C 350.425781 206.792969 350.457031 200.90625 350.558594 195.019531 C 351.929688 193.78125 354.660156 191.613281 354.875 194.96875 " fill-opacity="0.039" fill-rule="evenodd"/><path fill="#000" d="M 325.167969 291.984375 C 323.828125 293.042969 322.421875 294.019531 320.964844 294.910156 C 317.558594 298.101562 314.136719 301.292969 310.679688 304.46875 C 310.714844 303.015625 311.136719 301.6875 311.953125 300.484375 C 314.960938 298.101562 317.113281 297.109375 318.734375 293.355469 C 320.058594 292.316406 321.445312 291.390625 322.886719 290.578125 C 324.191406 290.316406 324.953125 290.777344 325.167969 291.984375 " fill-opacity="0.086" fill-rule="evenodd"/><path stroke-linecap="butt" transform="matrix(1.654036, 0, 0, 1.653278, -12.305127, 147.669987)" fill-opacity="0.043" fill="#000" fill-rule="evenodd" stroke-linejoin="miter" d="M 182.798828 85.659568 C 182.659491 86.269152 182.291074 86.640101 181.688854 86.779502 C 182.059633 86.410916 182.430411 86.030517 182.798828 85.659568 Z M 165.280131 110.019318 C 166.479847 112.259186 168.059789 114.180086 170.019956 115.789105 C 169.620838 117.279988 167.920452 115.569371 167.33004 115.188972 C 166.685311 113.965078 165.799693 112.951466 164.670826 112.150501 C 164.710974 111.110899 163.719082 110.009867 165.280131 110.019318 Z M 165.280131 110.019318 " stroke="#ffffff" stroke-width="0.5" stroke-opacity="0.043" stroke-miterlimit="4"/><path fill="#000" d="M 394.472656 263.285156 C 396.621094 262.605469 398.722656 262.722656 400.757812 263.648438 C 400.773438 265.183594 396.539062 263.996094 395.53125 265.101562 C 394.394531 267.105469 392.886719 268.761719 391 270.078125 C 389.242188 269.925781 387.496094 269.71875 385.753906 269.449219 C 388.734375 267.484375 391.644531 265.433594 394.472656 263.285156 " fill-opacity="0.031" fill-rule="evenodd"/><path fill="#000" d="M 355.421875 347.882812 C 353.203125 353.816406 353.203125 359.753906 355.4375 365.6875 C 354.34375 365.6875 353.269531 365.820312 352.210938 366.101562 C 353.417969 363.953125 350.773438 362.613281 351.1875 360.25 C 351.863281 354.941406 349.449219 351.039062 355.421875 347.882812 " fill-opacity="0.063" fill-rule="evenodd"/><path stroke-linecap="butt" transform="matrix(1.654036, 0, 0, 1.653278, -12.305127, 147.669987)" fill-opacity="0.059" fill="#000" fill-rule="evenodd" stroke-linejoin="miter" d="M 186.990752 115.999388 C 187.529207 117.750172 188.329805 119.359191 189.399632 120.840623 C 188.589587 121.14069 187.800797 121.109974 187.040346 120.729575 C 185.689484 120.150706 184.310282 119.619091 182.869678 119.148908 C 183.16016 118.06914 184.640913 118.570039 185.420256 118.059689 C 185.961074 117.386311 186.485359 116.701119 186.990752 115.999388 Z M 186.990752 115.999388 " stroke="#ffffff" stroke-width="0.5" stroke-opacity="0.059" stroke-miterlimit="4"/><path fill="#000" d="M 303.003906 313.328125 C 297.511719 321.246094 293.921875 329.777344 296.984375 339.449219 C 296.148438 340.609375 295.28125 341.742188 294.386719 342.855469 C 293.097656 343.699219 290.648438 342.871094 290.167969 344.65625 C 289.574219 344.394531 288.960938 344.128906 288.367188 343.847656 C 288.316406 342.476562 288.496094 341.136719 288.910156 339.832031 C 290.332031 342.359375 292.003906 342.507812 293.941406 340.277344 C 294.003906 333.796875 294.171875 327.332031 294.4375 320.867188 C 295.5625 320.4375 296.519531 319.792969 297.332031 318.933594 C 298.191406 316.601562 299.199219 314.371094 300.355469 312.222656 C 301.433594 312.023438 302.324219 312.386719 303.003906 313.328125 " fill-opacity="0.051" fill-rule="evenodd"/><path fill="#000" d="M 255.597656 308.085938 C 256.742188 308.285156 257.882812 308.269531 259.023438 308.070312 C 258.113281 312.335938 257.847656 316.652344 258.230469 321.015625 C 253.847656 320.800781 256.625 316.867188 253.910156 316.335938 C 253.929688 315.757812 253.929688 315.179688 253.945312 314.601562 C 253.960938 313.542969 253.761719 312.535156 253.332031 311.558594 C 254.144531 310.433594 254.90625 309.277344 255.597656 308.085938 " fill-opacity="0.059" fill-rule="evenodd"/><path fill="#000" d="M 369.679688 357.621094 C 370.605469 357.769531 371.28125 358.246094 371.730469 359.058594 C 371.234375 362.828125 372.671875 368.433594 369.84375 371.390625 C 367.941406 366.828125 367.890625 362.234375 369.679688 357.621094 " fill-opacity="0.094" fill-rule="evenodd"/><path stroke-linecap="butt" transform="matrix(1.654036, 0, 0, 1.653278, -12.305127, 147.669987)" fill-opacity="0.047" fill="#000" fill-rule="evenodd" stroke-linejoin="miter" d="M 312.930301 117.969905 C 313.43097 117.849406 313.7309 118.050238 313.830089 118.551137 C 313.220784 119.890805 313.239677 121.221022 313.88913 122.539426 C 313.959979 123.420724 313.549053 123.90981 312.67052 124.009044 C 311.749478 121.979459 311.83922 119.971138 312.930301 117.969905 Z M 235.421047 118.811037 C 236.710506 120.710673 236.290133 122.000723 234.169374 122.678827 C 233.330989 123.52941 233.269586 124.800559 231.760494 124.791108 C 232.709876 122.631572 233.928486 120.637428 235.421047 118.811037 Z M 235.421047 118.811037 " stroke="#ffffff" stroke-width="0.5" stroke-opacity="0.047" stroke-miterlimit="4"/><path fill="#000" d="M 464.882812 281.089844 C 466.703125 279.882812 468.621094 279.632812 470.640625 280.3125 C 470.492188 284.199219 475.074219 283.320312 473.75 286.792969 C 470.859375 284.792969 467.902344 282.890625 464.882812 281.089844 " fill-opacity="0.035" fill-rule="evenodd"/><path fill="#000" d="M 444.292969 408.589844 C 447.46875 409.53125 450.578125 410.175781 453.621094 410.523438 C 450.410156 415.21875 447.46875 410.226562 444.191406 412.011719 C 445.152344 410.90625 445.183594 409.765625 444.292969 408.589844 " fill-opacity="0.067" fill-rule="evenodd"/><path fill="#000" d="M 287.375 271.054688 C 285.554688 272.277344 283.785156 273.566406 282.03125 274.890625 C 278.738281 270.890625 284.609375 270.113281 287.375 271.054688 " fill-opacity="0.051" fill-rule="evenodd"/><path fill="#000" d="M 427.667969 401.746094 C 428.164062 401.992188 428.644531 402.242188 429.140625 402.488281 C 431.019531 403.117188 432.8125 403.933594 434.515625 404.9375 C 433.953125 407.746094 430.910156 404.523438 429.324219 404.507812 C 428.28125 403.878906 427.734375 402.953125 427.667969 401.746094 " fill-opacity="0.063" fill-rule="evenodd"/><path fill="#000" d="M 357.820312 253.464844 C 359.65625 253.414062 361.492188 253.5625 363.308594 253.894531 C 366.75 258.007812 360.664062 256.390625 358.199219 257.117188 C 358.792969 255.828125 358.664062 254.605469 357.820312 253.464844 " fill-opacity="0.624" fill-rule="evenodd"/><path stroke-linecap="butt" transform="matrix(1.654036, 0, 0, 1.653278, -12.305127, 147.669987)" fill-opacity="0.051" fill="#000" fill-rule="evenodd" stroke-linejoin="miter" d="M 296.070503 150.051058 C 297.520555 149.800609 298.939904 149.930559 300.30966 150.440909 C 299.029647 151.090659 297.730741 151.669528 296.401134 152.189329 C 296.200394 151.489961 296.089396 150.769328 296.070503 150.051058 Z M 296.070503 150.051058 " stroke="#ffffff" stroke-width="0.5" stroke-opacity="0.051" stroke-miterlimit="4"/><path fill="#000" d="M 429.007812 399.28125 C 426.972656 398.339844 424.855469 397.746094 422.65625 397.496094 C 421.050781 396.339844 421.300781 395.578125 423.402344 395.25 C 426.59375 394.835938 428.480469 396.175781 429.007812 399.28125 " fill-opacity="0.094" fill-rule="evenodd"/><path fill="#000" d="M 422.65625 397.496094 C 424.855469 397.746094 426.972656 398.339844 429.007812 399.28125 C 429.257812 399.695312 429.519531 400.109375 429.769531 400.523438 C 429.554688 401.183594 429.355469 401.828125 429.140625 402.488281 C 428.644531 402.242188 428.164062 401.992188 427.667969 401.746094 C 426.90625 401.265625 426.179688 400.769531 425.453125 400.242188 C 424.558594 399.695312 423.582031 399.300781 422.539062 399.050781 C 422.574219 398.539062 422.605469 398.027344 422.65625 397.496094 " fill-opacity="0.49" fill-rule="evenodd"/><path fill="#000" d="M 804.972656 412.542969 C 806.957031 412.046875 807.914062 417.648438 805.832031 418.757812 C 801.945312 417.847656 804.191406 414.855469 804.972656 412.542969 " fill-opacity="0.035" fill-rule="evenodd"/><path stroke-linecap="butt" transform="matrix(1.654036, 0, 0, 1.653278, -12.305127, 147.669987)" fill-opacity="0.047" fill="#000" fill-rule="evenodd" stroke-linejoin="miter" d="M 171.769937 69.309474 C 171.939975 71.639126 170.889042 72.418827 168.640754 71.639126 C 169.649178 70.819259 170.700111 70.049009 171.769937 69.309474 Z M 171.769937 69.309474 " stroke="#ffffff" stroke-width="0.5" stroke-opacity="0.047" stroke-miterlimit="4"/><path fill="#000" d="M 313.605469 258.636719 C 311.953125 259.183594 310.296875 259.761719 308.660156 260.390625 C 308.609375 256.488281 313.871094 255.828125 313.605469 258.636719 " fill-opacity="0.075" fill-rule="evenodd"/><path fill="#000" d="M 333.40625 245.046875 C 335.671875 245.28125 337.257812 246.421875 338.167969 248.488281 C 336.132812 248.785156 334.398438 248.273438 332.941406 246.949219 C 333.089844 246.320312 333.257812 245.675781 333.40625 245.046875 " fill-opacity="0.435" fill-rule="evenodd"/><path fill="#000" d="M 440.882812 337.433594 C 440.984375 338.027344 441.097656 338.605469 441.199219 339.1875 C 439.445312 341.320312 437.609375 341.484375 435.707031 339.648438 C 437.34375 338.671875 439.082031 337.945312 440.882812 337.433594 " fill-opacity="0.2" fill-rule="evenodd"/><path fill="#000" d="M 334.777344 369.160156 C 337.042969 369.339844 338.746094 370.382812 339.871094 372.269531 C 338.136719 371.9375 336.398438 371.820312 334.644531 371.921875 C 334.992188 371.011719 335.042969 370.085938 334.777344 369.160156 " fill-opacity="0.075" fill-rule="evenodd"/><path fill="#000" d="M 326.589844 362.894531 C 327.402344 362.613281 328.226562 362.511719 329.070312 362.628906 C 332.214844 364 332.609375 366.332031 336.582031 366.035156 C 337.789062 367.917969 342.832031 368.828125 343.066406 370.847656 C 342.253906 371.128906 341.789062 371.707031 341.691406 372.566406 L 339.871094 372.269531 C 338.746094 370.382812 337.042969 369.339844 334.777344 369.160156 C 331.890625 367.277344 329.164062 365.1875 326.589844 362.894531 " fill-opacity="0.498" fill-rule="evenodd"/><path fill="#000" d="M 407.851562 306.699219 C 409.0625 306.34375 410.296875 306.132812 411.558594 306.070312 C 412.1875 306.582031 412.601562 307.246094 412.796875 308.039062 C 411.09375 308.5 409.390625 308.980469 407.703125 309.507812 C 407.65625 308.566406 407.703125 307.625 407.851562 306.699219 " fill-opacity="0.078" fill-rule="evenodd"/><path fill="#000" d="M 376.460938 208.710938 C 378.511719 208.578125 380.347656 209.089844 382 210.261719 C 381.800781 210.941406 381.605469 211.617188 381.386719 212.296875 C 380.113281 211.964844 378.957031 211.386719 377.914062 210.578125 C 377.238281 210.113281 376.742188 209.484375 376.460938 208.710938 " fill-opacity="0.592" fill-rule="evenodd"/><path fill="#000" d="M 384.515625 246.453125 C 385.277344 246.550781 386.019531 246.667969 386.78125 246.785156 C 385.886719 247.792969 385.027344 248.800781 384.152344 249.824219 C 382.925781 248.621094 383.042969 247.496094 384.515625 246.453125 " fill-opacity="0.498" fill-rule="evenodd"/><path fill="#000" d="M 802.804688 410.640625 C 804.027344 410.707031 804.753906 411.335938 804.972656 412.542969 C 803.976562 412.210938 803.25 411.582031 802.804688 410.640625 M 799.777344 411.964844 C 801.628906 412.574219 801.925781 413.617188 800.671875 415.070312 C 799.960938 414.179688 799.660156 413.136719 799.777344 411.964844 " fill-opacity="0.188" fill-rule="evenodd"/><path fill="#000" d="M 798.171875 409.316406 C 799.644531 408.226562 802.917969 408.195312 802.804688 410.640625 C 801.316406 410.90625 799.875 410.773438 798.46875 410.242188 C 798.371094 409.929688 798.273438 409.632812 798.171875 409.316406 " fill-opacity="0.063" fill-rule="evenodd"/><path fill="#000" d="M 391.179688 386.933594 C 392.058594 387.445312 392.769531 388.140625 393.296875 389.015625 C 392.207031 388.71875 391.496094 388.023438 391.179688 386.933594 " fill-opacity="0.125" fill-rule="evenodd"/><path stroke-linecap="butt" transform="matrix(1.654036, 0, 0, 1.653278, -12.305127, 147.669987)" fill-opacity="0.996" fill="#000" fill-rule="evenodd" stroke-linejoin="miter" d="M 440.489941 199.510092 C 432.20056 188.63917 434.60944 173.07114 448.380203 168.409473 C 457.290697 165.649804 466.331082 165.229238 475.489549 167.140687 C 479.279993 167.849506 480.819786 168.211004 480.649748 172.471006 C 480.619046 175.599261 480.470263 178.699164 480.201035 181.780164 C 479.690919 181.990447 479.19025 181.969182 478.710836 181.69038 C 472.459556 178.080128 463.820651 174.989677 456.929365 178.529047 C 452.409173 181.860497 457.259996 186.229185 460.370285 188.159536 C 465.530484 190.699471 470.75917 193.100005 476.04926 195.370589 C 481.530642 198.498844 486.039026 201.759412 486.879773 208.500281 C 487.720519 216.268939 485.410828 222.920025 479.9507 228.460627 C 468.300696 237.909186 451.410196 236.309618 437.611093 233.750781 C 436.949832 233.500331 436.529459 233.039599 436.340527 232.359132 C 435.020366 226.660227 433.669504 220.970772 432.280856 215.300219 C 432.099009 214.889104 432.20056 214.589038 432.568977 214.390568 C 434.111132 215.699521 435.709967 216.958856 437.360758 218.170937 C 444.889689 223.099592 453.500254 225.710409 462.500491 223.950175 C 467.58984 222.759359 470.260863 217.49047 465.110111 214.189736 C 459.709024 211.689967 454.341 209.119317 448.998955 206.489598 C 445.754052 204.660845 442.917714 202.335918 440.489941 199.510092 Z M 48.180226 167.391136 C 48.000741 167.549439 47.809447 167.710105 47.620516 167.87077 C 41.350343 174.699061 43.190066 182.989882 43.069622 191.46027 C 43.570291 193.130721 46.238952 192.35102 47.518965 192.490421 C 52.32964 192.180903 59.660192 193.109456 64.100088 191.989522 C 64.900687 190.968822 65.259657 189.811084 65.200616 188.50922 C 65.139213 180.879964 66.279889 174.228878 60.748911 168.06924 C 60.500938 167.799888 60.500938 167.539988 60.748911 167.29899 C 70.330113 167.180853 79.908953 167.128873 89.499602 167.150138 C 90.009718 167.10052 90.408836 167.280088 90.699319 167.68884 C 89.400413 169.919258 88.259737 172.239459 87.26076 174.649444 C 86.93013 176.249012 86.70105 177.869845 86.549905 179.500129 C 87.589029 190.720736 83.909583 221.899325 89.261075 230.338998 C 90.019164 231.888949 93.729312 234.379267 89.530303 234.180798 C 79.871167 234.230415 70.219116 234.159533 60.569426 233.961064 C 60.189201 233.649183 60.149053 233.290048 60.448982 232.890747 C 62.789374 230.298832 64.239426 227.291076 64.799136 223.860391 C 64.839284 223.569776 64.869985 223.27916 64.910133 222.990907 C 64.999876 217.81889 65.040024 212.66105 65.030577 207.489033 C 64.969174 205.898915 64.140236 205.230263 62.53904 205.468898 C 56.500308 205.468898 50.471024 205.509065 44.42993 205.598849 C 43.508888 205.898915 43.079068 206.539215 43.140471 207.519748 C 43.660034 216.129538 41.140156 226.029378 47.790554 232.940364 C 48.040889 233.401097 47.939338 233.750781 47.478817 233.998867 C 37.210376 234.239866 26.939573 234.220964 16.671132 233.94925 C 15.728834 233.039599 18.680893 231.359698 18.900526 230.431145 C 24.660583 221.469308 20.629252 191.190919 21.800629 179.50958 C 21.540848 177.539063 21.160623 175.599261 20.6694 173.668911 C 19.724741 171.544816 18.610044 169.512868 17.330031 167.570704 C 17.648854 167.249372 18.029079 167.119422 18.480153 167.150138 C 28.399071 167.10052 38.299095 167.169039 48.180226 167.391136 Z M 158.861174 191.030253 C 159.139849 191.620936 159.420885 192.221069 159.680666 192.81884 C 162.639809 200.429195 162.689404 208.070265 159.838896 215.730236 C 159.550775 216.491035 159.239038 217.240021 158.898961 217.979556 C 147.418995 242.540138 108.220378 242.36057 97.049787 216.999022 C 96.901004 216.630437 96.749858 216.259488 96.601074 215.900353 C 90.241159 198.368894 98.991061 181.340696 117.000981 176.579794 C 117.969256 176.329345 118.94934 176.090709 119.929423 175.870975 C 135.051049 172.830141 151.16929 176.619961 158.861174 191.030253 Z M 408.069251 175.870975 C 409.410666 176.23011 410.719019 176.660127 412.010839 177.170477 C 431.180328 185.059634 435.509227 207.210231 423.778926 223.46109 C 423.379808 223.969077 422.968882 224.479427 422.55087 224.980326 C 398.199928 251.669728 348.28888 225.729311 366.530242 190.000103 C 370.469469 183.719966 375.960298 179.389081 383.000368 177.009811 L 383.810413 176.74046 C 391.821119 174.460425 399.90976 174.169809 408.069251 175.870975 Z M 246.83961 177.25081 C 247.160794 177.420926 247.489063 177.600494 247.810247 177.770611 C 248.79033 178.469979 249.619268 179.320562 250.308869 180.301095 C 257.360747 189.430685 264.389009 198.550824 271.419632 207.680414 C 272.909831 205.830396 271.849452 195.061071 272.170636 192.150187 C 272.319419 189.430685 272.22023 186.730084 271.899046 184.029483 C 271.450333 181.929016 270.609587 180.01993 269.350829 178.28096 C 269.0509 177.798963 269.119388 177.390211 269.539761 177.040527 C 275.210075 176.879861 280.88039 176.830244 286.550704 176.879861 C 287.320601 176.839695 287.769314 177.189379 287.899205 177.910012 C 282.099 185.458935 284.819617 225.060658 284.829064 236.500999 C 284.890466 237.008986 284.699173 237.379934 284.259907 237.599668 C 271.880153 238.029685 268.580932 234.060298 261.559756 224.918895 C 254.881018 216.370536 248.199919 207.829266 241.499926 199.299809 C 241.088999 199.959011 240.918961 200.689095 240.98981 201.48061 C 242.040743 210.239251 238.17945 226.249112 244.770807 232.940364 C 245.021142 233.389283 244.919591 233.738967 244.470878 233.989416 C 232.509136 234.249317 220.559202 234.220964 208.599822 233.899633 C 201.470009 229.710512 191.669174 211.64035 189.059554 203.48893 C 188.991067 202.928963 189.198892 202.520211 189.680668 202.25086 C 205.260453 201.669628 204.270923 183.079666 188.539992 186.940367 C 188.039323 187.320767 187.788988 187.819303 187.810243 188.450152 C 188.329805 196.110123 186.849053 223.33114 188.700584 228.699263 C 189.699561 230.379164 190.75994 231.990547 191.891169 233.531047 C 191.569985 233.970515 191.130719 234.190248 190.571008 234.180798 C 181.920296 234.230415 173.269583 234.159533 164.640124 233.961064 C 164.359088 233.630281 164.370897 233.299499 164.659018 232.980531 C 167.481186 230.440595 168.928875 227.279262 168.999725 223.498894 C 169.02098 210.829934 168.999725 198.160973 168.959577 185.489651 C 168.659648 182.479532 167.518972 179.830911 165.539912 177.539063 C 165.589507 176.499462 166.890774 177.099595 167.481186 176.830244 C 178.80056 177.520161 199.179212 175.259028 209.298869 178.420361 C 221.730579 182.989882 220.589904 199.410858 207.990517 203.618881 C 207.548889 203.989829 207.409552 204.460013 207.560697 205.029431 C 211.769152 212.859519 216.780567 220.150905 222.590219 226.898863 C 223.740341 228.240893 224.989652 229.460062 226.359407 230.53983 C 228.251086 229.429347 228.510868 225.500126 228.839136 223.498894 C 228.229832 213.459652 230.109703 190.319071 227.700823 181.910114 C 227.00886 180.369614 226.189369 178.899996 225.25888 177.51071 C 225.8611 176.910577 226.600295 176.679029 227.481189 176.808979 C 232.570539 177.19883 242.40916 176.140327 246.83961 177.25081 Z M 289.989262 176.960194 C 292.150169 176.759362 294.320523 176.638863 296.490876 176.61051 C 303.710431 176.539628 310.911093 176.619961 318.099946 176.849146 C 318.099946 177.179928 318.099946 177.498897 318.109393 177.829679 C 315.239992 178.751144 313.400269 184.820998 313.180636 187.509785 C 313.149934 199.829061 313.159381 212.160151 313.199529 224.488878 C 313.440417 227.799063 314.550391 230.79028 316.529451 233.460165 C 316.47041 233.609017 316.409007 233.750781 316.340519 233.899633 C 308.388854 234.168984 300.420657 234.249317 292.440652 234.159533 C 291.581012 234.140631 291.21968 233.738967 291.349571 232.940364 C 293.26959 230.450046 294.311076 227.64076 294.45986 224.500691 C 294.400819 212.500384 294.509455 200.500076 294.790491 188.521034 C 294.611005 183.840465 293.06885 180.360163 289.989262 176.960194 Z M 369.139861 176.808979 C 368.280222 180.419231 367.25999 183.989317 366.090975 187.509785 C 366.020126 188.069752 365.769791 188.50922 365.330525 188.849453 C 363.060982 188.63917 360.779631 188.360368 358.500642 188.010684 C 356.509773 187.79095 354.530713 187.779136 352.549291 187.989419 C 351.330681 188.710052 351.989581 190.671118 351.840797 191.84067 C 351.840797 202.591093 351.850244 213.350967 351.880945 224.099027 C 352.079324 227.529712 353.380591 230.480762 355.770578 232.940364 C 356.009104 233.389283 355.909915 233.738967 355.461202 233.979965 C 346.789234 234.150082 338.100735 234.230415 329.409874 234.20915 C 328.85961 234.20915 328.479385 233.970515 328.281007 233.49088 C 329.49017 232.500896 330.529295 231.340796 331.400742 230.020029 C 334.919596 224.469976 332.369018 197.43089 333.190871 189.449587 C 333.120021 188.419436 332.579204 187.880734 331.549526 187.809852 C 326.849849 187.9209 322.180873 188.298937 317.540236 188.960501 C 317.03012 188.620268 316.850635 188.150085 316.989972 187.549951 C 318.029097 184.239766 319.070583 180.939032 320.119155 177.628847 C 320.749714 176.969645 321.540866 176.700294 322.480802 176.820793 C 338.029886 176.839695 353.590778 176.839695 369.139861 176.808979 Z M 408.300692 192.880271 C 407.979508 192.310853 407.648877 191.739072 407.320609 191.179105 C 405.010918 187.240434 401.680995 184.639068 397.319033 183.370281 C 374.019024 180.79018 377.119867 218.270171 395.299825 224.380192 C 413.619121 227.851043 414.580311 204.419846 408.300692 192.880271 Z M 112.499682 199.999178 C 112.261156 231.319531 148.720262 234.029583 143.019246 202.489495 C 140.140398 179.750579 113.989881 175.351175 112.499682 199.999178 Z M 112.499682 199.999178 " stroke="#ffffff" stroke-width="0.5" stroke-opacity="0.996" stroke-miterlimit="4"/><g clip-path="url(#904ccca37f)"><path fill="#000" d="M 374.476562 190.554688 C 365.757812 194.804688 361.457031 204.03125 369.613281 211.453125 C 373.167969 214.824219 376.875 218.015625 380.742188 221.007812 C 383.074219 222.878906 385.144531 224.992188 386.960938 227.339844 C 392.320312 234.300781 390.417969 239.789062 386.78125 246.785156 C 386.019531 246.667969 385.277344 246.550781 384.515625 246.453125 C 384.796875 245.496094 385.078125 244.535156 385.339844 243.578125 C 386.21875 235.476562 379.269531 230.152344 373.433594 225.9375 C 366.898438 221.074219 357.238281 216.097656 353.039062 208.988281 C 350.574219 203.914062 351.1875 199.234375 354.875 194.96875 C 360.367188 190.359375 366.734375 188.339844 373.945312 188.902344 C 374.820312 188.785156 375.535156 189.035156 376.078125 189.695312 C 375.78125 190.375 375.253906 190.671875 374.476562 190.554688 Z M 382 210.261719 C 383.222656 210.476562 384.433594 210.808594 385.605469 211.222656 C 386.382812 211.550781 387.175781 211.851562 387.972656 212.132812 C 395.730469 214.726562 402.128906 219.222656 407.175781 225.605469 C 407.421875 226.070312 407.65625 226.515625 407.886719 226.976562 C 408.582031 228.050781 409.109375 229.210938 409.492188 230.433594 C 409.921875 230.914062 410.367188 231.410156 410.796875 231.90625 C 409.65625 232.417969 409.605469 233.113281 410.648438 233.988281 C 411.523438 238.269531 411.195312 242.46875 409.65625 246.570312 C 408.828125 248.304688 407.835938 249.941406 406.726562 251.496094 C 403.242188 256.046875 399.15625 259.976562 394.472656 263.285156 C 391.644531 265.433594 388.734375 267.484375 385.753906 269.449219 C 384.199219 270.457031 382.628906 271.449219 381.058594 272.441406 C 374.972656 276.246094 368.902344 280.046875 362.832031 283.882812 C 362.367188 284.199219 361.886719 284.496094 361.425781 284.808594 C 356.097656 288.230469 350.9375 291.886719 345.925781 295.753906 C 337.308594 301.980469 329.667969 309.234375 323 317.511719 C 322.023438 318.734375 321.066406 319.972656 320.140625 321.230469 C 318.949219 322.835938 317.824219 324.488281 316.765625 326.191406 C 310.910156 336.09375 310.894531 346.0625 316.730469 356.082031 C 317.261719 357.40625 318.023438 358.578125 319.03125 359.605469 L 318.585938 361.042969 C 311.96875 358.679688 305.351562 352.890625 300.96875 347.453125 C 299.199219 345.003906 297.867188 342.339844 296.984375 339.449219 C 293.921875 329.777344 297.511719 321.246094 303.003906 313.328125 C 305.304688 310.136719 307.851562 307.179688 310.679688 304.46875 C 314.136719 301.292969 317.558594 298.101562 320.964844 294.910156 C 322.421875 294.019531 323.828125 293.042969 325.167969 291.984375 C 327.5 290.199219 329.867188 288.464844 332.261719 286.777344 C 340.152344 281.421875 348.257812 276.394531 356.542969 271.699219 C 357.355469 271.234375 358.148438 270.789062 358.941406 270.34375 C 364.816406 267.121094 370.738281 263.976562 376.691406 260.917969 C 377.171875 260.671875 377.632812 260.421875 378.097656 260.175781 C 381.667969 258.308594 385.078125 256.207031 388.351562 253.859375 C 393.3125 250.667969 396.621094 246.253906 398.292969 240.648438 C 398.574219 238.285156 398.441406 235.953125 397.929688 233.640625 C 396.984375 229.949219 395.421875 226.542969 393.230469 223.421875 C 391.410156 220.859375 389.328125 218.53125 386.996094 216.429688 C 385.277344 214.84375 383.40625 213.46875 381.386719 212.296875 C 381.605469 211.617188 381.800781 210.941406 382 210.261719 Z M 325.117188 243.445312 C 327.847656 244.15625 330.609375 244.699219 333.40625 245.046875 C 333.257812 245.675781 333.089844 246.320312 332.941406 246.949219 C 323.503906 246.648438 314.144531 247.347656 304.855469 249.050781 C 292.964844 251.265625 281.949219 255.664062 271.808594 262.257812 C 270.039062 263.480469 268.300781 264.753906 266.632812 266.109375 C 261.371094 270.371094 257.078125 275.453125 253.761719 281.355469 C 248.75 291.355469 248.617188 301.425781 253.332031 311.558594 C 253.761719 312.535156 253.960938 313.542969 253.945312 314.601562 C 252.179688 314.492188 250.597656 313.894531 249.199219 312.816406 C 245.632812 310.621094 242.652344 307.804688 240.265625 304.367188 C 232.128906 292.695312 236.082031 280.496094 244.417969 270.359375 C 246.933594 267.367188 249.675781 264.605469 252.671875 262.078125 C 257.238281 258.3125 262.175781 255.109375 267.476562 252.472656 C 275.792969 248.265625 284.53125 245.300781 293.691406 243.578125 C 304.160156 241.359375 314.632812 241.3125 325.117188 243.445312 Z M 357.820312 253.464844 C 358.664062 254.605469 358.792969 255.828125 358.199219 257.117188 C 354.839844 257.050781 351.550781 257.515625 348.308594 258.523438 C 338.5625 260.972656 329.1875 264.417969 320.171875 268.855469 C 319.066406 269.417969 317.972656 269.980469 316.882812 270.542969 C 306.820312 275.195312 297.878906 281.445312 290.050781 289.289062 C 289.441406 289.902344 288.828125 290.53125 288.214844 291.140625 C 284.636719 294.539062 281.621094 298.382812 279.167969 302.664062 C 278.472656 303.90625 277.8125 305.144531 277.183594 306.417969 C 273.082031 313.890625 272.1875 321.710938 274.472656 329.859375 C 277.367188 336.226562 281.996094 340.886719 288.367188 343.847656 C 288.960938 344.128906 289.574219 344.394531 290.167969 344.65625 C 292.550781 345.433594 294.832031 346.3125 297.066406 347.269531 C 289.96875 348.890625 279.964844 345.402344 273.5625 342.226562 C 271.933594 341.304688 270.382812 340.265625 268.914062 339.101562 C 265.664062 336.445312 263.050781 333.265625 261.074219 329.5625 C 259.601562 326.886719 258.660156 324.023438 258.230469 321.015625 C 257.847656 316.652344 258.113281 312.335938 259.023438 308.070312 C 259.140625 307.542969 259.238281 307.011719 259.355469 306.5 C 261.304688 299.292969 264.648438 292.8125 269.394531 287.042969 C 273.164062 282.527344 277.382812 278.476562 282.03125 274.890625 C 283.785156 273.566406 285.554688 272.277344 287.375 271.054688 C 288.433594 270.359375 289.507812 269.683594 290.597656 269.019531 C 294.886719 266.535156 299.300781 264.308594 303.847656 262.339844 C 305.433594 261.664062 307.054688 261.003906 308.660156 260.390625 C 310.296875 259.761719 311.953125 259.183594 313.605469 258.636719 C 320.222656 256.390625 326.972656 254.769531 333.882812 253.761719 C 341.839844 252.539062 349.828125 252.4375 357.820312 253.464844 Z M 440.902344 273.285156 C 448.675781 274.855469 456.152344 277.269531 463.378906 280.527344 C 463.875 280.710938 464.386719 280.90625 464.882812 281.089844 C 467.902344 282.890625 470.859375 284.792969 473.75 286.792969 C 474.230469 287.140625 474.726562 287.472656 475.207031 287.816406 C 480.757812 291.675781 485.554688 296.316406 489.59375 301.738281 C 492.011719 305.523438 494.175781 309.425781 496.128906 313.460938 C 498.808594 317.792969 503.636719 321.414062 505.308594 326.257812 C 507.246094 331.730469 507.246094 337.21875 505.292969 342.707031 C 503.488281 346.015625 503.339844 349.335938 504.863281 352.691406 C 508.023438 357.601562 511.3125 361.421875 512.15625 367.472656 C 513.164062 373.492188 512.453125 379.292969 509.972656 384.867188 C 509.558594 385.707031 509.128906 386.550781 508.683594 387.378906 C 506.992188 390.1875 505.003906 392.765625 502.722656 395.117188 C 500.4375 397.46875 497.914062 399.53125 495.152344 401.300781 C 490.59375 404.378906 485.683594 406.714844 480.414062 408.308594 C 476.742188 409.464844 473.121094 410.226562 469.53125 410.589844 C 464.222656 411.039062 458.914062 411.019531 453.621094 410.523438 C 450.578125 410.175781 447.46875 409.53125 444.292969 408.589844 C 440.949219 407.597656 437.691406 406.375 434.515625 404.9375 C 432.808594 403.933594 431.019531 403.117188 429.140625 402.488281 C 429.355469 401.828125 429.554688 401.183594 429.769531 400.523438 C 432.25 401.050781 434.730469 401.597656 437.195312 402.191406 C 449.585938 404.621094 461.839844 404.09375 474 400.605469 C 475.335938 400.207031 476.660156 399.761719 477.953125 399.28125 C 480.152344 398.421875 482.300781 397.464844 484.417969 396.390625 C 488.71875 394.40625 492.425781 391.628906 495.535156 388.089844 C 496.941406 386.371094 498.082031 384.503906 498.992188 382.484375 C 500.675781 378.1875 501.15625 373.753906 500.414062 369.191406 C 499.769531 365.125 498.28125 361.390625 495.945312 357.984375 C 489.015625 349.453125 480.132812 344.128906 469.285156 341.996094 C 464.453125 340.789062 459.558594 339.996094 454.578125 339.617188 C 450.125 339.25 445.667969 339.105469 441.199219 339.1875 C 441.097656 338.605469 440.984375 338.027344 440.882812 337.433594 C 444.226562 337.21875 447.535156 336.789062 450.824219 336.144531 C 458.53125 334.953125 466.257812 334.96875 473.964844 336.175781 C 479.011719 337.035156 483.839844 338.539062 488.453125 340.691406 C 492.058594 342.441406 495.46875 344.507812 498.660156 346.921875 C 503.074219 349.519531 502.398438 342.625 502.183594 340.261719 C 500.378906 330.042969 494.921875 322.421875 485.808594 317.363281 C 471.816406 309.59375 452.859375 310.238281 437.578125 312.800781 C 430.265625 313.972656 423.101562 315.675781 416.074219 317.941406 C 414.4375 318.503906 412.832031 319.113281 411.226562 319.757812 C 408.398438 320.964844 405.621094 322.289062 402.890625 323.710938 C 396.917969 326.734375 391.375 330.410156 386.269531 334.738281 C 382.925781 337.566406 379.851562 340.691406 377.089844 344.097656 C 374.621094 347.117188 372.605469 350.414062 371.035156 353.984375 C 370.390625 355.125 369.941406 356.332031 369.679688 357.621094 C 367.890625 362.230469 367.941406 366.828125 369.84375 371.390625 C 370.175781 371.988281 370.488281 372.566406 370.804688 373.144531 C 374.128906 378.765625 378.757812 382.929688 384.714844 385.675781 C 385.820312 386.121094 386.945312 386.570312 388.054688 387.03125 C 389.097656 386.867188 390.136719 386.832031 391.179688 386.933594 C 391.496094 388.023438 392.207031 388.71875 393.296875 389.015625 L 393.398438 391.015625 C 386.550781 389.296875 379.75 388.304688 373.351562 385.046875 C 369.03125 383.09375 364.554688 381.625 359.917969 380.632812 C 354.238281 378.738281 348.792969 376.320312 343.578125 373.375 C 343 372.980469 342.371094 372.699219 341.691406 372.566406 C 341.789062 371.707031 342.253906 371.128906 343.066406 370.847656 C 347.894531 372.433594 352.757812 373.9375 357.667969 375.328125 C 358.644531 375.210938 360.25 376.335938 360.664062 374.863281 C 358.480469 372.054688 356.726562 368.996094 355.4375 365.6875 C 353.203125 359.753906 353.203125 353.816406 355.421875 347.882812 C 355.617188 347.402344 355.800781 346.921875 356 346.445312 C 360.25 337.613281 366.519531 330.523438 374.804688 325.183594 C 375.566406 324.652344 376.328125 324.140625 377.105469 323.628906 C 384.117188 319.199219 391.429688 315.496094 399.070312 312.519531 C 401.898438 311.394531 404.792969 310.386719 407.703125 309.507812 C 409.390625 308.980469 411.09375 308.5 412.796875 308.039062 C 414.453125 307.609375 416.125 307.179688 417.792969 306.765625 C 434.730469 302.53125 451.800781 301.886719 468.988281 304.863281 C 473.964844 305.972656 478.878906 307.195312 483.691406 308.535156 C 483.707031 306.105469 476.414062 300.8125 474.609375 299.160156 C 473.980469 298.664062 473.335938 298.183594 472.707031 297.703125 C 472.078125 297.242188 471.449219 296.777344 470.824219 296.332031 C 464.699219 291.96875 458.085938 288.539062 450.992188 286.050781 C 442.332031 283.054688 433.453125 281.066406 424.34375 280.082031 C 423.273438 280.230469 422.246094 280.078125 421.265625 279.617188 C 420.671875 278.691406 419.8125 278.261719 418.636719 278.34375 C 413.640625 278.277344 408.648438 278.246094 403.652344 278.210938 C 401.882812 277.933594 400.507812 278.492188 399.515625 279.898438 C 398.855469 279.980469 398.195312 280.046875 397.53125 280.128906 C 396.554688 280.214844 395.582031 280.195312 394.605469 280.082031 C 390.964844 280.34375 387.375 280.890625 383.835938 281.75 C 382.976562 281.734375 382.230469 281.4375 381.636719 280.839844 C 382.960938 279.601562 384.515625 278.742188 386.316406 278.261719 C 389.578125 276.972656 392.882812 275.863281 396.242188 274.9375 C 397.417969 274.625 398.589844 274.328125 399.78125 274.046875 C 413.425781 271.019531 427.140625 270.773438 440.902344 273.285156 Z M 440.902344 273.285156 " fill-opacity="0.988" fill-rule="evenodd"/></g><g clip-path="url(#9f7d2186bf)"><path stroke-linecap="butt" transform="matrix(1.654036, 0, 0, 1.653278, -12.305127, 147.669987)" fill="none" stroke-linejoin="miter" d="M 233.841105 25.939196 C 228.569909 28.509846 225.969735 34.090615 230.900854 38.579803 C 233.049953 40.618839 235.291156 42.54919 237.629187 44.359042 C 239.03909 45.490789 240.290763 46.769026 241.388929 48.189027 C 244.629108 52.399413 243.478986 55.719049 241.280293 59.950699 C 240.819772 59.879817 240.371059 59.808935 239.910538 59.749867 C 240.080576 59.170998 240.250615 58.589766 240.408845 58.010897 C 240.940216 53.110595 236.738846 49.890193 233.210545 47.340807 C 229.25951 44.399208 223.419157 41.389089 220.880386 37.08892 C 219.390187 34.019734 219.760965 31.189183 221.99036 28.609081 C 225.310836 25.821059 229.16032 24.599528 233.519921 24.939761 C 234.04893 24.868879 234.481111 25.020094 234.80938 25.419395 C 234.629895 25.83051 234.311073 26.010078 233.841105 25.939196 Z M 238.389637 37.85917 C 239.128832 37.989121 239.860943 38.189953 240.569437 38.440402 C 241.039405 38.638871 241.518819 38.820802 242.000595 38.990918 C 246.690826 40.559771 250.559204 43.279274 253.610452 47.139975 C 253.759236 47.42114 253.900934 47.690491 254.040272 47.969293 C 254.460645 48.619044 254.779467 49.320775 255.010909 50.06031 C 255.27069 50.350926 255.539917 50.650992 255.799699 50.951059 C 255.110098 51.260577 255.079396 51.681143 255.709956 52.210394 C 256.238965 54.799947 256.040587 57.339882 255.110098 59.820749 C 254.609429 60.869801 254.00957 61.859785 253.338862 62.800152 C 251.232273 65.552733 248.761991 67.929639 245.930376 69.930872 C 244.220543 71.230374 242.461116 72.470807 240.65918 73.659261 C 239.719244 74.268845 238.769862 74.868978 237.82048 75.469112 C 234.141034 77.770411 230.471035 80.069348 226.801035 82.389549 C 226.519999 82.58093 226.229517 82.760498 225.950842 82.949516 C 222.729556 85.019268 219.60982 87.230784 216.579827 89.569887 C 211.370034 93.336079 206.750652 97.723669 202.719321 102.730295 C 202.128909 103.469829 201.550305 104.218815 200.990595 104.979614 C 200.270293 105.950696 199.590138 106.950131 198.950132 107.980282 C 195.410023 113.969803 195.400577 119.999491 198.928877 126.059894 C 199.250061 126.86086 199.710582 127.569679 200.319887 128.191077 L 200.05066 129.060562 C 196.05003 127.63111 192.0494 124.129543 189.399632 120.840623 C 188.329805 119.359191 187.524484 117.747809 186.990752 115.999388 C 185.13922 110.149268 187.309574 104.989065 190.63005 100.199811 C 192.02106 98.26946 193.560854 96.480873 195.270686 94.841138 C 197.360744 92.920238 199.429546 90.989888 201.488903 89.059537 C 202.369797 88.520834 203.21999 87.930152 204.030035 87.289852 C 205.439938 86.210084 206.871096 85.161032 208.318786 84.140332 C 213.089313 80.901029 217.98973 77.860195 222.998783 75.020193 C 223.490006 74.739028 223.96942 74.469677 224.448835 74.200326 C 228.000752 72.251073 231.581009 70.349075 235.180159 68.499057 C 235.470641 68.350205 235.749316 68.198991 236.030352 68.050139 C 238.188897 66.920754 240.250615 65.649605 242.229675 64.229604 C 245.228967 62.299253 247.229282 59.629368 248.240067 56.23885 C 248.410105 54.809398 248.329809 53.398848 248.020433 52.000111 C 247.448915 49.767331 246.504256 47.70703 245.179372 45.819209 C 244.078845 44.269258 242.820087 42.86107 241.410183 41.589922 C 240.371059 40.630653 239.23983 39.798972 238.018858 39.090153 C 238.151111 38.679038 238.269193 38.270285 238.389637 37.85917 Z M 203.999333 57.930565 C 205.650125 58.360582 207.319809 58.689001 209.010748 58.899284 C 208.921006 59.279684 208.819455 59.669534 208.729712 60.049934 C 203.023973 59.868004 197.365467 60.290932 191.74947 61.321083 C 184.560617 62.660751 177.900772 65.321185 171.769937 69.309474 C 170.700111 70.049009 169.649178 70.819259 168.640754 71.639126 C 165.459616 74.216865 162.864166 77.290777 160.859128 80.860863 C 157.829134 86.909452 157.748838 93.000571 160.599346 99.129494 C 160.859128 99.720176 160.979572 100.329761 160.970125 100.970061 C 159.902661 100.903904 158.946194 100.542406 158.100724 99.890293 C 155.94454 98.562438 154.142604 96.85891 152.699637 94.779707 C 147.780327 87.719869 150.170313 80.341062 155.210068 74.209777 C 156.730969 72.399925 158.388845 70.729475 160.200228 69.200788 C 162.960993 66.923116 165.946115 64.985677 169.15087 63.390834 C 174.178817 60.846174 179.461821 59.052862 184.999883 58.010897 C 191.329097 56.668867 197.660673 56.640514 203.999333 57.930565 Z M 223.771042 63.990968 C 224.281158 64.680885 224.359092 65.42042 224.000122 66.200121 C 221.969105 66.159954 219.980599 66.441119 218.020432 67.050704 C 212.128122 68.532136 206.46017 70.616064 201.009488 73.300126 C 200.341142 73.640359 199.679881 73.980592 199.020981 74.320825 C 192.937379 77.134837 187.531569 80.915205 182.798828 85.659568 C 182.430411 86.030517 182.059633 86.410916 181.688854 86.779502 C 179.525585 88.835078 177.702394 91.160004 176.21928 93.749557 C 175.798907 94.500905 175.399788 95.24989 175.019563 96.020141 C 172.539834 100.540044 171.999016 105.27023 173.38058 110.198885 C 175.13056 114.050136 177.929112 116.868873 181.780958 118.659823 C 182.139929 118.829939 182.510707 118.990605 182.869678 119.148908 C 184.310282 119.619091 185.689484 120.150706 187.040346 120.729575 C 182.749234 121.710108 176.701056 119.600189 172.830316 117.67929 C 171.845509 117.121685 170.907936 116.493199 170.019956 115.789105 C 168.055066 114.182449 166.475124 112.259186 165.280131 110.019318 C 164.38979 108.400848 163.820633 106.668966 163.560852 104.849664 C 163.32941 102.210494 163.490002 99.599677 164.040266 97.019575 C 164.111116 96.700607 164.170157 96.379276 164.241006 96.069758 C 165.419468 91.71052 167.441038 87.790751 170.310439 84.300998 C 172.589428 81.569682 175.140007 79.11953 177.950367 76.950544 C 179.010746 76.149578 180.080573 75.369877 181.1811 74.630343 C 181.821106 74.209777 182.470559 73.801024 183.129459 73.39936 C 185.722547 71.896664 188.391208 70.549907 191.140165 69.359091 C 192.098994 68.950339 193.079078 68.551038 194.049715 68.180089 C 195.039245 67.799689 196.040583 67.450005 197.03956 67.119223 C 201.04019 65.760653 205.121116 64.78012 209.298869 64.170535 C 214.109544 63.431001 218.939112 63.36957 223.771042 63.990968 Z M 274.000912 75.979462 C 278.70059 76.929279 283.220782 78.389447 287.589829 80.359964 C 287.889758 80.471012 288.199134 80.589149 288.499063 80.700197 C 290.324616 81.789416 292.112383 82.940065 293.860002 84.149783 C 294.150484 84.360066 294.450413 84.560898 294.740896 84.768819 C 298.096796 87.103196 300.996899 89.91012 303.438842 93.18959 C 304.900701 95.479075 306.209054 97.839443 307.389877 100.280143 C 309.009967 102.900411 311.928963 105.090662 312.939748 108.020448 C 314.111125 111.330633 314.111125 114.650269 312.930301 117.969905 C 311.83922 119.971138 311.749478 121.979459 312.67052 124.009044 C 314.581092 126.978996 316.569599 129.289747 317.079715 132.949616 C 317.68902 136.590583 317.2592 140.099238 315.759554 143.470854 C 315.50922 143.978841 315.249439 144.489191 314.980211 144.99009 C 313.957618 146.688893 312.755539 148.248295 311.376337 149.670659 C 309.994774 151.093022 308.46915 152.340544 306.799466 153.410861 C 304.043424 155.272692 301.074833 156.685605 297.888971 157.649599 C 295.669023 158.348967 293.479777 158.8097 291.309423 159.029433 C 288.099945 159.301147 284.890466 159.289334 281.690435 158.989267 C 279.850712 158.778984 277.970841 158.389134 276.050822 157.819715 C 274.029252 157.219582 272.059638 156.480047 270.139619 155.610563 C 269.107579 155.003341 268.025945 154.50953 266.889993 154.129131 C 267.019884 153.729829 267.140328 153.339979 267.270218 152.940677 C 268.769864 153.259646 270.26951 153.590428 271.759709 153.949563 C 279.250853 155.419181 286.65934 155.100213 294.011147 152.990295 C 294.81883 152.749296 295.619429 152.479945 296.401134 152.189329 C 297.730741 151.669528 299.029647 151.090659 300.30966 150.440909 C 302.909833 149.240642 305.151036 147.56074 307.030907 145.420107 C 307.8811 144.380505 308.570701 143.25112 309.120965 142.029589 C 310.138834 139.430585 310.429317 136.748886 309.980604 133.989217 C 309.590932 131.529615 308.691145 129.270845 307.27888 127.210544 C 303.089318 122.050341 297.718933 118.829939 291.160639 117.539889 C 288.239282 116.809805 285.280138 116.330171 282.269038 116.100986 C 279.576761 115.878889 276.882121 115.791468 274.180397 115.841085 C 274.118994 115.489039 274.050507 115.139355 273.989104 114.78022 C 276.010674 114.650269 278.010989 114.390369 279.999495 114.000518 C 284.659025 113.279886 289.330363 113.289337 293.989892 114.01942 C 297.04114 114.539221 299.960136 115.448872 302.749241 116.750737 C 304.929041 117.80924 306.990759 119.059124 308.920225 120.519292 C 311.588886 122.090507 311.180321 117.920288 311.05043 116.490836 C 309.959349 110.309934 306.660128 105.700247 301.150406 102.640511 C 292.690986 97.94104 281.229914 98.330891 271.99115 99.880842 C 267.570147 100.589661 263.238887 101.619811 258.990284 102.990195 C 258.000754 103.330428 257.030117 103.699014 256.05948 104.088865 C 254.349647 104.818948 252.670516 105.619914 251.019725 106.479948 C 247.408767 108.308701 244.05759 110.53203 240.970917 113.149936 C 238.949347 114.860552 237.090731 116.750737 235.421047 118.811037 C 233.928486 120.637428 232.709876 122.631572 231.760494 124.791108 C 231.370822 125.481025 231.099233 126.211109 230.941002 126.99081 C 229.859368 129.778832 229.890069 132.559765 231.040191 135.319434 C 231.240931 135.680932 231.429863 136.030616 231.621157 136.3803 C 233.630918 139.780269 236.42947 142.29894 240.030982 143.959939 C 240.699328 144.229291 241.379482 144.501005 242.05019 144.779807 C 242.68075 144.680572 243.308948 144.659307 243.939507 144.720738 C 244.130801 145.37994 244.560621 145.800506 245.21952 145.980074 L 245.280923 147.189792 C 241.140956 146.15019 237.029328 145.550057 233.16095 143.57954 C 230.548969 142.398175 227.842521 141.509788 225.039246 140.909654 C 221.605412 139.76373 218.313276 138.3012 215.160477 136.519701 C 214.810953 136.281066 214.430728 136.110949 214.019802 136.030616 C 214.078843 135.510816 214.359879 135.161131 214.851101 134.991015 C 217.770097 135.950283 220.710348 136.859935 223.678938 137.701067 C 224.26935 137.630185 225.239986 138.310651 225.490321 137.419902 C 224.17016 135.721099 223.109781 133.871081 222.330437 131.869848 C 220.979575 128.280861 220.979575 124.689511 222.320991 121.100523 C 222.439073 120.809907 222.550071 120.519292 222.670515 120.231038 C 225.239986 114.888905 229.03043 110.60055 234.039483 107.370697 C 234.500004 107.049366 234.960526 106.739848 235.430493 106.43033 C 239.66965 103.750994 244.090653 101.511126 248.710034 99.710725 C 250.419867 99.030259 252.169847 98.420675 253.929274 97.88906 C 254.949506 97.570092 255.979184 97.279476 257.008862 97.000674 C 258.0102 96.740773 259.020985 96.480873 260.029408 96.230424 C 270.26951 93.669224 280.589907 93.279373 290.981154 95.079774 C 293.989892 95.750789 296.960844 96.490324 299.870393 97.30074 C 299.87984 95.831122 295.470645 92.629623 294.379564 91.630188 C 293.999339 91.330121 293.609667 91.039505 293.229442 90.748889 C 292.849217 90.470087 292.468992 90.188922 292.091128 89.919571 C 288.388066 87.280401 284.389797 85.205924 280.101046 83.700865 C 274.865275 81.88865 269.497251 80.686021 263.98989 80.090613 C 263.342799 80.180396 262.721686 80.08825 262.128913 79.809448 C 261.769942 79.249481 261.25038 78.98958 260.539524 79.039198 C 257.518978 78.999031 254.500793 78.980129 251.480246 78.958865 C 250.41042 78.791111 249.57912 79.128981 248.979262 79.979564 C 248.580144 80.029182 248.181025 80.069348 247.779545 80.118965 C 247.189134 80.170945 246.601084 80.159132 246.010672 80.090613 C 243.809617 80.248915 241.639263 80.579698 239.499611 81.099498 C 238.980049 81.090047 238.528974 80.91048 238.170004 80.548982 C 238.970602 79.799997 239.910538 79.280196 240.999257 78.98958 C 242.971232 78.209879 244.969185 77.538864 247.000202 76.978897 C 247.711058 76.789878 248.419552 76.610311 249.139854 76.440194 C 257.389087 74.609078 265.68083 74.460226 274.000912 75.979462 Z M 274.000912 75.979462 " stroke="#ffffff" stroke-width="0.5" stroke-opacity="0.988" stroke-miterlimit="4"/></g><path fill="#000" d="M 421.265625 279.617188 C 414.023438 279.933594 406.777344 280.03125 399.515625 279.898438 C 400.507812 278.492188 401.882812 277.933594 403.652344 278.210938 C 408.648438 278.246094 413.640625 278.277344 418.636719 278.34375 C 419.8125 278.261719 420.671875 278.691406 421.265625 279.617188 " fill-opacity="0.757" fill-rule="evenodd"/><path fill="#000" d="M 410.796875 231.90625 L 410.648438 233.988281 C 409.605469 233.113281 409.65625 232.417969 410.796875 231.90625 " fill-opacity="0.502" fill-rule="evenodd"/><path fill="#000" d="M 407.886719 226.976562 C 408.515625 227.257812 409.144531 227.273438 409.789062 227.042969 C 410.632812 228.234375 410.53125 229.359375 409.492188 230.433594 C 409.109375 229.210938 408.582031 228.050781 407.886719 226.976562 " fill-opacity="0.125" fill-rule="evenodd"/><g transform="matrix(1, 0, 0, 1, 534, 309)"><g clip-path="url(#58c1bb0f56)"><g clip-path="url(#b9b5dccf52)"><g fill="#000" fill-opacity="1"><g transform="translate(0.484957, 99.629968)"><g><path d="M 19.421875 0 L 0 -50.984375 L 14.546875 -50.984375 L 24.390625 -21.9375 C 25.484375 -18.257812 26.171875 -14.773438 26.453125 -11.484375 L 26.71875 -11.484375 C 26.875 -14.410156 27.5625 -17.894531 28.78125 -21.9375 L 38.578125 -50.984375 L 53.125 -50.984375 L 33.703125 0 Z M 19.421875 0 "/></g></g><g transform="translate(53.613, 99.629968)"><g><path d="M 50.34375 0 L 3.734375 0 L 3.734375 -9.796875 L 20.46875 -26.71875 C 25.425781 -31.800781 28.664062 -35.320312 30.1875 -37.28125 C 31.707031 -39.238281 32.800781 -41.050781 33.46875 -42.71875 C 34.132812 -44.394531 34.46875 -46.128906 34.46875 -47.921875 C 34.46875 -50.597656 33.726562 -52.585938 32.25 -53.890625 C 30.78125 -55.203125 28.816406 -55.859375 26.359375 -55.859375 C 23.773438 -55.859375 21.265625 -55.265625 18.828125 -54.078125 C 16.398438 -52.890625 13.863281 -51.203125 11.21875 -49.015625 L 3.5625 -58.09375 C 6.84375 -60.894531 9.5625 -62.867188 11.71875 -64.015625 C 13.875 -65.171875 16.226562 -66.0625 18.78125 -66.6875 C 21.34375 -67.3125 24.203125 -67.625 27.359375 -67.625 C 31.523438 -67.625 35.203125 -66.863281 38.390625 -65.34375 C 41.585938 -63.820312 44.066406 -61.691406 45.828125 -58.953125 C 47.585938 -56.222656 48.46875 -53.09375 48.46875 -49.5625 C 48.46875 -46.5 47.925781 -43.617188 46.84375 -40.921875 C 45.769531 -38.234375 44.097656 -35.472656 41.828125 -32.640625 C 39.566406 -29.816406 35.582031 -25.789062 29.875 -20.5625 L 21.296875 -12.5 L 21.296875 -11.859375 L 50.34375 -11.859375 Z M 50.34375 0 "/></g></g></g></g></g></g></svg>