<svg xmlns="http://www.w3.org/2000/svg" style="shape-rendering:geometricPrecision;text-rendering:geometricPrecision;image-rendering:optimizeQuality;fill-rule:evenodd;clip-rule:evenodd" viewBox="8.01 24.63 488.57 262.66"><path fill="#ddd1c0" fill-opacity=".012" d="M79.9 272.11c.03 2.46.06 4.92.08 7.38-.3.53-.75.74-1.36.65-23.06-.15-46.12-.18-69.18-.11q-.87.105-1.35-.6c-.09-2.32-.11-4.63-.05-6.94q.525-.765 1.44-.63c23.48.09 46.95.18 70.42.25m-64.58 4.19c-.17 2.13 1.69 1.59 3.18 1.7 19.67-.02 39.35-.01 59.02.01q2.205-.24.9-1.95c-.62-.21-1.25-.29-1.9-.23-19.34.03-38.68.03-58.02.01a9.8 9.8 0 0 0-3.18.46"/><path fill="#e3d0b6" fill-opacity=".02" d="M216.01 271.1c-2.66 3.14-7.71 11.78-1.35 13.75.44.09.79-.04 1.06-.38-2.91-6.04 3.09-9.18 3.04-13.66.33-.53.72-.61 1.17-.22.23 1.06.47 2.11.71 3.14 1.27.17.97-1.43 1.95-1.86.89-.04 1.36.39 1.42 1.3-3.23 2.74-5.93 5.78-4.41 10.1-.22.73-.55 1.39-.99 2-1.99 1.48-1.86 2.7-4.95 1.59a7.6 7.6 0 0 0-2.31-1.69c-.58-1.55-1.11-3.11-1.61-4.69-.12-2.51 2.14-2.93.47-5.42 2.07-.64 3-2.05 2.77-4.24.21-1.65 3.1-1.58 3.03.28m181.99.03c-1.8 2.21-3.18 4.65-4.14 7.33-.94 2.99 0 5.12 2.79 6.39.44.09.79-.04 1.06-.38-1.86-4.09.44-8.06 2.72-11.45.27-.73.4-1.49.37-2.27.94-.51 1.65-.23 2.13.82.96.69 3 .03 3.07 1.59-3.1 2.53-6.01 6.08-4.39 10.15-1.07.92-2.08 1.93-3.02 3.01-7.5.05-7.15-3.75-5.83-9.63-4.8-3.21-3.44 5.37-7.99 3.92 1.3-2.4 2.94-4.5 4.95-6.32 2-1.31 1.46-.77 2.97.42 1.92-.19 2.44-2.08 2.13-3.75.72-1.68 3.31-1.79 3.18.17"/><path fill="#ebcfa9" fill-opacity=".082" d="M138.15 280.06c-1.88-.46-3.42.03-4.63 1.45-.29-.39-.47-.82-.53-1.3 1.67-1.9 4.37-6.51 7.48-6.22 1 1.06-1.7 5.06-2.32 6.07m350.82-2.46c.37-1.47-1.39-1.74-2.45-1.71-19.68.02-39.36.01-59.04 0-1.51-.23-2.37.4-2.58 1.88-.59-.18-.9-.59-.94-1.22-.16-.89.07-1.64.69-2.24 5.95-.26 11.91-.47 17.88-.62 10.33.08 20.65.19 30.98.33 3.97-.13 7.93-.23 11.9-.29 1.53.41 3.08.66 4.65.73 1.2 1.19.86 3.35-1.09 3.14"/><path fill="#ebcfa6" fill-opacity=".992" d="M15.32 276.3a9.8 9.8 0 0 1 3.18-.46c19.34.02 38.68.02 58.02-.01.65-.06 1.28.02 1.9.23q1.305 1.71-.9 1.95c-19.67-.02-39.35-.03-59.02-.01-1.49-.11-3.35.43-3.18-1.7m473.65 1.3c-1.13.33-2.29.46-3.47.4-20.21.07-40.41-.01-60.6-.23.21-1.48 1.07-2.11 2.58-1.88 19.68.01 39.36.02 59.04 0 1.06-.03 2.82.24 2.45 1.71"/><path fill="#dad2c3" fill-opacity=".008" stroke="#dad2c3" stroke-opacity=".008" stroke-width=".5" d="M293.32 260.01c-1.46-.37-1.88-1.29-1.26-2.74 3.91-1.43 9.41-2.31 13.38-.87 5.03 3.96-2.27 10.65-5.9 12.64-.84.63-10.97 5.39-9.39 1.63 1.85-3.11 3.83-6.15 5.92-9.12 2.13-3.2-.84-4.82-2.75-1.54Z"/><path fill="#e1d1b7" fill-opacity=".016" d="M340.85 265.15c1.78.12 1.65 1.98 2.08 3.24 1.43.85 2.94 1.5 4.54 1.93 1.2.09 3-1.44 3.6.34-4.5 1.86-9.52 6.22-7.87 11.62-1.26.6-1.99.23-2.17-1.12.25-.72.06-1.3-.56-1.73-1.21 1-2.54 1.82-4 2.45-3.96.14.59-7.12 1.54-8.33 1.59-1 3.32-1.33 5.21-1.01 2.91-1.51-1.27-1.86-2-2.33a204 204 0 0 1-.37-5.06m-214.66 5.93c.19.64.6 1 1.24 1.06 1.12-.56 2.27-.98 3.46-1.25.54 4.04-3.03 8.99-1.74 12.39.18.39.33.78.47 1.18-3.01 2.6-3.86 1.65-7.22.56-.6-1-.35-1.68.76-2.02.93.85 2.02 1.36 3.28 1.55-.34-1.63-.64-3.31-.89-5.05.14-1.69.34-3.36.61-5.03-.54-2.02-1.78-1.59.03-3.39"/><path fill="#e1d1b5" fill-opacity=".016" d="M309.23 265.03c.78.83-.04 4.75-.2 5.9-3.68 1.74-6.39 4.43-8.13 8.08-1.61.52-.66-2.21-1.4-3.02-3.38-3.4-7.36 1.25-11.68-.57.39-.71.95-1.2 1.69-1.49 8.05.28 14.63-2.68 19.72-8.9m22.91 18.55c-1.35.74-3.62-.17-4.02-1.65 2.34-2.62-.64-6.07-2.8-7.63-.58-1.91.15-2.78 2.21-2.6 1.18.61 2.33 1.26 3.44 1.98.87.2 1.69.06 2.45-.43.3.29.37.64.22 1.05-1.78 3.14-2.89 5.73-1.5 9.28"/><path fill="#e8d1a2" fill-opacity=".027" d="M368.99 261.06c-4.49 5.54-11.42 14.29-9.92 21.82-1.13.15-2.42-1.48-3.11-2.23q1.395-1.23-.3-1.32c-1.92 1.07-8.38 4.44-8.78.32 3.17-3.23 9.87-.17 11.39-7.37-.01-.63-.31-1.07-.88-1.31.29-.43.68-.75 1.16-.96 3.66-.27 3.15-1.1 3.9-4.25 1.3-1.92 2.84-3.65 4.63-5.2.83-.59 1.47-.43 1.91.5m-180.77 15.71c1.24-2.21 3.04-3.76 5.42-4.65 1.6 0 1.99.71 1.15 2.11-1.5 1.51-4.38 3.29-6.57 2.54"/><path fill="#ead1a0" fill-opacity=".973" d="M375.69 257.8c-.06.95-.52 1.67-1.37 2.16a49.3 49.3 0 0 0-9.28 12.05c-2.29 3.52-3.19 7.34-2.7 11.47.18.76.63 1.25 1.35 1.48.12.37-.01.64-.37.81-2.03-.02-3.45-.98-4.25-2.89-1.5-7.53 5.43-16.28 9.92-21.82 2.16-2.25 3.39-3.39 6.7-3.26m23.93 9.2c2.34-1.18 5.6-4.96 6.84-6.12 4.73.34.48 6.05-3.04 6.18-.8-.21-3.37.99-3.8-.06"/><path fill="#c0784a" fill-opacity=".016" stroke="#c0784a" stroke-opacity=".016" stroke-width=".5" d="M245.18 45.82a18.9 18.9 0 0 1 2.84 6.18c-1.43.24-4.06-1.35-3.5 1.43.05 2.51 1.29 3.44 3.72 2.81-1.01 3.39-3.01 6.06-6.01 7.99-1.79.08-2.63-.73-2.54-2.44.53-.62 1.05-1.23 1.59-1.84 2.2-4.23 3.35-7.55.11-11.76 3.05-.22 1.81-1.72 3.79-2.37Zm-84.32 35.04c1.87-.14.68 2.56.65 3.5-.4.29-.77.62-1.1.98.24 3.05.33 6.12.25 9.19.06 1.03.5 1.86 1.31 2.5-.42.72-.88 1.42-1.37 2.1-2.85-6.13-2.77-12.22.26-18.27Z"/><path fill="#e8cfac" fill-opacity=".02" d="M149.98 273.45c-2.41 1.57-6.41 7.62-3.84 10.03-1.31.6-2.36 3.19-3.99 2.16-3.17-4.75 3.44-8.52 2.76-13.08-1-3.42-5.64-.9-7.4.46-1.42-.16-1.72-.78-.89-1.86 2.23-.65 4.47-1.28 6.72-1.86 1.14.82 2.25 1.69 3.34 2.6 1.21.31 3.34-.39 3.3 1.55m154.26 7.31c.42-3.14 7.53-9.88 10.67-8.31-1.95 1.99-7.51 9.61-10.67 8.31"/><path fill="#ecd0a0" fill-opacity=".957" d="M137.51 273.02c1.76-1.36 6.4-3.88 7.4-.46.68 4.56-5.93 8.33-2.76 13.08-3.37.9-4.5-2.99-4-5.58.62-1.01 3.32-5.01 2.32-6.07-3.11-.29-5.81 4.32-7.48 6.22-.69 1.79-1.96 2.81-3.84 3.07-1.29-3.4 2.28-8.35 1.74-12.39q.765-1.395 2.1-.36c2.09 2.97-.82 7.18 4.52 2.49"/><path fill="#c67745" fill-opacity=".031" stroke="#c67745" stroke-opacity=".031" stroke-width=".5" d="M153.74 72.38q.525 1.095 1.47 1.83c-5.04 6.13-7.43 13.51-2.51 20.57-.22.39-.45.78-.67 1.17l-.87-.09a22 22 0 0 0-1.68-2.45 231 231 0 0 1-.06-13.93l.09-.67c1.58-1.17 2.88-2.59 3.92-4.25.63-.49-.41-2.45.31-2.18Zm19.64 37.82a8.5 8.5 0 0 1 2.61-.07c-.7 1.01-.46 1.66.72 1.96.52 1 1.15 1.94 1.89 2.81.85.7 3.41.01 3.51 1.33q-.375 1.185-.33 2.43-5.775-2.685-8.4-8.46Zm58.76 33.73c.34-.12.68-.24 1.02-.35 3.87 1.97 7.98 2.57 12.12 3.61.08-.01.16-.02.24-.02q.12 1.035-.99 1.08-3.42.825-6-1.44c-2.63-.7-3.62 1.06-5.21-1.62-.37-.16-.76-.25-1.16-.29-.01-.32-.01-.65-.02-.97Z"/><path fill="#cd763b" fill-opacity=".035" stroke="#cd763b" stroke-opacity=".035" stroke-width=".5" d="M216.58 89.57c.09.7-.1 1.32-.58 1.84a44.3 44.3 0 0 0-6.04 5.05 74 74 0 0 0-6.58 7.05 1.5 1.5 0 0 1-.66-.78c4.03-5 8.65-9.39 13.86-13.16Zm76.65 1.18c.38.29.77.58 1.15.88.23 4.17-3.03 1.78-3.4 3.45-10.39-1.8-20.71-1.41-30.95 1.15.39-.97.62-1.96.71-2.98 9.94-.05 19.89.03 29.84.27 1.98-.25 1.31-1.77 2.65-2.77Z"/><path fill="#e8d1a6" fill-opacity=".031" d="M200.95 269.04c.59 4.33-.78 7.45-1.79 11.49-.14.98.03 1.89.52 2.73.02-.04.03-.08.04-.12-1.58 1.58-5.55.15-7.68.3 1.19-.54 5.78-2.48 4.47-4.23-1.09.41-2.14.93-3.16 1.55-1.27.36-2.56.67-3.85.93-1.33-.13-3.15-1.21-1.9-2.68a27 27 0 0 0 9.02-2.91c1.15-.71 3.76-4.61 1.31-5.06.78-.97 1.79-1.63 3.02-2"/><path fill="#fff" fill-opacity=".031" d="M289.28 176.91c-.33.52-.79.85-1.38 1-.13-.72-.58-1.07-1.35-1.03-5.67-.05-11.34 0-17.01.16-.42.35-.49.76-.19 1.24 1.26 1.74 2.1 3.65 2.55 5.75-2.61-.05-5.21-.06-7.82-.01-.05-2.18-.09-4.36-.14-6.55-.07-.61.16-1.08.67-1.4 7.97-.05 15.93-.06 23.89-.03q.66.21.78.87"/><path fill="#e4d1ae" fill-opacity=".024" d="M321.18 272.62c-.49 3.25 1.32 4.33 3.48 6.2 2.26 3.36-2.43 4.91-4.64 1.71-1.63-1.24-2.01 1.06-1.72 2.19.04 1.23.18 3.54-1.74 3.25-1.42-.53-2.76-1.2-4.03-2.03-.54-1.66-2.55-1.61-2.54-3.27.81-.91 1.73-1.61 2.75-2.08-.05 2.02.65 3.71 2.11 5.07.93.43 1.73 1.26 2.33 0-.91-2.84-1.05-5.73-.41-8.68.85.3 1.7.57 2.55.83.34-1.23.73-2.43 1.17-3.61q.42.075.69.42"/><path fill="#d47235" fill-opacity=".031" stroke="#d47235" stroke-opacity=".031" stroke-width=".5" d="M218.02 67.05c-.28 1.03-.98 1.62-2.11 1.76a3.96 3.96 0 0 0-.59 1.91c-3.37-.49-3.75.07-6.07 1.97-.93.01-1.86.02-2.78.01-1.6.03-4.32 2.52-5.46.6a86 86 0 0 1 17.01-6.25Zm4.98 7.97a214 214 0 0 0-14.68 9.12q-.495-1.125.21-2.1c1.19-.9 2.52-1.53 3.98-1.89a10 10 0 0 0 2.19-2.74c3.69.26 2.54-1.63 4.91-2.95 1.14.08 2.26.05 3.37-.09.01.22.02.43.02.65Z"/><path fill="#e5701a" fill-opacity=".031" stroke="#e5701a" stroke-opacity=".031" stroke-width=".5" d="M294.74 84.77c.77-.43 1.57-.51 2.41-.24 1.54 1.71 3.14 3.38 4.8 4.99.72.32 1.45.57 2.21.77-.63.87-.87 1.84-.72 2.9a37.6 37.6 0 0 0-8.7-8.42Zm-113.05 2.01c.19.81.1 1.6-.27 2.36-2.2 1.44-2.52 3.7-5.2 4.61 1.48-2.59 3.31-4.91 5.47-6.97Zm133.29 58.21c1.41-.04.31 1.28.36 2.15-.91 1.73-2.07 3.26-3.49 4.61-2.48.4-1.46 3.79-5.05 1.66a25.8 25.8 0 0 0 8.18-8.42Z"/><path fill="#efcea2" fill-opacity=".976" stroke="#efcea2" stroke-opacity=".976" stroke-width=".5" d="M256.99 279.46c-1.07.08-2.14.03-3.2-.17-1.03-2.54-.59-4.8 1.31-6.8.28-.2.55-.4.83-.61q2.49-1.23 5.13-.33c2.32 3.18-.55 7.33-4.07 7.91Z"/><path fill="#c47843" fill-opacity=".027" stroke="#c47843" stroke-opacity=".027" stroke-width=".5" d="M232.06 47.84c.38-.17.77-.33 1.15-.5 3.53 2.55 7.73 5.77 7.2 10.67-.71.14-1.4.11-2.09-.09.85-1 1.06-2.12.65-3.36-.92-1.09-2.01-1.98-3.26-2.68-.89-1.28-1.5-3.23-3.44-3.01zm59.1 69.7c6.56 1.29 11.93 4.51 16.12 9.67-.69.41-1.4.47-2.14.19q-1.455-2.04-3.09-3.93c-1.04-.61-2.18-.9-3.4-.87-.74-.68-1.52-1.26-2.36-1.76-.07-1.75-3.3-1.79-4.43-1-.25-.76-.48-1.53-.7-2.3Z"/><path fill="#e9d0aa" fill-opacity=".02" d="M365.04 272.01c.19.04.37.07.55.11.37 1.17.83 2.3 1.36 3.39-1.69 2.19-2 4.56-.93 7.09-.35 2.26-2.7.1-2.33 2.36-.72-.23-1.17-.72-1.35-1.48-.49-4.13.41-7.95 2.7-11.47m52.07 4.96c1.72-.28.56 3.47 1.06 4.41q.555.795 1.17 1.53c-.24 1.56.25 4.15-2.31 3.6-.75-.54-.83-1.15-.25-1.84.74.07 1.09-.27 1.03-1.02-.78-2.16-1.01-4.39-.7-6.68"/><path fill="#cd743c" fill-opacity=".043" stroke="#cd743c" stroke-opacity=".043" stroke-width=".5" d="M172.83 117.68c3.87 1.92 9.92 4.03 14.21 3.05.76.38 1.55.41 2.36.11 2.65 3.29 6.65 6.79 10.65 8.22.26 1.7-3.07 1.17-4.03 1.31.41-.55.48-1.12.19-1.73-1.61-.81-3.11-1.8-4.49-2.96a7.6 7.6 0 0 0-2.31-2.56 38 38 0 0 0-4.88-.7c-1.9.28-3.8.3-5.69.08-.42-1.24-1.27-1.78-2.57-1.62.13-1.53-3.3-.36-4.28-.93-.04-.87.23-1.62.84-2.27Z"/><path fill="#c67748" fill-opacity=".039" stroke="#c67748" stroke-opacity=".039" stroke-width=".5" d="M301.15 102.64c-.57.22-.94.63-1.09 1.22-.66-1.9-4.86-.89-6.4-1.17-.8-1.72-2.18-2.48-4.15-2.28-5.03.23-10.05.31-15.08.25-.8.01-1.46.33-1.97.95a2.35 2.35 0 0 1-.47-1.73c9.24-1.55 20.7-1.94 29.16 2.76Z"/><path fill="#e66f1f" fill-opacity=".059" d="M184.88 56.19c5.52-.29 11.07-.41 16.64-.35q1.215-.03 2.37.36c.19.56.23 1.14.11 1.73-6.34-1.29-12.67-1.26-19 .08-.2-.6-.24-1.2-.12-1.82M152.7 94.78c1.45 2.08 3.25 3.78 5.4 5.11-1.27-.36-2.5-.3-3.7.18 1.06-2.07-.88-2.16-2.32-2.19.49-.66.47-1.31-.05-1.93.22-.39.45-.78.67-1.17m127.39 17.36c2.45-.23 4.92-.34 7.42-.31q3.285 0 6.48.33-.015.93 0 1.86c-4.66-.73-9.33-.74-13.99-.02q-.06-.945.09-1.86"/><path fill="#ec6d18" fill-opacity=".075" stroke="#ec6d18" stroke-opacity=".075" stroke-width=".5" d="M208.73 60.05c.88.8 1.93 1.11 3.16.93.36.61.89.93 1.61.95q5.13.09 10.26.27c.16.59.16 1.19.01 1.79-4.83-.62-9.66-.56-14.47.18.08-1.3-.52-2.02-1.79-2.18-4.35.13-8.69.17-13.03.13-.99 0-1.9-.27-2.73-.8a80 80 0 0 1 16.98-1.27Z"/><path fill="#d37335" fill-opacity=".027" stroke="#d37335" stroke-opacity=".027" stroke-width=".5" d="M301.15 102.64c5.51 3.06 8.81 7.67 9.9 13.85.13 1.43.54 5.6-2.13 4.03a37 37 0 0 0-6.17-3.77c3.8-3.78 4.48 3.44 6.47.78.21-1.35.21-2.71 0-4.07a7.7 7.7 0 0 1-1.7-3.48c-2.23-1.54-3.15-1.66-4.79-4.13-.88-.69-1.77-1.35-2.67-1.99.15-.59.52-1 1.09-1.22Z"/><path fill="#e26e24" fill-opacity=".035" stroke="#e26e24" stroke-opacity=".035" stroke-width=".5" d="M210.93 132.08c2.42-.43 2.63.3 4.46 1.43 2.04-.11 2.54.66 4.18 1.67 2.46.49 1.48-2 .81-3.06.64-.17 1.29-.25 1.95-.25.78 2 1.84 3.85 3.16 5.55-.25.89-1.22.21-1.81.28-2.97-.84-5.91-1.75-8.83-2.71-.14-1.22-3.19-1.77-3.92-2.91Zm20.69 4.3c.78-.19 1.57-.24 2.36-.13 1.82 2.34 3.22 4.23 5.83 5.77.14.64.21 1.28.22 1.94-3.6-1.66-6.4-4.18-8.41-7.58Z"/><path fill="#da712a" fill-opacity=".031" stroke="#da712a" stroke-opacity=".031" stroke-width=".5" d="M233.84 25.94c.16.73.06 1.42-.3 2.06-2.42 2.72-3.73 2.37-3.25 6.54-.41 1.36 2.64 2.34 3.42 3.26q.39 1.32.81 2.64c1.35.04 1.26-1.46 1.4-2.39.63.49 1.33.84 2.1 1.04 1.22.71 2.35 1.54 3.39 2.5-2.15-.24-3.41.69-3.78 2.77a88 88 0 0 1-6.73-5.78c-4.93-4.49-2.33-10.07 2.94-12.64Z"/><path fill="#c97540" fill-opacity=".039" stroke="#c97540" stroke-opacity=".039" stroke-width=".5" d="M237.82 75.47c-.04 3.56 2.73 1.73 3.18 3.52-1.09.29-2.03.81-2.83 1.56.36.36.81.54 1.33.55 2.14-.52 4.31-.85 6.51-1.01-.63 3.36-4.1 2.29-6.51 1.99-2.1-.06-4.57 1.03-6.21-.84-1.78.09-3.41.62-4.9 1.61-.58.03-1.11-.12-1.59-.46 3.67-2.32 7.34-4.62 11.02-6.92Z"/><path fill="#aa8161" fill-opacity=".024" stroke="#aa8161" stroke-opacity=".024" stroke-width=".5" d="M271.92 152.17c5.41-.15 12.36-.49 17.61.15 1.35.16 4.46-1.69 4.48.67-7.35 2.11-14.76 2.43-22.25.96.27-.58.32-1.17.16-1.78Z"/><path fill="#ead29d" fill-opacity=".976" d="M400.8 270.75c.03.78-.1 1.54-.37 2.27-2.28 3.39-4.58 7.36-2.72 11.45-.27.34-.62.47-1.06.38-2.79-1.27-3.73-3.4-2.79-6.39.96-2.68 2.34-5.12 4.14-7.33 1.39-1.16.85-1.88 2.8-.38"/><path fill="#fff" fill-opacity=".753" d="M488.96 166.15c.34-.11.69-.22 1.03-.33q5.01.9 1.41-2.67a3.6 3.6 0 0 0-.85 1.86c-1.07-1.39-.56-4.52-.37-6.19.85.32 1.72.4 2.62.24.27.57.71.95 1.31 1.15-.47 1.4-1.83 3.21.52 3.76 1.26-.67.68-4.06-.52-3.76-.13-.73-.57-1.11-1.31-1.15.07-1.48-1.91-1.46-2.8-.8-.41-.16-.81-.32-1.21-.49 6.26-3.06 10.83 4.41 5.32 8.83-1.29.75-4.56 1.52-5.15-.45m2.01-6.29c-.07.71.11 1.34.54 1.88.76-.88.58-1.51-.54-1.88"/><path fill="#e56e24" fill-opacity=".035" stroke="#e56e24" stroke-opacity=".035" stroke-width=".5" d="M274 75.98c-8.32-1.52-16.61-1.37-24.86.46.04-.73.34-1.32.91-1.76 1.54-.13 3.05-.45 4.52-.96 5.98.17 11.96.27 17.95.29 1.19.14 1.69.8 1.48 1.97Zm23.89 81.67c.14.77.15 1.53.04 2.3-1.64.13-5.67.79-6.62-.92 2.17-.22 4.36-.68 6.58-1.38Z"/><path fill="#d77332" fill-opacity=".02" stroke="#d77332" stroke-opacity=".02" stroke-width=".5" d="M199.02 74.32c1.65 2.82.41 1.95-1.63 2.24-2 1.61-.73 2.31-4.08 2.17-.52.12-.74.44-.63.96-.46.29-.95.46-1.48.51-.1 1.75-3.49 2.43-4.36 4.17-1.16 1.1-2.51 1.53-4.04 1.29a56.3 56.3 0 0 1 16.22-11.34Z"/><path fill="#d3733c" fill-opacity=".024" d="M304.16 90.29c.91.02-.14 1.83.32 2.36.81.96 1.74 1.81 2.81 2.53.18.7.38 1.39.63 2.08.73.67 1.29 1.46 1.67 2.37-.47 2 .32 2.76 2.36 2.29.21.72-.44 2.34.74 2.26.61 1.03 2.93 3.79.25 3.84-1.01-2.93-3.93-5.12-5.55-7.74-1.18-2.44-2.49-4.8-3.95-7.09-.15-1.06.09-2.03.72-2.9"/><path fill="#e7ceb6" fill-opacity=".031" d="M415.09 272.29c.01.16.01.33.02.49-1.17 2.33-6.96 7.84-9.55 8.18-2.28-2.52 6.48-9.66 9.53-8.67"/><path fill="#ce7435" fill-opacity=".02" stroke="#ce7435" stroke-opacity=".02" stroke-width=".5" d="M234.04 107.37c-5.01 3.23-8.8 7.52-11.37 12.86-.74-.78-.92-1.66-.54-2.66.4-.88.97-1.63 1.69-2.26.24-1.97 1.31-3.22 3.23-3.75.54-.79 1.06-1.59 1.56-2.42 1.22-.75 2.29-1.67 3.22-2.75 1.13-.45 1.86-.12 2.21.98Z"/><path fill="#e6cfb1" fill-opacity=".031" d="M231.15 272.68c.58-.03 1.16-.06 1.74-.1-.19 1.72-10.73 12.51-9.91 7.06 1.82-3.38 4.54-5.7 8.17-6.96"/><path fill="#eecf9d" fill-opacity=".965" d="M200.95 269.04c.93.5 1.78 1.13 2.52 1.87.37 1.28.74 2.5 1.1 3.67 1.99-1.85 5.4-6.43 8.41-3.76.23 2.19-.7 3.6-2.77 4.24-.27-2.51-1.79-1.37-3.1-.37a36.2 36.2 0 0 0-5.59 8.41c-.58.36-1.18.37-1.8.04-.01.04-.02.08-.04.12-.49-.84-.66-1.75-.52-2.73 1.01-4.04 2.38-7.16 1.79-11.49m30.2 3.64c-3.63 1.26-6.35 3.58-8.17 6.96-.82 5.45 9.72-5.34 9.91-7.06 1.1-.02 1.97.4 2.6 1.29-.22 1.86-.43 3.74-.62 5.64.15 1.64.46 3.23.93 4.78-.49.69-2.29-.59-2.81-.83-.92-1.22-1.53-2.57-1.86-4.06-.21-.07-.41-.15-.62-.22-1.8 1.52-3.75 2.82-5.87 3.88-1.65.55-3.34.62-5.04.21-1.52-4.32 1.18-7.36 4.41-10.1 2.46-2.08 5.29-3.21 8.5-3.39.84-.08 2.81.14 2.25 1.5-.93 1.76-3.54.3-3.61 1.4"/><path fill="#e4d1ae" fill-opacity=".043" d="M119.65 251.99c.63 1.12.79 3.57-1.23 3.02-4.69-3.6-14.3-2.01-19.58-.23.02-1 .51-1.66 1.46-2 4.48-1.63 9.56-.7 14.25-.93 1.68.61 3.38.66 5.1.14"/><path fill="#eccfa5" fill-opacity=".02" d="M158.09 272.09c.17.6.22 1.2.17 1.81-1.19 1.61-7.08 8.89-9.08 6.49.71-3.44 5.81-7.04 8.91-8.3"/><path fill="#e76b27" fill-opacity=".035" stroke="#e76b27" stroke-opacity=".035" stroke-width=".5" d="M220.88 37.09c2.54 4.3 8.38 7.31 12.33 10.25-.38.17-.77.33-1.15.5-.69.19-1.37.17-2.05-.07.11-.15.21-.29.32-.43-1.21-.86-2.22-1.91-3.03-3.14-.95-.5-1.95-.88-2.99-1.13-.94-1.86-2.44-2.96-4.49-3.29.17-1.01.52-1.91 1.06-2.69Z"/><path fill="#c67547" fill-opacity=".051" d="M315.76 143.47c1.5-3.37 1.93-6.88 1.32-10.52 2.12-.45.68-3.2 1.39-4.6.21 4.97.27 9.95.17 14.93-.93.11-1.89.18-2.88.19"/><path fill="#d37233" fill-opacity=".039" stroke="#d37233" stroke-opacity=".039" stroke-width=".5" d="M247.67 39.31c.28.44.66.75 1.15.93q.075.66.72.9c2.86.29 1.08.64 2.37 2.3 2.17.46 2.73 1.7 1.7 3.7-3.05-3.86-6.92-6.58-11.61-8.15q.18-1.38 1.59-.99c1.51.88 2.14 1.56 4.08 1.31Z"/><path fill="#d57034" fill-opacity=".039" stroke="#d57034" stroke-opacity=".039" stroke-width=".5" d="M248.71 99.71c-4.62 1.8-9.04 4.04-13.28 6.72-.09-.44 0-.83.28-1.18a21 21 0 0 0 2.68-2.22c1.36-.35 2.6-.94 3.73-1.77.28-.64.45-1.29.52-1.95q2.655.42 5.07-.69c.43.27.77.63 1 1.09Z"/><path fill="#fff" fill-opacity=".251" d="M318.1 176.85c-7.19-.23-14.39-.31-21.61-.24-2.17.03-4.34.15-6.5.35.16-.73.64-1.06 1.43-.97 8.67-.02 17.34.02 26 .12.37.13.59.37.68.74"/><path fill="#d1742f" fill-opacity=".031" stroke="#d1742f" stroke-opacity=".031" stroke-width=".5" d="M251.02 106.48c.92.66 1.02 1.4.29 2.22-2.64-.17-3.14 1.58-4.9 2.99-.81.27-1.59.57-2.37.9-.82 1.26-1.84 1.44-3.07.56 3.09-2.62 6.44-4.84 10.05-6.67Z"/><path fill="#d9702a" fill-opacity=".027" stroke="#d9702a" stroke-opacity=".027" stroke-width=".5" d="M170.31 84.3a31.1 31.1 0 0 0-6.07 11.77c-1.41-.06-.66-4.44-.85-5.4a10.5 10.5 0 0 0 2.78-2.14c.29-.73.55-1.46.79-2.2 1.48-.65 1.23-2.89 3.35-2.03Z"/><path fill="#e56e1b" fill-opacity=".035" stroke="#e56e1b" stroke-opacity=".035" stroke-width=".5" d="M160.2 69.2c-1.81 1.53-3.47 3.2-4.99 5.01q-.945-.735-1.47-1.83c2.88 1.36 4.71-6.17 6.46-3.18Zm40.79 35.78c1.02.27.38 4.55-2.04 3q.96-1.545 2.04-3Z"/><path fill="#ce743c" fill-opacity=".027" stroke="#ce743c" stroke-opacity=".027" stroke-width=".5" d="M235.18 68.5c-3.6 1.85-7.18 3.75-10.73 5.7-.39-.86-.47-1.74-.25-2.66.78 0 1.57-.07 2.35-.21 1.84-1.85 1.19-1.86 3.92-2.11q2.1-2.115 4.71-.72Z"/><path fill="#fff" fill-opacity=".616" d="M488.79 157.77c.4.17.8.33 1.21.49.06.19.12.37.18.56-.19 1.67-.7 4.8.37 6.19-.19.27-.38.54-.56.81-.34.11-.69.22-1.03.33-3.97-2.04-3.85-6.1-.17-8.38m-.88 3.21c.17.96-.34 2.16.59 2.82 1.34-.79 1.19-2.8-.03-3.59-.38.11-.57.37-.56.77"/><path fill="#f66b08" fill-opacity=".071" stroke="#f66b08" stroke-opacity=".071" stroke-width=".5" d="M294.38 91.63c1.09 1 5.5 4.2 5.49 5.67-2.91-.81-5.88-1.55-8.89-2.22.37-1.67 3.63.72 3.4-3.45Z"/><path fill="#c97447" fill-opacity=".027" d="M215.16 136.52c3.15 1.78 6.44 3.24 9.88 4.39-.07.91-.56 1.32-1.47 1.22-1.97-1.3-5.19-.76-6.28-2.94-1.03-.27-2.03-.57-3-.89-.02-.74.27-1.33.87-1.78"/><path fill="#ea6b1d" fill-opacity=".051" d="M238.32 57.92c.69.2 1.38.23 2.09.09-.16.58-.33 1.16-.5 1.74-.89.63-.96 1.31-.22 2.04-.09 1.71.75 2.52 2.54 2.44a52 52 0 0 1-6.2 3.82c0-.43.1-.82.31-1.2 1.19-.87 2.37-.26 2.38-2.17-.46-2.55-1.23-4.14-.4-6.76"/><path fill="#d9d7ad" fill-opacity=".027" d="M290.1 254.62a31.4 31.4 0 0 0-8.77 4.49c-.81-2.87 1.64-2.94 3.41-3.9 2.47-4.91 1.56-2.05 5.36-.59"/><path fill="#e07029" fill-opacity=".055" stroke="#e07029" stroke-opacity=".055" stroke-width=".5" d="M280.1 83.7a48.1 48.1 0 0 1 11.99 6.22c-1.43.2-2.8.05-4.13-.44-1.27-2.12-1.31-1.95-3.68-2.33-1.24-1.48-2.17-1.63-3.91-2.14-.31-.39-.4-.83-.27-1.31Z"/><path fill="#e46e1f" fill-opacity=".035" stroke="#e46e1f" stroke-opacity=".035" stroke-width=".5" d="M225.95 82.95c.53.61.71 1.29.52 2.04-.99.31-1.99.57-3.02.8-1.44 1.22-2.86 2.43-4.27 3.64-.85.31-1.72.36-2.6.14 3.03-2.34 6.15-4.55 9.37-6.62Z"/><path fill="#c7773b" fill-opacity=".02" stroke="#c7773b" stroke-opacity=".02" stroke-width=".5" d="M307.03 145.42a20 20 0 0 1-6.72 5.02c-1.26-3.95.58-2.68 3.05-3.59.55-.79 3.13-3.77 3.67-1.43Z"/><path fill="#ea6c18" fill-opacity=".027" stroke="#ea6c18" stroke-opacity=".027" stroke-width=".5" d="M253.34 62.8q.39 1.155.06 2.34c-.76.96-4.57 3.61-3.67 5.01-1.23-.56-2.5-.63-3.8-.22 2.83-2 5.3-4.38 7.41-7.13Z"/><path fill="#c07b44" fill-opacity=".063" stroke="#c07b44" stroke-opacity=".063" stroke-width=".5" d="M191.14 69.36a77 77 0 0 0-8.01 4.04c-.46-.44-1.39-1.62-.49-2.11 2.87.02 2.45-.05 3.97-1.95 2.51.24 2.41-1.76 4.53.02Z"/><path fill="#ecd09e" fill-opacity=".031" d="M370.23 276.76c1.23-2.18 3.02-3.73 5.38-4.62 1.56-.01 1.95.68 1.18 2.08-1.53 1.37-4.42 3.55-6.56 2.54"/><path fill="#b47a57" fill-opacity=".039" d="M221.99 28.61c-2.23 2.58-2.6 5.41-1.11 8.48-.54.78-.89 1.68-1.06 2.69-.27-.03-.43-.18-.48-.46-.04-3.56-.02-7.12.04-10.68.83-.75 2.48-2.06 2.61-.03"/><path fill="#d6722c" fill-opacity=".086" d="M204.03 87.29c-.81.64-1.66 1.23-2.54 1.77-2.06 1.93-4.13 3.86-6.22 5.78a4.5 4.5 0 0 1 .77-2.41c1.82-1.44 3.12-2.04 4.1-4.31.8-.63 1.64-1.19 2.51-1.68.79-.16 1.25.12 1.38.85"/><path fill="#c67844" fill-opacity=".043" stroke="#c67844" stroke-opacity=".043" stroke-width=".5" d="M182.8 85.66c-.14.61-.51.98-1.11 1.12.37-.37.74-.75 1.11-1.12Zm-17.52 24.36c1.2 2.24 2.78 4.16 4.74 5.77-.4 1.49-2.1-.22-2.69-.6a8.66 8.66 0 0 0-2.66-3.04c.04-1.04-.95-2.14.61-2.13Z"/><path fill="#c77645" fill-opacity=".031" d="M245.93 69.93c1.3-.41 2.57-.34 3.8.22.01.93-2.55.21-3.16.88a9.2 9.2 0 0 1-2.74 3.01 49 49 0 0 1-3.17-.38c1.8-1.19 3.56-2.43 5.27-3.73"/><path fill="#de7121" fill-opacity=".063" d="M222.32 121.1c-1.34 3.59-1.34 7.18.01 10.77-.66 0-1.31.08-1.95.25.73-1.3-.87-2.11-.62-3.54.41-3.21-1.05-5.57 2.56-7.48"/><path fill="#f9650e" fill-opacity=".059" stroke="#f9650e" stroke-opacity=".059" stroke-width=".5" d="M186.99 116c.54 1.75 1.34 3.36 2.41 4.84-.81.3-1.6.27-2.36-.11-1.35-.58-2.73-1.11-4.17-1.58.29-1.08 1.77-.58 2.55-1.09a49 49 0 0 0 1.57-2.06Z"/><path fill="#c9773e" fill-opacity=".051" d="M190.63 100.2c-3.32 4.79-5.49 9.95-3.64 15.8a49 49 0 0 1-1.57 2.06c-.78.51-2.26.01-2.55 1.09-.36-.16-.73-.32-1.09-.49q-.045-1.245.33-2.43c.86 1.53 1.87 1.62 3.04.27.04-3.92.14-7.83.3-11.74.68-.26 1.26-.65 1.75-1.17.52-1.41 1.13-2.76 1.83-4.06.65-.12 1.19.1 1.6.67"/><path fill="#ec6e0c" fill-opacity=".059" d="M161.97 97.03c.69.12 1.38.11 2.07-.01q-.825 3.87-.48 7.83c-2.65-.13-.97-2.51-2.61-2.83.01-.35.01-.7.02-1.05.01-.64-.11-1.25-.37-1.84.49-.68.95-1.38 1.37-2.1"/><path fill="#eb6c18" fill-opacity=".094" d="M230.94 126.99c.56.09.97.38 1.24.87-.3 2.28.57 5.67-1.14 7.46-1.15-2.76-1.18-5.54-.1-8.33"/><path fill="#f36912" fill-opacity=".047" stroke="#f36912" stroke-opacity=".047" stroke-width=".5" d="M312.93 117.97c.5-.12.8.08.9.58q-.915 2.01.06 3.99c.07.88-.34 1.37-1.22 1.47-.92-2.03-.83-4.04.26-6.04Z"/><path fill="#db7221" fill-opacity=".047" stroke="#db7221" stroke-opacity=".047" stroke-width=".5" d="M235.42 118.81c1.29 1.9.87 3.19-1.25 3.87-.84.85-.9 2.12-2.41 2.11a26 26 0 0 1 3.66-5.98Z"/><path fill="#e16f2c" fill-opacity=".035" d="M288.5 80.7c1.1-.73 2.26-.88 3.48-.47-.09 2.35 2.68 1.82 1.88 3.92a94 94 0 0 0-5.36-3.45"/><path fill="#e3711e" fill-opacity=".067" d="M276.05 157.82q2.88.855 5.64 1.17c-1.94 2.84-3.72-.18-5.7.9q.87-1.005.06-2.07"/><path fill="#de731f" fill-opacity=".051" d="M181.18 74.63c-1.1.74-2.17 1.52-3.23 2.32-1.99-2.42 1.56-2.89 3.23-2.32"/><path fill="#df702b" fill-opacity=".063" d="M266 153.68c.3.15.59.3.89.45a17 17 0 0 1 3.25 1.48c-.34 1.7-2.18-.25-3.14-.26-.63-.38-.96-.94-1-1.67"/><path fill="#e96a23" fill-opacity=".624" d="M223.77 63.99c1.11-.03 2.22.06 3.32.26 2.08 2.49-1.6 1.51-3.09 1.95.36-.78.28-1.52-.23-2.21"/><path fill="#de701c" fill-opacity=".051" stroke="#de701c" stroke-opacity=".051" stroke-width=".5" d="M296.07 150.05c1.45-.25 2.87-.12 4.24.39-1.28.65-2.58 1.23-3.91 1.75-.2-.7-.31-1.42-.33-2.14Z"/><path fill="#cf7436" fill-opacity=".094" d="M266.81 152.19q-1.845-.855-3.84-1.08c-.97-.7-.82-1.16.45-1.36 1.93-.25 3.07.56 3.39 2.44"/><path fill="#ec6d14" fill-opacity=".49" d="M262.97 151.11q1.995.225 3.84 1.08c.15.25.31.5.46.75-.13.4-.25.79-.38 1.19-.3-.15-.59-.3-.89-.45-.46-.29-.9-.59-1.34-.91-.54-.33-1.13-.57-1.76-.72.02-.31.04-.62.07-.94"/><path fill="#fff" fill-opacity=".035" d="M494.11 160.21c1.2-.3 1.78 3.09.52 3.76-2.35-.55-.99-2.36-.52-3.76"/><path fill="#e56c25" fill-opacity=".047" stroke="#e56c25" stroke-opacity=".047" stroke-width=".5" d="M171.77 69.31c.17 2.33-.88 3.11-3.13 2.33 1.01-.82 2.06-1.59 3.13-2.33Z"/><path fill="#e26f26" fill-opacity=".075" d="M197.04 67.12c-1 .33-2 .68-2.99 1.06-.03-2.36 3.15-2.76 2.99-1.06"/><path fill="#f8690c" fill-opacity=".435" d="M209.01 58.9c1.37.14 2.33.83 2.88 2.08-1.23.18-2.28-.13-3.16-.93.09-.38.19-.77.28-1.15"/><path fill="#e76e1c" fill-opacity=".2" d="M273.99 114.78c.06.36.13.71.19 1.06-1.06 1.29-2.17 1.39-3.32.28.99-.59 2.04-1.03 3.13-1.34"/><path fill="#e46d22" fill-opacity=".075" d="M209.84 133.97c1.37.11 2.4.74 3.08 1.88-1.05-.2-2.1-.27-3.16-.21.21-.55.24-1.11.08-1.67"/><path fill="#ed6a17" fill-opacity=".498" d="M204.89 130.18c.49-.17.99-.23 1.5-.16 1.9.83 2.14 2.24 4.54 2.06.73 1.14 3.78 1.69 3.92 2.91-.49.17-.77.52-.83 1.04l-1.1-.18c-.68-1.14-1.71-1.77-3.08-1.88a41.6 41.6 0 0 1-4.95-3.79"/><path fill="#d6732e" fill-opacity=".078" d="M254.02 96.19a9.6 9.6 0 0 1 2.24-.38c.38.31.63.71.75 1.19-1.03.28-2.06.57-3.08.89-.03-.57 0-1.14.09-1.7"/><path fill="#f46b06" fill-opacity=".592" d="M235.04 36.92c1.24-.08 2.35.23 3.35.94-.12.41-.24.82-.37 1.23-.77-.2-1.47-.55-2.1-1.04-.41-.28-.71-.66-.88-1.13"/><path fill="#f96905" fill-opacity=".498" d="M239.91 59.75c.46.06.91.13 1.37.2-.54.61-1.06 1.22-1.59 1.84-.74-.73-.67-1.41.22-2.04"/><path fill="#fff" fill-opacity=".188" d="M492.8 159.06c.74.04 1.18.42 1.31 1.15-.6-.2-1.04-.58-1.31-1.15m-1.83.8c1.12.37 1.3 1 .54 1.88-.43-.54-.61-1.17-.54-1.88"/><path fill="#fff" fill-opacity=".063" d="M490 158.26c.89-.66 2.87-.68 2.8.8-.9.16-1.77.08-2.62-.24-.06-.19-.12-.37-.18-.56"/><path fill="#fa6b00" fill-opacity=".125" d="M243.94 144.72c.53.31.96.73 1.28 1.26-.66-.18-1.09-.6-1.28-1.26"/><path fill="#fff" fill-opacity=".996" stroke="#fff" stroke-opacity=".996" stroke-width=".5" d="M440.49 199.51c-8.29-10.87-5.88-26.44 7.89-31.1 8.91-2.76 17.95-3.18 27.11-1.27 3.79.71 5.33 1.07 5.16 5.33-.03 3.13-.18 6.23-.45 9.31-.51.21-1.01.19-1.49-.09-6.25-3.61-14.89-6.7-21.78-3.16-4.52 3.33.33 7.7 3.44 9.63 5.16 2.54 10.39 4.94 15.68 7.21 5.48 3.13 9.99 6.39 10.83 13.13.84 7.77-1.47 14.42-6.93 19.96-11.65 9.45-28.54 7.85-42.34 5.29-.66-.25-1.08-.71-1.27-1.39-1.32-5.7-2.67-11.39-4.06-17.06-.18-.41-.08-.71.29-.91 1.54 1.31 3.14 2.57 4.79 3.78 7.53 4.93 16.14 7.54 25.14 5.78 5.09-1.19 7.76-6.46 2.61-9.76-5.4-2.5-10.77-5.07-16.11-7.7a31.8 31.8 0 0 1-8.51-6.98ZM48.18 167.39c-.18.16-.37.32-.56.48-6.27 6.83-4.43 15.12-4.55 23.59.5 1.67 3.17.89 4.45 1.03 4.81-.31 12.14.62 16.58-.5.8-1.02 1.16-2.18 1.1-3.48-.06-7.63 1.08-14.28-4.45-20.44-.25-.27-.25-.53 0-.77 9.58-.12 19.16-.17 28.75-.15q.765-.075 1.2.54c-1.3 2.23-2.44 4.55-3.44 6.96-.33 1.6-.56 3.22-.71 4.85 1.04 11.22-2.64 42.4 2.71 50.84.76 1.55 4.47 4.04.27 3.84-9.66.05-19.31-.02-28.96-.22-.38-.31-.42-.67-.12-1.07q3.51-3.885 4.35-9.03c.04-.29.07-.58.11-.87.09-5.17.13-10.33.12-15.5-.06-1.59-.89-2.26-2.49-2.02-6.04 0-12.07.04-18.11.13q-1.38.45-1.29 1.92c.52 8.61-2 18.51 4.65 25.42.25.46.15.81-.31 1.06-10.27.24-20.54.22-30.81-.05-.94-.91 2.01-2.59 2.23-3.52 5.76-8.96 1.73-39.24 2.9-50.92-.26-1.97-.64-3.91-1.13-5.84a42.4 42.4 0 0 0-3.34-6.1c.32-.32.7-.45 1.15-.42 9.92-.05 19.82.02 29.7.24Zm110.68 23.64c.28.59.56 1.19.82 1.79 2.96 7.61 3.01 15.25.16 22.91-.29.76-.6 1.51-.94 2.25-11.48 24.56-50.68 24.38-61.85-.98-.15-.37-.3-.74-.45-1.1-6.36-17.53 2.39-34.56 20.4-39.32.97-.25 1.95-.49 2.93-.71 15.12-3.04 31.24.75 38.93 15.16Zm249.21-15.16c1.34.36 2.65.79 3.94 1.3 19.17 7.89 23.5 30.04 11.77 46.29-.4.51-.81 1.02-1.23 1.52-24.35 26.69-74.26.75-56.02-34.98q5.91-9.42 16.47-12.99l.81-.27c8.01-2.28 16.1-2.57 24.26-.87Zm-161.23 1.38c.32.17.65.35.97.52.98.7 1.81 1.55 2.5 2.53 7.05 9.13 14.08 18.25 21.11 27.38 1.49-1.85.43-12.62.75-15.53.15-2.72.05-5.42-.27-8.12-.45-2.1-1.29-4.01-2.55-5.75-.3-.48-.23-.89.19-1.24 5.67-.16 11.34-.21 17.01-.16.77-.04 1.22.31 1.35 1.03-5.8 7.55-3.08 47.15-3.07 58.59.06.51-.13.88-.57 1.1-12.38.43-15.68-3.54-22.7-12.68-6.68-8.55-13.36-17.09-20.06-25.62-.41.66-.58 1.39-.51 2.18 1.05 8.76-2.81 24.77 3.78 31.46q.375.675-.3 1.05c-11.96.26-23.91.23-35.87-.09-7.13-4.19-16.93-22.26-19.54-30.41-.07-.56.14-.97.62-1.24 15.58-.58 14.59-19.17-1.14-15.31-.5.38-.75.88-.73 1.51.52 7.66-.96 34.88.89 40.25 1 1.68 2.06 3.29 3.19 4.83-.32.44-.76.66-1.32.65-8.65.05-17.3-.02-25.93-.22-.28-.33-.27-.66.02-.98 2.82-2.54 4.27-5.7 4.34-9.48.02-12.67 0-25.34-.04-38.01q-.45-4.515-3.42-7.95c.05-1.04 1.35-.44 1.94-.71 11.32.69 31.7-1.57 41.82 1.59 12.43 4.57 11.29 20.99-1.31 25.2-.44.37-.58.84-.43 1.41q6.315 11.745 15.03 21.87c1.15 1.34 2.4 2.56 3.77 3.64 1.89-1.11 2.15-5.04 2.48-7.04-.61-10.04 1.27-33.18-1.14-41.59-.69-1.54-1.51-3.01-2.44-4.4.6-.6 1.34-.83 2.22-.7 5.09.39 14.93-.67 19.36.44Zm43.15-.29c2.16-.2 4.33-.32 6.5-.35 7.22-.07 14.42.01 21.61.24 0 .33 0 .65.01.98-2.87.92-4.71 6.99-4.93 9.68-.03 12.32-.02 24.65.02 36.98q.36 4.965 3.33 8.97c-.06.15-.12.29-.19.44-7.95.27-15.92.35-23.9.26-.86-.02-1.22-.42-1.09-1.22 1.92-2.49 2.96-5.3 3.11-8.44-.06-12 .05-24 .33-35.98-.18-4.68-1.72-8.16-4.8-11.56Zm79.15-.15c-.86 3.61-1.88 7.18-3.05 10.7-.07.56-.32 1-.76 1.34-2.27-.21-4.55-.49-6.83-.84-1.99-.22-3.97-.23-5.95-.02-1.22.72-.56 2.68-.71 3.85 0 10.75.01 21.51.04 32.26.2 3.43 1.5 6.38 3.89 8.84.24.45.14.8-.31 1.04-8.67.17-17.36.25-26.05.23-.55 0-.93-.24-1.13-.72 1.21-.99 2.25-2.15 3.12-3.47 3.52-5.55.97-32.59 1.79-40.57-.07-1.03-.61-1.57-1.64-1.64-4.7.11-9.37.49-14.01 1.15-.51-.34-.69-.81-.55-1.41 1.04-3.31 2.08-6.61 3.13-9.92.63-.66 1.42-.93 2.36-.81 15.55.02 31.11.02 46.66-.01Zm39.16 16.07c-.32-.57-.65-1.14-.98-1.7-2.31-3.94-5.64-6.54-10-7.81-23.3-2.58-20.2 34.9-2.02 41.01 18.32 3.47 19.28-19.96 13-31.5ZM112.5 200c-.24 31.32 36.22 34.03 30.52 2.49-2.88-22.74-29.03-27.14-30.52-2.49Z"/><path fill="#fd6705" fill-opacity=".988" stroke="#fd6705" stroke-opacity=".988" stroke-width=".5" d="M233.84 25.94c-5.27 2.57-7.87 8.15-2.94 12.64 2.15 2.04 4.39 3.97 6.73 5.78 1.41 1.13 2.66 2.41 3.76 3.83 3.24 4.21 2.09 7.53-.11 11.76-.46-.07-.91-.14-1.37-.2.17-.58.34-1.16.5-1.74.53-4.9-3.67-8.12-7.2-10.67-3.95-2.94-9.79-5.95-12.33-10.25-1.49-3.07-1.12-5.9 1.11-8.48 3.32-2.79 7.17-4.01 11.53-3.67.53-.07.96.08 1.29.48-.18.41-.5.59-.97.52Zm4.55 11.92c.74.13 1.47.33 2.18.58.47.2.95.38 1.43.55 4.69 1.57 8.56 4.29 11.61 8.15.15.28.29.55.43.83.42.65.74 1.35.97 2.09.26.29.53.59.79.89q-1.035.465-.09 1.26c.53 2.59.33 5.13-.6 7.61-.5 1.05-1.1 2.04-1.77 2.98a34.1 34.1 0 0 1-7.41 7.13c-1.71 1.3-3.47 2.54-5.27 3.73-.94.61-1.89 1.21-2.84 1.81-3.68 2.3-7.35 4.6-11.02 6.92-.28.19-.57.37-.85.56-3.22 2.07-6.34 4.28-9.37 6.62a71.8 71.8 0 0 0-13.86 13.16c-.59.74-1.17 1.49-1.73 2.25q-1.08 1.455-2.04 3c-3.54 5.99-3.55 12.02-.02 18.08.32.8.78 1.51 1.39 2.13l-.27.87c-4-1.43-8-4.93-10.65-8.22a16.5 16.5 0 0 1-2.41-4.84c-1.85-5.85.32-11.01 3.64-15.8 1.39-1.93 2.93-3.72 4.64-5.36 2.09-1.92 4.16-3.85 6.22-5.78.88-.54 1.73-1.13 2.54-1.77q2.115-1.62 4.29-3.15c4.77-3.24 9.67-6.28 14.68-9.12.49-.28.97-.55 1.45-.82 3.55-1.95 7.13-3.85 10.73-5.7.29-.15.57-.3.85-.45 2.16-1.13 4.22-2.4 6.2-3.82 3-1.93 5-4.6 6.01-7.99.17-1.43.09-2.84-.22-4.24a18.9 18.9 0 0 0-2.84-6.18c-1.1-1.55-2.36-2.96-3.77-4.23-1.04-.96-2.17-1.79-3.39-2.5.13-.41.25-.82.37-1.23ZM204 57.93c1.65.43 3.32.76 5.01.97-.09.38-.19.77-.28 1.15a80 80 0 0 0-16.98 1.27c-7.19 1.34-13.85 4-19.98 7.99-1.07.74-2.12 1.51-3.13 2.33a32.1 32.1 0 0 0-7.78 9.22c-3.03 6.05-3.11 12.14-.26 18.27.26.59.38 1.2.37 1.84a5.23 5.23 0 0 1-2.87-1.08 18.15 18.15 0 0 1-5.4-5.11c-4.92-7.06-2.53-14.44 2.51-20.57 1.52-1.81 3.18-3.48 4.99-5.01a47 47 0 0 1 8.95-5.81A59.6 59.6 0 0 1 185 58.01c6.33-1.34 12.66-1.37 19-.08Zm19.77 6.06c.51.69.59 1.43.23 2.21-2.03-.04-4.02.24-5.98.85a86 86 0 0 0-17.01 6.25c-.67.34-1.33.68-1.99 1.02a56.3 56.3 0 0 0-16.22 11.34c-.37.37-.74.75-1.11 1.12a30.5 30.5 0 0 0-5.47 6.97c-.42.75-.82 1.5-1.2 2.27-2.48 4.52-3.02 9.25-1.64 14.18q2.625 5.775 8.4 8.46c.36.17.73.33 1.09.49 1.44.47 2.82 1 4.17 1.58-4.29.98-10.34-1.13-14.21-3.05a22 22 0 0 1-2.81-1.89 19 19 0 0 1-4.74-5.77c-.89-1.62-1.46-3.35-1.72-5.17q-.345-3.96.48-7.83c.07-.32.13-.64.2-.95 1.18-4.36 3.2-8.28 6.07-11.77 2.28-2.73 4.83-5.18 7.64-7.35 1.06-.8 2.13-1.58 3.23-2.32q.96-.63 1.95-1.23a77 77 0 0 1 8.01-4.04c.96-.41 1.94-.81 2.91-1.18.99-.38 1.99-.73 2.99-1.06 4-1.36 8.08-2.34 12.26-2.95 4.81-.74 9.64-.8 14.47-.18ZM274 75.98c4.7.95 9.22 2.41 13.59 4.38.3.11.61.23.91.34a94 94 0 0 1 5.36 3.45c.29.21.59.41.88.62a37.6 37.6 0 0 1 8.7 8.42c1.46 2.29 2.77 4.65 3.95 7.09 1.62 2.62 4.54 4.81 5.55 7.74 1.17 3.31 1.17 6.63-.01 9.95-1.09 2-1.18 4.01-.26 6.04 1.91 2.97 3.9 5.28 4.41 8.94.61 3.64.18 7.15-1.32 10.52-.25.51-.51 1.02-.78 1.52a25.8 25.8 0 0 1-8.18 8.42 33 33 0 0 1-8.91 4.24c-2.22.7-4.41 1.16-6.58 1.38-3.21.27-6.42.26-9.62-.04q-2.76-.315-5.64-1.17c-2.02-.6-3.99-1.34-5.91-2.21a17 17 0 0 0-3.25-1.48c.13-.4.25-.79.38-1.19 1.5.32 3 .65 4.49 1.01 7.49 1.47 14.9 1.15 22.25-.96.81-.24 1.61-.51 2.39-.8 1.33-.52 2.63-1.1 3.91-1.75 2.6-1.2 4.84-2.88 6.72-5.02.85-1.04 1.54-2.17 2.09-3.39 1.02-2.6 1.31-5.28.86-8.04q-.585-3.69-2.7-6.78c-4.19-5.16-9.56-8.38-16.12-9.67-2.92-.73-5.88-1.21-8.89-1.44a81 81 0 0 0-8.09-.26c-.06-.35-.13-.7-.19-1.06 2.02-.13 4.02-.39 6.01-.78 4.66-.72 9.33-.71 13.99.02q4.575.78 8.76 2.73c2.18 1.06 4.24 2.31 6.17 3.77 2.67 1.57 2.26-2.6 2.13-4.03-1.09-6.18-4.39-10.79-9.9-13.85-8.46-4.7-19.92-4.31-29.16-2.76-4.42.71-8.75 1.74-13 3.11-.99.34-1.96.71-2.93 1.1-1.71.73-3.39 1.53-5.04 2.39a51.5 51.5 0 0 0-10.05 6.67c-2.02 1.71-3.88 3.6-5.55 5.66a26 26 0 0 0-3.66 5.98c-.39.69-.66 1.42-.82 2.2-1.08 2.79-1.05 5.57.1 8.33.2.36.39.71.58 1.06 2.01 3.4 4.81 5.92 8.41 7.58.67.27 1.35.54 2.02.82q.945-.15 1.89-.06c.19.66.62 1.08 1.28 1.26l.06 1.21c-4.14-1.04-8.25-1.64-12.12-3.61a40 40 0 0 0-8.12-2.67 56.3 56.3 0 0 1-9.88-4.39c-.35-.24-.73-.41-1.14-.49.06-.52.34-.87.83-1.04 2.92.96 5.86 1.87 8.83 2.71.59-.07 1.56.61 1.81-.28-1.32-1.7-2.38-3.55-3.16-5.55-1.35-3.59-1.35-7.18-.01-10.77.12-.29.23-.58.35-.87 2.57-5.34 6.36-9.63 11.37-12.86.46-.32.92-.63 1.39-.94 4.24-2.68 8.66-4.92 13.28-6.72 1.71-.68 3.46-1.29 5.22-1.82 1.02-.32 2.05-.61 3.08-.89 1-.26 2.01-.52 3.02-.77 10.24-2.56 20.56-2.95 30.95-1.15 3.01.67 5.98 1.41 8.89 2.22.01-1.47-4.4-4.67-5.49-5.67-.38-.3-.77-.59-1.15-.88-.38-.28-.76-.56-1.14-.83a48.1 48.1 0 0 0-11.99-6.22 73.4 73.4 0 0 0-16.11-3.61 3.3 3.3 0 0 1-1.86-.28c-.36-.56-.88-.82-1.59-.77-3.02-.04-6.04-.06-9.06-.08-1.07-.17-1.9.17-2.5 1.02-.4.05-.8.09-1.2.14q-.885.075-1.77-.03c-2.2.16-4.37.49-6.51 1.01-.52-.01-.97-.19-1.33-.55.8-.75 1.74-1.27 2.83-1.56q2.955-1.17 6-2.01c.71-.19 1.42-.37 2.14-.54 8.25-1.83 16.54-1.98 24.86-.46Z"/><path fill="#dd731e" fill-opacity=".757" d="M262.13 79.81c-4.38.19-8.76.25-13.15.17.6-.85 1.43-1.19 2.5-1.02 3.02.02 6.04.04 9.06.08.71-.05 1.23.21 1.59.77"/><path fill="#de7023" fill-opacity=".502" d="m255.8 50.95-.09 1.26q-.945-.795.09-1.26"/><path fill="#da7128" fill-opacity=".125" d="M254.04 47.97c.38.17.76.18 1.15.04.51.72.45 1.4-.18 2.05-.23-.74-.55-1.44-.97-2.09"/><path fill="#edd09f" fill-opacity=".965" d="M118.42 255.01c.5.54.94 1.11 1.33 1.72 4.15 12.19-13.89 16.78-22.07 17.4-2.43 3.08-2.68 7.05-3.41 10.77-3.73 2.37-3.22-6.54-1.9-8.21.85-3.44 9.71-17.7 12.18-18.61 1.27.23 1.69.99 1.26 2.27q-3.24 5.16-6.51 10.32c-.25 1 .15 1.46 1.19 1.38 5.67-.72 15.53-6.09 15.65-12.55.26-5.49-9.05-3.59-12.19-3.08-5.28 1.12-9.8 3.62-13.55 7.48-.9 1.35-1.85 2.63-2.83 3.83-1.9-.72-.58-4.56.17-5.69 1.95-2.55 4.41-4.45 7.39-5.69.28-.13.56-.26.84-.4.94-.42 1.9-.81 2.87-1.17 5.28-1.78 14.89-3.37 19.58.23m190.81 10.02c-5.09 6.22-11.67 9.18-19.72 8.9-.74.29-1.3.78-1.69 1.49a26.6 26.6 0 0 0-2.63 9.08c-.59 1.26-1.31 1.27-2.15.03-3.56-6.76 6.48-19.06 10.28-24.52 1.91-3.28 4.88-1.66 2.75 1.54-2.09 2.97-4.07 6.01-5.92 9.12-1.58 3.76 8.55-1 9.39-1.63 3.63-1.99 10.93-8.68 5.9-12.64-3.97-1.44-9.47-.56-13.38.87-4.16 1.23-7.74 3.42-10.73 6.55-.98 1.36-1.94 2.7-2.86 4.03-.44-.12-.71-.39-.81-.83-.34-3.33.88-5.97 3.67-7.91 2.68-1.96 5.61-3.45 8.77-4.49 8.08-3.01 27.5-3.65 19.13 10.41m-130.07 6.81c-4.08-.48-10.79 4.85-11.14 8.61 2.18 2.38 10.67-6.14 11.14-8.61 1.7-2.47 3.45-4.95 5.24-7.44 1.6-2.09 6.31-8.23 9.26-5.79-2.75 3.05-5.43 6.19-8.06 9.42-2.83 3.99-5.62 8.44-5.81 13.47.01 1.68.33 3.3.96 4.84l-.32.32c-4.76-1.13-3.67-4.86-3.88-8.36a28 28 0 0 1-4.84 3.85c-9.12 5.31-9.54-2.73-3.96-8.03 2.14-2.3 9.44-6.68 11.41-2.28m38.52-4.53c1.81-.68 8.53-10.52 8.76-4.26-1.39 4.03-5.02 4.25-8.76 4.26m121.24-3.13c.36.09.71.19 1.07.28.28.23.57.46.86.69.1 1.7.23 3.39.37 5.06.73.47 4.91.82 2 2.33-1.89-.32-3.62.01-5.21 1.01-.95 1.21-5.5 8.47-1.54 8.33 1.46-.63 2.79-1.45 4-2.45.62.43.81 1.01.56 1.73-3.02 1.95-4.81 4.58-8.89 2.42-1.39-3.55-.28-6.14 1.5-9.28.15-.41.08-.76-.22-1.05-.76.49-1.58.63-2.45.43a40 40 0 0 0-3.44-1.98c-2.06-.18-2.79.69-2.21 2.6 2.16 1.56 5.14 5.01 2.8 7.63-3.07 2.67-6.34 2.93-9.82.79-.29-1.13.09-3.43 1.72-2.19 2.21 3.2 6.9 1.65 4.64-1.71-2.16-1.87-3.97-2.95-3.48-6.2 2.67-2.09 4.61-3.33 8.3-2.68 1.1.51 2.12 1.13 3.04 1.85 4.76-1.05 5.5-2.93 6.4-7.61m43.99 5.04c1 .34 1.86.91 2.57 1.69.37 1.28.74 2.51 1.09 3.71 1.71-1.48 5.74-6.94 8.25-3.66.31 1.67-.21 3.56-2.13 3.75-1.51-1.19-.97-1.73-2.97-.42a23.6 23.6 0 0 0-4.95 6.32c-1.58.93-.71 3.83-3.06 2.57-.87-.63.29-3.04-.07-4.15.34-2.66 2.26-7.34 1.27-9.81m-256.72 1.86c-1.81 1.8-.57 1.37-.03 3.39a65 65 0 0 0-.61 5.03c.25 1.74.55 3.42.89 5.05-1.26-.19-2.35-.7-3.28-1.55-.77-1.52-1.29-3.09-1.55-4.73-10.5 12.08-17.86 1.72-5.69-6.06 1.99-1.53 8.9-3.98 10.27-1.13m31.9 1.01c-3.1 1.26-8.2 4.86-8.91 8.3 2 2.4 7.89-4.88 9.08-6.49.82-1.07 2.77-1.71 3.56-.25-.15 1.93-.36 3.86-.64 5.8.03 1.43.32 2.81.87 4.13-1.3 2.01-3.63-.72-4-2.18-.1-1.04-.31-2.02-.65-2.95-3.5 3.03-6.08 5.99-11.26 5.03-2.57-2.41 1.43-8.46 3.84-10.03 1.83-1.92 9.07-5.33 11.01-2.86.37 1.51-2.02 1.32-2.9 1.5m39.84-1.05c2.45.45-.16 4.35-1.31 5.06a27 27 0 0 1-9.02 2.91c-1.25 1.47.57 2.55 1.9 2.68 1.29-.26 2.58-.57 3.85-.93 1.02-.62 2.07-1.14 3.16-1.55 1.31 1.75-3.28 3.69-4.47 4.23-2.61 1.09-5.13.96-7.58-.37-4.67-6.58 7.28-15.71 13.47-12.03m20.83-.23c.05 4.48-5.95 7.62-3.04 13.66-.27.34-.62.47-1.06.38-6.36-1.97-1.31-10.61 1.35-13.75 1.26-1.39 1.21-1.59 2.75-.29m98.01 4.17c-.64 2.95-.5 5.84.41 8.68-.6 1.26-1.4.43-2.33 0-1.46-1.36-2.16-3.05-2.11-5.07-1.02.47-1.94 1.17-2.75 2.08-1.41 1.81-8.9 5.14-9.37 1.42-.03-1.04.06-2.07.28-3.08 1.74-3.65 4.45-6.34 8.13-8.08 2.03-.94 4.15-1.24 6.35-.91 1.72.5 1.24 3.61 1.39 4.96m40.62-4.01c.57.24.87.68.88 1.31-1.52 7.2-8.22 4.14-11.39 7.37.4 4.12 6.86.75 8.78-.32q1.695.09.3 1.32c-3.22 3.15-9.15 5.27-12.76 1.63-1.65-5.4 3.37-9.76 7.87-11.62 2.15-.84 4.26-.74 6.32.31m57.7 1.32c-3.05-.99-11.81 6.15-9.53 8.67 2.59-.34 8.38-5.85 9.55-8.18 1.05-.19 1.85.17 2.37 1.09.01 1.04-.11 2.07-.37 3.1-.31 2.29-.08 4.52.7 6.68.06.75-.29 1.09-1.03 1.02-.75-.52-1.49-1.07-2.21-1.66-.61-1.15-1.09-2.36-1.44-3.61-.21-.07-.41-.15-.61-.22a29.4 29.4 0 0 1-5.85 3.88c-1.66.56-3.35.64-5.06.25-1.62-4.07 1.29-7.62 4.39-10.15 2.75-2.36 5.92-3.47 9.53-3.33q1.35.12 1.17 1.38c-.56.32-1.1.68-1.61 1.08m-301.8 8.41c3.15 1.26 11.07-7.33 10.12-8.6-4.25.57-8.74 4.58-10.12 8.6m74.93-3.93c2.19.75 5.07-1.03 6.57-2.54.84-1.4.45-2.11-1.15-2.11-2.38.89-4.18 2.44-5.42 4.65m116.02 3.99c3.16 1.3 8.72-6.32 10.67-8.31-3.14-1.57-10.25 5.17-10.67 8.31m43.62-3.62c2.57.05 4.82-1.33 6.58-3.08 1.47-2.95-2.29-2.04-3.56-.86-1.47.99-2.48 2.3-3.02 3.94"/><path fill="#ebceab" fill-opacity=".043" d="M347.86 277.14c.54-1.64 1.55-2.95 3.02-3.94 1.27-1.18 5.03-2.09 3.56.86-1.76 1.75-4.01 3.13-6.58 3.08"/><path fill="#eacead" fill-opacity=".02" d="M179.16 271.84c-.47 2.47-8.96 10.99-11.14 8.61.35-3.76 7.06-9.09 11.14-8.61"/><path fill="#ecd19b" fill-opacity=".024" d="M113.29 280.7c1.38-4.02 5.87-8.03 10.12-8.6.95 1.27-6.97 9.86-10.12 8.6"/><path fill="#ebcfa3" fill-opacity=".027" d="M382.91 269.22c.99 2.47-.93 7.15-1.27 9.81.36 1.11-.8 3.52.07 4.15-1.61 1.51-5.54.11-7.67.28 1.23-.51 5.82-2.47 4.48-4.27-1.09.41-2.14.93-3.14 1.55-1.28.37-2.58.68-3.89.93-1.22-.1-3.16-1.18-1.86-2.54 4.26-1.54 10.07-1.18 11.27-6.67-.01-.84-.41-1.37-1.21-1.6.46-1.68 1.53-2.22 3.22-1.64"/><path fill="#edcfa1" fill-opacity=".953" d="M379.69 270.86c.8.23 1.2.76 1.21 1.6-1.2 5.49-7.01 5.13-11.27 6.67-1.3 1.36.64 2.44 1.86 2.54 1.31-.25 2.61-.56 3.89-.93 1-.62 2.05-1.14 3.14-1.55 1.34 1.8-3.25 3.76-4.48 4.27-2.59.83-5.96 1.37-8.02-.86-1.07-2.53-.76-4.9.93-7.09 2.77-3.54 8.25-6.92 12.74-4.65m-9.46 5.9c2.14 1.01 5.03-1.17 6.56-2.54.77-1.4.38-2.09-1.18-2.08-2.36.89-4.15 2.44-5.38 4.62"/></svg>