<svg xmlns="http://www.w3.org/2000/svg" version="1.1" xmlns:xlink="http://www.w3.org/1999/xlink" xmlns:svgjs="http://svgjs.dev/svgjs" width="500" height="800" preserveAspectRatio="none" viewBox="0 0 500 800"><g mask="url(&quot;#SvgjsMask1385&quot;)" fill="none"><rect width="500" height="800" x="0" y="0" fill="rgba(255, 255, 255, 1)"></rect><use xlink:href="#SvgjsG1389" transform="translate(0, 0)" fill="rgba(255, 244, 235, 1)"></use></g><defs><mask id="SvgjsMask1385"><rect width="500" height="800" fill="#ffffff"></rect></mask><g id="SvgjsG1386"><path d="M15.964 4.774l-1.312 10.327H10.223L8.916 4.774h5.408L15.395 1.04 16 1.21l-1.024 3.562 0.988 0.002zM8.29 10.788s0.166-1.502-2.131-1.502H2.5c-2.293 0-2.131 1.502-2.132 1.502h7.922zM0.368 13.595s-0.162 1.506 2.132 1.506h3.659c2.297 0 2.131-1.506 2.131-1.506H0.369z m7.578-0.727a0.68 0.68 0 0 0 0.68-0.68c0-0.372-0.304-0.676-0.68-0.676H0.68C0.306 11.512 0 11.816 0 12.188a0.682 0.682 0 0 0 0.68 0.68h7.266z"></path></g><g id="SvgjsG1387"><path d="M7.741 5.269c-0.003 0.523-0.481 1.084-1.101 1.084v8.856c0 1.261-1.714 1.261-1.716 0V6.354c-0.602 0-1.127-0.465-1.126-1.159V0.315c-0.001-0.423 0.612-0.44 0.616 0.017v3.606h0.51V0.299c0-0.389 0.59-0.414 0.591 0.016v3.623h0.526V0.307C6.044-0.103 6.618-0.12 6.616 0.323v3.615h0.526V0.307c-0.002-0.406 0.597-0.423 0.599 0.016v4.946zM12.309 1.449v13.76c0.002 1.229-1.715 1.211-1.717 0V9.746h-0.912V1.449c-0.001-1.932 2.631-1.932 2.629 0z"></path></g><g id="SvgjsG1388"><path d="M15.065 12.151H0.02c0 1.333 1.015 1.95 1.83 1.95h11.386c0.975 0 1.83-0.767 1.829-1.951zM12.853 2.166H1.869v7.208c0 0.976 0.843 1.75 1.755 1.75h7.121c1.031 0 1.731-0.863 1.731-1.749V8.773c2.031 0 3.505-1.527 3.505-3.303 0-1.815-1.445-3.303-3.126-3.303z m1.832 3.305c0 1.036-0.763 2.025-2.21 1.931V3.519l0.378 0 0 0.001c1.391 0 1.837 1.318 1.832 1.952v-0.001z"></path></g><g id="SvgjsG1389"><use xlink:href="#SvgjsG1386" transform="translate(0, 0) scale(1.7)" fill="rgba(255, 244, 235, 1)"></use><use xlink:href="#SvgjsG1387" transform="translate(0, 95.2) scale(1.7)" fill="rgba(255, 244, 235, 1)"></use><use xlink:href="#SvgjsG1388" transform="translate(0, 190.4) scale(1.7)" fill="rgba(255, 244, 235, 1)"></use><use xlink:href="#SvgjsG1386" transform="translate(0, 285.6) scale(1.7)" fill="rgba(255, 244, 235, 1)"></use><use xlink:href="#SvgjsG1387" transform="translate(0, 380.8) scale(1.7)" fill="rgba(255, 244, 235, 1)"></use><use xlink:href="#SvgjsG1388" transform="translate(0, 476) scale(1.7)" fill="rgba(255, 244, 235, 1)"></use><use xlink:href="#SvgjsG1386" transform="translate(0, 571.2) scale(1.7)" fill="rgba(255, 244, 235, 1)"></use><use xlink:href="#SvgjsG1387" transform="translate(0, 666.4) scale(1.7)" fill="rgba(255, 244, 235, 1)"></use><use xlink:href="#SvgjsG1388" transform="translate(0, 761.6) scale(1.7)" fill="rgba(255, 244, 235, 1)"></use><use xlink:href="#SvgjsG1387" transform="translate(95.2, 0) scale(1.7)" fill="rgba(255, 244, 235, 1)"></use><use xlink:href="#SvgjsG1388" transform="translate(95.2, 95.2) scale(1.7)" fill="rgba(255, 244, 235, 1)"></use><use xlink:href="#SvgjsG1386" transform="translate(95.2, 190.4) scale(1.7)" fill="rgba(255, 244, 235, 1)"></use><use xlink:href="#SvgjsG1387" transform="translate(95.2, 285.6) scale(1.7)" fill="rgba(255, 244, 235, 1)"></use><use xlink:href="#SvgjsG1388" transform="translate(95.2, 380.8) scale(1.7)" fill="rgba(255, 244, 235, 1)"></use><use xlink:href="#SvgjsG1386" transform="translate(95.2, 476) scale(1.7)" fill="rgba(255, 244, 235, 1)"></use><use xlink:href="#SvgjsG1387" transform="translate(95.2, 571.2) scale(1.7)" fill="rgba(255, 244, 235, 1)"></use><use xlink:href="#SvgjsG1388" transform="translate(95.2, 666.4) scale(1.7)" fill="rgba(255, 244, 235, 1)"></use><use xlink:href="#SvgjsG1386" transform="translate(95.2, 761.6) scale(1.7)" fill="rgba(255, 244, 235, 1)"></use><use xlink:href="#SvgjsG1388" transform="translate(190.4, 0) scale(1.7)" fill="rgba(255, 244, 235, 1)"></use><use xlink:href="#SvgjsG1386" transform="translate(190.4, 95.2) scale(1.7)" fill="rgba(255, 244, 235, 1)"></use><use xlink:href="#SvgjsG1387" transform="translate(190.4, 190.4) scale(1.7)" fill="rgba(255, 244, 235, 1)"></use><use xlink:href="#SvgjsG1388" transform="translate(190.4, 285.6) scale(1.7)" fill="rgba(255, 244, 235, 1)"></use><use xlink:href="#SvgjsG1386" transform="translate(190.4, 380.8) scale(1.7)" fill="rgba(255, 244, 235, 1)"></use><use xlink:href="#SvgjsG1387" transform="translate(190.4, 476) scale(1.7)" fill="rgba(255, 244, 235, 1)"></use><use xlink:href="#SvgjsG1388" transform="translate(190.4, 571.2) scale(1.7)" fill="rgba(255, 244, 235, 1)"></use><use xlink:href="#SvgjsG1386" transform="translate(190.4, 666.4) scale(1.7)" fill="rgba(255, 244, 235, 1)"></use><use xlink:href="#SvgjsG1387" transform="translate(190.4, 761.6) scale(1.7)" fill="rgba(255, 244, 235, 1)"></use><use xlink:href="#SvgjsG1386" transform="translate(285.6, 0) scale(1.7)" fill="rgba(255, 244, 235, 1)"></use><use xlink:href="#SvgjsG1387" transform="translate(285.6, 95.2) scale(1.7)" fill="rgba(255, 244, 235, 1)"></use><use xlink:href="#SvgjsG1388" transform="translate(285.6, 190.4) scale(1.7)" fill="rgba(255, 244, 235, 1)"></use><use xlink:href="#SvgjsG1386" transform="translate(285.6, 285.6) scale(1.7)" fill="rgba(255, 244, 235, 1)"></use><use xlink:href="#SvgjsG1387" transform="translate(285.6, 380.8) scale(1.7)" fill="rgba(255, 244, 235, 1)"></use><use xlink:href="#SvgjsG1388" transform="translate(285.6, 476) scale(1.7)" fill="rgba(255, 244, 235, 1)"></use><use xlink:href="#SvgjsG1386" transform="translate(285.6, 571.2) scale(1.7)" fill="rgba(255, 244, 235, 1)"></use><use xlink:href="#SvgjsG1387" transform="translate(285.6, 666.4) scale(1.7)" fill="rgba(255, 244, 235, 1)"></use><use xlink:href="#SvgjsG1388" transform="translate(285.6, 761.6) scale(1.7)" fill="rgba(255, 244, 235, 1)"></use><use xlink:href="#SvgjsG1387" transform="translate(380.8, 0) scale(1.7)" fill="rgba(255, 244, 235, 1)"></use><use xlink:href="#SvgjsG1388" transform="translate(380.8, 95.2) scale(1.7)" fill="rgba(255, 244, 235, 1)"></use><use xlink:href="#SvgjsG1386" transform="translate(380.8, 190.4) scale(1.7)" fill="rgba(255, 244, 235, 1)"></use><use xlink:href="#SvgjsG1387" transform="translate(380.8, 285.6) scale(1.7)" fill="rgba(255, 244, 235, 1)"></use><use xlink:href="#SvgjsG1388" transform="translate(380.8, 380.8) scale(1.7)" fill="rgba(255, 244, 235, 1)"></use><use xlink:href="#SvgjsG1386" transform="translate(380.8, 476) scale(1.7)" fill="rgba(255, 244, 235, 1)"></use><use xlink:href="#SvgjsG1387" transform="translate(380.8, 571.2) scale(1.7)" fill="rgba(255, 244, 235, 1)"></use><use xlink:href="#SvgjsG1388" transform="translate(380.8, 666.4) scale(1.7)" fill="rgba(255, 244, 235, 1)"></use><use xlink:href="#SvgjsG1386" transform="translate(380.8, 761.6) scale(1.7)" fill="rgba(255, 244, 235, 1)"></use><use xlink:href="#SvgjsG1388" transform="translate(476, 0) scale(1.7)" fill="rgba(255, 244, 235, 1)"></use><use xlink:href="#SvgjsG1386" transform="translate(476, 95.2) scale(1.7)" fill="rgba(255, 244, 235, 1)"></use><use xlink:href="#SvgjsG1387" transform="translate(476, 190.4) scale(1.7)" fill="rgba(255, 244, 235, 1)"></use><use xlink:href="#SvgjsG1388" transform="translate(476, 285.6) scale(1.7)" fill="rgba(255, 244, 235, 1)"></use><use xlink:href="#SvgjsG1386" transform="translate(476, 380.8) scale(1.7)" fill="rgba(255, 244, 235, 1)"></use><use xlink:href="#SvgjsG1387" transform="translate(476, 476) scale(1.7)" fill="rgba(255, 244, 235, 1)"></use><use xlink:href="#SvgjsG1388" transform="translate(476, 571.2) scale(1.7)" fill="rgba(255, 244, 235, 1)"></use><use xlink:href="#SvgjsG1386" transform="translate(476, 666.4) scale(1.7)" fill="rgba(255, 244, 235, 1)"></use><use xlink:href="#SvgjsG1387" transform="translate(476, 761.6) scale(1.7)" fill="rgba(255, 244, 235, 1)"></use></g></defs></svg>