<?xml version="1.0" encoding="utf-8"?>
<!-- Generator: Adobe Illustrator 25.0.1, SVG Export Plug-In . SVG Version: 6.00 Build 0)  -->
<svg version="1.0" id="Capa_1" xmlns="http://www.w3.org/2000/svg" xmlns:xlink="http://www.w3.org/1999/xlink" x="0px" y="0px"
	 viewBox="0 0 243.35098 57.61102" style="enable-background:new 0 0 243.35098 57.61102;" xml:space="preserve">
<style type="text/css">
	.st0{fill:#fff;}
	.st1{fill-rule:evenodd;clip-rule:evenodd;fill:#fff;}
	.st2{fill-rule:evenodd;clip-rule:evenodd;fill:#fff;}
	.st3{fill-rule:evenodd;clip-rule:evenodd;fill:#FFFFFF;}
	.st4{fill:#2C2925;}
</style>
<g>
	<path class="st0" d="M45.39301,49.50198l0.146-1.90997L45.64398,45.38l0.061-2.008v-0.67902
		c0.823,0.004,1.681,0.00601,2.57001,0.00601l0.95898-0.00201l1.444-0.004l-0.06,1.077l-0.47498-0.026
		c-0.13202-0.00598-0.311-0.013-0.54102-0.013c-0.229-0.004-0.46301-0.00699-0.70099-0.00699
		c-0.521,0-0.85501,0.00299-1.00702,0.00299c-0.14999,0-0.38098,0.009-0.686,0.017l-0.082,1.771
		c0.457,0.009,0.91602,0.01501,1.37701,0.01501c0.32101,0,0.86099-0.01001,1.621-0.03
		c-0.02899,0.30399-0.04999,0.66901-0.07401,1.09c-0.88599-0.01199-1.392-0.01801-1.52399-0.01801
		c-0.39001,0-0.88202,0.01199-1.466,0.03101l-0.08301,1.866l0.54999,0.00601c0.16,0,0.526-0.00201,1.09702-0.01199l1.08099-0.01703
		l0.72601-0.03497c-0.035,0.384-0.05701,0.75-0.07001,1.09097c-0.862-0.008-1.64499-0.01099-2.34-0.01099l-1.63901,0.00601
		L45.39301,49.50198z"/>
	<path class="st0" d="M56.707,49.50198c-0.276-0.008-0.491-0.01099-0.64301-0.01099c-0.164,0-0.396,0.00299-0.68799,0.01099
		l0.043-0.867c-0.146,0.186-0.271,0.33502-0.379,0.439C54.939,49.17499,54.806,49.271,54.655,49.35898
		c-0.15701,0.08902-0.32401,0.155-0.50101,0.19901c-0.17999,0.04102-0.36798,0.064-0.561,0.064
		c-0.31998,0-0.616-0.05798-0.896-0.17398c-0.28-0.11801-0.51599-0.28101-0.71298-0.492
		c-0.19601-0.21301-0.34302-0.46301-0.43701-0.755c-0.09201-0.289-0.13699-0.59-0.13699-0.909
		c0-0.43301,0.08398-0.85901,0.25-1.27402c0.16501-0.41199,0.39301-0.75,0.67899-1.00497
		c0.29401-0.25601,0.61902-0.43802,0.98401-0.54501C53.68799,44.362,54.078,44.31,54.5,44.31
		c0.30099,0,0.64499,0.02798,1.02798,0.086c0.02402-0.436,0.03403-0.89001,0.03403-1.36401V42.694
		c0.314,0.00299,0.55698,0.00497,0.72299,0.00497c0.21201,0,0.457-0.00198,0.72998-0.00497
		c-0.07599,0.84198-0.146,1.99399-0.20999,3.448C56.73999,47.595,56.707,48.71799,56.707,49.50198 M55.47601,45.34097
		c-0.25-0.06598-0.48901-0.10199-0.72-0.10199c-0.26001,0-0.513,0.04001-0.75403,0.11099
		c-0.23599,0.07602-0.44998,0.198-0.63397,0.37601c-0.186,0.177-0.32703,0.39999-0.42603,0.677
		c-0.10098,0.27701-0.14999,0.543-0.14999,0.80099c0,0.25601,0.047,0.48801,0.13501,0.703
		c0.09399,0.20901,0.23499,0.379,0.42801,0.504C53.548,48.53497,53.76599,48.595,54.008,48.595
		c0.185,0,0.349-0.03201,0.49899-0.10101c0.14902-0.06201,0.28601-0.16101,0.41-0.29501
		c0.12302-0.13397,0.22501-0.31,0.30902-0.52298c0.086-0.21201,0.146-0.495,0.185-0.849
		C55.43298,46.56998,55.45499,46.07199,55.47601,45.34097"/>
	<path class="st0" d="M63.08801,49.50198c-0.29202-0.008-0.51703-0.01099-0.67502-0.01099c-0.194,0-0.418,0.00299-0.66699,0.01099
		l0.009-0.83099c-0.095,0.14401-0.173,0.255-0.24402,0.34c-0.069,0.08801-0.16299,0.17001-0.27399,0.25
		c-0.11499,0.082-0.23901,0.14603-0.371,0.19302c-0.13101,0.04797-0.285,0.08899-0.45599,0.11899
		c-0.17001,0.03299-0.35101,0.04901-0.54602,0.04901c-0.375,0-0.69498-0.056-0.97198-0.16101
		c-0.27399-0.10999-0.49399-0.27499-0.65601-0.49301c-0.16-0.22098-0.241-0.53198-0.241-0.94299v-0.10498l0.08099-1.28702
		l0.07602-1.69501c0.00198-0.138,0.004-0.306,0.004-0.508c0.31699,0.005,0.56299,0.009,0.742,0.009
		c0.189,0,0.42099-0.004,0.689-0.009l-0.16602,2.26901c-0.01199,0.181-0.01801,0.32999-0.02399,0.44901
		c-0.005,0.125-0.00601,0.211-0.00601,0.263c0,0.23898,0.035,0.43799,0.10602,0.595c0.06998,0.15799,0.198,0.28,0.37598,0.35999
		c0.173,0.086,0.36502,0.12701,0.569,0.12701c0.194,0,0.375-0.03601,0.54602-0.10901c0.159-0.06601,0.29199-0.15799,0.40298-0.27701
		c0.112-0.121,0.20502-0.284,0.28101-0.48599c0.05899-0.14499,0.10199-0.34799,0.13-0.60699
		c0.021-0.18301,0.04498-0.49701,0.06799-0.944c0.02499-0.54001,0.043-1.086,0.052-1.64001
		c0.33499,0.005,0.58401,0.009,0.75699,0.009c0.19601,0,0.418-0.004,0.664-0.009c-0.04199,0.47299-0.07999,1.069-0.12299,1.78201
		c-0.043,0.71399-0.07599,1.30399-0.091,1.76898C63.11398,48.44199,63.10098,48.94901,63.08801,49.50198"/>
	<path class="st0" d="M68.30301,48.35098C68.284,48.48801,68.26199,48.642,68.22998,48.815
		c-0.034,0.172-0.07098,0.38599-0.11099,0.63998c-0.47299,0.112-0.94098,0.16702-1.40298,0.16702
		c-0.27002,0-0.52902-0.02502-0.77701-0.07602c-0.25101-0.04898-0.48502-0.13599-0.698-0.26398
		c-0.21399-0.12903-0.40201-0.29703-0.56601-0.509c-0.16299-0.20801-0.285-0.46301-0.366-0.75601
		c-0.08099-0.30099-0.12201-0.60999-0.12201-0.92401c0-0.42099,0.06702-0.82098,0.20001-1.20898
		c0.13599-0.38501,0.33499-0.69699,0.59201-0.94299c0.26099-0.24402,0.548-0.41101,0.866-0.49902
		C66.16299,44.354,66.51898,44.31,66.90399,44.31c0.21701,0,0.439,0.01099,0.67001,0.03699
		c0.23099,0.02402,0.5,0.073,0.81097,0.15002l0.07703,1.09399c-0.496-0.17001-0.92502-0.25601-1.29501-0.25601
		c-0.22501,0-0.44,0.03799-0.63998,0.11801c-0.20102,0.07599-0.375,0.19598-0.51602,0.35999
		c-0.146,0.16299-0.24899,0.35602-0.30899,0.57101c-0.06,0.21698-0.09299,0.43698-0.09299,0.66199
		c0,0.31601,0.04999,0.59302,0.146,0.82101c0.09799,0.233,0.26797,0.41199,0.50598,0.535C66.5,48.53101,66.771,48.595,67.077,48.595
		c0.15201,0,0.33099-0.01901,0.54599-0.05701C67.83701,48.49701,68.064,48.436,68.30301,48.35098"/>
	<path class="st0" d="M69.70602,45.54199c0.043-0.24197,0.07199-0.40799,0.086-0.50497
		c0.00998-0.09702,0.03198-0.24402,0.05899-0.44c0.45499-0.10501,0.85098-0.18201,1.19998-0.22501
		C71.397,44.32901,71.729,44.31,72.05502,44.31c0.366,0,0.70099,0.04102,1.00598,0.125
		c0.30701,0.08701,0.54599,0.22101,0.72,0.40802c0.17099,0.18399,0.25601,0.45499,0.25601,0.80298
		c0,0.18903-0.02301,0.67102-0.073,1.44901c-0.05502,0.78-0.08902,1.57602-0.09702,2.40701
		c-0.254-0.008-0.48999-0.01102-0.69901-0.01102c-0.20599,0-0.44098,0.00302-0.715,0.01102
		c0.04602-0.401,0.08099-0.867,0.10602-1.39502l0.06598-1.245c-0.125,0.08401-0.22198,0.14301-0.28998,0.177
		c-0.069,0.03201-0.14102,0.06302-0.22501,0.09201c-0.08301,0.02499-0.229,0.073-0.44202,0.12799
		c-0.20898,0.05499-0.37598,0.11099-0.49899,0.15201c-0.12799,0.043-0.24399,0.091-0.34399,0.14801
		c-0.10101,0.05399-0.18701,0.11499-0.258,0.185c-0.07202,0.07098-0.121,0.13998-0.151,0.215
		C70.384,48.035,70.367,48.11301,70.367,48.19901c0,0.14099,0.039,0.26102,0.12,0.36401
		c0.08301,0.09799,0.186,0.17297,0.311,0.20898c0.12201,0.04199,0.26599,0.06201,0.43201,0.06201
		c0.10901,0,0.22-0.009,0.33701-0.026c0.11899-0.01602,0.27798-0.05499,0.479-0.125c-0.07001,0.19098-0.15402,0.47101-0.246,0.84698
		c-0.237,0.043-0.42599,0.06702-0.564,0.07602c-0.13901,0.008-0.27103,0.01599-0.388,0.01599
		c-0.42203,0-0.767-0.05899-1.03702-0.168c-0.26599-0.117-0.465-0.293-0.59201-0.54001
		c-0.129-0.24701-0.19299-0.495-0.19299-0.74399c0-0.142,0.02402-0.284,0.07501-0.42401
		c0.04999-0.14099,0.12201-0.267,0.22198-0.38501c0.09402-0.116,0.21802-0.22998,0.37302-0.33698
		c0.151-0.10703,0.37299-0.21201,0.66299-0.31201c0.28799-0.10599,0.67001-0.20401,1.146-0.30899
		c0.129-0.02802,0.26001-0.05499,0.397-0.095c0.133-0.04001,0.245-0.078,0.32501-0.11401
		c0.08099-0.03598,0.15198-0.08398,0.21198-0.13998c0.06201-0.06,0.104-0.12302,0.13202-0.18402
		c0.03-0.064,0.047-0.129,0.047-0.19299c0-0.129-0.047-0.24298-0.13101-0.32898c-0.08398-0.091-0.19498-0.15701-0.32898-0.18903
		c-0.134-0.035-0.28601-0.05399-0.44601-0.05399C71.104,45.10501,70.435,45.25101,69.70602,45.54199"/>
	<path class="st0" d="M79.09003,48.35098c-0.01901,0.13702-0.04501,0.29102-0.078,0.46402
		c-0.03,0.172-0.06601,0.38599-0.10602,0.63998c-0.47299,0.112-0.94,0.16702-1.40399,0.16702
		c-0.26901,0-0.52802-0.02502-0.77701-0.07602c-0.25-0.04898-0.483-0.13599-0.698-0.26398
		c-0.21201-0.12903-0.40201-0.29703-0.56699-0.509C75.298,48.565,75.17401,48.31,75.095,48.017
		c-0.082-0.30099-0.12299-0.60999-0.12299-0.92401c0-0.42099,0.07001-0.82098,0.20099-1.20898
		c0.13501-0.38501,0.33401-0.69699,0.59201-0.94299c0.26199-0.24402,0.54901-0.41101,0.86801-0.49902
		C76.95001,44.354,77.30301,44.31,77.69101,44.31c0.216,0,0.43799,0.01099,0.67099,0.03699
		c0.22601,0.02402,0.49802,0.073,0.81403,0.15002l0.07199,1.09399c-0.49301-0.17001-0.92502-0.25601-1.29599-0.25601
		c-0.22601,0-0.43701,0.03799-0.63702,0.11801c-0.20398,0.07599-0.37399,0.19598-0.51801,0.35999
		c-0.14499,0.16299-0.24799,0.35602-0.30899,0.57101c-0.065,0.21698-0.095,0.43698-0.095,0.66199
		c0,0.31601,0.048,0.59302,0.14999,0.82101c0.09601,0.233,0.263,0.41199,0.505,0.535c0.23801,0.129,0.51102,0.19299,0.814,0.19299
		c0.14801,0,0.33502-0.01901,0.548-0.05701C78.62201,48.49701,78.85101,48.436,79.09003,48.35098"/>
	<path class="st0" d="M80.10699,49.50201c0.04999-0.49802,0.08398-0.91699,0.104-1.25201c0.035-0.53098,0.065-1.14398,0.091-1.84198
		c0.026-0.69501,0.043-1.35602,0.052-1.978c0.323,0.00497,0.56699,0.009,0.728,0.009c0.14999,0,0.39398-0.00403,0.72699-0.009
		c-0.04401,0.57397-0.082,1.12997-0.11099,1.655C81.673,46.60901,81.651,47.211,81.63898,47.892
		c-0.01398,0.67902-0.01999,1.21402-0.01999,1.61002C81.31699,49.49503,81.073,49.492,80.892,49.492
		C80.71899,49.492,80.45599,49.49503,80.10699,49.50201 M80.38,43.56c0.01398-0.34399,0.01999-0.60699,0.01999-0.78799v-0.15799
		c0.30399,0.00601,0.55099,0.009,0.73801,0.009c0.26199,0,0.50098-0.00299,0.72098-0.009
		c-0.00598,0.082-0.01599,0.17499-0.01797,0.285L81.81699,43.56c-0.255-0.00497-0.48599-0.00897-0.698-0.00897
		C80.905,43.55103,80.65799,43.55502,80.38,43.56"/>
	<path class="st0" d="M85.56097,44.30899c0.38,0,0.74902,0.05402,1.09601,0.17001c0.35199,0.116,0.64999,0.28601,0.896,0.51001
		c0.245,0.22598,0.42801,0.5,0.55002,0.823c0.125,0.32498,0.18597,0.66699,0.18597,1.02698c0,0.37601-0.06497,0.746-0.19397,1.095
		c-0.13101,0.35703-0.319,0.66101-0.56302,0.91901c-0.24799,0.254-0.55399,0.44901-0.923,0.578
		c-0.36798,0.12701-0.75699,0.19101-1.17499,0.19101c-0.38699,0-0.75201-0.05902-1.10101-0.17102
		c-0.345-0.11798-0.642-0.28897-0.88898-0.51599c-0.24503-0.23099-0.43503-0.509-0.56302-0.83798
		c-0.12799-0.332-0.18799-0.67401-0.18799-1.035c0-0.36502,0.05701-0.71402,0.173-1.04901c0.116-0.332,0.297-0.62799,0.543-0.883
		c0.24899-0.26199,0.56799-0.46399,0.953-0.60699C84.74799,44.37799,85.14999,44.30899,85.56097,44.30899 M85.56097,45.33499
		c-0.29199,0-0.54599,0.07501-0.776,0.21301c-0.22699,0.14499-0.39697,0.353-0.50497,0.63101
		c-0.112,0.27798-0.16501,0.58499-0.16501,0.914c0,0.28598,0.043,0.547,0.133,0.77197c0.095,0.22702,0.24301,0.40903,0.44901,0.548
		c0.207,0.142,0.453,0.21301,0.737,0.21301c0.293,0,0.54898-0.073,0.76999-0.21701c0.22101-0.14398,0.38501-0.35999,0.495-0.64099
		c0.11401-0.28,0.16901-0.59,0.16901-0.92902c0-0.27899-0.04599-0.53-0.13098-0.754c-0.086-0.22699-0.23102-0.40799-0.43402-0.543
		C86.09698,45.405,85.85199,45.33499,85.56097,45.33499 M84.97,43.74399l0.18399-0.45798
		c0.039-0.10101,0.082-0.21701,0.13901-0.36002c0.05099-0.13998,0.10199-0.26999,0.15298-0.392
		c0.26599,0.004,0.51501,0.009,0.741,0.009c0.18802,0,0.43802-0.005,0.74899-0.009c-0.22198,0.27301-0.38898,0.48801-0.49899,0.646
		l-0.41299,0.564c-0.177-0.00598-0.358-0.008-0.54001-0.008C85.32397,43.73599,85.14999,43.73801,84.97,43.74399"/>
	<path class="st0" d="M89.10901,49.50198c0.07498-0.75699,0.13599-1.60397,0.189-2.543
		c0.05099-0.94098,0.07898-1.78598,0.08698-2.52899c0.30402,0.005,0.552,0.009,0.73203,0.009c0.21899,0,0.44699-0.004,0.69-0.009
		L90.754,45.27399C90.85498,45.13,90.948,45.013,91.02701,44.927c0.073-0.08401,0.17599-0.17001,0.29797-0.254
		c0.12003-0.082,0.25101-0.14999,0.388-0.19901c0.138-0.04999,0.293-0.09201,0.46402-0.12c0.172-0.03,0.353-0.04401,0.535-0.04401
		c0.29599,0,0.57999,0.03699,0.853,0.11002c0.271,0.07498,0.48898,0.194,0.65698,0.35797
		c0.168,0.16202,0.27402,0.34003,0.328,0.53601c0.05301,0.18799,0.082,0.396,0.082,0.61099c0,0.08801-0.004,0.233-0.017,0.42902
		l-0.104,2.181c-0.01199,0.30301-0.021,0.62601-0.022,0.96698C94.22501,49.49399,94.004,49.491,93.815,49.491
		c-0.25302,0-0.508,0.00299-0.767,0.01099c0.02499-0.28699,0.06-0.793,0.09998-1.51297c0.043-0.71902,0.061-1.19901,0.061-1.43002
		c0-0.26398-0.04099-0.474-0.12299-0.634c-0.08301-0.16-0.21402-0.27899-0.38699-0.36298
		c-0.177-0.08102-0.36301-0.12802-0.56702-0.12802c-0.19998,0-0.38699,0.04202-0.56,0.116
		c-0.168,0.07602-0.32199,0.18903-0.44501,0.33401c-0.13699,0.151-0.23798,0.336-0.311,0.55499
		c-0.07599,0.233-0.13397,0.61801-0.16998,1.15302c-0.034,0.474-0.05801,1.112-0.078,1.90997
		C90.311,49.49399,90.078,49.491,89.87,49.491S89.40698,49.49399,89.10901,49.50198"/>
	<path class="st0" d="M103.396,49.50198c-0.27502-0.008-0.48901-0.01099-0.64102-0.01099c-0.16699,0-0.39798,0.00299-0.69,0.01099
		l0.043-0.867c-0.146,0.186-0.271,0.33502-0.37799,0.439c-0.10199,0.10101-0.23099,0.19702-0.38699,0.285
		c-0.15399,0.08902-0.32401,0.155-0.5,0.19901c-0.18301,0.04102-0.367,0.064-0.561,0.064c-0.32001,0-0.61798-0.05798-0.897-0.17398
		c-0.28101-0.11801-0.517-0.28101-0.71201-0.492c-0.19699-0.21301-0.34198-0.46301-0.439-0.755
		c-0.091-0.289-0.13498-0.59-0.13498-0.909c0-0.43301,0.082-0.85901,0.24698-1.27402c0.16702-0.41199,0.39401-0.75,0.68301-1.00497
		c0.29099-0.25601,0.61798-0.43802,0.98499-0.54501c0.36401-0.10599,0.755-0.15799,1.17502-0.15799
		c0.302,0,0.64499,0.02798,1.02798,0.086c0.02301-0.436,0.03601-0.89001,0.03601-1.36401V42.694
		c0.31,0.00299,0.55301,0.00497,0.71899,0.00497c0.215,0,0.45901-0.00198,0.729-0.00497
		c-0.07401,0.84198-0.14099,1.99399-0.20801,3.448C103.42798,47.595,103.396,48.71799,103.396,49.50198 M102.164,45.34097
		c-0.25-0.06598-0.48703-0.10199-0.72-0.10199c-0.26202,0-0.51001,0.04001-0.75302,0.11099
		c-0.23599,0.07602-0.44901,0.198-0.63199,0.37601c-0.18802,0.177-0.33002,0.39999-0.42999,0.677
		c-0.10001,0.27701-0.15002,0.543-0.15002,0.80099c0,0.25601,0.04501,0.48801,0.13702,0.703
		c0.095,0.20901,0.23499,0.379,0.42499,0.504c0.19299,0.12399,0.414,0.18402,0.65701,0.18402c0.18298,0,0.349-0.03201,0.496-0.10101
		c0.151-0.06201,0.28699-0.16101,0.409-0.29501c0.12399-0.13397,0.229-0.31,0.314-0.52298c0.086-0.21201,0.14398-0.495,0.181-0.849
		C102.12399,46.56998,102.14398,46.07199,102.164,45.34097"/>
	<path class="st0" d="M109.15802,48.36697c-0.04501,0.20102-0.103,0.55103-0.18301,1.061
		c-0.358,0.07401-0.66299,0.129-0.909,0.15402c-0.245,0.02798-0.49301,0.04099-0.74301,0.04099
		c-0.43597,0-0.82797-0.043-1.16998-0.13101c-0.34299-0.08398-0.646-0.245-0.905-0.47498
		c-0.259-0.23001-0.452-0.51401-0.57501-0.85202c-0.12399-0.33398-0.18399-0.686-0.18399-1.05499
		c0-0.41,0.073-0.80399,0.21301-1.189c0.14499-0.384,0.345-0.698,0.60098-0.94101c0.259-0.242,0.552-0.41599,0.87799-0.51898
		c0.33401-0.10202,0.67902-0.151,1.03702-0.151c0.33899,0,0.66,0.04099,0.96399,0.125c0.31,0.086,0.564,0.22598,0.77402,0.41498
		c0.20898,0.194,0.366,0.42502,0.478,0.698c0.11398,0.27002,0.16998,0.57202,0.16998,0.90302c0,0.155-0.01999,0.315-0.04999,0.48001
		l-3.659,0.00699c-0.00702,0.125-0.00702,0.22202-0.00702,0.29401c0,0.22299,0.035,0.42999,0.11002,0.61499
		c0.078,0.189,0.19,0.34302,0.33499,0.47501c0.147,0.129,0.32101,0.22198,0.52701,0.28601
		c0.20001,0.06097,0.39899,0.09198,0.595,0.09198c0.233,0,0.48001-0.02899,0.74799-0.07401
		C108.47101,48.57599,108.789,48.491,109.15802,48.36697 M105.93503,46.35397l2.336,0.00403
		c0-0.15802-0.00601-0.27502-0.01602-0.35101c-0.00998-0.077-0.03198-0.16501-0.06799-0.26099
		c-0.035-0.09702-0.082-0.18402-0.14099-0.25702c-0.05902-0.077-0.129-0.13901-0.20801-0.19
		c-0.08301-0.048-0.17599-0.08398-0.28-0.11099c-0.103-0.02798-0.215-0.04001-0.33499-0.04001c-0.142,0-0.276,0.02002-0.405,0.064
		c-0.134,0.04202-0.25201,0.10501-0.36502,0.18802c-0.11099,0.08099-0.198,0.17899-0.26498,0.27701
		c-0.07001,0.103-0.11902,0.20099-0.15302,0.297C106.00101,46.069,105.96802,46.19598,105.93503,46.35397"/>
	<path class="st0" d="M116.88602,48.35098C116.86899,48.48801,116.845,48.642,116.81,48.815
		c-0.03101,0.172-0.06799,0.38599-0.104,0.63998c-0.474,0.112-0.944,0.16702-1.40601,0.16702
		c-0.26898,0-0.53098-0.02502-0.77798-0.07602c-0.24802-0.04898-0.479-0.13599-0.69901-0.26398
		c-0.20999-0.12903-0.39999-0.29703-0.565-0.509c-0.164-0.20801-0.284-0.46301-0.36499-0.75601
		c-0.08499-0.30099-0.125-0.60999-0.125-0.92401c0-0.42099,0.06799-0.82098,0.20401-1.20898
		c0.13898-0.38501,0.32898-0.69699,0.59097-0.94299c0.26001-0.24402,0.55103-0.41101,0.86401-0.49902
		c0.31799-0.08798,0.673-0.13199,1.06299-0.13199c0.21402,0,0.43701,0.01099,0.66702,0.03699
		c0.23099,0.02402,0.504,0.073,0.81097,0.15002l0.07703,1.09399c-0.49503-0.17001-0.92603-0.25601-1.29501-0.25601
		c-0.224,0-0.43799,0.03799-0.63699,0.11801c-0.203,0.07599-0.37701,0.19598-0.521,0.35999
		c-0.14301,0.16299-0.24701,0.35602-0.30701,0.57101c-0.06,0.21698-0.09,0.43698-0.09,0.66199
		c0,0.31601,0.047,0.59302,0.142,0.82101c0.10001,0.233,0.26898,0.41199,0.50699,0.535
		c0.24002,0.129,0.51102,0.19299,0.81601,0.19299c0.14999,0,0.32999-0.01901,0.548-0.05701
		C116.42001,48.49701,116.64899,48.436,116.88602,48.35098"/>
	<path class="st0" d="M118.28802,45.54199c0.047-0.24197,0.07599-0.40799,0.08899-0.50497
		c0.01199-0.09702,0.03-0.24402,0.05899-0.44c0.45599-0.10501,0.854-0.18201,1.20001-0.22501
		c0.34598-0.043,0.67499-0.06201,1.00198-0.06201c0.366,0,0.69901,0.04102,1.00601,0.125
		c0.30798,0.08701,0.54401,0.22101,0.71799,0.40802c0.172,0.18399,0.26202,0.45499,0.26202,0.80298
		c0,0.18903-0.026,0.67102-0.07703,1.44901c-0.05499,0.78-0.08798,1.57602-0.09799,2.40701
		c-0.25-0.008-0.48599-0.01102-0.698-0.01102c-0.20401,0-0.44101,0.00302-0.71298,0.01102
		c0.04199-0.401,0.07999-0.867,0.10498-1.39502l0.06302-1.245c-0.12302,0.08401-0.21902,0.14301-0.28802,0.177
		c-0.065,0.03201-0.14099,0.06302-0.22498,0.09201c-0.08401,0.02499-0.229,0.073-0.43903,0.12799
		c-0.20898,0.05499-0.37698,0.11099-0.50299,0.15201c-0.129,0.043-0.241,0.091-0.34399,0.14801
		c-0.09799,0.05399-0.18399,0.11499-0.258,0.185c-0.06799,0.07098-0.11902,0.13998-0.151,0.215
		c-0.03,0.07599-0.04501,0.15399-0.04501,0.23999c0,0.14099,0.03799,0.26102,0.12,0.36401
		c0.082,0.09799,0.185,0.17297,0.30801,0.20898c0.12299,0.04199,0.26801,0.06201,0.435,0.06201c0.104,0,0.21799-0.009,0.33499-0.026
		c0.117-0.01602,0.27701-0.05499,0.47702-0.125c-0.069,0.19098-0.15201,0.47101-0.24301,0.84698
		c-0.23901,0.043-0.427,0.06702-0.56699,0.07602c-0.13901,0.008-0.26602,0.01599-0.38702,0.01599
		c-0.41998,0-0.76398-0.05899-1.035-0.168c-0.26797-0.117-0.46698-0.293-0.595-0.54001
		c-0.12598-0.24701-0.19498-0.495-0.19498-0.74399c0-0.142,0.02899-0.284,0.078-0.42401
		c0.04898-0.14099,0.12198-0.267,0.22098-0.38501c0.09601-0.116,0.22101-0.22998,0.37003-0.33698
		c0.15698-0.10703,0.37698-0.21201,0.66699-0.31201c0.28799-0.10599,0.67398-0.20401,1.14999-0.30899
		c0.12701-0.02802,0.259-0.05499,0.39301-0.095c0.13699-0.04001,0.24399-0.078,0.32599-0.11401
		c0.08301-0.03598,0.15201-0.08398,0.21301-0.13998c0.06198-0.06,0.10498-0.12302,0.133-0.18402
		c0.02701-0.064,0.04199-0.129,0.04199-0.19299c0-0.129-0.04199-0.24298-0.12799-0.32898
		c-0.08401-0.091-0.194-0.15701-0.33002-0.18903c-0.134-0.035-0.284-0.05399-0.44598-0.05399
		C119.68701,45.10501,119.01801,45.25101,118.28802,45.54199"/>
	<path class="st0" d="M123.70203,49.50198c0.04999-0.56299,0.10898-1.56897,0.17899-3.03198
		c0.07199-1.457,0.11801-2.71899,0.133-3.77701c0.34702,0.004,0.59201,0.00601,0.73901,0.00601c0.198,0,0.435-0.00201,0.72-0.00601
		l-0.121,1.82101l-0.17102,4.061l-0.021,0.92697c-0.271-0.008-0.50598-0.01099-0.69501-0.01099
		C124.40402,49.491,124.14902,49.49399,123.70203,49.50198"/>
	<path class="st0" d="M126.40399,49.50201c0.048-0.49802,0.08701-0.91699,0.10901-1.25201
		c0.03201-0.53098,0.06201-1.14398,0.086-1.84198c0.026-0.69501,0.043-1.35602,0.05499-1.978c0.323,0.00497,0.569,0.009,0.729,0.009
		c0.14902,0,0.39001-0.00403,0.72202-0.009c-0.043,0.57397-0.07901,1.12997-0.108,1.655
		c-0.02499,0.52399-0.04602,1.12598-0.05902,1.80698c-0.013,0.67902-0.01898,1.21402-0.01898,1.61002
		c-0.306-0.00699-0.547-0.01001-0.73001-0.01001C127.017,49.492,126.75201,49.49503,126.40399,49.50201 M126.67902,43.56
		c0.01398-0.34399,0.02197-0.60699,0.02197-0.78799v-0.15799c0.30002,0.00601,0.54602,0.009,0.73602,0.009
		c0.258,0,0.50098-0.00299,0.72198-0.009c-0.00598,0.082-0.01498,0.17499-0.01999,0.285L128.117,43.56
		c-0.25299-0.00497-0.487-0.00897-0.70099-0.00897C127.20599,43.55103,126.957,43.55502,126.67902,43.56"/>
	<path class="st0" d="M134.28699,49.50198c-0.276-0.008-0.48999-0.01099-0.64301-0.01099c-0.16599,0-0.397,0.00299-0.68698,0.01099
		l0.043-0.867c-0.14502,0.186-0.27002,0.33502-0.375,0.439c-0.10602,0.10101-0.23602,0.19702-0.39102,0.285
		c-0.15399,0.08902-0.32098,0.155-0.50098,0.19901c-0.17902,0.04102-0.36502,0.064-0.55701,0.064
		c-0.32101,0-0.61899-0.05798-0.89801-0.17398c-0.28-0.11801-0.51898-0.28101-0.71298-0.492
		c-0.198-0.21301-0.34302-0.46301-0.43301-0.755c-0.09601-0.289-0.142-0.59-0.142-0.909c0-0.43301,0.08401-0.85901,0.25-1.27402
		c0.16602-0.41199,0.392-0.75,0.685-1.00497c0.28702-0.25601,0.61301-0.43802,0.979-0.54501
		C131.267,44.362,131.66098,44.31,132.07999,44.31c0.302,0,0.64401,0.02798,1.02701,0.086c0.026-0.436,0.035-0.89001,0.035-1.36401
		V42.694c0.314,0.00299,0.55499,0.00497,0.72101,0.00497c0.21597,0,0.45999-0.00198,0.73099-0.00497
		c-0.07599,0.84198-0.14401,1.99399-0.20801,3.448C134.32098,47.595,134.28699,48.71799,134.28699,49.50198 M133.05701,45.34097
		c-0.24902-0.06598-0.492-0.10199-0.72-0.10199c-0.26001,0-0.51401,0.04001-0.75201,0.11099
		c-0.23999,0.07602-0.452,0.198-0.63699,0.37601c-0.18201,0.177-0.328,0.39999-0.427,0.677
		c-0.09799,0.27701-0.151,0.543-0.151,0.80099c0,0.25601,0.047,0.48801,0.138,0.703c0.09299,0.20901,0.23599,0.379,0.42599,0.504
		c0.19501,0.12399,0.41101,0.18402,0.655,0.18402c0.18301,0,0.34799-0.03201,0.50101-0.10101
		c0.14801-0.06201,0.285-0.16101,0.40601-0.29501c0.12399-0.13397,0.228-0.31,0.31299-0.52298
		c0.08301-0.21201,0.14401-0.495,0.18201-0.849C133.01398,46.56998,133.035,46.07199,133.05701,45.34097"/>
	<path class="st0" d="M135.90601,45.54199c0.04398-0.24197,0.07498-0.40799,0.08698-0.50497
		c0.01102-0.09702,0.03101-0.24402,0.06-0.44c0.453-0.10501,0.85303-0.18201,1.19901-0.22501
		c0.345-0.043,0.67902-0.06201,1.004-0.06201c0.36502,0,0.703,0.04102,1.008,0.125c0.30502,0.08701,0.54501,0.22101,0.716,0.40802
		c0.172,0.18399,0.26202,0.45499,0.26202,0.80298c0,0.18903-0.02701,0.67102-0.08102,1.44901
		c-0.052,0.78-0.08499,1.57602-0.095,2.40701c-0.24899-0.008-0.48599-0.01102-0.69699-0.01102
		c-0.20401,0-0.44199,0.00302-0.716,0.01102c0.04401-0.401,0.082-0.867,0.10699-1.39502l0.065-1.245
		c-0.12698,0.08401-0.224,0.14301-0.28998,0.177c-0.065,0.03201-0.14102,0.06302-0.224,0.09201
		c-0.082,0.02499-0.22501,0.073-0.43701,0.12799c-0.211,0.05499-0.38,0.11099-0.50699,0.15201
		c-0.12601,0.043-0.24103,0.091-0.341,0.14801c-0.103,0.05399-0.18802,0.11499-0.25702,0.185
		c-0.069,0.07098-0.125,0.13998-0.15198,0.215c-0.03101,0.07599-0.04703,0.15399-0.04703,0.23999
		c0,0.14099,0.039,0.26102,0.121,0.36401c0.07901,0.09799,0.18402,0.17297,0.30701,0.20898
		c0.12302,0.04199,0.267,0.06201,0.43201,0.06201c0.10901,0,0.22198-0.009,0.33899-0.026
		c0.117-0.01602,0.27902-0.05499,0.47702-0.125c-0.069,0.19098-0.15302,0.47101-0.24503,0.84698
		c-0.23898,0.043-0.42499,0.06702-0.56598,0.07602c-0.138,0.008-0.26801,0.01599-0.388,0.01599
		c-0.41901,0-0.76401-0.05899-1.03101-0.168c-0.271-0.117-0.465-0.293-0.599-0.54001
		c-0.12701-0.24701-0.19101-0.495-0.19101-0.74399c0-0.142,0.026-0.284,0.07602-0.42401
		c0.04898-0.14099,0.12198-0.267,0.21899-0.38501c0.09601-0.116,0.22101-0.22998,0.37299-0.33698
		c0.15701-0.10703,0.37701-0.21201,0.66501-0.31201c0.29099-0.10599,0.67401-0.20401,1.14801-0.30899
		c0.12799-0.02802,0.259-0.05499,0.396-0.095c0.13498-0.04001,0.24399-0.078,0.32498-0.11401
		c0.08301-0.03598,0.15402-0.08398,0.21503-0.13998c0.05698-0.06,0.10397-0.12302,0.13098-0.18402
		c0.02802-0.064,0.04199-0.129,0.04199-0.19299c0-0.129-0.04199-0.24298-0.12799-0.32898
		c-0.08701-0.091-0.194-0.15701-0.32901-0.18903c-0.13498-0.035-0.28497-0.05399-0.444-0.05399
		C137.30798,45.10501,136.63699,45.25101,135.90601,45.54199"/>
	<path class="st0" d="M146.474,49.50198c-0.27698-0.008-0.49197-0.01099-0.646-0.01099c-0.16498,0-0.397,0.00299-0.689,0.01099
		l0.043-0.867c-0.14499,0.186-0.272,0.33502-0.37698,0.439c-0.104,0.10101-0.23203,0.19702-0.38702,0.285
		c-0.155,0.08902-0.32098,0.155-0.5,0.19901c-0.181,0.04102-0.36798,0.064-0.56,0.064c-0.31799,0-0.61697-0.05798-0.89899-0.17398
		c-0.27899-0.11801-0.51599-0.28101-0.711-0.492c-0.19699-0.21301-0.34302-0.46301-0.436-0.755
		c-0.09201-0.289-0.13901-0.59-0.13901-0.909c0-0.43301,0.086-0.85901,0.25101-1.27402
		c0.16501-0.41199,0.39301-0.75,0.67902-1.00497c0.29199-0.25601,0.61798-0.43802,0.98499-0.54501
		C143.453,44.362,143.84702,44.31,144.263,44.31c0.30502,0,0.647,0.02798,1.02701,0.086c0.02402-0.436,0.039-0.89001,0.039-1.36401
		V42.694c0.31299,0.00299,0.552,0.00497,0.71802,0.00497c0.215,0,0.45999-0.00198,0.72598-0.00497
		c-0.07098,0.84198-0.13901,1.99399-0.20401,3.448C146.50702,47.595,146.474,48.71799,146.474,49.50198 M145.24103,45.34097
		c-0.25201-0.06598-0.49103-0.10199-0.72101-0.10199c-0.26001,0-0.51199,0.04001-0.75,0.11099
		c-0.241,0.07602-0.453,0.198-0.63699,0.37601c-0.18701,0.177-0.32901,0.39999-0.42801,0.677
		c-0.10001,0.27701-0.14902,0.543-0.14902,0.80099c0,0.25601,0.04703,0.48801,0.13702,0.703
		c0.09198,0.20901,0.23499,0.379,0.42398,0.504c0.19501,0.12399,0.41202,0.18402,0.655,0.18402
		c0.18402,0,0.34802-0.03201,0.49802-0.10101c0.15201-0.06201,0.28598-0.16101,0.41-0.29501
		c0.125-0.13397,0.22699-0.31,0.31198-0.52298c0.08502-0.21201,0.146-0.495,0.18402-0.849
		C145.19901,46.56998,145.21902,46.07199,145.24103,45.34097"/>
	<path class="st0" d="M150.64203,45.54199c0.047-0.24197,0.07498-0.40799,0.08798-0.50497
		c0.01102-0.09702,0.03201-0.24402,0.06201-0.44c0.452-0.10501,0.85199-0.18201,1.19901-0.22501
		c0.34598-0.043,0.67697-0.06201,1-0.06201c0.36697,0,0.70099,0.04102,1.00998,0.125
		c0.30701,0.08701,0.54401,0.22101,0.71899,0.40802c0.16901,0.18399,0.25601,0.45499,0.25601,0.80298
		c0,0.18903-0.02399,0.67102-0.07599,1.44901c-0.05502,0.78-0.08401,1.57602-0.09302,2.40701
		c-0.255-0.008-0.491-0.01102-0.70099-0.01102c-0.20401,0-0.44101,0.00302-0.715,0.01102
		c0.04599-0.401,0.08099-0.867,0.10699-1.39502l0.06699-1.245c-0.12598,0.08401-0.22498,0.14301-0.29099,0.177
		c-0.06702,0.03201-0.14401,0.06302-0.22601,0.09201c-0.08398,0.02499-0.23099,0.073-0.43799,0.12799
		c-0.20999,0.05499-0.38,0.11099-0.50699,0.15201c-0.12601,0.043-0.23901,0.091-0.341,0.14801
		c-0.099,0.05399-0.18402,0.11499-0.25302,0.185c-0.07498,0.07098-0.125,0.13998-0.15399,0.215
		c-0.03299,0.07599-0.04999,0.15399-0.04999,0.23999c0,0.14099,0.04199,0.26102,0.12198,0.36401
		c0.08401,0.09799,0.186,0.17297,0.30502,0.20898c0.12698,0.04199,0.272,0.06201,0.43799,0.06201
		c0.10699,0,0.21701-0.009,0.33701-0.026c0.116-0.01602,0.27499-0.05499,0.47598-0.125
		c-0.06998,0.19098-0.15198,0.47101-0.24399,0.84698c-0.237,0.043-0.42401,0.06702-0.565,0.07602
		c-0.13901,0.008-0.26901,0.01599-0.38599,0.01599c-0.423,0-0.76602-0.05899-1.035-0.168c-0.271-0.117-0.466-0.293-0.59601-0.54001
		c-0.12701-0.24701-0.19299-0.495-0.19299-0.74399c0-0.142,0.02399-0.284,0.07401-0.42401
		c0.04898-0.14099,0.12299-0.267,0.22098-0.38501c0.09601-0.116,0.22101-0.22998,0.37302-0.33698
		c0.15399-0.10703,0.375-0.21201,0.66501-0.31201c0.28897-0.10599,0.67099-0.20401,1.14999-0.30899
		c0.12299-0.02802,0.25598-0.05499,0.38998-0.095c0.13901-0.04001,0.24701-0.078,0.32901-0.11401
		c0.07999-0.03598,0.151-0.08398,0.211-0.13998c0.06299-0.06,0.104-0.12302,0.133-0.18402
		c0.02802-0.064,0.04401-0.129,0.04401-0.19299c0-0.129-0.04401-0.24298-0.129-0.32898
		c-0.08401-0.091-0.194-0.15701-0.32901-0.18903c-0.133-0.035-0.284-0.05399-0.44598-0.05399
		C152.04501,45.10501,151.37601,45.25101,150.64203,45.54199"/>
	<path class="st0" d="M156.05701,49.50198c0.04999-0.56299,0.10699-1.56897,0.17899-3.03198
		c0.07401-1.457,0.116-2.71899,0.134-3.77701c0.34698,0.004,0.59,0.00601,0.737,0.00601c0.19501,0,0.43701-0.00201,0.72101-0.00601
		l-0.121,1.82101l-0.17401,4.061l-0.01999,0.92697c-0.27301-0.008-0.50302-0.01099-0.694-0.01099
		C156.75699,49.491,156.50198,49.49399,156.05701,49.50198"/>
	<path class="st0" d="M161.70001,45.54199c0.04498-0.24197,0.07498-0.40799,0.08698-0.50497
		c0.01001-0.09702,0.03101-0.24402,0.06-0.44c0.45401-0.10501,0.85202-0.18201,1.20001-0.22501
		c0.34399-0.043,0.67899-0.06201,1.00201-0.06201c0.36697,0,0.702,0.04102,1.00897,0.125
		c0.30402,0.08701,0.543,0.22101,0.71802,0.40802c0.17099,0.18399,0.259,0.45499,0.259,0.80298
		c0,0.18903-0.02802,0.67102-0.082,1.44901c-0.05099,0.78-0.08301,1.57602-0.09201,2.40701
		c-0.254-0.008-0.48599-0.01102-0.69901-0.01102c-0.20499,0-0.44098,0.00302-0.71298,0.01102
		c0.043-0.401,0.07898-0.867,0.10498-1.39502l0.06601-1.245c-0.12799,0.08401-0.224,0.14301-0.29099,0.177
		c-0.06601,0.03201-0.14102,0.06302-0.22501,0.09201c-0.08502,0.02499-0.22702,0.073-0.43701,0.12799s-0.38,0.11099-0.50598,0.15201
		c-0.125,0.043-0.242,0.091-0.34201,0.14801c-0.10199,0.05399-0.18701,0.11499-0.259,0.185
		c-0.06699,0.07098-0.117,0.13998-0.15201,0.215c-0.03101,0.07599-0.04401,0.15399-0.04401,0.23999
		c0,0.14099,0.039,0.26102,0.12201,0.36401c0.07901,0.09799,0.18201,0.17297,0.30701,0.20898
		c0.12299,0.04199,0.26599,0.06201,0.431,0.06201c0.10901,0,0.22-0.009,0.33899-0.026c0.117-0.01602,0.27802-0.05499,0.47501-0.125
		c-0.06699,0.19098-0.14999,0.47101-0.24301,0.84698c-0.23898,0.043-0.42499,0.06702-0.56699,0.07602
		c-0.13699,0.008-0.267,0.01599-0.38599,0.01599c-0.423,0-0.76401-0.05899-1.03101-0.168c-0.27002-0.117-0.47-0.293-0.60001-0.54001
		c-0.12799-0.24701-0.19-0.495-0.19-0.74399c0-0.142,0.026-0.284,0.07501-0.42401c0.04898-0.14099,0.12399-0.267,0.21799-0.38501
		c0.09702-0.116,0.22299-0.22998,0.375-0.33698c0.15201-0.10703,0.37399-0.21201,0.664-0.31201
		c0.28799-0.10599,0.673-0.20401,1.14899-0.30899c0.12701-0.02802,0.25702-0.05499,0.39401-0.095
		c0.13599-0.04001,0.245-0.078,0.327-0.11401c0.07901-0.03598,0.15302-0.08398,0.20999-0.13998
		c0.061-0.06,0.104-0.12302,0.13501-0.18402c0.02802-0.064,0.04199-0.129,0.04199-0.19299c0-0.129-0.04199-0.24298-0.12698-0.32898
		c-0.08701-0.091-0.19501-0.15701-0.32901-0.18903c-0.13901-0.035-0.28598-0.05399-0.45099-0.05399
		C163.099,45.10501,162.431,45.25101,161.70001,45.54199"/>
	<path class="st0" d="M167.11401,49.50198c0.04797-0.56299,0.10898-1.56897,0.17999-3.03198
		c0.069-1.457,0.112-2.71899,0.13098-3.77701c0.34302,0.004,0.591,0.00601,0.74002,0.00601c0.194,0,0.43399-0.00201,0.71698-0.00601
		l-0.117,1.82101l-0.17297,4.061l-0.02103,0.92697c-0.271-0.008-0.50497-0.01099-0.694-0.01099
		C167.81201,49.491,167.55798,49.49399,167.11401,49.50198"/>
	<path class="st0" d="M173.79102,48.35098c-0.01703,0.13702-0.04001,0.29102-0.07401,0.46402
		c-0.034,0.172-0.07001,0.38599-0.10602,0.63998c-0.474,0.112-0.94299,0.16702-1.40698,0.16702
		c-0.26602,0-0.52701-0.02502-0.77701-0.07602c-0.25-0.04898-0.48099-0.13599-0.69601-0.26398
		c-0.21198-0.12903-0.40399-0.29703-0.56799-0.509c-0.16199-0.20801-0.28101-0.46301-0.367-0.75601
		c-0.08099-0.30099-0.12198-0.60999-0.12198-0.92401c0-0.42099,0.07098-0.82098,0.20398-1.20898
		c0.13602-0.38501,0.33102-0.69699,0.59-0.94299c0.25803-0.24402,0.54901-0.41101,0.86603-0.49902
		c0.31699-0.08798,0.67297-0.13199,1.06-0.13199c0.21399,0,0.44098,0.01099,0.67099,0.03699
		c0.228,0.02402,0.49799,0.073,0.811,0.15002l0.07401,1.09399c-0.49402-0.17001-0.92502-0.25601-1.293-0.25601
		c-0.22501,0-0.43802,0.03799-0.64102,0.11801c-0.202,0.07599-0.37299,0.19598-0.51898,0.35999
		c-0.14401,0.16299-0.245,0.35602-0.30801,0.57101c-0.061,0.21698-0.08899,0.43698-0.08899,0.66199
		c0,0.31601,0.04599,0.59302,0.14499,0.82101c0.09799,0.233,0.26501,0.41199,0.50299,0.535
		c0.24103,0.129,0.51202,0.19299,0.81702,0.19299c0.14899,0,0.332-0.01901,0.54401-0.05701
		C173.32501,48.49701,173.55399,48.436,173.79102,48.35098"/>
	<path class="st0" d="M175.19302,45.54199c0.04599-0.24197,0.077-0.40799,0.08798-0.50497c0.013-0.09702,0.035-0.24402,0.061-0.44
		c0.45499-0.10501,0.85199-0.18201,1.198-0.22501c0.345-0.043,0.67999-0.06201,1.005-0.06201c0.36499,0,0.703,0.04102,1.005,0.125
		c0.30899,0.08701,0.547,0.22101,0.71899,0.40802C179.444,45.02701,179.53,45.298,179.53,45.646
		c0,0.18903-0.02899,0.67102-0.07898,1.44901c-0.05502,0.78-0.08502,1.57602-0.09302,2.40701
		c-0.254-0.008-0.487-0.01102-0.70099-0.01102c-0.20502,0-0.44202,0.00302-0.716,0.01102
		c0.04599-0.401,0.08099-0.867,0.10901-1.39502l0.065-1.245c-0.125,0.08401-0.22302,0.14301-0.29102,0.177
		c-0.06699,0.03201-0.14099,0.06302-0.22198,0.09201c-0.08401,0.02499-0.23001,0.073-0.44202,0.12799
		c-0.20898,0.05499-0.37698,0.11099-0.50198,0.15201c-0.125,0.043-0.24002,0.091-0.34601,0.14801
		c-0.10001,0.05399-0.18201,0.11499-0.254,0.185c-0.07199,0.07098-0.12302,0.13998-0.15201,0.215
		c-0.03198,0.07599-0.047,0.15399-0.047,0.23999c0,0.14099,0.04099,0.26102,0.12,0.36401
		c0.082,0.09799,0.18399,0.17297,0.30701,0.20898c0.12399,0.04199,0.267,0.06201,0.43399,0.06201c0.108,0,0.21899-0.009,0.336-0.026
		c0.11902-0.01602,0.27802-0.05499,0.479-0.125c-0.07199,0.19098-0.15399,0.47101-0.246,0.84698
		c-0.23599,0.043-0.423,0.06702-0.56299,0.07602c-0.13901,0.008-0.26901,0.01599-0.38699,0.01599
		c-0.423,0-0.767-0.05899-1.034-0.168c-0.26901-0.117-0.47-0.293-0.59601-0.54001c-0.129-0.24701-0.19601-0.495-0.19601-0.74399
		c0-0.142,0.02701-0.284,0.07602-0.42401c0.04797-0.14099,0.125-0.267,0.22098-0.38501
		c0.09601-0.116,0.22202-0.22998,0.37701-0.33698c0.15201-0.10703,0.371-0.21201,0.66-0.31201
		c0.28998-0.10599,0.67398-0.20401,1.14899-0.30899c0.12802-0.02802,0.26001-0.05499,0.396-0.095
		c0.13602-0.04001,0.246-0.078,0.32501-0.11401c0.08398-0.03598,0.15399-0.08398,0.21301-0.13998
		c0.06-0.06,0.10397-0.12302,0.13397-0.18402c0.02502-0.064,0.04102-0.129,0.04102-0.19299c0-0.129-0.04102-0.24298-0.129-0.32898
		c-0.08401-0.091-0.19202-0.15701-0.33002-0.18903c-0.13498-0.035-0.28098-0.05399-0.44498-0.05399
		C176.59601,45.10501,175.92401,45.25101,175.19302,45.54199"/>
	<path class="st0" d="M180.56802,49.50198c0.07599-0.75699,0.13898-1.60397,0.18997-2.543
		c0.04901-0.94098,0.08102-1.78598,0.08401-2.52899c0.31,0.005,0.55399,0.009,0.737,0.009c0.216,0,0.448-0.004,0.68799-0.009
		l-0.05399,0.84399c0.10599-0.14398,0.19299-0.26099,0.27301-0.34698c0.07797-0.08401,0.17499-0.17001,0.29898-0.254
		c0.12302-0.082,0.25-0.14999,0.388-0.19901c0.138-0.04999,0.29102-0.09201,0.466-0.12
		c0.16699-0.03,0.34799-0.04401,0.53601-0.04401c0.293,0,0.57898,0.03699,0.849,0.11002
		c0.27298,0.07498,0.48898,0.194,0.655,0.35797c0.168,0.16202,0.28,0.34003,0.32898,0.53601
		c0.05402,0.18799,0.08102,0.396,0.08102,0.61099c0,0.08801-0.004,0.233-0.01102,0.42902l-0.104,2.181
		c-0.013,0.30301-0.02399,0.62601-0.02698,0.96698c-0.26401-0.008-0.48502-0.01099-0.67603-0.01099
		c-0.25,0-0.50699,0.00299-0.763,0.01099c0.02701-0.28699,0.06302-0.793,0.10202-1.51297c0.039-0.71902,0.06-1.19901,0.06-1.43002
		c0-0.26398-0.04199-0.474-0.12601-0.634c-0.082-0.16-0.211-0.27899-0.38501-0.36298
		c-0.17599-0.08102-0.36499-0.12802-0.56799-0.12802c-0.19699,0-0.38199,0.04202-0.55798,0.116
		c-0.172,0.07602-0.32202,0.18903-0.44501,0.33401c-0.134,0.151-0.237,0.336-0.311,0.55499
		c-0.078,0.233-0.13599,0.61801-0.17001,1.15302c-0.03299,0.474-0.06299,1.112-0.07999,1.90997
		c-0.259-0.008-0.48801-0.01099-0.69299-0.01099C181.12201,49.491,180.867,49.49399,180.56802,49.50198"/>
	<path class="st0" d="M191.11801,48.35098c-0.01801,0.13702-0.04001,0.29102-0.07303,0.46402
		c-0.03299,0.172-0.07098,0.38599-0.10599,0.63998c-0.47601,0.112-0.94299,0.16702-1.40701,0.16702
		c-0.26898,0-0.52899-0.02502-0.77698-0.07602c-0.25-0.04898-0.48102-0.13599-0.69601-0.26398
		c-0.21399-0.12903-0.40399-0.29703-0.56799-0.509c-0.16199-0.20801-0.285-0.46301-0.366-0.75601
		c-0.08099-0.30099-0.12201-0.60999-0.12201-0.92401c0-0.42099,0.06799-0.82098,0.202-1.20898
		c0.13501-0.38501,0.332-0.69699,0.591-0.94299c0.259-0.24402,0.55002-0.41101,0.86801-0.49902
		c0.31601-0.08798,0.668-0.13199,1.05798-0.13199c0.216,0,0.44101,0.01099,0.66901,0.03699
		c0.22702,0.02402,0.49899,0.073,0.814,0.15002L191.28,45.591c-0.49301-0.17001-0.927-0.25601-1.29501-0.25601
		c-0.22699,0-0.44,0.03799-0.642,0.11801c-0.19998,0.07599-0.371,0.19598-0.517,0.35999
		c-0.14499,0.16299-0.24698,0.35602-0.30899,0.57101c-0.06,0.21698-0.09,0.43698-0.09,0.66199
		c0,0.31601,0.047,0.59302,0.14499,0.82101c0.09799,0.233,0.26599,0.41199,0.50702,0.535c0.23898,0.129,0.513,0.19299,0.814,0.19299
		c0.15198,0,0.332-0.01901,0.547-0.05701C190.65201,48.49701,190.879,48.436,191.11801,48.35098"/>
	<path class="st0" d="M196.66599,48.36697c-0.04199,0.20102-0.104,0.55103-0.18301,1.061
		c-0.35999,0.07401-0.66199,0.129-0.90698,0.15402c-0.246,0.02798-0.496,0.04099-0.746,0.04099
		c-0.435,0-0.82401-0.043-1.16699-0.13101c-0.34399-0.08398-0.64902-0.245-0.90701-0.47498
		c-0.258-0.23001-0.453-0.51401-0.573-0.85202c-0.12601-0.33398-0.186-0.686-0.186-1.05499c0-0.41,0.07101-0.80399,0.216-1.189
		c0.14301-0.384,0.34201-0.698,0.60101-0.94101c0.258-0.242,0.54898-0.41599,0.87799-0.51898
		c0.33301-0.10202,0.67401-0.151,1.034-0.151c0.34201,0,0.66199,0.04099,0.96701,0.125c0.30499,0.086,0.564,0.22598,0.772,0.41498
		c0.20798,0.194,0.366,0.42502,0.479,0.698c0.10999,0.27002,0.16599,0.57202,0.16599,0.90302c0,0.155-0.01599,0.315-0.048,0.48001
		l-3.66,0.00699c-0.004,0.125-0.009,0.22202-0.009,0.29401c0,0.22299,0.04102,0.42999,0.11401,0.61499
		c0.07999,0.189,0.19199,0.34302,0.33701,0.47501c0.146,0.129,0.31998,0.22198,0.522,0.28601
		c0.207,0.06097,0.40298,0.09198,0.599,0.09198c0.228,0,0.479-0.02899,0.74698-0.07401
		C195.97897,48.57599,196.29797,48.491,196.66599,48.36697 M193.444,46.35397l2.33499,0.00403
		c0-0.15802-0.00201-0.27502-0.01602-0.35101c-0.008-0.077-0.03299-0.16501-0.06497-0.26099
		c-0.03601-0.09702-0.08301-0.18402-0.14401-0.25702c-0.061-0.077-0.13101-0.13901-0.20901-0.19
		c-0.08099-0.048-0.172-0.08398-0.27698-0.11099c-0.103-0.02798-0.21701-0.04001-0.336-0.04001
		c-0.14102,0-0.27402,0.02002-0.40701,0.064c-0.13,0.04202-0.25101,0.10501-0.36301,0.18802
		c-0.10898,0.08099-0.19699,0.17899-0.26999,0.27701c-0.06201,0.103-0.117,0.20099-0.151,0.297
		C193.50897,46.069,193.47699,46.19598,193.444,46.35397"/>
	<path class="st0" d="M205.57901,49.50198c-0.27701-0.008-0.49399-0.01099-0.646-0.01099c-0.164,0-0.39502,0.00299-0.689,0.01099
		l0.04599-0.867c-0.146,0.186-0.272,0.33502-0.37701,0.439c-0.10599,0.10101-0.23297,0.19702-0.38998,0.285
		c-0.15399,0.08902-0.32101,0.155-0.5,0.19901c-0.181,0.04102-0.367,0.064-0.55801,0.064c-0.31998,0-0.62-0.05798-0.901-0.17398
		c-0.27798-0.11801-0.51498-0.28101-0.70999-0.492c-0.198-0.21301-0.345-0.46301-0.43799-0.755c-0.09-0.289-0.138-0.59-0.138-0.909
		c0-0.43301,0.08301-0.85901,0.24899-1.27402c0.16699-0.41199,0.39499-0.75,0.686-1.00497
		c0.28601-0.25601,0.61301-0.43802,0.979-0.54501c0.366-0.10599,0.759-0.15799,1.177-0.15799c0.29999,0,0.646,0.02798,1.02798,0.086
		c0.026-0.436,0.03702-0.89001,0.03702-1.36401V42.694c0.31198,0.00299,0.55298,0.00497,0.72,0.00497
		c0.21597,0,0.457-0.00198,0.72897-0.00497c-0.073,0.84198-0.142,1.99399-0.20798,3.448
		C205.61102,47.595,205.57901,48.71799,205.57901,49.50198 M204.34402,45.34097c-0.24802-0.06598-0.48703-0.10199-0.71701-0.10199
		c-0.26401,0-0.51599,0.04001-0.75299,0.11099c-0.24002,0.07602-0.45102,0.198-0.638,0.37601
		c-0.18503,0.177-0.32703,0.39999-0.423,0.677c-0.104,0.27701-0.15201,0.543-0.15201,0.80099
		c0,0.25601,0.04599,0.48801,0.13699,0.703c0.091,0.20901,0.233,0.379,0.42599,0.504c0.19202,0.12399,0.414,0.18402,0.65302,0.18402
		c0.18298,0,0.349-0.03201,0.5-0.10101c0.14801-0.06201,0.28799-0.16101,0.40799-0.29501
		c0.12601-0.13397,0.23001-0.31,0.314-0.52298c0.08401-0.21201,0.14301-0.495,0.17902-0.849
		C204.306,46.56998,204.32501,46.07199,204.34402,45.34097"/>
	<path class="st0" d="M211.33798,48.36697c-0.04199,0.20102-0.103,0.55103-0.18298,1.061
		c-0.36002,0.07401-0.664,0.129-0.90701,0.15402C210,49.60999,209.755,49.62299,209.504,49.62299
		c-0.43701,0-0.827-0.043-1.17099-0.13101c-0.34302-0.08398-0.64801-0.245-0.905-0.47498
		c-0.259-0.23001-0.44901-0.51401-0.57401-0.85202c-0.125-0.33398-0.18301-0.686-0.18301-1.05499
		c0-0.41,0.06799-0.80399,0.21301-1.189c0.14301-0.384,0.34299-0.698,0.60199-0.94101c0.258-0.242,0.55002-0.41599,0.88202-0.51898
		c0.327-0.10202,0.67099-0.151,1.03299-0.151c0.336,0,0.65799,0.04099,0.96399,0.125c0.30801,0.086,0.56601,0.22598,0.771,0.41498
		c0.21002,0.194,0.36902,0.42502,0.48203,0.698c0.10797,0.27002,0.16599,0.57202,0.16599,0.90302c0,0.155-0.017,0.315-0.052,0.48001
		l-3.65701,0.00699c-0.00598,0.125-0.00897,0.22202-0.00897,0.29401c0,0.22299,0.03799,0.42999,0.116,0.61499
		c0.078,0.189,0.18698,0.34302,0.33298,0.47501c0.14801,0.129,0.323,0.22198,0.52402,0.28601
		c0.202,0.06097,0.401,0.09198,0.59799,0.09198c0.23001,0,0.479-0.02899,0.74701-0.07401
		C210.65399,48.57599,210.97,48.491,211.33798,48.36697 M208.11801,46.35397L210.453,46.358
		c0-0.15802-0.00601-0.27502-0.017-0.35101c-0.01102-0.077-0.03101-0.16501-0.06702-0.26099
		c-0.034-0.09702-0.07999-0.18402-0.14398-0.25702c-0.056-0.077-0.12802-0.13901-0.20801-0.19
		c-0.07901-0.048-0.17099-0.08398-0.276-0.11099c-0.104-0.02798-0.21799-0.04001-0.33701-0.04001
		c-0.13998,0-0.27499,0.02002-0.40799,0.064c-0.129,0.04202-0.25101,0.10501-0.362,0.18802
		c-0.108,0.08099-0.19901,0.17899-0.26599,0.27701c-0.06601,0.103-0.12003,0.20099-0.15002,0.297
		C208.18201,46.069,208.14899,46.19598,208.11801,46.35397"/>
	<path class="st0" d="M218.20303,48.45999c-0.03802,0.18201-0.10303,0.52301-0.18805,1.01602
		c-0.27997,0.06299-0.49701,0.104-0.659,0.121c-0.15997,0.01498-0.30896,0.02499-0.45001,0.02499
		c-0.24396,0-0.46497-0.02301-0.66296-0.07001c-0.19299-0.04599-0.35303-0.129-0.479-0.24399
		c-0.12402-0.12201-0.21002-0.258-0.258-0.41699c-0.04199-0.15802-0.06598-0.32101-0.06598-0.49002
		c0-0.04401,0-0.10498,0.00598-0.17499c0.00201-0.07602,0.01599-0.311,0.03796-0.70999l0.11603-2.07703h-0.71899
		c0.01697-0.19998,0.034-0.517,0.047-0.95898h0.75098c0.01904-0.194,0.04004-0.522,0.05603-0.98502l0.59198-0.11298
		c0.125-0.026,0.35901-0.07501,0.71503-0.16602c-0.02502,0.44901-0.03705,0.86801-0.04199,1.26401h1.26794
		c-0.01996,0.44699-0.03497,0.771-0.03497,0.95898h-1.27002c-0.07001,1.35703-0.10498,2.138-0.10498,2.35001
		c0,0.20901,0.02197,0.37201,0.06799,0.48102c0.04303,0.11298,0.11603,0.19299,0.21698,0.245
		c0.09802,0.04898,0.20605,0.07401,0.31702,0.07401c0.08203,0,0.16998-0.00601,0.263-0.01901
		C217.81198,48.55701,217.97202,48.51801,218.20303,48.45999"/>
	<path class="st0" d="M221.61801,44.31c0.383,0,0.75,0.05301,1.10095,0.17001c0.34705,0.11499,0.64502,0.285,0.89301,0.509
		c0.24304,0.22598,0.427,0.5,0.55103,0.82401c0.12299,0.32397,0.18396,0.66699,0.18396,1.026
		c0,0.37598-0.065,0.74597-0.19397,1.09598c-0.13098,0.35602-0.31799,0.66-0.56201,0.91901
		c-0.25,0.25299-0.55499,0.448-0.92297,0.577c-0.36603,0.12802-0.75903,0.19101-1.17401,0.19101
		c-0.38702,0-0.75098-0.05801-1.104-0.17099c-0.341-0.11801-0.64398-0.289-0.888-0.51501
		c-0.24402-0.23199-0.43201-0.51001-0.55902-0.83899c-0.13196-0.332-0.19299-0.67401-0.19299-1.034
		c0-0.366,0.05499-0.71503,0.17401-1.05002c0.11499-0.33099,0.29901-0.62799,0.547-0.883
		c0.24799-0.26199,0.56299-0.46399,0.94897-0.60699C220.806,44.37802,221.20499,44.31,221.61801,44.31 M221.61801,45.33499
		c-0.29004,0-0.54706,0.07501-0.77405,0.21301c-0.224,0.14499-0.396,0.353-0.50598,0.63101
		c-0.11102,0.27798-0.16699,0.58499-0.16699,0.914c0,0.28598,0.04498,0.548,0.13501,0.772
		c0.09198,0.22699,0.242,0.409,0.44598,0.54797c0.21198,0.142,0.45697,0.21301,0.742,0.21301c0.29102,0,0.547-0.073,0.76697-0.21701
		c0.22101-0.14398,0.388-0.35999,0.49603-0.63998c0.10999-0.28101,0.16901-0.591,0.16901-0.92999
		c0-0.27802-0.04602-0.52902-0.13-0.75403c-0.08704-0.22699-0.229-0.40799-0.435-0.543
		C222.16,45.405,221.90897,45.33499,221.61801,45.33499"/>
	<path class="st0" d="M230.358,49.50198c-0.276-0.008-0.49005-0.01099-0.64502-0.01099c-0.16602,0-0.39099,0.00299-0.68799,0.01099
		l0.04596-0.867c-0.146,0.186-0.27197,0.33502-0.37799,0.439c-0.10199,0.10101-0.23297,0.19702-0.388,0.285
		c-0.15399,0.08902-0.323,0.155-0.50201,0.19901c-0.17798,0.04102-0.36597,0.064-0.55798,0.064
		c-0.31897,0-0.61896-0.05798-0.89899-0.17398c-0.28101-0.11801-0.51703-0.28101-0.71301-0.492
		c-0.19501-0.21301-0.341-0.46301-0.43701-0.755c-0.091-0.289-0.13599-0.59-0.13599-0.909c0-0.43301,0.08002-0.85901,0.25-1.27402
		c0.16602-0.41199,0.39301-0.75,0.68402-1.00497c0.28796-0.25601,0.61499-0.43802,0.979-0.54501
		c0.36896-0.10599,0.758-0.15799,1.17798-0.15799c0.30103,0,0.64398,0.02798,1.02698,0.086
		c0.02405-0.436,0.03601-0.89001,0.03601-1.36401V42.694c0.31,0.00299,0.55304,0.00497,0.72101,0.00497
		c0.21503,0,0.45801-0.00198,0.72699-0.00497c-0.073,0.84198-0.13995,1.99399-0.20599,3.448
		C230.392,47.595,230.358,48.71799,230.358,49.50198 M229.12601,45.34097c-0.24805-0.06598-0.48901-0.10199-0.72003-0.10199
		c-0.26099,0-0.51202,0.04001-0.755,0.11099c-0.23798,0.07602-0.448,0.198-0.63202,0.37601
		c-0.18396,0.177-0.328,0.39999-0.427,0.677c-0.10297,0.27701-0.14996,0.543-0.14996,0.80099
		c0,0.25601,0.04498,0.48801,0.13501,0.703c0.09296,0.20901,0.23596,0.379,0.42798,0.504
		c0.19501,0.12399,0.40802,0.18402,0.65698,0.18402c0.17902,0,0.34601-0.03201,0.495-0.10101
		c0.15002-0.06201,0.28601-0.16101,0.41003-0.29501c0.12201-0.13397,0.22797-0.31,0.31097-0.52298
		c0.086-0.21201,0.146-0.495,0.18402-0.849C229.08096,46.56998,229.10599,46.07199,229.12601,45.34097"/>
	<path class="st0" d="M234.32101,44.31c0.38495,0,0.74896,0.05301,1.10297,0.17001c0.349,0.11499,0.64801,0.285,0.89301,0.509
		c0.242,0.22598,0.427,0.5,0.55103,0.82401c0.12097,0.32397,0.18298,0.66699,0.18298,1.026c0,0.37598-0.065,0.74597-0.19501,1.09598
		c-0.12799,0.35602-0.315,0.66-0.56299,0.91901c-0.24402,0.25299-0.54999,0.448-0.91901,0.577
		c-0.37,0.12802-0.75903,0.19101-1.17499,0.19101c-0.38702,0-0.75702-0.05801-1.10101-0.17099
		c-0.34698-0.11801-0.64203-0.289-0.89301-0.51501c-0.24298-0.23199-0.43103-0.51001-0.56-0.83899
		c-0.12701-0.332-0.19-0.67401-0.19-1.034c0-0.366,0.05701-0.71503,0.17401-1.05002c0.11499-0.33099,0.297-0.62799,0.54596-0.883
		c0.24603-0.26199,0.565-0.46399,0.94904-0.60699C233.50797,44.37802,233.91,44.31,234.32101,44.31 M234.32101,45.33499
		c-0.28705,0-0.54401,0.07501-0.77106,0.21301c-0.22595,0.14499-0.39398,0.353-0.50397,0.63101
		c-0.11603,0.27798-0.16998,0.58499-0.16998,0.914c0,0.28598,0.04596,0.548,0.13599,0.772
		c0.091,0.22699,0.242,0.409,0.44696,0.54797c0.21002,0.142,0.45605,0.21301,0.74005,0.21301c0.29199,0,0.547-0.073,0.76801-0.21701
		c0.21899-0.14398,0.388-0.35999,0.49799-0.63998c0.10999-0.28101,0.164-0.591,0.164-0.92999
		c0-0.27802-0.04303-0.52902-0.12799-0.75403c-0.086-0.22699-0.23004-0.40799-0.43304-0.543
		C234.86301,45.405,234.61496,45.33499,234.32101,45.33499"/>
	<path class="st0" d="M237.76999,49.40698l-0.11005-1.09799c0.328,0.13501,0.60199,0.22702,0.82703,0.28
		c0.224,0.048,0.43701,0.07401,0.625,0.07401c0.19098,0,0.34698-0.022,0.479-0.06699c0.12799-0.043,0.22797-0.10901,0.28796-0.20102
		c0.06702-0.086,0.09601-0.17798,0.09601-0.27499c0-0.04099-0.00598-0.08499-0.01099-0.12
		c-0.01099-0.03699-0.02399-0.073-0.047-0.11401c-0.02502-0.03998-0.047-0.08099-0.07501-0.11398
		c-0.02698-0.034-0.065-0.07401-0.11401-0.117c-0.05396-0.04501-0.12396-0.103-0.21796-0.17099l-0.26801-0.21902
		c-0.26099-0.20099-0.45703-0.35999-0.59399-0.47998c-0.13501-0.11301-0.25201-0.233-0.34601-0.353
		c-0.09399-0.12302-0.164-0.25101-0.21204-0.38602c-0.04797-0.13699-0.06995-0.272-0.06995-0.41199
		c0-0.241,0.07196-0.47101,0.21899-0.69299c0.151-0.21802,0.36395-0.37802,0.64899-0.48001
		c0.28198-0.103,0.61298-0.15201,0.99799-0.15201c0.43597,0,0.93701,0.04901,1.50598,0.15701l0.06305,1.03799
		c-0.38501-0.15601-0.75403-0.23599-1.112-0.23599c-0.19,0-0.36005,0.02399-0.50806,0.06198
		c-0.14099,0.03802-0.24597,0.09601-0.31097,0.172c-0.06,0.08102-0.091,0.16702-0.091,0.26202
		c0,0.05798,0.00702,0.11298,0.026,0.16599c0.02301,0.05801,0.05603,0.11401,0.10699,0.17401
		c0.052,0.05899,0.10699,0.11798,0.172,0.168c0.06604,0.05499,0.20203,0.16,0.40503,0.31799
		c0.20599,0.15302,0.38696,0.29501,0.54498,0.423c0.15302,0.12601,0.27899,0.25198,0.37799,0.379
		c0.10101,0.129,0.17999,0.26901,0.23102,0.41299c0.052,0.14801,0.08099,0.29401,0.08099,0.44501
		c0,0.24701-0.078,0.48001-0.229,0.694c-0.15302,0.20999-0.38599,0.38-0.69397,0.496
		c-0.31201,0.12299-0.65503,0.18201-1.03802,0.18201c-0.20203,0-0.44299-0.01602-0.72998-0.04901
		C238.40195,49.543,238.09494,49.48401,237.76999,49.40698"/>
	<path class="st1" d="M239.82297,38.60501v-1.10999c0.29199,0.20599,0.59003,0.37097,0.89502,0.49597
		c0.30298,0.125,0.55701,0.18903,0.76599,0.18903c0.216,0,0.40002-0.052,0.55402-0.16c0.15302-0.104,0.23297-0.229,0.23297-0.37601
		c0-0.15302-0.052-0.27399-0.14996-0.38c-0.10004-0.099-0.315-0.23999-0.64801-0.427
		c-0.66602-0.37299-1.09698-0.689-1.30402-0.94998c-0.20502-0.263-0.30798-0.55002-0.30798-0.85703
		c0-0.401,0.15497-0.724,0.46698-0.97897c0.31201-0.255,0.711-0.38202,1.20001-0.38202c0.51001,0,1.03198,0.14401,1.56702,0.43201
		v1.01901c-0.60901-0.36801-1.10803-0.55502-1.49805-0.55502c-0.19897,0-0.36096,0.04501-0.48395,0.12601
		C240.991,34.776,240.931,34.89001,240.931,35.03c0,0.117,0.05499,0.23602,0.16498,0.34702
		c0.11298,0.104,0.30902,0.242,0.58398,0.39301l0.367,0.207c0.87103,0.49298,1.30402,1.03598,1.30402,1.63098
		c0,0.42801-0.16803,0.77802-0.50098,1.052c-0.33405,0.272-0.763,0.409-1.28802,0.409c-0.31,0-0.58203-0.03098-0.82397-0.09799
		C240.49997,38.90302,240.19101,38.77802,239.82297,38.60501 M236.11899,34.69c-0.49402,0-0.89899,0.16101-1.21802,0.487
		c-0.31702,0.32401-0.47296,0.73602-0.47296,1.23602c0,0.50098,0.15997,0.905,0.48596,1.224
		c0.32501,0.31299,0.73901,0.47098,1.24799,0.47098c0.50702,0,0.92102-0.16,1.24304-0.48199
		c0.323-0.31699,0.48499-0.724,0.48499-1.22299c0-0.495-0.16602-0.90201-0.50299-1.22601
		C237.05099,34.85101,236.62601,34.69,236.11899,34.69 M236.17599,33.76102c0.79102,0,1.45099,0.255,1.97296,0.767
		c0.52802,0.51001,0.79004,1.155,0.79004,1.92599c0,0.75101-0.271,1.37399-0.80103,1.871
		c-0.53101,0.49399-1.203,0.74399-2.00702,0.74399c-0.78198,0-1.43597-0.25-1.95795-0.754
		c-0.526-0.50598-0.78705-1.13498-0.78705-1.88599c0-0.76401,0.26501-1.39902,0.79401-1.905
		C234.70895,34.013,235.37601,33.76102,236.17599,33.76102 M231.16696,33.77402h1.03302v5.203h-1.03302V33.77402z
		 M231.67697,31.58502c0.16998,0,0.315,0.05298,0.435,0.17398c0.12299,0.11502,0.17999,0.259,0.17999,0.42502
		c0,0.16998-0.05701,0.31598-0.17999,0.431c-0.12,0.12399-0.26501,0.18198-0.435,0.18198c-0.159,0-0.29797-0.06097-0.41602-0.18198
		c-0.12299-0.121-0.18097-0.267-0.18097-0.431c0-0.15302,0.05798-0.29602,0.18097-0.41901
		C231.379,31.64502,231.51797,31.58502,231.67697,31.58502 M225.15298,32.08002h-1.41302V37.961h1.44702
		c0.56598,0,1.00403-0.04099,1.315-0.11398c0.31598-0.08002,0.57703-0.17801,0.78497-0.29901
		c0.21301-0.11798,0.40002-0.26498,0.57605-0.43799c0.55896-0.565,0.836-1.27899,0.836-2.14401
		c0-0.85001-0.28302-1.53998-0.86102-2.07599c-0.20703-0.20001-0.453-0.36499-0.72302-0.492
		c-0.27698-0.13-0.534-0.215-0.77698-0.25601C226.08798,32.10001,225.69699,32.08002,225.15298,32.08002 M222.608,38.97v-7.897
		h2.66498c1.073,0,1.92603,0.15802,2.55103,0.48502c0.625,0.32599,1.12396,0.79599,1.49896,1.42499
		c0.367,0.625,0.54901,1.30502,0.54901,2.047c0,0.52701-0.10303,1.02902-0.30402,1.51501
		c-0.20398,0.483-0.49396,0.90698-0.87598,1.27301c-0.383,0.37997-0.82898,0.664-1.33899,0.85498
		c-0.29803,0.117-0.57104,0.19702-0.81903,0.23102c-0.25,0.047-0.72601,0.06598-1.42596,0.06598H222.608z M214.47998,35.84802h2.621
		c-0.02899-0.41202-0.15002-0.728-0.37103-0.94901c-0.21796-0.22202-0.51398-0.33401-0.88196-0.33401
		c-0.36804,0-0.672,0.112-0.90503,0.33401C214.707,35.12003,214.55301,35.436,214.47998,35.84802 M218.11795,36.46902H214.457
		c0.02701,0.495,0.19299,0.88998,0.50195,1.18597c0.30603,0.29501,0.703,0.44101,1.18805,0.44101
		c0.68298,0,1.30896-0.20898,1.88098-0.633v1.00601c-0.31403,0.211-0.63098,0.36298-0.94403,0.45398
		c-0.30597,0.09-0.67395,0.133-1.091,0.133c-0.57495,0-1.03998-0.11798-1.39197-0.35999c-0.358-0.23199-0.642-0.552-0.85098-0.95401
		c-0.21802-0.401-0.323-0.87-0.323-1.396c0-0.79199,0.22598-1.43298,0.672-1.93298c0.44901-0.49402,1.03696-0.74402,1.74899-0.74402
		c0.69299,0,1.24298,0.24301,1.65302,0.72299c0.41095,0.48602,0.61694,1.13202,0.61694,1.94501V36.46902z M211.25,38.09601V34.797
		c-0.32101-0.16098-0.64801-0.245-0.97299-0.245c-0.51501,0-0.92502,0.16901-1.22501,0.50702
		c-0.306,0.33398-0.45801,0.78699-0.45801,1.354c0,0.53799,0.134,0.94897,0.397,1.24197c0.16101,0.173,0.32599,0.293,0.505,0.34802
		c0.17398,0.061,0.49698,0.09299,0.95499,0.09299H211.25z M211.25,31.073h1.035v7.90402h-2.20401c-0.767,0-1.383-0.24002-1.84-0.728
		c-0.461-0.48602-0.69-1.14001-0.69-1.95602c0-0.76898,0.242-1.39798,0.72101-1.89398c0.48099-0.49301,1.095-0.73901,1.845-0.73901
		c0.345,0,0.72501,0.07101,1.133,0.21802V31.073z M200.59201,34.69c-0.49301,0-0.90402,0.16101-1.21802,0.487
		c-0.314,0.32401-0.47198,0.73602-0.47198,1.23602c0,0.50098,0.15997,0.905,0.48499,1.224
		c0.32199,0.31299,0.73901,0.47098,1.25,0.47098c0.504,0,0.92099-0.16,1.242-0.48199c0.32401-0.31699,0.48499-0.724,0.48499-1.22299
		c0-0.495-0.16699-0.90201-0.50299-1.22601C201.522,34.85101,201.10199,34.69,200.59201,34.69 M200.64499,33.76102
		c0.798,0,1.45502,0.255,1.97702,0.767c0.52499,0.51001,0.78799,1.155,0.78799,1.92599c0,0.75101-0.26801,1.37399-0.797,1.871
		c-0.53201,0.49399-1.20102,0.74399-2.00803,0.74399c-0.78299,0-1.43698-0.25-1.95798-0.754
		c-0.52802-0.50598-0.78601-1.13498-0.78601-1.88599c0-0.76401,0.263-1.39902,0.793-1.905
		C199.185,34.013,199.84698,33.76102,200.64499,33.76102 M193.56799,34.59601l1.936-1.901v1.07901h1.64899v0.92599H195.504V37.255
		c0,0.59399,0.24399,0.89099,0.74399,0.89099c0.36902,0,0.75702-0.12598,1.16901-0.37299V38.737
		c-0.39499,0.22-0.82999,0.332-1.29401,0.332c-0.47598,0-0.86899-0.13699-1.17999-0.41
		c-0.09698-0.08499-0.17999-0.17697-0.23999-0.28098c-0.065-0.108-0.12-0.242-0.164-0.41
		c-0.043-0.164-0.06302-0.487-0.06302-0.95599v-2.31201h-0.90799V34.59601z M191.82098,38.97702V38.315
		c-0.22,0.24002-0.46698,0.42599-0.75,0.55502c-0.28,0.13098-0.56,0.19897-0.84,0.19897c-0.32999,0-0.63-0.08398-0.90698-0.24698
		c-0.28-0.16202-0.49002-0.38702-0.63-0.66602c-0.142-0.28198-0.21301-0.74899-0.21301-1.39798v-2.98401h1.03101v2.96899
		c0,0.548,0.07901,0.931,0.23801,1.14499c0.151,0.21902,0.42801,0.327,0.82199,0.327c0.487,0,0.90601-0.24298,1.24899-0.71997
		v-3.72101h1.02902v5.203H191.82098z M183.85498,33.77402v0.65799c0.45901-0.505,0.98203-0.763,1.56802-0.763
		c0.32401,0,0.62198,0.08401,0.905,0.25299c0.27798,0.16602,0.491,0.39801,0.63599,0.69202
		c0.14301,0.29001,0.21899,0.75198,0.21899,1.38901v2.974h-1.02698V36.013c0-0.53198-0.08701-0.91098-0.24701-1.13998
		c-0.16199-0.23001-0.43799-0.345-0.81799-0.345c-0.48401,0-0.89502,0.246-1.23602,0.733v3.716h-1.05499v-5.203H183.85498z
		 M180.30701,33.77402h1.02798v5.203h-1.02798V33.77402z M180.81799,31.58502c0.16699,0,0.31201,0.05298,0.43301,0.17398
		c0.121,0.11502,0.18298,0.259,0.18298,0.42502c0,0.16998-0.06198,0.31598-0.18298,0.431
		c-0.121,0.12399-0.26602,0.18198-0.43301,0.18198c-0.15799,0-0.29901-0.06097-0.42099-0.18198
		c-0.12-0.121-0.17801-0.267-0.17801-0.431c0-0.15302,0.05801-0.29602,0.17801-0.41901
		C180.51898,31.64502,180.66,31.58502,180.81799,31.58502 M177.67099,31.073h1.05099v7.90402h-1.13898V32.828l-2.431,3.05301h-0.207
		l-2.46103-3.05301v6.14902h-1.13199V31.073h1.06601l2.63,3.25L177.67099,31.073z M165.32599,37.95001v-1.547L164.633,36.668
		c-0.34702,0.142-0.59799,0.28302-0.73999,0.423c-0.14801,0.14102-0.21902,0.31601-0.21902,0.53
		c0,0.21301,0.065,0.38702,0.20401,0.52499c0.14099,0.138,0.31799,0.20401,0.534,0.20401
		C164.74298,38.35001,165.04498,38.21802,165.32599,37.95001 M166.341,35.84802V38.06c0,0.17902,0.05899,0.27002,0.18198,0.27002
		c0.11801,0,0.315-0.095,0.58102-0.27701v0.62701c-0.233,0.14999-0.41901,0.25198-0.56302,0.30499
		c-0.14301,0.05499-0.29001,0.08398-0.444,0.08398c-0.44299,0-0.70499-0.17099-0.78299-0.52298
		c-0.43802,0.34198-0.90201,0.50998-1.39801,0.50998c-0.362,0-0.66098-0.11798-0.90399-0.35999
		c-0.23999-0.23801-0.362-0.53601-0.362-0.89801c0-0.32999,0.117-0.621,0.35199-0.88199c0.23801-0.263,0.573-0.466,1.005-0.616
		l1.319-0.452v-0.27701c0-0.62601-0.311-0.93701-0.936-0.93701c-0.565,0-1.11099,0.28799-1.64301,0.871V34.379
		c0.39902-0.47299,0.974-0.70999,1.72501-0.70999c0.56302,0,1.01501,0.146,1.35501,0.44299
		c0.11099,0.095,0.21201,0.21902,0.30099,0.37302c0.09299,0.15799,0.15201,0.31299,0.17401,0.47299
		C166.32898,35.11401,166.341,35.41202,166.341,35.84802 M160.55298,33.77402h1.02701v5.203h-1.02701V33.77402z M161.06299,31.58502
		c0.16602,0,0.31299,0.05298,0.43201,0.17398c0.121,0.11502,0.18399,0.259,0.18399,0.42502c0,0.16998-0.06299,0.31598-0.18399,0.431
		c-0.11902,0.12399-0.26599,0.18198-0.43201,0.18198c-0.16101,0-0.30301-0.06097-0.41901-0.18198
		c-0.12299-0.121-0.18298-0.267-0.18298-0.431c0-0.15302,0.06-0.29602,0.18298-0.41901
		C160.75998,31.64502,160.90198,31.58502,161.06299,31.58502 M157.043,33.77402V34.966l0.05701-0.09198
		c0.49698-0.80301,0.99399-1.20502,1.49399-1.20502c0.38599,0,0.793,0.19901,1.21799,0.59l-0.54398,0.905
		c-0.362-0.33798-0.69302-0.51099-0.99701-0.51099c-0.332,0-0.62,0.16199-0.86301,0.47699
		c-0.242,0.314-0.36499,0.69101-0.36499,1.12701v2.72h-1.03702v-5.203H157.043z M153.25098,37.95001v-1.547L152.561,36.668
		c-0.35202,0.142-0.60001,0.28302-0.74701,0.423c-0.146,0.14102-0.216,0.31601-0.216,0.53c0,0.21301,0.06699,0.38702,0.207,0.52499
		c0.138,0.138,0.315,0.20401,0.53201,0.20401C152.668,38.35001,152.97,38.21802,153.25098,37.95001 M154.26099,35.84802V38.06
		c0,0.17902,0.06302,0.27002,0.18201,0.27002c0.12399,0,0.32001-0.095,0.582-0.27701v0.62701
		c-0.233,0.14999-0.418,0.25198-0.56299,0.30499c-0.138,0.05499-0.289,0.08398-0.44202,0.08398
		c-0.44199,0-0.703-0.17099-0.78198-0.52298c-0.43802,0.34198-0.90302,0.50998-1.397,0.50998
		c-0.36102,0-0.66602-0.11798-0.90601-0.35999c-0.23901-0.23801-0.362-0.53601-0.362-0.89801c0-0.32999,0.11798-0.621,0.358-0.88199
		c0.23199-0.263,0.569-0.466,1-0.616l1.31998-0.452v-0.27701c0-0.62601-0.31598-0.93701-0.93597-0.93701
		c-0.56403,0-1.11301,0.28799-1.646,0.871V34.379c0.40298-0.47299,0.97699-0.70999,1.72998-0.70999
		c0.56302,0,1.008,0.146,1.35001,0.44299c0.11499,0.095,0.215,0.21902,0.30399,0.37302
		c0.09201,0.15799,0.15201,0.31299,0.17502,0.47299C154.25098,35.11401,154.26099,35.41202,154.26099,35.84802 M146.40298,34.59601
		l1.93802-1.901v1.07901h1.647v0.92599h-1.647V37.255c0,0.59399,0.24399,0.89099,0.73898,0.89099
		c0.36902,0,0.758-0.12598,1.16901-0.37299V38.737c-0.39401,0.22-0.82599,0.332-1.29599,0.332
		c-0.47101,0-0.86102-0.13699-1.17401-0.41c-0.099-0.08499-0.17801-0.17697-0.245-0.28098
		c-0.06201-0.108-0.11499-0.242-0.15802-0.41c-0.04099-0.164-0.06799-0.487-0.06799-0.95599v-2.31201h-0.905V34.59601z
		 M144.617,33.77402h1.02899v5.203H144.617V33.77402z M145.125,31.58502c0.16699,0,0.315,0.05298,0.43799,0.17398
		c0.116,0.11502,0.17902,0.259,0.17902,0.42502c0,0.16998-0.06302,0.31598-0.17902,0.431
		c-0.12299,0.12399-0.271,0.18198-0.43799,0.18198c-0.16202,0-0.297-0.06097-0.418-0.18198
		c-0.12201-0.121-0.17801-0.267-0.17801-0.431c0-0.15302,0.056-0.29602,0.17801-0.41901
		C144.828,31.64502,144.96298,31.58502,145.125,31.58502 M139.87799,38.60501v-1.10999
		c0.28799,0.20599,0.58701,0.37097,0.89301,0.49597c0.30301,0.125,0.55701,0.18903,0.76898,0.18903
		c0.211,0,0.39801-0.052,0.55301-0.16c0.15399-0.104,0.23199-0.229,0.23199-0.37601c0-0.15302-0.052-0.27399-0.15198-0.38
		c-0.09802-0.099-0.31601-0.23999-0.64603-0.427c-0.66498-0.37299-1.099-0.689-1.30698-0.94998
		c-0.203-0.263-0.306-0.55002-0.306-0.85703c0-0.401,0.15198-0.724,0.46399-0.97897c0.315-0.255,0.716-0.38202,1.203-0.38202
		c0.51199,0,1.034,0.14401,1.56799,0.43201v1.01901c-0.60901-0.36801-1.112-0.55502-1.49899-0.55502
		c-0.20001,0-0.36002,0.04501-0.483,0.12601C141.04099,34.776,140.983,34.89001,140.983,35.03
		c0,0.117,0.052,0.23602,0.16699,0.34702c0.11099,0.104,0.306,0.242,0.58499,0.39301l0.367,0.207
		c0.86499,0.49298,1.302,1.03598,1.302,1.63098c0,0.42801-0.16901,0.77802-0.50101,1.052c-0.33499,0.272-0.763,0.409-1.285,0.409
		c-0.314,0-0.58499-0.03098-0.827-0.09799C140.547,38.90302,140.24799,38.77802,139.87799,38.60501 M136.64398,33.77402V34.966
		l0.061-0.09198c0.495-0.80301,0.99701-1.20502,1.496-1.20502c0.38199,0,0.79401,0.19901,1.215,0.59l-0.54099,0.905
		c-0.36002-0.33798-0.69202-0.51099-1.00101-0.51099c-0.33099,0-0.617,0.16199-0.86301,0.47699
		c-0.242,0.314-0.367,0.69101-0.367,1.12701v2.72h-1.02899v-5.203H136.64398z M130.793,35.84802h2.61899
		c-0.02701-0.41202-0.151-0.728-0.36899-0.94901c-0.21899-0.22202-0.51401-0.33401-0.884-0.33401
		c-0.367,0-0.67099,0.112-0.90802,0.33401C131.01498,35.12003,130.86301,35.436,130.793,35.84802 M134.42999,36.46902H130.767
		c0.026,0.495,0.19299,0.88998,0.5,1.18597c0.311,0.29501,0.70599,0.44101,1.19,0.44101c0.68298,0,1.30499-0.20898,1.883-0.633
		v1.00601c-0.31702,0.211-0.634,0.36298-0.94202,0.45398c-0.31198,0.09-0.67599,0.133-1.09598,0.133
		c-0.573,0-1.03802-0.11798-1.39001-0.35999c-0.35498-0.23199-0.63998-0.552-0.853-0.95401c-0.21399-0.401-0.323-0.87-0.323-1.396
		c0-0.79199,0.22501-1.43298,0.67599-1.93298c0.44601-0.49402,1.03299-0.74402,1.74701-0.74402
		c0.69101,0,1.241,0.24301,1.65201,0.72299c0.41299,0.48602,0.61899,1.13202,0.61899,1.94501V36.46902z M128.33398,33.77402h1.116
		l-2.298,5.29498H126.806l-2.353-5.29498h1.129l1.39899,3.202L128.33398,33.77402z M122.63199,33.77402h1.034v5.203h-1.034V33.77402
		z M123.142,31.58502c0.168,0,0.314,0.05298,0.435,0.17398c0.11798,0.11502,0.18399,0.259,0.18399,0.42502
		c0,0.16998-0.06601,0.31598-0.18399,0.431c-0.121,0.12399-0.267,0.18198-0.435,0.18198c-0.16,0-0.297-0.06097-0.422-0.18198
		c-0.12201-0.121-0.181-0.267-0.181-0.431c0-0.15302,0.05899-0.29602,0.181-0.41901
		C122.845,31.64502,122.98199,31.58502,123.142,31.58502 M117.84198,33.77402v0.65799c0.46201-0.505,0.98401-0.763,1.57001-0.763
		c0.32501,0,0.625,0.08401,0.905,0.25299c0.27701,0.16602,0.48901,0.39801,0.638,0.69202
		c0.142,0.29001,0.21402,0.75198,0.21402,1.38901v2.974H120.142V36.013c0-0.53198-0.07901-0.91098-0.242-1.13998
		c-0.16299-0.23001-0.43701-0.345-0.815-0.345c-0.487,0-0.901,0.246-1.24301,0.733v3.716h-1.05099v-5.203H117.84198z
		 M114.25198,31.073h1.138v4.48602c0,0.60999-0.04498,1.06598-0.13699,1.37399c-0.08499,0.315-0.19598,0.56799-0.327,0.77399
		c-0.129,0.207-0.28601,0.38901-0.479,0.55002c-0.62399,0.53998-1.44299,0.81198-2.453,0.81198
		c-1.02899,0-1.85599-0.26498-2.48099-0.806c-0.18701-0.16699-0.345-0.349-0.47601-0.556
		c-0.12799-0.20599-0.23898-0.457-0.327-0.75598c-0.08301-0.298-0.125-0.76102-0.125-1.40302V31.073h1.13901v4.48602
		c0,0.745,0.08499,1.259,0.255,1.55099c0.17099,0.29599,0.427,0.52701,0.77197,0.69901
		c0.34802,0.177,0.76102,0.26498,1.23102,0.26498c0.67099,0,1.216-0.17999,1.64099-0.526c0.224-0.189,0.383-0.41,0.479-0.66998
		c0.09799-0.25601,0.14999-0.69302,0.14999-1.319V31.073z M100.62399,33.77402v0.65799c0.45999-0.505,0.98401-0.763,1.569-0.763
		c0.32401,0,0.625,0.08401,0.90399,0.25299c0.27899,0.16602,0.49301,0.39801,0.638,0.69202
		c0.142,0.29001,0.21701,0.75198,0.21701,1.38901v2.974h-1.02802V36.013c0-0.53198-0.082-0.91098-0.246-1.13998
		c-0.16098-0.23001-0.435-0.345-0.81299-0.345c-0.48901,0-0.901,0.246-1.241,0.733v3.716h-1.052v-5.203H100.62399z M96.832,30.948
		L95.556,32.647h-0.63602l0.76401-1.69901H96.832z M95.63498,34.69c-0.5,0-0.90298,0.16101-1.21899,0.487
		C94.099,35.50101,93.939,35.91302,93.939,36.41302c0,0.50098,0.16299,0.905,0.492,1.224
		c0.32199,0.31299,0.737,0.47098,1.245,0.47098c0.50699,0,0.91998-0.16,1.24298-0.48199
		c0.32401-0.31699,0.48602-0.724,0.48602-1.22299c0-0.495-0.16901-0.90201-0.504-1.22601
		C96.56699,34.85101,96.14099,34.69,95.63498,34.69 M95.68698,33.76102c0.79401,0,1.453,0.255,1.97702,0.767
		c0.52499,0.51001,0.78799,1.155,0.78799,1.92599c0,0.75101-0.267,1.37399-0.80099,1.871
		C97.12,38.819,96.45398,39.069,95.642,39.069c-0.77802,0-1.43201-0.25-1.95599-0.754
		c-0.52402-0.50598-0.78601-1.13498-0.78601-1.88599c0-0.76401,0.267-1.39902,0.79199-1.905
		C94.22598,34.013,94.88998,33.76102,95.68698,33.76102 M90.68198,33.77402h1.03v5.203h-1.03V33.77402z M91.19098,31.58502
		c0.17001,0,0.31601,0.05298,0.435,0.17398c0.12302,0.11502,0.181,0.259,0.181,0.42502c0,0.16998-0.05798,0.31598-0.181,0.431
		c-0.11899,0.12399-0.26498,0.18198-0.435,0.18198c-0.16098,0-0.29898-0.06097-0.41998-0.18198c-0.12-0.121-0.181-0.267-0.181-0.431
		c0-0.15302,0.061-0.29602,0.181-0.41901C90.892,31.64502,91.03,31.58502,91.19098,31.58502 M89.48798,37.763v1.01501
		c-0.51599,0.19299-1.02399,0.29099-1.517,0.29099c-0.81699,0-1.465-0.242-1.952-0.72299
		c-0.48599-0.48401-0.72501-1.13101-0.72501-1.94299c0-0.819,0.23602-1.47601,0.707-1.97699
		C86.474,33.922,87.095,33.66901,87.866,33.66901c0.26498,0,0.50699,0.02899,0.71899,0.078
		c0.211,0.04901,0.47699,0.14499,0.79099,0.285V35.13C88.853,34.797,88.371,34.634,87.92599,34.634
		c-0.46301,0-0.84399,0.16-1.14301,0.48602c-0.29901,0.32397-0.44601,0.74698-0.44601,1.24899
		c0,0.53299,0.16202,0.95499,0.483,1.26898c0.323,0.31201,0.75702,0.47,1.30402,0.47C88.51898,38.108,88.974,37.991,89.48798,37.763
		 M82.89499,37.95001v-1.547l-0.69,0.26498c-0.35199,0.142-0.59799,0.28302-0.746,0.423
		c-0.142,0.14102-0.21899,0.31601-0.21899,0.53c0,0.21301,0.07401,0.38702,0.20801,0.52499
		c0.142,0.138,0.31699,0.20401,0.53598,0.20401C82.30899,38.35001,82.61499,38.21802,82.89499,37.95001 M83.90598,35.84802V38.06
		c0,0.17902,0.061,0.27002,0.18301,0.27002c0.12399,0,0.31799-0.095,0.58401-0.27701v0.62701
		c-0.23203,0.14999-0.423,0.25198-0.56302,0.30499c-0.14301,0.05499-0.29001,0.08398-0.44299,0.08398
		c-0.44501,0-0.70401-0.17099-0.78601-0.52298C82.44299,38.888,81.978,39.056,81.48398,39.056
		c-0.36099,0-0.66098-0.11798-0.90399-0.35999c-0.242-0.23801-0.362-0.53601-0.362-0.89801c0-0.32999,0.117-0.621,0.353-0.88199
		c0.23599-0.263,0.57101-0.466,1.004-0.616l1.32001-0.452v-0.27701c0-0.62601-0.31201-0.93701-0.93799-0.93701
		c-0.56601,0-1.112,0.28799-1.646,0.871V34.379c0.40097-0.47299,0.978-0.70999,1.72998-0.70999
		c0.56201,0,1.01501,0.146,1.35199,0.44299c0.11102,0.095,0.21503,0.21902,0.30402,0.37302
		c0.09299,0.15799,0.14999,0.31299,0.172,0.47299C83.89499,35.11401,83.90598,35.41202,83.90598,35.84802 M77.151,33.77402V34.966
		l0.05798-0.09198c0.495-0.80301,0.99402-1.20502,1.491-1.20502c0.39001,0,0.797,0.19901,1.21802,0.59l-0.54202,0.905
		c-0.36099-0.33798-0.69299-0.51099-0.99799-0.51099c-0.332,0-0.61899,0.16199-0.862,0.47699
		C77.272,35.444,77.151,35.82101,77.151,36.25702v2.72h-1.03802v-5.203H77.151z M72.086,34.69
		c-0.49701,0-0.89801,0.16101-1.21701,0.487c-0.31601,0.32401-0.474,0.73602-0.474,1.23602c0,0.50098,0.16,0.905,0.48599,1.224
		c0.32401,0.31299,0.73901,0.47098,1.25,0.47098c0.504,0,0.918-0.16,1.24002-0.48199c0.32397-0.31699,0.48499-0.724,0.48499-1.22299
		c0-0.495-0.16901-0.90201-0.50299-1.22601C73.01498,34.85101,72.595,34.69,72.086,34.69 M72.13998,33.76102
		c0.79199,0,1.44901,0.255,1.97501,0.767c0.52701,0.51001,0.79099,1.155,0.79099,1.92599c0,0.75101-0.267,1.37399-0.79999,1.871
		c-0.53299,0.49399-1.202,0.74399-2.008,0.74399c-0.78601,0-1.435-0.25-1.95999-0.754
		c-0.52502-0.50598-0.78302-1.13498-0.78302-1.88599c0-0.76401,0.263-1.39902,0.79202-1.905
		C70.67599,34.013,71.34299,33.76102,72.13998,33.76102 M65.569,34.733h-0.724v3.203c0.31299,0.16,0.64697,0.24402,0.991,0.24402
		c0.48599,0,0.88-0.16602,1.19098-0.50201c0.30502-0.33701,0.457-0.76498,0.457-1.297c0-0.341-0.073-0.63901-0.21899-0.89999
		c-0.14301-0.259-0.34201-0.45001-0.59399-0.56702C66.42099,34.79401,66.05499,34.733,65.569,34.733 M63.79199,41.634v-7.85999
		h1.80099c0.927,0,1.64301,0.229,2.16,0.69098c0.51498,0.457,0.77301,1.10101,0.77301,1.927c0,0.78101-0.242,1.42001-0.729,1.923
		c-0.483,0.504-1.09702,0.754-1.853,0.754c-0.33102,0-0.70102-0.07599-1.099-0.22098V41.634H63.79199z M60.371,33.77402V34.966
		l0.05698-0.09198c0.496-0.80301,0.99701-1.20502,1.49402-1.20502c0.38898,0,0.79498,0.19901,1.21899,0.59L62.595,35.164
		c-0.35703-0.33798-0.69101-0.51099-0.99402-0.51099c-0.33398,0-0.62198,0.16199-0.86499,0.47699
		c-0.24402,0.314-0.36499,0.69101-0.36499,1.12701v2.72h-1.03601v-5.203H60.371z M55.30698,34.69
		c-0.49399,0-0.89999,0.16101-1.21799,0.487c-0.31799,0.32401-0.47501,0.73602-0.47501,1.23602c0,0.50098,0.16501,0.905,0.487,1.224
		c0.32602,0.31299,0.741,0.47098,1.25,0.47098s0.91901-0.16,1.241-0.48199c0.32602-0.31699,0.48801-0.724,0.48801-1.22299
		c0-0.495-0.17001-0.90201-0.50601-1.22601C56.23599,34.85101,55.815,34.69,55.30698,34.69 M55.36099,33.76102
		c0.793,0,1.452,0.255,1.974,0.767c0.52499,0.51001,0.79001,1.155,0.79001,1.92599c0,0.75101-0.267,1.37399-0.797,1.871
		C56.79398,38.819,56.12598,39.069,55.31598,39.069c-0.78,0-1.43298-0.25-1.957-0.754c-0.52499-0.50598-0.785-1.13498-0.785-1.88599
		c0-0.76401,0.26501-1.39902,0.79401-1.905C53.897,34.013,54.56198,33.76102,55.36099,33.76102 M51.625,37.14502V38.392
		c-0.83301,0.45001-1.79102,0.677-2.87701,0.677c-0.88101,0-1.63199-0.17999-2.24701-0.53
		c-0.61398-0.35498-1.10199-0.845-1.46198-1.465c-0.35501-0.629-0.535-1.297-0.535-2.01999c0-1.15601,0.405-2.121,1.229-2.905
		c0.81998-0.785,1.83298-1.177,3.03598-1.177c0.832,0,1.754,0.21701,2.76901,0.65201v1.215
		C50.616,32.31,49.70898,32.047,48.82397,32.047c-0.901,0-1.65598,0.28702-2.25098,0.86002
		c-0.60101,0.57098-0.90002,1.28299-0.90002,2.147c0,0.867,0.298,1.57999,0.88303,2.13901
		c0.59299,0.556,1.34399,0.83698,2.25998,0.83698C49.77298,38.03,50.70898,37.733,51.625,37.14502 M231.08798,25.77103
		c1.73798,0,3.172-0.31802,4.30499-0.95602c1.13202-0.63998,1.70001-1.44498,1.70001-2.41599
		c0-0.96201-0.57001-1.76199-1.72003-2.41c-1.151-0.64001-2.57898-0.96201-4.28497-0.96201
		c-1.72998,0-3.16602,0.32199-4.29901,0.95901c-1.13397,0.63998-1.703,1.444-1.703,2.41299c0,0.97998,0.55603,1.789,1.67603,2.418
		C227.87796,25.45401,229.32498,25.77103,231.08798,25.77103 M243.35098,22.39902c0,0.82498-0.30298,1.60001-0.90997,2.31799
		c-0.604,0.72299-1.48804,1.36801-2.64703,1.936c-1.17401,0.565-2.51099,1.00198-4.01501,1.30899
		c-1.50397,0.30402-3.06598,0.45599-4.69098,0.45599c-1.64099,0-3.21002-0.15198-4.70703-0.45599
		c-1.50299-0.30701-2.81799-0.74399-3.96198-1.30899c-1.18097-0.56799-2.07202-1.21399-2.69098-1.94202
		c-0.60901-0.728-0.91199-1.49597-0.91199-2.31198c0-0.82101,0.30298-1.59302,0.91199-2.31702
		c0.61896-0.72299,1.51001-1.37198,2.69098-1.94299c1.14398-0.564,2.45898-0.99799,3.96198-1.30399
		c1.49701-0.30402,3.06604-0.45502,4.70703-0.45502c1.63599,0,3.20398,0.151,4.71198,0.45502
		c1.51501,0.306,2.84003,0.73999,3.99402,1.30399c1.151,0.565,2.026,1.211,2.64398,1.939
		C243.048,20.80502,243.35098,21.578,243.35098,22.39902 M205.89999,28.11401v-8.76401H200.755V16.638h16.53897v2.71201h-5.14099
		v8.76401H205.89999z M177.41199,16.638h6.24002v5.582c0,0.82101,0.04099,1.40802,0.12198,1.76602
		c0.08902,0.35599,0.22601,0.65698,0.43002,0.89798c0.23798,0.29102,0.65698,0.513,1.24899,0.672
		c0.59598,0.15201,1.32498,0.22702,2.177,0.22702c0.85999,0,1.58099-0.07501,2.17499-0.22702
		c0.59-0.159,1.01102-0.38098,1.26102-0.672c0.19998-0.241,0.34-0.54199,0.42398-0.89798
		c0.082-0.358,0.12302-0.94501,0.12302-1.76602v-0.785v-4.797h6.22598v6.06802c0,1.25598-0.147,2.18198-0.457,2.78598
		c-0.30499,0.59702-0.81299,1.10501-1.535,1.53c-0.77899,0.466-1.86298,0.815-3.22598,1.04901
		c-1.371,0.23099-3.034,0.34698-4.991,0.34698c-1.961,0-3.625-0.116-4.99002-0.34698
		c-1.36697-0.23401-2.44699-0.58301-3.23798-1.04901c-0.70901-0.42499-1.22101-0.93298-1.53-1.53
		c-0.30301-0.604-0.46002-1.53-0.46002-2.78598V21.513V16.638z M150.19699,28.11401V16.638h6.034l8.668,5.90302
		c0.16901,0.11899,0.44101,0.35999,0.827,0.72501c0.38101,0.362,0.797,0.79498,1.25601,1.297
		c-0.12201-0.47702-0.215-0.89999-0.27402-1.272c-0.05798-0.367-0.08499-0.69699-0.08499-0.98599V16.638h6.00299v11.47601h-6.00299
		l-8.66699-5.92801c-0.17902-0.11899-0.45502-0.36099-0.83899-0.72299c-0.38303-0.366-0.79501-0.79001-1.242-1.284
		c0.12198,0.48099,0.21298,0.90698,0.27499,1.28c0.056,0.36801,0.08099,0.698,0.08099,0.98801v5.66699H150.19699z M138.828,16.638
		h6.323v11.47702h-6.323V16.638z M135.30099,28.11401h-5.84601l-1.35199-4.96201c-0.08902-0.35098-0.177-0.742-0.25601-1.16599
		c-0.07999-0.43002-0.14999-0.90002-0.216-1.40402c-0.14099,0.483-0.42999,1.09201-0.858,1.81702
		c-0.09399,0.151-0.16199,0.26599-0.203,0.336l-3.12,5.379h-4.168l-3.12198-5.379c-0.04001-0.07001-0.10501-0.185-0.19-0.336
		c-0.435-0.72501-0.72302-1.33099-0.85501-1.80899c-0.069,0.43198-0.142,0.86099-0.22299,1.284
		c-0.086,0.431-0.185,0.85199-0.30002,1.27798l-1.34799,4.96201h-5.819l3.54599-11.47601h6.19101l3.466,5.91901
		c0.02301,0.039,0.06299,0.108,0.12299,0.202c0.32901,0.52902,0.53101,0.979,0.61502,1.35602
		c0.04199-0.202,0.11899-0.42801,0.229-0.677c0.11899-0.24802,0.276-0.54901,0.47498-0.897l3.49802-5.90302h6.20898
		L135.30099,28.11401z M97.61298,16.638h6.31802v11.47702h-6.31802V16.638z M70.09998,28.11401V16.638h6.039l8.66702,5.90302
		c0.16599,0.11899,0.43799,0.35999,0.82498,0.72501c0.38,0.362,0.797,0.79498,1.25702,1.297
		c-0.11801-0.47702-0.215-0.89999-0.271-1.272c-0.05902-0.367-0.08701-0.69699-0.08701-0.98599V16.638h6.00198v11.47601H86.53
		L77.86298,22.186c-0.17798-0.11899-0.457-0.36099-0.845-0.72299c-0.379-0.366-0.78897-0.79001-1.23898-1.284
		c0.12601,0.48099,0.215,0.90698,0.27301,1.28c0.06,0.36801,0.08698,0.698,0.08698,0.98801v5.66699H70.09998z M44.647,16.659h6.241
		v5.578c0,0.82401,0.04099,1.41,0.121,1.77103c0.08197,0.35797,0.228,0.65298,0.42798,0.89499
		c0.241,0.29099,0.65802,0.51599,1.25,0.672c0.59799,0.155,1.32401,0.23001,2.17999,0.23001
		c0.85602,0,1.578-0.07501,2.17502-0.23001c0.586-0.15201,1.01001-0.37701,1.254-0.672
		c0.20499-0.242,0.34698-0.53702,0.43201-0.89499c0.082-0.36102,0.12-0.94702,0.12-1.77103v-0.78497V16.659h6.22299v6.06702
		c0,1.25699-0.14899,2.185-0.453,2.78699c-0.306,0.599-0.81699,1.10101-1.535,1.53101c-0.78299,0.46402-1.86398,0.81302-3.229,1.047
		c-1.36798,0.23199-3.034,0.34601-4.987,0.34601c-1.96198,0-3.625-0.11401-4.99197-0.34601
		c-1.36401-0.23398-2.44901-0.578-3.23502-1.047c-0.71701-0.423-1.22598-0.93201-1.534-1.53101
		c-0.30499-0.60199-0.45898-1.53-0.45898-2.78699v-1.194V16.659z"/>
	<path class="st1" d="M27.086,22.888v9.858h1.44098c1.23502,0,2.10901-0.12698,2.63101-0.38599
		c0.517-0.259,0.92599-0.70801,1.22299-1.35501c0.29401-0.64001,0.43701-1.689,0.43701-3.13501
		c0-1.91-0.32602-3.21698-0.98401-3.92499c-0.66101-0.707-1.75299-1.05701-3.27798-1.05701H27.086z M21.194,18.79602h8.75299
		c1.724,0,3.116,0.22299,4.18399,0.66699c1.06,0.44501,1.939,1.077,2.63,1.91c0.69199,0.82999,1.194,1.79398,1.51001,2.89099
		c0.31299,1.104,0.465,2.267,0.465,3.495c0,1.93399-0.228,3.431-0.69601,4.492c-0.46201,1.064-1.10498,1.95401-1.931,2.668
		c-0.82199,0.71899-1.707,1.198-2.64899,1.43701c-1.29199,0.32898-2.46301,0.49399-3.513,0.49399H21.194V18.79602z M0,18.80899
		h6.26797l4.67001,3.77802l4.953-3.77802h5.55099v18.052h-5.996V26.74402l-4.72,5.345L10.422,32.18301l-4.216-5.15701v9.83499H0
		V18.80899z"/>
	<path class="st2" d="M28.02301,21.94998V31.81h1.44098c1.23502,0,2.11002-0.12601,2.63101-0.38501
		c0.51801-0.25998,0.927-0.71399,1.22299-1.35699c0.29202-0.642,0.43701-1.69,0.43701-3.13599
		c0-1.91101-0.328-3.21802-0.983-3.92502c-0.66-0.70398-1.754-1.05701-3.28-1.05701H28.02301z M22.133,17.85901h8.75
		c1.724,0,3.11801,0.21997,4.18701,0.66397c1.05701,0.44702,1.93799,1.07901,2.62698,1.91
		c0.69601,0.832,1.19601,1.793,1.513,2.89301c0.311,1.104,0.46402,2.267,0.46402,3.5c0,1.92902-0.229,3.42599-0.698,4.487
		c-0.45901,1.061-1.104,1.95502-1.92801,2.66501c-0.82199,0.72198-1.70599,1.202-2.65298,1.44101
		C33.104,35.74698,31.93201,35.91,30.883,35.91h-8.75V17.85901z M0.93802,17.87198h6.26797l4.67001,3.78101l4.95801-3.78101H22.38
		v18.05402H16.383V25.80701L11.664,31.14999l-0.30399,0.09399l-4.216-5.15799v9.84H0.93802V17.87198z"/>
	<polygon class="st1" points="18.60001,0.944 19.06299,2.08502 19.98999,2.79901 20.60599,4.08502 20.298,6.36801 
		20.76599,14.36203 22.15399,14.21902 22.927,12.93301 24.164,12.22 25.09,11.64902 26.32898,11.64902 27.409,10.93402 
		28.79898,9.79501 30.03699,8.93701 31.27499,8.22101 32.978,6.93903 33.90198,5.79602 35.60199,5.08301 36.83701,4.08502 
		38.07599,4.94202 38.07599,6.36801 37.14798,7.08301 34.828,8.50803 32.20099,10.367 31.11798,11.64902 29.42099,11.93402 
		28.64798,12.79102 27.099,13.505 26.32898,14.21902 24.62799,15.5 22.77399,16.78802 21.22598,17.79001 21.073,20.49902 
		21.073,23.92401 21.073,27.63602 21.69098,32.34601 22.30698,36.056 22.00098,39.056 22.466,41.90601 23.08099,46.04602 
		23.08099,47.04602 22.927,49.18802 23.23599,53.89902 22.621,56.46701 23.08099,57.61102 20.298,56.46701 19.681,55.32602 
		20.453,45.19101 19.98999,41.194 19.21899,38.62802 19.21899,34.05801 18.44498,31.34601 18.44498,27.49503 18.289,20.35602 
		17.82599,18.92801 15.66098,19.785 13.65298,21.069 12.88,22.63901 10.715,24.06702 7.77899,25.49503 5.30798,27.06403 
		2.83099,28.77502 1.44199,29.34702 0.36099,29.34702 0.05099,28.63303 0.05099,27.49503 2.05798,26.35101 4.84399,24.923 
		7.16199,23.06403 9.01498,21.49701 10.87198,19.64102 11.797,19.07001 12.57199,17.92902 14.272,16.92801 15.508,16.21701 
		17.82599,15.5 17.362,4.65302 16.89999,2.65402 	"/>
	<polygon class="st3" points="19.832,0.39899 20.29199,1.54102 21.21799,2.255 21.83698,3.54001 21.53,5.82101 21.995,13.81601 
		23.38699,13.672 24.15997,12.39001 25.39398,11.67401 26.323,11.104 27.56097,11.104 28.642,10.39001 30.03299,9.25 
		31.26999,8.392 32.50598,7.67999 34.20599,6.39499 35.13397,5.25201 36.83298,4.53601 38.06497,3.54001 39.30499,4.396 
		39.30499,5.82101 38.379,6.53699 36.06097,7.965 33.43198,9.819 32.35098,11.104 30.64899,11.39001 29.87997,12.24701 
		28.332,12.95999 27.56097,13.672 25.85699,14.95599 24.00497,16.241 22.45798,17.242 22.30499,19.952 22.30499,23.37799 
		22.30499,27.091 22.92099,31.80499 23.54199,35.51099 23.23099,38.508 23.69498,41.367 24.314,45.50201 24.314,46.50299 
		24.15997,48.642 24.46597,53.35501 23.84598,55.922 24.314,57.06799 21.53,55.922 20.91199,54.784 21.685,44.647 
		21.21799,40.65201 20.44598,38.082 20.44598,33.51401 19.67697,30.80099 19.67697,26.948 19.521,19.81 19.05899,18.38101 
		16.89398,19.23901 14.88397,20.526 14.10999,22.09601 11.944,23.52301 9.00897,24.95001 6.53799,26.521 4.06299,28.23199 
		2.66998,28.80301 1.59097,28.80301 1.28,28.09 1.28,26.948 3.293,25.806 6.07199,24.37799 8.392,22.526 10.24698,20.95401 
		12.103,19.09702 13.02698,18.52499 13.79999,17.38501 15.5,16.38501 16.737,15.673 19.05899,14.95599 18.59299,4.11002 
		18.13098,2.11401 	"/>
	<path class="st4" d="M24.72202,57.478L21.371,56.10199l-0.68799-1.272l0.77899-10.198l-0.465-3.95599l-0.772-2.59399v-4.53601
		L19.453,30.802v-3.854l-0.155-7.09698l-0.38-1.17001l-1.94299,0.767l-1.91699,1.23199l-0.771,1.57001L12.069,23.70999
		L9.11002,25.151l-2.45502,1.561L4.19299,28.418l-1.52298,0.61002H1.44501l-0.388-0.93701v-1.27402L3.181,25.612l2.79199-1.431
		L8.25,22.35199l1.854-1.56799l1.841-1.84399l0.92401-0.578l0.81799-1.17001l2.94098-1.71198l2.20203-0.685L18.37,4.12201
		L17.883,2.043L19.91101,0l0.569,1.40201l0.944,0.75598l0.647,1.34702l-0.31802,2.35001l0.45401,7.716l1.04199-0.108l0.74701-1.237
		l1.285-0.74503l0.978-0.60199h1.233l1.02701-0.67599L29.888,9.078l1.25299-0.87l1.25-0.72302L34.07001,6.215l0.974-1.16901
		L36.71802,4.345L38.06,3.26199l1.47,1.017V5.935L38.51401,6.716L36.177,8.155l-2.59299,1.82999l-1.117,1.32901l-1.703,0.28799
		L29.97,12.44901l-1.51099,0.70099L27.711,13.83701L25.992,15.13699l-1.862,1.29199l-1.45499,0.93903L22.53,19.965v7.12701
		l0.61301,4.68198l0.62399,3.729l-0.31,3.00201l0.45599,2.82599l0.62402,4.14401l0.00198,1.02798l-0.15799,2.15802l0.31299,4.71198
		l-0.61099,2.53302L24.72202,57.478z M21.68802,55.74799l2.21799,0.90802l-0.293-0.715l0.629-2.60602l-0.30499-4.67398
		l0.15198-2.17599v-0.983l-0.616-4.10303L23.004,38.51501l0.31201-2.99802l-0.616-3.67899L22.08099,27.121V19.952l0.159-2.83701
		L23.88,16.05801l1.85101-1.28403L27.422,13.496l0.81302-0.737l1.509-0.69699l0.79199-0.87802l1.698-0.28699l1.06601-1.26001
		l2.63199-1.85599L38.263,6.349l0.82101-0.634V4.51801l-1.005-0.70001L36.918,4.74399L35.271,5.436l-0.892,1.10001l-1.73898,1.32498
		L31.379,8.58701L30.16,9.43301L28.785,10.564L27.62701,11.328h-1.241L25.513,11.86499L24.32101,12.552l-0.802,1.336l-1.733,0.17499
		l-0.48001-8.228l0.30301-2.258L21.04102,2.401l-0.93201-0.72l-0.358-0.883l-1.37601,1.384l0.43701,1.879l0.479,11.06l-2.487,0.767
		l-2.845,1.66699L13.14499,18.72l-0.92697,0.57199l-1.815,1.82001l-1.866,1.58301L6.215,24.556l-2.819,1.452l-1.88998,1.07101v0.965
		l0.23199,0.535H2.629L3.98001,28.026l2.42599-1.69l2.48499-1.57599l2.95502-1.44101l2.091-1.37799l0.77298-1.569l2.06201-1.319
		L19.198,18.09l0.55002,1.71701l0.15198,7.13498V30.772l0.77502,2.74301v4.53598l0.758,2.53702l0.47498,4.03497l-0.76797,10.11203
		L21.68802,55.74799z"/>
</g>
</svg>
